<svg xmlns="http://www.w3.org/2000/svg" viewBox="0 0 705.15 575.9"><g fill="#181818"><path d="M672.54 296.07c-9.02 1.04-16.37 6.93-20.54 11.1 2.07-9.67 3.54-19.51 4.4-29.48 4.7 2.23 15.09 6.18 25.03 3.31 13.39-3.86 20.89-18.66 20.89-18.66s-14.22-8.53-27.62-4.66c-8.39 2.42-14.47 9.13-17.83 13.81.3-4.99.46-10.02.46-15.07 0-5.53-.2-11.04-.57-16.51 4.87 1.38 15.52 3.51 24.62-.86 12.25-5.89 17.06-21.32 17.06-21.32s-15.06-5.89-27.31 0c-7.63 3.67-12.37 11.03-14.86 16.07-.89-9.54-2.34-18.97-4.33-28.25 5.01.53 15.38.77 23.3-4.8 10.84-7.62 12.99-23.24 12.99-23.24s-15.42-3.25-26.26 4.37c-6.48 4.56-9.85 11.97-11.52 17.2-2.25-9.17-5.04-18.19-8.36-27.02 4.93-.29 14.88-1.71 21.59-8.29 9.23-9.04 8.83-24.41 8.83-24.41s-15.35-.7-24.58 8.34c-5.4 5.3-7.51 12.76-8.32 18.04-3.85-9.41-8.31-18.58-13.38-27.48 4.68-1.03 14.1-3.93 19.57-11.33 7.48-10.14 4.72-24.86 4.72-24.86s-14.89 1.7-22.37 11.84c-4.41 5.97-5.26 13.54-5.22 18.75-3.62-5.98-7.51-11.83-11.68-17.53-1.99-2.73-4.04-5.4-6.13-8.03 4.32-1.68 13.02-5.92 17.18-13.94 5.65-10.9.74-24.67.74-24.67s-14.08 3.92-19.73 14.82c-3.36 6.47-2.99 13.95-2.14 18.97-6.47-7.71-13.36-14.97-20.65-21.75 4-2.39 11.37-7.73 14.07-15.85 3.77-11.37-3.06-23.86-3.06-23.86s-12.95 5.93-16.73 17.29c-2.12 6.38-.89 13.12.59 17.8a240.46 240.46 0 0 0-20.91-16.36c3.48-2.92 9.74-9.2 11.08-17.42 1.88-11.52-6.63-22.5-6.63-22.5s-11.56 7.71-13.43 19.23c-1.03 6.34 1.07 12.5 3.18 16.77-7.61-4.97-15.52-9.51-23.69-13.59 2.88-3.33 8-10.4 8-18.58 0-11.38-9.91-20.61-9.91-20.61s-9.91 9.23-9.91 20.61c0 6.25 2.98 11.84 5.68 15.62-5.48-2.55-11.08-4.9-16.78-7.04-1.87-3.3-5.3-7.99-10.49-10.16-8.46-3.54-18.39.96-18.39.96s3.78 10.23 12.23 13.77c5.1 2.13 10.74 1.34 14.41.38 4.34 1.62 8.61 3.37 12.81 5.23-3.14.06-6.68.67-9.84 2.49-8.02 4.63-10.49 15.36-10.49 15.36s10.53 3.23 18.55-1.4c5.53-3.19 8.42-9.29 9.69-12.77 7.99 3.9 15.7 8.22 23.1 12.94-3.18-.45-6.86-.42-10.35.9-8.88 3.36-13.16 13.82-13.16 13.82s10.13 5.01 19.01 1.64c6.18-2.34 10.13-8.11 11.96-11.41 6.97 4.82 13.64 10 20 15.51-3.17-.99-6.93-1.59-10.72-.81-9.54 1.96-15.57 11.86-15.57 11.86s9.44 6.71 18.98 4.75c6.72-1.38 11.69-6.7 14.05-9.72a233.56 233.56 0 0 1 20.12 21.39c-3.11-1.59-6.94-2.89-11.04-2.7-9.98.45-17.68 9.51-17.68 9.51s8.49 8.32 18.47 7.87c7.09-.32 13.01-4.98 15.86-7.65a235.45 235.45 0 0 1 13.67 19.87c-2.81-1.96-6.31-3.7-10.25-4.15-10.18-1.15-19.44 6.78-19.44 6.78s7.25 9.8 17.44 10.94c7.17.81 13.86-2.88 17.21-5.13 3.74 6.69 7.15 13.58 10.22 20.63-2.5-2.37-5.68-4.6-9.49-5.66-10.12-2.82-20.79 3.7-20.79 3.7s5.75 11.1 15.87 13.92c7.15 1.99 14.56-.67 18.3-2.41 2.69 6.99 5.04 14.13 7.06 21.4-2.1-2.7-4.88-5.34-8.41-6.98-9.78-4.53-21.65.3-21.65.3s3.98 12.19 13.76 16.72c6.94 3.22 14.92 1.72 18.98.57 1.66 7.31 2.98 14.74 3.94 22.26-1.66-2.99-3.98-5.99-7.16-8.17-9.13-6.24-21.96-3.35-21.96-3.35s1.97 13 11.1 19.24c6.53 4.46 14.94 4.25 19.21 3.77.47 6.07.72 12.19.72 18.36l-.05 4.54c-1.18-3.22-2.98-6.55-5.76-9.23-8.17-7.86-21.64-7.13-21.64-7.13s-.22 13.49 7.95 21.35c5.9 5.68 14.56 6.87 18.92 7.1-.54 7.77-1.44 15.47-2.72 23.06-.65-3.44-1.91-7.08-4.25-10.23-6.93-9.34-20.68-10.88-20.68-10.88s-2.51 13.6 4.42 22.94c5.07 6.83 13.77 9.48 18.09 10.42-1.76 7.84-3.93 15.57-6.49 23.15-.06-3.63-.73-7.59-2.59-11.22-5.45-10.61-19.11-14.46-19.11-14.46s-4.82 13.35.64 23.96c4.03 7.83 12.52 11.98 16.69 13.62-2.88 7.2-6.13 14.26-9.74 21.17.52-3.67.49-7.75-.79-11.72-3.78-11.64-16.97-17.78-16.97-17.78s-7.07 12.72-3.29 24.36c2.79 8.6 10.72 14.19 14.67 16.53a234.09 234.09 0 0 1-10.35 15.86c.96-3.43 1.46-7.26.85-11.17-1.95-12.4-14.31-20.75-14.31-20.75s-9.21 11.74-7.27 24.14c1.44 9.15 8.54 16.09 12.17 19.1a234.35 234.35 0 0 1-13.99 15.85c1.56-3.35 2.71-7.21 2.72-11.32.02-12.87-11.16-23.32-11.16-23.32s-11.22 10.41-11.24 23.28c-.02 9.59 6.19 17.83 9.35 21.41-5.29 4.85-10.8 9.45-16.5 13.78 2.02-3.07 3.71-6.68 4.36-10.7 2.1-13.03-7.54-25.42-7.54-25.42s-13.05 8.74-15.14 21.77c-1.56 9.66 3.34 18.96 5.98 23.13-5.99 3.98-12.16 7.68-18.48 11.09 2.63-2.82 5.01-6.26 6.36-10.33 4.26-12.85-3.48-26.97-3.48-26.97s-14.64 6.71-18.89 19.56c-3.19 9.64.36 19.99 2.34 24.56-6.87 3.15-13.89 5.96-21.04 8.43 3.11-2.41 6.08-5.49 8.11-9.36 6.45-12.3.97-27.88.97-27.88s-15.93 4.36-22.38 16.65c-4.82 9.2-2.97 20.24-1.73 25.21l-4.18 1.09c-13.88 3.44-28.11 5.61-42.48 6.47.43-2 1.83-4.03 3-5.72 1.3-1.86 2.32-3.34 2.32-4.9v-.1-.03c-.01-2.46-1.71-3.28-3.08-3.83l-.26-.21c-6.99-5.64-15.64-12.61-23.2-13-3.88-5.71-10.21-9.08-17.17-9.08-1.57 0-3.13.18-4.65.52l-2.34-.88c-1.76-.62-2.97-.98-4.04-1.29l-.98-.29c-2.36-.71-3.49-1.26-4.49-1.74-.98-.47-1.91-.92-3.53-1.28-2.28-.5-4.7-.55-7.21-.15-2.53-.85-5.24-1.21-7.88-1.02-2.14.15-4.22.65-6.2 1.46-2.09-.96-4.37-1.53-6.66-1.66a18.45 18.45 0 0 0-7.6 1.21 54.44 54.44 0 0 0-2.55.14c-.76.06-3.09.24-5.44.7-1.95.39-3 .8-4.21 1.27-1.04.41-2.33.91-4.71 1.6l-.13.04c-.65.19-1.73.5-3.19 1-.79.28-1.59.57-2.36.88-1.52-.35-3.08-.52-4.64-.52-6.95 0-13.29 3.38-17.17 9.08-7.56.39-16.21 7.37-23.2 13l-.26.21c-1.38.55-3.08 1.38-3.08 3.86v.09c0 1.56 1.02 3.04 2.32 4.9 1.17 1.68 2.56 3.7 2.99 5.7-13.99-.86-27.86-2.95-41.38-6.25l-4.94-1.28c1.24-4.98 3.09-16.01-1.73-25.21-6.45-12.3-22.38-16.65-22.38-16.65s-5.48 15.58.97 27.88c2.03 3.87 4.99 6.95 8.11 9.36-7.15-2.47-14.17-5.28-21.04-8.43 1.98-4.58 5.53-14.93 2.34-24.56-4.26-12.85-18.89-19.56-18.89-19.56s-7.74 14.12-3.48 26.97c1.35 4.06 3.73 7.51 6.36 10.33-6.32-3.41-12.49-7.12-18.48-11.09 2.64-4.17 7.53-13.47 5.98-23.13-2.1-13.03-15.14-21.77-15.14-21.77s-9.64 12.39-7.54 25.42c.65 4.02 2.34 7.62 4.36 10.7-5.7-4.34-11.2-8.94-16.5-13.78 3.16-3.58 9.37-11.82 9.35-21.41-.02-12.87-11.24-23.28-11.24-23.28s-11.19 10.45-11.16 23.32c0 4.11 1.16 7.97 2.72 11.32a231.48 231.48 0 0 1-13.98-15.85c3.63-3.01 10.73-9.95 12.17-19.1 1.95-12.4-7.27-24.14-7.27-24.14s-12.37 8.36-14.31 20.75c-.61 3.9-.12 7.74.85 11.17a234.09 234.09 0 0 1-10.35-15.86c3.95-2.34 11.88-7.93 14.67-16.53 3.78-11.64-3.29-24.36-3.29-24.36s-13.19 6.14-16.97 17.78c-1.29 3.96-1.31 8.05-.79 11.72-3.61-6.9-6.86-13.97-9.74-21.17 4.17-1.64 12.66-5.78 16.69-13.62 5.45-10.61.64-23.96.64-23.96s-13.66 3.85-19.11 14.46c-1.87 3.63-2.53 7.59-2.59 11.22-2.56-7.59-4.73-15.31-6.49-23.15 4.32-.94 13.02-3.59 18.09-10.42 6.93-9.34 4.42-22.94 4.42-22.94s-13.75 1.54-20.68 10.88c-2.34 3.15-3.6 6.79-4.25 10.23-1.28-7.6-2.19-15.29-2.72-23.06 4.36-.22 13.02-1.42 18.92-7.1 8.17-7.86 7.95-21.35 7.95-21.35s-13.47-.74-21.64 7.13c-2.78 2.68-4.59 6-5.76 9.23l-.05-4.54c0-6.17.24-12.29.72-18.36 4.27.48 12.68.69 19.21-3.77 9.13-6.24 11.1-19.24 11.1-19.24s-12.83-2.89-21.96 3.35c-3.19 2.18-5.5 5.18-7.16 8.17.96-7.52 2.28-14.95 3.94-22.26 4.06 1.14 12.04 2.64 18.98-.57C87.97 199.19 91.95 187 91.95 187s-11.87-4.84-21.65-.3c-3.53 1.64-6.31 4.28-8.41 6.98a230.91 230.91 0 0 1 7.06-21.4c3.74 1.74 11.15 4.41 18.3 2.41 10.12-2.82 15.87-13.92 15.87-13.92s-10.66-6.53-20.79-3.7c-3.8 1.06-6.99 3.29-9.49 5.66 3.07-7.05 6.49-13.94 10.22-20.63 3.34 2.26 10.04 5.94 17.21 5.13 10.18-1.15 17.44-10.94 17.44-10.94s-9.25-7.93-19.44-6.78c-3.94.44-7.44 2.18-10.25 4.15 4.21-6.85 8.78-13.48 13.67-19.87 2.84 2.67 8.77 7.33 15.86 7.65 9.98.45 18.47-7.87 18.47-7.87s-7.7-9.06-17.68-9.51c-4.1-.19-7.93 1.11-11.04 2.7 6.24-7.53 12.96-14.67 20.12-21.39 2.35 3.02 7.33 8.34 14.05 9.72 9.54 1.96 18.98-4.75 18.98-4.75s-6.03-9.9-15.57-11.86c-3.79-.78-7.55-.19-10.72.81 6.36-5.51 13.03-10.69 20-15.51 1.83 3.3 5.78 9.07 11.96 11.41 8.88 3.36 19.01-1.64 19.01-1.64s-4.27-10.46-13.16-13.82c-3.49-1.32-7.17-1.35-10.35-.9 7.4-4.72 15.11-9.04 23.1-12.94 1.26 3.48 4.15 9.58 9.69 12.77 8.02 4.63 18.55 1.4 18.55 1.4s-2.47-10.73-10.49-15.36c-3.16-1.82-6.7-2.42-9.84-2.49a240.09 240.09 0 0 1 12.81-5.23c3.67.96 9.31 1.75 14.41-.38 8.46-3.54 12.23-13.77 12.23-13.77s-9.94-4.49-18.39-.96c-5.19 2.17-8.61 6.85-10.49 10.16-5.7 2.14-11.3 4.49-16.78 7.04 2.69-3.78 5.68-9.37 5.68-15.62 0-11.38-9.91-20.61-9.91-20.61s-9.91 9.23-9.91 20.61c0 8.18 5.12 15.25 8 18.58-8.17 4.08-16.08 8.62-23.69 13.59 2.11-4.27 4.21-10.44 3.18-16.77-1.88-11.52-13.43-19.23-13.43-19.23s-8.51 10.98-6.63 22.5c1.34 8.22 7.6 14.49 11.08 17.42a236.65 236.65 0 0 0-20.91 16.36c1.48-4.68 2.71-11.42.59-17.8-3.77-11.37-16.73-17.29-16.73-17.29s-6.83 12.5-3.06 23.86c2.7 8.12 10.07 13.46 14.07 15.85a240.19 240.19 0 0 0-20.65 21.75c.85-5.01 1.22-12.49-2.14-18.97-5.65-10.9-19.73-14.82-19.73-14.82s-4.91 13.76.74 24.67c4.16 8.02 12.86 12.26 17.18 13.94-2.09 2.63-4.14 5.3-6.13 8.03-4.17 5.7-8.06 11.55-11.68 17.53.04-5.21-.81-12.78-5.22-18.75-7.48-10.14-22.37-11.84-22.37-11.84s-2.76 14.73 4.73 24.86c5.47 7.41 14.89 10.31 19.57 11.33-5.06 8.9-9.53 18.08-13.38 27.48-.82-5.28-2.92-12.74-8.32-18.04-9.23-9.04-24.58-8.34-24.58-8.34s-.39 15.36 8.83 24.41c6.71 6.58 16.66 8 21.59 8.29-3.32 8.83-6.11 17.84-8.36 27.02-1.67-5.23-5.04-12.64-11.52-17.2-10.84-7.62-26.26-4.37-26.26-4.37s2.15 15.62 12.99 23.24c7.93 5.58 18.3 5.33 23.3 4.8a237.7 237.7 0 0 0-4.33 28.25c-2.49-5.04-7.23-12.41-14.86-16.07-12.25-5.89-27.31 0-27.31 0s4.81 15.44 17.06 21.32c9.1 4.37 19.75 2.24 24.62.86-.37 5.47-.57 10.98-.57 16.51 0 5.05.16 10.08.46 15.07-3.37-4.67-9.44-11.39-17.83-13.81-13.39-3.86-27.62 4.66-27.62 4.66s7.49 14.79 20.89 18.66c9.94 2.87 20.32-1.08 25.03-3.31.86 9.97 2.33 19.81 4.4 29.48-4.17-4.17-11.53-10.06-20.54-11.1-14.2-1.64-27.14 9.4-27.14 9.4s10.09 13.69 24.29 15.33c10.55 1.22 20.4-4.56 24.77-7.61 2.24 9.29 5.03 18.41 8.38 27.33-4.88-3.54-13.44-8.46-22.92-8-14.65.72-25.9 14.05-25.9 14.05s12.5 12.17 27.14 11.45c10.94-.54 19.98-8.1 23.86-11.9 3.42 8.46 7.33 16.73 11.74 24.79-5.5-2.79-15.04-6.42-24.61-4.38-14.71 3.13-23.91 18.47-23.91 18.47s14.65 10.27 29.36 7.14c10.93-2.33 18.82-11.4 22.15-15.9 4.35 7.49 9.13 14.78 14.33 21.85-5.99-1.96-16.4-4.21-25.9-.55-14.39 5.55-21.23 22.58-21.23 22.58s16.5 8.03 30.89 2.48c10.71-4.13 17.23-14.61 19.87-19.7l1.98 2.54c5.57 7 11.52 13.66 17.81 19.97-6.33-1.05-17.43-1.75-26.6 3.56-13.69 7.93-17.88 26.28-17.88 26.28s18 5.49 31.69-2.45c10.25-5.94 15.18-17.72 17-23.27 7.02 6.71 14.44 12.98 22.2 18.79-6.48-.1-18.27.82-26.96 7.89-12.58 10.24-13.87 29.5-13.87 29.5s19.12 2.65 31.7-7.59c9.59-7.8 12.61-20.83 13.51-26.6 8.32 5.94 17 11.34 26 16.18-6.42.86-18.76 3.62-26.65 12.49-11.07 12.43-9.22 32.14-9.22 32.14s19.79-.44 30.86-12.87c8.6-9.66 9.4-23.71 9.33-29.5 9.09 4.65 18.48 8.73 28.1 12.19-6.46 2.03-18.07 6.89-24.43 16.94-9.13 14.42-3.97 34.06-3.97 34.06s19.96-3.75 29.09-18.17c6.94-10.97 5.62-24.94 4.6-31.02a237.34 237.34 0 0 0 17.82 5.16h.03c.11.03.22.06.33.08.03 0 .06 0 .08.01a240.21 240.21 0 0 0 42.63 6.35c.79 8.09 3.83 15.67 8.92 22.14 1.25 1.59 2.69 5.47 2.75 6.26a4.11 4.11 0 0 0 4.11 4.11c.51 0 .98-.11 1.41-.3.09.32.2.64.3.96-.36 2.35-.36 6.8-.36 7 0 13.54 6.24 23.2 17.57 27.19 2.24.79 4.32 1.34 6.4 1.69 2.1 1.08 4.87 1.61 8.43 1.61 2.93 0 5.25-.26 7.56-1.5a31.56 31.56 0 0 1 3.95.49c1.31.24 3.1.72 4 .96.23.28 1.97 2.07 2.05 2.14 3.03 3.07 7.29 4.7 12.33 4.7h.05c.99 0 1.97-.07 2.93-.2.45-.06.9-.14 1.32-.23l.38-.08c3.05-.7 5.63-2.11 7.68-4.18.22-.19 2.06-2.14 2.13-2.22.95-.27 1.95-.51 3.04-.73.28-.06 1-.19 1.01-.19a32.59 32.59 0 0 1 3.85-.47c.07.04.14.07.2.1 2.55 1.24 5.7 1.4 8.15 1.4s4.98-.2 7.66-1.62c2.03-.34 4.11-.9 6.34-1.69 11.33-3.99 17.57-13.65 17.57-27.21 0-1.09-.03-4.8-.4-6.83.1-.36.21-.7.31-1.04.44.14.91.21 1.43.21 2.27 0 4.11-1.84 4.11-4.07.07-.83 1.5-4.71 2.75-6.3a46.01 46.01 0 0 0 1.05-1.39c4.45-6.16 7.13-13.26 7.87-20.75 14.47-.83 28.81-2.95 42.81-6.34.08-.01.16 0 .24-.03.38-.09.76-.2 1.13-.29a2.63 2.63 0 0 1 .13-.03c.01 0 .02 0 .03-.01 5.7-1.43 11.33-3.07 16.9-4.92-1.03 6.07-2.35 20.05 4.6 31.02 9.13 14.42 29.09 18.17 29.09 18.17s5.16-19.64-3.97-34.06c-6.36-10.05-17.97-14.91-24.43-16.94 9.62-3.45 19.01-7.53 28.1-12.19-.07 5.79.73 19.84 9.33 29.5 11.07 12.43 30.86 12.87 30.86 12.87s1.85-19.71-9.22-32.14c-7.9-8.87-20.23-11.64-26.65-12.49 8.99-4.83 17.68-10.24 26-16.18.9 5.77 3.93 18.79 13.51 26.6 12.58 10.24 31.7 7.59 31.7 7.59s-1.28-19.26-13.87-29.5c-8.69-7.07-20.48-8-26.96-7.89a240.67 240.67 0 0 0 22.2-18.79c1.83 5.54 6.75 17.32 17 23.27 13.69 7.93 31.69 2.45 31.69 2.45s-4.19-18.35-17.88-26.28c-9.17-5.31-20.27-4.61-26.6-3.56 6.29-6.31 12.24-12.97 17.81-19.97l1.98-2.54c2.64 5.1 9.16 15.57 19.87 19.7 14.39 5.55 30.89-2.48 30.89-2.48s-6.84-17.03-21.23-22.58c-9.5-3.66-19.91-1.41-25.9.55 5.2-7.07 9.99-14.36 14.33-21.85 3.33 4.51 11.22 13.58 22.15 15.9 14.71 3.13 29.36-7.14 29.36-7.14s-9.2-15.34-23.91-18.47c-9.57-2.04-19.1 1.6-24.61 4.38a236.53 236.53 0 0 0 11.74-24.79c3.88 3.8 12.92 11.37 23.86 11.9 14.65.72 27.14-11.45 27.14-11.45s-11.25-13.33-25.9-14.05c-9.47-.46-18.04 4.46-22.92 8 3.34-8.92 6.13-18.05 8.38-27.33 4.37 3.05 14.22 8.83 24.77 7.61 14.2-1.64 24.29-15.33 24.29-15.33s-12.94-11.04-27.14-9.4zM369.57 559.39a2.32 2.32 0 0 1-2.32-2.32c0-.6.23-1.14.61-1.55l-14.5-32.95a11.63 11.63 0 0 1-.53-1.46c-.04-.12-.14-.2-.25-.2h-.11c-.11 0-.21.08-.25.2-.15.49-.33.98-.54 1.45l-14.47 32.9a2.32 2.32 0 1 1-3.99 1.61c0-1.21.93-2.19 2.11-2.3l14.53-33.01c.17-.4.33-.81.45-1.23a2.29 2.29 0 0 1 1.51-1.53v-18.32a.77.77 0 0 1 .76-.75h0c.41 0 .75.34.75.75v18.34a2.29 2.29 0 0 1 1.42 1.5c.13.42.28.83.45 1.23l14.52 33c1.22.07 2.18 1.07 2.18 2.31a2.35 2.35 0 0 1-2.32 2.32zm39.56-22.88c.27.13.56.18.84.18s.57-.08.84-.2c-.15 8.21-2.95 18.55-14.96 22.78-1.25.44-2.45.79-3.6 1.07 2.88-2.53 4.7-6.2 4.7-10.29a13.58 13.58 0 0 0-2.68-8.11c-.03-.04-.06-.09-.08-.13l-19.05-30.36s-.03-.04-.04-.06a11.39 11.39 0 0 0-6.13-4.64c-1.26-.4-2.34-1.18-3.16-2.23-.75 1.21-2.09 2.03-3.62 2.03-1.69 0-3.15-1-3.84-2.43-1.14 0-2.06-.92-2.06-2.06s.92-2.06 2.06-2.06 2.06.92 2.06 2.06c0 .6-.26 1.13-.66 1.51a2.76 2.76 0 0 0 2.44 1.49c1.3 0 2.38-.9 2.68-2.1-.05-.1-.1-.2-.14-.31-1.84-4.88-6.77-8.16-12.29-8.16s-10.45 3.28-12.29 8.16c-.01.04-.03.07-.05.11.22 1.31 1.35 2.31 2.72 2.31 1.06 0 1.97-.61 2.44-1.49a2.04 2.04 0 0 1-.66-1.51c0-1.14.92-2.06 2.06-2.06s2.06.92 2.06 2.06-.92 2.06-2.06 2.06c-.69 1.43-2.14 2.43-3.84 2.43-1.57 0-2.93-.86-3.67-2.13-.83 1.1-1.94 1.92-3.24 2.33a11.39 11.39 0 0 0-6.13 4.64c-.01.02-.03.04-.04.06l-.06.1-.02.03s-.03.04-.03.05l-18.94 30.18s-.05.09-.08.13a13.58 13.58 0 0 0-2.68 8.11c0 4.1 1.84 7.78 4.73 10.32a38.04 38.04 0 0 1-3.72-1.1c-12.01-4.23-14.8-14.56-14.96-22.78.26.12.54.2.84.2s.57-.06.84-.18a2.01 2.01 0 0 0 .98-2.66c-2.97-6.41-4.47-13.27-4.47-20.39 0-1.94.12-3.91.35-5.85 0-.08.01-.16.01-.24v-1.24c-.02-14.36-.06-38.4 23.87-48.39a1.74 1.74 0 0 0 .33-.18c.83-.34 1.68-.67 2.53-.96 1.36-.47 2.38-.76 2.99-.94l.13-.04c2.56-.73 3.95-1.28 5.07-1.71 1.16-.46 1.93-.76 3.54-1.08 2.13-.42 4.28-.59 4.99-.64.58-.05 1.17-.06 1.75-.09v2.29c0 2.12-.5 4.23-1.46 6.13a.75.75 0 0 0 .33 1.01c.11.05.22.08.34.08.27 0 .54-.15.67-.41a15.16 15.16 0 0 0 1.62-6.8v-2.44s.09-.02.14-.04a14.52 14.52 0 0 1 6.25-1.06c1.92.1 3.84.62 5.57 1.48v6.53a26.53 26.53 0 0 1-2.82 11.85c-.31.62-.06 1.37.55 1.68a1.24 1.24 0 0 0 .56.13c.46 0 .9-.25 1.12-.69.74-1.48 1.36-3.02 1.84-4.6a28.12 28.12 0 0 0 1.84 4.6c.22.44.66.69 1.12.69a1.24 1.24 0 0 0 .56-.13c.62-.31.86-1.06.55-1.68a26.53 26.53 0 0 1-2.82-11.85v-6.51c1.68-.73 3.45-1.18 5.27-1.31 2.24-.17 4.55.17 6.68.94v2.41a15.16 15.16 0 0 0 1.62 6.8c.13.26.4.41.67.41.11 0 .23-.03.34-.08a.75.75 0 0 0 .33-1.01c-.95-1.89-1.46-4.01-1.46-6.13v-2.35c2.04-.33 3.99-.31 5.79.09 1.17.26 1.77.55 2.67.98 1.07.52 2.41 1.16 5.06 1.96l1.02.3c1.02.3 2.17.63 3.83 1.22.86.3 1.71.63 2.55.97a1.74 1.74 0 0 0 .33.18c23.93 9.99 23.89 34.03 23.87 48.39v1.24c0 .08 0 .16.01.24.23 1.95.35 3.92.35 5.85 0 7.11-1.5 13.97-4.47 20.39-.46 1-.03 2.19.98 2.66zm.01-50.15c-1.72-5.36-4.75-9.15-9.55-11.91-.16-.09-16.52-9.38-21.47-9.38a9.88 9.88 0 0 0-8.53 4.82c-.57.95-2.31 4.54-2.5 4.94-.65 1.35-.98 2.8-.98 4.3 0 1.25.17 2.24.51 3.16-3.41-2.51-7.44-4.07-11.72-4.51a2.48 2.48 0 0 0-2.46-2.14 2.49 2.49 0 0 0-2.46 2.13c-4.26.42-8.27 1.95-11.68 4.43.32-.89.47-1.85.47-3.06 0-1.5-.33-2.95-.98-4.3-.2-.41-1.93-4-2.5-4.94a9.88 9.88 0 0 0-8.53-4.82c-4.95 0-21.31 9.28-21.47 9.38-4.8 2.76-7.83 6.54-9.55 11.91-.83 2.61-.9 4.77-.94 6.2-.17 5.66 1.4 11.57 4.53 17.1.14.24.39.38.65.38a.71.71 0 0 0 .37-.1.74.74 0 0 0 .28-1.02c-3-5.29-4.5-10.93-4.34-16.31.04-1.43.1-3.38.87-5.78 1.6-4.99 4.42-8.5 8.87-11.06 5-2.88 17.15-9.18 20.72-9.18 2.99 0 5.69 1.53 7.24 4.09.44.72 1.74 3.37 2.44 4.82a8.34 8.34 0 0 1 .83 3.65c0 2.55-.62 3.62-3.06 6.51-2.32 2.74-5.97 3.7-6.69 3.7a3.46 3.46 0 0 1-3.46-3.46c0-.51.16-1.03.16-1.03a3.43 3.43 0 0 1 .51-1.01.76.76 0 0 0-.16-1.05c-.33-.25-.8-.17-1.05.16a4.88 4.88 0 0 0-.73 1.46c-.02.07-.22.74-.22 1.47 0 2.74 2.23 4.96 4.96 4.96.3 0 .93-.11 1.75-.35-.02.01-.05.03-.07.05a44.86 44.86 0 0 0-5.38 3.74 10.73 10.73 0 0 0-2.31-5.61 3.11 3.11 0 0 0 .15-.92 3.22 3.22 0 0 0-3.22-3.22c-.73 0-1.39.25-1.93.65a10.46 10.46 0 0 0-3.02-.53l4-1.6c3.17-1.7 5.35-5.01 5.82-8.55.45-.35.75-.89.75-1.5a1.9 1.9 0 0 0-3.8 0 1.87 1.87 0 0 0 .53 1.31c-.52 2.71-2.67 5.36-4.3 6.22l-8.52 3.41c-8.29 3.72-9.84 15.73-1.98 20.7 1.37.86 2.94 1.38 4.54 1.51a.6.6 0 0 0 .53-.23c.67.13 1.37.21 2.08.21.15 0 .29-.02.44-.02-5.62 9.34-12.89 25.81-12.89 28.49 0 .68.55 1.23 1.23 1.24h.02a1.26 1.26 0 0 0 1.25-1.23c.05-2.16 9.24-23.46 15.14-31.13a42.94 42.94 0 0 1 12.16-10.78c1.97-1.17 3.64-2.62 4.97-4.3a21.43 21.43 0 0 1 16.97-8.24c6.68 0 12.82 3 16.94 8.24 1.33 1.69 3 3.14 4.97 4.3 4.72 2.8 8.81 6.42 12.16 10.78 5.89 7.66 15.08 28.96 15.14 31.13a1.25 1.25 0 1 0 2.5 0c0-2.67-7.27-19.14-12.89-28.49.15 0 .29.02.44.02.71 0 1.4-.07 2.07-.21a.63.63 0 0 0 .62.22 11.54 11.54 0 0 0 4.16-1.89c6.95-4.95 5.77-16.08-1.98-19.64l-8.41-3.63c-1.87-1.07-3.84-3.87-4.2-6.61a1.91 1.91 0 0 0 .61-1.39 1.9 1.9 0 0 0-3.8 0c0 .61.29 1.15.74 1.5.47 3.55 2.65 6.86 5.82 8.56l4 1.6c-1.05.03-2.07.22-3.02.53a3.16 3.16 0 0 0-1.93-.65 3.22 3.22 0 0 0-3.22 3.22c0 .32.06.62.15.92a10.73 10.73 0 0 0-2.31 5.61 44.86 44.86 0 0 0-5.38-3.74c-.05-.03-.1-.07-.15-.1.89.28 1.59.41 1.91.41 2.73 0 4.96-2.22 4.96-4.96 0-.73-.2-1.4-.22-1.48-.16-.52-.41-1.01-.73-1.46a.751.751 0 1 0-1.21.89c.23.31.4.65.51 1.01 0 0 .16.52.16 1.03a3.46 3.46 0 0 1-3.46 3.46c-.72 0-4.37-.97-6.69-3.7-2.45-2.89-3.06-3.96-3.06-6.51a8.34 8.34 0 0 1 .83-3.65c.65-1.35 2-4.09 2.44-4.82 1.55-2.56 4.25-4.09 7.24-4.09 3.57 0 15.73 6.3 20.72 9.18 4.46 2.56 7.27 6.08 8.87 11.06.77 2.41.83 4.36.87 5.78.16 5.38-1.34 11.02-4.34 16.31a.75.75 0 0 0 .28 1.02.71.71 0 0 0 .37.1c.26 0 .52-.14.65-.38 3.13-5.53 4.7-11.44 4.53-17.1-.04-1.43-.11-3.59-.94-6.2zm-93.59 10.04c-.16 0-.32-.02-.47-.04-.31.7-1.01 1.2-1.82 1.2a1.99 1.99 0 0 1-1.99-1.99c0-.82.49-1.52 1.2-1.82-.02-.16-.04-.31-.04-.47a3.13 3.13 0 1 1 3.13 3.13zm5.75.09c-.69.64-1.36 1.3-2 1.99.47-.93.74-1.98.74-3.1 0-3.81-3.09-6.9-6.9-6.9s-6.9 3.09-6.9 6.9 3.09 6.9 6.9 6.9c1.46 0 2.81-.46 3.93-1.23l-.72.89a26.06 26.06 0 0 0-.99 1.37c-.71.2-1.45.31-2.22.31a8.26 8.26 0 0 1-8.25-8.25 8.26 8.26 0 0 1 8.25-8.25 8.26 8.26 0 0 1 8.25 8.25 8.17 8.17 0 0 1-.08 1.11zm70.38-9.36a8.26 8.26 0 0 1 8.25 8.25 8.26 8.26 0 0 1-8.25 8.25c-.77 0-1.51-.11-2.22-.31a26.06 26.06 0 0 0-.99-1.37c-.23-.3-.48-.59-.72-.89a6.89 6.89 0 0 0 3.93 1.23c3.81 0 6.9-3.09 6.9-6.9s-3.09-6.9-6.9-6.9-6.9 3.09-6.9 6.9c0 1.12.27 2.17.74 3.1-.65-.69-1.32-1.35-2-1.99-.05-.36-.08-.73-.08-1.11a8.26 8.26 0 0 1 8.25-8.25zm-.72 6.15a3.13 3.13 0 1 1 3.13 3.13c-.16 0-.32-.02-.47-.04-.31.7-1.01 1.2-1.82 1.2a1.99 1.99 0 0 1-1.99-1.99c0-.82.49-1.52 1.2-1.82-.02-.16-.04-.31-.04-.47z"/><use href="#B"/><path d="M190.99 169.03v-24.61h16.3v4.29H196.2v5.87h10.01v4.29H196.2v10.17H191zm20.47 0v-24.61h16.3v4.29h-11.09v5.87h10.01v4.29h-10.01v10.17h-5.2z"/><use href="#C"/><use href="#D"/><use href="#C" x="36.98"/><path d="M286.04 169.03h-5.58l8.5-24.61h6.71l8.49 24.61h-5.58l-1.83-5.61h-8.88l-1.83 5.61zm3.14-9.68h6.25l-3.03-9.31h-.19l-3.03 9.31z"/><use href="#E"/><path d="M355.63 151.49c-.1-.97-.51-1.72-1.24-2.26s-1.72-.81-2.96-.81-2.25.26-2.93.78-1.02 1.18-1.02 1.97c-.02.88.36 1.55 1.14 2 .77.45 1.69.8 2.76 1.05l2.21.53c1.43.32 2.69.79 3.8 1.39 1.11.61 1.98 1.39 2.62 2.35s.96 2.12.96 3.49c0 2.25-.85 4.04-2.53 5.38-1.68 1.33-4.02 2-7.02 2s-5.37-.68-7.15-2.04-2.7-3.37-2.76-6.03h5.04c.09 1.23.57 2.16 1.46 2.78s2.01.93 3.36.93 2.38-.28 3.17-.84 1.19-1.29 1.2-2.19c0-.83-.37-1.47-1.09-1.92s-1.75-.83-3.09-1.15l-2.68-.67c-2.08-.5-3.71-1.29-4.92-2.37-1.2-1.08-1.8-2.53-1.79-4.34 0-1.49.39-2.79 1.2-3.91s1.91-1.99 3.32-2.61 3.01-.93 4.81-.93 3.42.31 4.79.94c1.37.62 2.43 1.5 3.19 2.61s1.15 2.4 1.18 3.87h-4.99zm10.84 17.54v-24.61h16.59v4.29h-11.38v5.87h10.53v4.29h-10.53v5.88h11.43v4.29h-16.63z"/><use href="#E" x="80.77"/><path d="M409.79 169.03v-24.61h16.59v4.29H415v5.87h10.53v4.29H415v5.88h11.43v4.29H409.8z"/><use href="#D" x="188.41"/><path d="M456.39 148.7v-4.29h20.22v4.29h-7.54v20.32h-5.14V148.7h-7.54z"/><use href="#C" x="248.7"/><use href="#B" x="328.98"/><path d="M541.23,144.41v24.61h-4.49l-10.71-15.49h-.18v15.49h-5.2v-24.61h4.57l10.62,15.48h.22v-15.48h5.18Z"/><use href="#F"/><path d="M225.54 193.27v54.15h-13.09v-54.15h13.09zm11.17 54.15v-54.15h13.09v43.52h22.53v10.63h-35.62zm43.88-54.15h16.21l13.75 33.53h.63l13.75-33.53h16.21v54.15H328.4v-33.26h-.45l-13.01 32.92h-8.14l-13.01-33.1h-.45v33.45H280.6v-54.15z"/><use href="#F" x="187.85"/><path d="M400.3 247.42v-54.15h37.76v10.63h-24.67V215h22.74v10.66h-22.74v11.13h24.67v10.63H400.3zm76.71-37.91c-.18-1.94-.96-3.45-2.34-4.53s-3.35-1.63-5.91-1.63-4.44.48-5.71 1.44-1.91 2.18-1.93 3.66c-.05 1.6.64 2.86 2.09 3.77s3.39 1.63 5.84 2.15l4.65 1.06c5.34 1.18 9.43 3.11 12.28 5.79s4.28 6.18 4.3 10.5c-.02 5.15-1.92 9.17-5.71 12.06s-9.06 4.34-15.81 4.34-12.25-1.54-16.33-4.61c-4.08-3.08-6.17-7.78-6.25-14.11h12.53c.14 2.61 1.1 4.58 2.88 5.91s4.12 2 7.01 2c2.63 0 4.68-.52 6.16-1.56s2.23-2.39 2.25-4.05c-.02-1.52-.72-2.73-2.12-3.63-1.39-.91-3.58-1.71-6.56-2.39l-5.66-1.32c-4.67-1.08-8.36-2.82-11.07-5.22-2.71-2.41-4.05-5.66-4.03-9.77-.02-3.37.88-6.31 2.7-8.83 1.81-2.52 4.32-4.48 7.52-5.88s6.86-2.1 10.99-2.1 7.84.71 10.93 2.13 5.5 3.4 7.21 5.95 2.58 5.51 2.62 8.9h-12.53zm18.14-5.61v-10.63h45.77v10.63H524.5v43.52h-12.9V203.9h-16.45zM193.12 315.11v-54.15h22.58c6.08 0 10.68 1.26 13.79 3.78s4.67 5.83 4.67 9.92c0 3.08-.94 5.66-2.83 7.72s-4.32 3.4-7.3 4.02v.53c2.19.09 4.21.67 6.07 1.76 1.86 1.08 3.35 2.58 4.48 4.49s1.69 4.17 1.69 6.78c0 2.91-.74 5.5-2.22 7.79-1.48 2.28-3.62 4.08-6.42 5.39s-6.2 1.97-10.21 1.97h-24.3zm13.08-31.89h7.24c2.15 0 3.91-.53 5.29-1.59 1.37-1.06 2.06-2.54 2.06-4.44 0-1.8-.64-3.22-1.93-4.27s-3.02-1.57-5.21-1.57h-7.46v11.87zm0 21.34h8.09c2.84 0 4.93-.54 6.28-1.61s2.02-2.57 2.02-4.5c0-2.08-.72-3.73-2.15-4.96-1.44-1.22-3.41-1.84-5.91-1.84h-8.33v12.9zm39.34 10.55v-54.15h22.37c4.05 0 7.56.73 10.51 2.2 2.95 1.46 5.23 3.54 6.83 6.23s2.41 5.89 2.41 9.61-.82 6.92-2.46 9.54c-1.64 2.63-3.95 4.61-6.93 5.95l11.24 20.62h-14.28l-9.89-18.54h-6.72v18.54h-13.09zm13.09-28.85h6.45c2.94 0 5.18-.59 6.72-1.76 1.53-1.17 2.3-3.01 2.3-5.51 0-4.99-3.01-7.48-9.02-7.48h-6.45v14.75zm37.68 28.85v-54.15h37.76v10.63H309.4v11.1h22.74v10.66H309.4v11.13h24.67v10.63h-37.76zm48.93-54.15h16.21l13.75 33.53h.63l13.75-33.53h16.21v54.15h-12.74v-33.26h-.45l-13.01 32.92h-8.14l-13.01-33.1h-.45v33.45h-12.74v-54.15zm71.73 54.15v-54.15h37.76v10.63h-24.67v11.1h22.74v10.66h-22.74v11.13h24.67v10.63h-37.76zm95.01-54.15v54.15h-11.1l-21.55-31.25h-.34v31.25H465.9v-54.15h11.26l21.31 31.2h.45v-31.2h13.06zM284.64 379.24v-6l14.02-12.98 3.01-3.12c.81-.92 1.43-1.83 1.86-2.72.42-.89.63-1.86.63-2.89 0-1.15-.26-2.15-.79-2.99a5.24 5.24 0 0 0-2.15-1.94c-.91-.46-1.94-.68-3.1-.68s-2.26.24-3.15.73a5.13 5.13 0 0 0-2.08 2.1c-.49.91-.73 1.99-.73 3.25h-7.9c0-2.58.58-4.81 1.75-6.71s2.8-3.37 4.9-4.4c2.1-1.04 4.53-1.56 7.27-1.56s5.28.5 7.37 1.49 3.73 2.37 4.89 4.12c1.17 1.76 1.75 3.77 1.75 6.04 0 1.49-.29 2.96-.88 4.4-.58 1.45-1.62 3.05-3.11 4.82-1.49 1.76-3.58 3.88-6.29 6.34l-5.75 5.63v.27h16.54v6.81h-28.08zm49.55.86c-3.31-.01-6.15-.83-8.53-2.44s-4.21-3.95-5.48-7.02c-1.28-3.06-1.91-6.75-1.89-11.06 0-4.29.64-7.95 1.91-10.98 1.28-3.03 3.1-5.33 5.48-6.91s5.21-2.37 8.51-2.37 6.13.79 8.51 2.38 4.21 3.89 5.49 6.91 1.92 6.68 1.9 10.97c0 4.32-.64 8.01-1.91 11.08s-3.1 5.4-5.47 7.02-5.21 2.42-8.52 2.42zm0-6.9c2.26 0 4.06-1.13 5.4-3.4 1.35-2.27 2.01-5.67 2-10.21 0-2.99-.3-5.47-.91-7.46s-1.47-3.48-2.58-4.48-2.41-1.5-3.91-1.5c-2.24 0-4.04 1.12-5.38 3.37s-2.03 5.6-2.04 10.08c0 3.03.3 5.55.91 7.57s1.47 3.53 2.59 4.54a5.65 5.65 0 0 0 3.92 1.51zm21.83 6.04v-6l14.02-12.98 3.01-3.12c.81-.92 1.43-1.83 1.86-2.72.42-.89.63-1.86.63-2.89 0-1.15-.26-2.15-.79-2.99a5.24 5.24 0 0 0-2.15-1.94c-.91-.46-1.94-.68-3.1-.68s-2.26.24-3.15.73a5.13 5.13 0 0 0-2.08 2.1c-.49.91-.73 1.99-.73 3.25h-7.9c0-2.58.58-4.81 1.75-6.71s2.8-3.37 4.9-4.4c2.1-1.04 4.53-1.56 7.27-1.56s5.28.5 7.37 1.49 3.73 2.37 4.89 4.12c1.17 1.76 1.75 3.77 1.75 6.04 0 1.49-.29 2.96-.88 4.4-.58 1.45-1.62 3.05-3.11 4.82-1.49 1.76-3.58 3.88-6.29 6.34l-5.75 5.63v.27h16.54v6.81H356zm48.5.54c-2.72 0-5.14-.5-7.26-1.5s-3.8-2.38-5.05-4.13c-1.24-1.76-1.89-3.77-1.94-6.04h8.08c.09 1.53.73 2.76 1.92 3.71s2.61 1.42 4.25 1.42c1.31 0 2.46-.29 3.47-.88 1.01-.58 1.79-1.4 2.37-2.44s.86-2.25.86-3.61-.29-2.6-.88-3.65a6.33 6.33 0 0 0-2.41-2.46c-1.03-.59-2.2-.89-3.52-.9-1.15 0-2.27.24-3.36.71-1.08.47-1.93 1.12-2.53 1.94l-7.4-1.33 1.87-20.77h24.08v6.81h-17.21l-1.02 9.86h.23c.69-.97 1.74-1.78 3.13-2.42 1.4-.64 2.96-.96 4.69-.96 2.37 0 4.49.56 6.35 1.67 1.86 1.12 3.33 2.64 4.4 4.59 1.08 1.94 1.61 4.18 1.6 6.7.01 2.65-.6 5.01-1.84 7.07s-2.96 3.67-5.17 4.85c-2.21 1.17-4.78 1.76-7.7 1.76z"/></g><defs ><path id="B" d="M186.47 156.72c0 2.68-.51 4.97-1.52 6.85s-2.39 3.32-4.13 4.31-3.7 1.48-5.88 1.48-4.15-.5-5.89-1.49-3.11-2.43-4.12-4.32-1.51-4.16-1.51-6.83.5-4.97 1.51-6.85 2.38-3.32 4.12-4.31 3.7-1.48 5.89-1.48 4.14.5 5.88 1.48c1.74.99 3.11 2.43 4.13 4.31s1.52 4.17 1.52 6.85zm-5.28 0c0-2.61-.57-4.6-1.71-5.98-1.14-1.37-2.65-2.06-4.54-2.06s-3.41.69-4.54 2.06c-1.14 1.38-1.71 3.37-1.71 5.98s.57 4.6 1.71 5.97c1.14 1.38 2.65 2.07 4.54 2.07s3.4-.69 4.54-2.07 1.71-3.37 1.71-5.97z"/><path id="C" d="M238.49,144.41v24.61h-5.2v-24.61h5.2Z"/><path id="D" d="M265.18 153.03h-5.26c-.2-1.35-.78-2.42-1.73-3.19s-2.14-1.16-3.57-1.16c-1.91 0-3.44.7-4.58 2.1-1.15 1.4-1.72 3.38-1.72 5.94s.58 4.62 1.74 5.99 2.67 2.05 4.54 2.05c1.39 0 2.56-.36 3.52-1.09s1.57-1.75 1.81-3.06l5.26.02c-.18 1.51-.72 2.92-1.61 4.25s-2.1 2.41-3.62 3.23-3.34 1.24-5.45 1.24-4.16-.5-5.88-1.49-3.09-2.43-4.09-4.31-1.5-4.16-1.5-6.84.5-4.97 1.51-6.85 2.38-3.32 4.11-4.31 3.68-1.48 5.84-1.48c1.9 0 3.61.35 5.14 1.05s2.78 1.72 3.75 3.05 1.57 2.95 1.8 4.85z"/><path id="E" d="M308.46,169.03v-24.61h5.2v20.32h10.55v4.29h-15.76Z"/><path id="F" d="M165.95 247.42v-54.15h36.96v10.63h-23.88V215h21.52v10.66h-21.52v21.76h-13.09z"/></defs></svg>