<svg xmlns="http://www.w3.org/2000/svg" viewBox="0 0 118.94 89.92"><title>gg-aaretal-laurel</title><path d="M57.77,17.39a9,9,0,0,0-5.4,5.27,16.55,16.55,0,0,1-2.25,4,5.93,5.93,0,0,1,.52-1.27c.67-1.29,1.4-5.29,1.11-6-.1-.28-.33-.38-.7-.28a9,9,0,0,0-3.28,3.31,13.35,13.35,0,0,0-1,5.76c.49,2.81.56,2.86,1.42,1.34A4.15,4.15,0,0,1,49,28.32c.13-.11-.15.51-.64,1.34s-1.14,2.14-1.47,2.92L46.28,34l-.16-3.82a20.44,20.44,0,0,0-.39-4.06c-.18-.18-.57.18-1.16,1-1.63,2.3-1.63,2.27-1.63,5.76,0,2.74.11,3.46.6,4.73.38,1,.69,1.47.93,1.36s.28.08.07.83c-.43,1.73-.46,1.78-.72,1.32A36.72,36.72,0,0,1,42,33.48c0-1.88-.51-1.31-1.21,1.32-1.55,5.94-1.5,8.89.15,10.62a1.44,1.44,0,0,0,2.17.13c.49-.44.49-.42.34,2.4-.28,4.21-.28,4.24-1.71,1.42-1.65-3.33-2.66-5.11-3-5.22s-.85,1.94-.87,4.37a6.63,6.63,0,0,0,.75,4c.85,1.76.87,1.86.51,1.63-.15-.1-.26.8-.26,2.56,0,3.38.73,5.65,2.38,7.33a8.2,8.2,0,0,0,3.64,2.12c.8,0-.9-5.91-2.35-8.16-.54-.83-1.06-1.66-1.16-1.84s.21-.18,1,.13c1.31.49,1.65,1,1.65,2.69,0,1.5,1.29,5.86,3,10.15.16.39.08.34-.34-.15-.67-.83-6.48-4.73-6.71-4.52-.39.41,2,6.71,3.07,8a6.77,6.77,0,0,0,4.81,2.24,3.94,3.94,0,0,0,1.37-.12,8.15,8.15,0,0,0-.39-1.09c-.54-1.32-.34-1.32.39,0,.33.59,1.16,1.86,1.86,2.82A16,16,0,0,1,52.24,78a5.65,5.65,0,0,1-1-.77,13,13,0,0,0-5.42-2.59c-1.11-.28-2.07-.51-2.15-.51-.67,0,1.35,4,2.74,5.37a7.85,7.85,0,0,0,6,2.58c2.12.11,2.27.08,2.45-.41s.36-.41,2,1.14l1.8,1.65L57,83.7c-1.45-.7-2-.8-4.39-.9-3.25-.16-3.69,0-2.92,1.11a8.88,8.88,0,0,0,4,3.17c2.12.6,5,0,5.48-1.18A1.42,1.42,0,0,0,59,85c-.24-.42,0-.34,1,.33.67.49,1.71,1.14,2.27,1.47s.83.52.55.44a8.85,8.85,0,0,0-5.63.34,13.93,13.93,0,0,0-2.54,1c-.38.38.65,1.49,1.92,2.11a8.84,8.84,0,0,0,6.61-.1c1.5-.8,2.22-1.52,2-2.07s-.1-.46,1.37,0l1.17.36L66.6,89a5.19,5.19,0,0,0-1.83.78,19.36,19.36,0,0,1-2.3,1.52,7.06,7.06,0,0,0-1.6,1.16c0,.57,1.81.93,4.39.91a12.46,12.46,0,0,0,4.52-.65c1.55-.54,1.81-.72,1.89-1.29s-1-2-1.58-2c-.15,0-.2,0-.15-.13a32.24,32.24,0,0,1,4.93,1.29c1.16.47,2.25,3.13,2.27,5.58,0,1.52.44,2.14,1.35,1.91l.69-.18L78.69,97a5.14,5.14,0,0,1-.51-2.38c0-2.68-2.2-5-5.4-5.68-1.65-.33-1.84-.49-1.19-1,.26-.23.39-.8.39-1.89V84.42l-2.82-2.81a24.19,24.19,0,0,0-3.1-2.79c-.54,0-.46.33,1.55,6.64.42,1.31.75,2.45.75,2.5,0,.21-1.21-.18-3-1a36.72,36.72,0,0,1-12.11-9.68c-1.5-1.86-4.11-5.94-3.93-6.1s.49.49,1,1.24c1.11,1.76,1.29,1.86,1.73,1,.28-.51.36-1.65.36-4.49,0-3.77,0-3.85-.83-5.3-.44-.82-1-1.78-1.26-2.14l-.5-.62-.25.62a18.15,18.15,0,0,0-1.35,5.61c0,.87-.1,1.37-.23,1.21A37.59,37.59,0,0,1,46.15,64a2,2,0,0,1,.69,0c.55,0,.86-.25,1.48-1.26.75-1.19.8-1.47.87-4.13.08-2.46,0-3.1-.46-4.37-.39-1.06-.67-1.47-.93-1.37-.44.18-.44.05,0-.83.57-1.13,2.35-8.29,2.15-8.52s-2,1.06-3.23,2.43c-1.78,1.94-2.17,3.28-1.94,6.61a10.36,10.36,0,0,0,.49,3c.31.42.42.31,1.19-.9,1.29-2.09,1.27-1.86-.15,1.11a7.17,7.17,0,0,0-.75,3.8,20.06,20.06,0,0,1-.06,2.19c-.33-.31-1.13-7.13-1.13-9.48a69.08,69.08,0,0,1,1.39-12.14,47.69,47.69,0,0,1,5.35-12.79c1.27-1.91,2.58-2.71,4.49-2.71a2.37,2.37,0,0,0,2.15-1,11.37,11.37,0,0,0,1.63-2.25c.38-.72,1-1.83,1.39-2.53a3,3,0,0,0,.54-1.6C61.08,16.67,59.48,16.75,57.77,17.39Z" transform="translate(-37.9 -8.19)"/><path d="M133.48,17c-.36.26.11,1.21,2.17,4.7,1.32,2.17,1.86,2.58,3.88,2.87,2.42.33,3.59,1.37,5.47,4.88a45.33,45.33,0,0,1,4.78,13.82c1,5.55.72,15-.59,18.73-.16.44-.16.33-.05-.39a10.62,10.62,0,0,0-.52-5.81l-.7-1.68.67.85c.55.67.75.78,1,.54.46-.38.49-5.78.05-7.28s-4.86-5.79-4.86-4.68c0,.08.42,1.84.91,3.88a28.44,28.44,0,0,0,2.11,6.43c.08.13-.18-.08-.56-.49s-.7-.7-.75-.65-.34,1-.67,2.15a9.87,9.87,0,0,0,.36,7.2c.8,1.66,1.49,2.23,2.11,1.71.34-.28.37-.21.21.44a47.57,47.57,0,0,1-2,5s-.05-1-.08-2.14a13.84,13.84,0,0,0-.57-3.78,11.8,11.8,0,0,1-.54-2c0-1.22-1.73,1-2.46,3.25-1,3-.87,8,.26,9.25.26.28.47.1,1.14-1a6,6,0,0,1,.93-1.31c.39,0-1.86,3.4-4.13,6.35a28.27,28.27,0,0,1-5.69,5.4c-.95.67-1,.67-.46.1a13.69,13.69,0,0,0,1.37-2.17c.69-1.37.77-1.73.75-4,0-2.89-.24-4.47-.68-4.59-.61-.21-3.28,4.62-4.08,7.41-.33,1.21-.38,1.27-.28.39.39-3.23.46-4.52.23-4.52s-2,2.11-2.74,3.48a19.24,19.24,0,0,0-1.73,5.87,2.82,2.82,0,0,0,.36,1.39c.37.49.39.49,1.09,0a5.51,5.51,0,0,0,2.14-3.46l.49-1.68,0,1.47c0,1.63.26,1.78,1.68,1.24s.65.18-1.27,1.27A29.32,29.32,0,0,1,126.82,88l-.6.15.47-1.11a18,18,0,0,0,.8-2.66,33.74,33.74,0,0,1,1-3.3,18.3,18.3,0,0,0,.62-2c0-.93-5.45,4.06-6.09,5.58a3.18,3.18,0,0,0,.13,3.13l.49.8-1.45.33a12.45,12.45,0,0,0-2.4.8,6.62,6.62,0,0,0-3.33,5.61,4.52,4.52,0,0,1-.39,2c-.39.6-.39.62.28.78a1.31,1.31,0,0,0,.91,0,11.22,11.22,0,0,0,.49-2.48c.28-2.35.9-3.82,1.88-4.62a18.85,18.85,0,0,1,4.71-1.68c.38-.11.31,0-.34.72s-.83,1-.77,1.5.31.75,1.88,1.27a14.34,14.34,0,0,0,7.47.46c1.7-.52,1.68-.65-.39-2-1.47-.93-1.58-1.32-.13-.46.83.49,1.24.54,3.2.44,2.43-.11,4.14-.78,4.91-1.94.41-.65.67-.47-2.4-1.68a8,8,0,0,0-3.57-.57c-1.49,0-1.91,0-1.55-.23s1.17-.73,2-1.29c1-.7,1.37-.86,1-.47l-.51.6.9.74c2.3,1.94,6.2,1.12,8.5-1.8,1.42-1.81,1.26-1.94-2.3-1.76-2.79.13-3.23.21-4.57.93l-1.5.77,1.94-1.8c1.8-1.71,1.93-1.79,2.09-1.22s.23.6,2.32.57c2.64,0,3.75-.49,5.92-2.63a9,9,0,0,0,2.19-3.23,6.27,6.27,0,0,0,.6-1.89c-.21-.18-4,.88-5.5,1.55a11.69,11.69,0,0,0-2.3,1.45l-1,.88,1.21-1.76c.67-1,1.55-2.35,2-3.07s.75-1.17.73-1a2.69,2.69,0,0,1-.37,1c-.64,1.11-.49,1.29,1,1.29a5.23,5.23,0,0,0,2.77-.74c2-1.06,3-2.54,4.18-6.15,1.06-3.31,1.09-3.44.72-3.44S149,68,148.33,68.77s-.82.8-.31-.36c.21-.47.68-1.66,1-2.64L149.7,64v1.09c0,1.34.24,1.37,2,.34,2.53-1.45,3.72-3.57,4.21-7.52.37-2.82.21-3.9-.44-3.67-.41.16-.41.13,0-.34,1.16-1.36,1.57-3.53,1.34-6.87-.26-3.56-.46-3.61-2.35-.41-.85,1.47-1.76,3.2-2,3.82-.68,1.79-.88,1.81-.91.13,0-.85-.1-2.37-.2-3.36a8.42,8.42,0,0,1-.13-1.91s.31.08.56.31c1,.86,1.94.47,2.87-1.11s.73-4.26-.57-9.17c-.23-.85-.46-1.86-.56-2.27-.24-1.16-.6-.8-.75.77A48.51,48.51,0,0,1,151,41.31c-.28.67-.28.65-.52-.7-.13-.9-.13-1.47,0-1.57,1-.62,1.86-6,1.34-8.55-.33-1.66-1.88-4.37-2.5-4.37-.44,0-.75,2.33-.75,5.63,0,2.33,0,2.56-.29,1.81a36.87,36.87,0,0,0-2.81-5.5c-.47-.72-1-1.6-1.14-1.94l-.31-.64.47.56c.25.31,1,1.5,1.73,2.67a7.69,7.69,0,0,0,1.37,2,11.54,11.54,0,0,0,.36-1.88,12.78,12.78,0,0,0-1.19-7c-.57-.86-2.89-2.87-3.33-2.87s-.16,4.6.23,5.58.36,1,0,.49a16.74,16.74,0,0,1-1.26-2.38A9.62,9.62,0,0,0,138,17.73C136.5,17,134.05,16.67,133.48,17Z" transform="translate(-37.9 -8.19)"/><path d="M94.53,27.59a9.2,9.2,0,0,0-1.53.64,2.42,2.42,0,0,1-1.16.19c-1,0-1.81.51-5.22,3.56-1.57,1.39-1.86,1.55-2.4,1.32a7.38,7.38,0,0,0-1.94-.24c-1.13,0-1.55-.15-3.28-1.34-1.08-.75-2.66-1.78-3.46-2.32l-1.47-1-1.89.39c-3.61.75-4.49,1.11-5.06,2.06a5,5,0,0,1-1.63,1.48A12,12,0,0,0,61.85,37c-.23.49-.62.78-1.5,1-1.42.39-2,.85-3.9,3.38l-1.52,2v24.9l.59-.64c.78-.83,1.24-1.09,3.46-1.86a103.31,103.31,0,0,1,13.38-3.26c1.58-.31,3.8-.77,5-1.06S79.65,61,79.91,61a26.05,26.05,0,0,0,2.94-.77c3.7-1.16,4.57-2.07,3.26-3.31-.88-.83-1.63-1-6.9-1.6-4.44-.52-8.55-1.29-9.61-1.86-.85-.44-.46-.93,1.42-1.86,2.77-1.34,8-2.79,16.2-4.52l5-1a18.63,18.63,0,0,1,3.36-.52c.87,0,.54.13-4.45,1.52-.93.26-3.17.91-5,1.42s-4,1.12-4.76,1.32c-2.06.57-3.64,1.32-3.64,1.73,0,.8.88,1,10.46,1.84,11.81,1.11,15.45,1.73,25.06,4.28a68.65,68.65,0,0,1,10.85,4c1.7.83,4.67,2.22,6.58,3.1s4.34,2,5.4,2.56a16.41,16.41,0,0,0,2.15.93c.1,0,.18-5.38.15-11.91l-.08-11.91-1.42-.57c-1.26-.49-2.22-1.34-8.52-7.72l-7.1-7.16h-1.37c-1.6,0-1.86.13-4.45,2-1.05.8-2.06,1.55-2.24,1.66a5.39,5.39,0,0,1-2.07-.24,19.34,19.34,0,0,0-5-.41l-3.22,0-2.07-1.58C95.77,26.58,96.57,26.94,94.53,27.59ZM96.26,29c0,.13.44.44,1,.64a10.86,10.86,0,0,1,2.27,1.68,8.91,8.91,0,0,0,2.59,1.78c.69.26,1,.5.77.52a6.62,6.62,0,0,1-3.8-2.17c-.67-1.13-2.27-1.86-2.68-1.19-.23.37,1.11,2.84,1.57,2.84a5,5,0,0,1,1.61,1.12c1.67,1.55,2.86,2.22,4.31,2.42,1.21.16,1.24.16,1.11-.46s-.08-.62.7-.39.82.29.51,1a3.41,3.41,0,0,1-1.52,1.42l-1.19.65-.59-.52c-.8-.72-1.84-1-3.9-1.24s-3.26-.75-3.26-1.55a7.9,7.9,0,0,0-.88-2.2c-.75-1.49-1-1.68-1.7-1.75s-.85-.08-.67.75.15.82-.34.38c-.8-.72-1.42-.44-1.6.75-.08.57-.18.8-.21.49,0-.93-.31-.9-1.65.16s-2,1.26-2.48.67c-.23-.28-.08-.47.8-.93,1.22-.62,2-1.24,2-1.58A4.91,4.91,0,0,1,90.14,31,2.57,2.57,0,0,1,92.41,30a2,2,0,0,0,1.63-.5,2.31,2.31,0,0,1,1.16-.62c.36-.05.75-.12.88-.15S96.26,28.8,96.26,29Zm-22,1.39a1.09,1.09,0,0,0,.8.65.84.84,0,0,1,.65.23,5.08,5.08,0,0,0,1.37.8,4.2,4.2,0,0,1,2.66,2.46c.57,1.29.9,1.57,2.19,1.8l1,.21-.62-.67-.62-.67.69-.29c.91-.33,1.94.16,3.59,1.76s1.58,1.86-.07,1.86c-.78,0-1.3.1-1.3.28,0,.57,2.87,3.08,3.52,3.08s.8-.31.23-.78-.46-.77.23-.77c.39,0,.93.39,1.6,1.19a5,5,0,0,1,1,1.39A2.8,2.8,0,0,0,91.48,44a6.22,6.22,0,0,1,.39,1.08c0,.08-.54.08-1.22,0-3.54-.49-4.78-.46-5.5.08a5.86,5.86,0,0,1-2.84,1l-.65.1.65-.39a3.4,3.4,0,0,1,1.06-.39,2.13,2.13,0,0,0,1-.51l.62-.52-.75-.62a4.33,4.33,0,0,0-1.42-.8,3.84,3.84,0,0,1-1.39-.85l-.75-.7,1.14-.15L83,41.18l-1.22-.55c-1.5-.69-2.27-1.44-2.27-2.22,0-.57-.83-1.32-1.14-1a1.75,1.75,0,0,0-.15.8c0,.62,0,.65-.52.18a1.67,1.67,0,0,1-.52-1.06c0-1.34-.59-1.86-.87-.75s-.6.73-.91-1.11c-.18-.95-.44-2.12-.57-2.58-.33-1-.33-1-3.17,0-1.94.7-3.18,1.7-3.44,2.74a3.38,3.38,0,0,1-.65,1.26,2.75,2.75,0,0,0-.46.83c0,.23,1.83-.54,2.09-.88.08-.1.42.18.73.62l.59.8-.72.62a1.71,1.71,0,0,1-1.24.49c-.73-.15-1.19.31-1.19,1.19s0,.75,1.24.75,1.26,0,1.55,1a3.86,3.86,0,0,0,.7,1.32c.72.59.38.77-1.4.77-1.58,0-1.89.08-2.53.67a16.17,16.17,0,0,1-3.62,2.69c-.54,0-.62-.49-.2-1.27A4.51,4.51,0,0,0,63.45,45,5.22,5.22,0,0,1,64,43.11,2.27,2.27,0,0,0,64.23,41c-.23-.83-.23-1.11,0-1.26s.39-.11.44.1a1.11,1.11,0,0,0,.88.7c.31,0,.2-1.17-.21-2.33-.52-1.47-.49-1.76.18-1.86.36,0,.65-.36.85-1a2.35,2.35,0,0,1,.88-1.19A3.28,3.28,0,0,0,68.85,32c.13-.62.39-.85,1.19-1.13,1-.34,3.44-1.06,3.77-1.09C73.89,29.71,74.1,30,74.25,30.35Zm46.88.62a4,4,0,0,1,1.43,2.4,16.39,16.39,0,0,1,.31,1.89,3.4,3.4,0,0,0,.38,1.16c.34.6.36.52.39-1.24,0-1.37.08-1.86.34-1.86.49,0,3,2.69,4.1,4.39a14.6,14.6,0,0,0,2,2.41c.62.54,1,1.06,1,1.16a2.68,2.68,0,0,1-1.27-.18A3.88,3.88,0,0,0,127,41c-1.35.33-1.22.85.46,1.93a12.69,12.69,0,0,0,4.65,2c1.06.21,1.32.39,1.68,1.17.54,1.11.54,1.13,0,1.13a3.48,3.48,0,0,0-1.21.39,3.88,3.88,0,0,1-1.5.39,4.16,4.16,0,0,1-2.92-2.17,12.88,12.88,0,0,0-1.7-2.2,7.8,7.8,0,0,1-1.76-2.56c-.34-.93-.59-1.21-1.19-1.39-1-.26-1.08-.1-.41.59a2,2,0,0,1,.54.91,2.57,2.57,0,0,0,.65,1.08,5.79,5.79,0,0,1,.95,1.66,5,5,0,0,0,.91,1.49c.87,1,.77,1.4-.24,1.19-.85-.15-3.3-2.48-3.3-3.12a5.18,5.18,0,0,0-.49-1.32c-.62-1.34-.88-3.1-.52-3.75a2.57,2.57,0,0,0,0-1.73,19.93,19.93,0,0,1-.44-2.45c-.07-.72-.25-1.22-.43-1.22-.44,0-1.09.75-1.32,1.5a21.43,21.43,0,0,1-2.43,4,4.53,4.53,0,0,1-1.58,1.14c-1.08.49-1.13.57-.87,1.24s2,.54,2.79,0c.59-.38.62-.36,1.31.8a11.23,11.23,0,0,0,1.24,1.73,3.45,3.45,0,0,1,.7,1.53c.21,1,0,1.24-.49.62a2.15,2.15,0,0,0-1.09-.54,4.07,4.07,0,0,1-1.49-.93c-.88-.88-3-1.4-2.72-.65.08.23.26.41.37.41a1.22,1.22,0,0,1,.59.37,26.82,26.82,0,0,0,4.62,3.3c.42.16.73.36.73.49s-.31.08-.7-.13a12.3,12.3,0,0,0-2.09-.64c-1.71-.36-2.72-.85-3.31-1.68-.39-.52-.75-.67-1.7-.7a3.68,3.68,0,0,0-1.4.08,2,2,0,0,0,.18,1.08c.18.52.26,1,.16,1.09a10,10,0,0,1-2.56-.83c-2.38-1-2.43-1-5.81-1a32.9,32.9,0,0,1-3.31-.07,6.4,6.4,0,0,1,1.19-.34,3.54,3.54,0,0,0,2-1.26,2.89,2.89,0,0,1,1.37-1c.38,0,.49-.13.38-.46s.08-.7.5-1.09.64-.46.64-.31a.52.52,0,0,1-.26.44c-.44.26-.28,1,.34,1.53a14.18,14.18,0,0,1,1.26,1.44c.44.57.73.75.73.49a2.29,2.29,0,0,1,.67-1,4.44,4.44,0,0,0,1.39-2.94c0-.6-.1-.68-.69-.6s-.73,0-.8-1.11a2.47,2.47,0,0,1,.87-2.32,10.19,10.19,0,0,1,1.14-1.22c.26-.1.65,1,.54,1.55,0,.26.06.47.18.47.31,0,.57-1.27.57-2.61,0-.57.11-1,.21-1a11.52,11.52,0,0,0,2-1.16,5.67,5.67,0,0,1,2-1,2.33,2.33,0,0,1,.23,1.24c0,1.4.52,1,.7-.62.13-1.21,1.06-2.29,2-2.29A4.35,4.35,0,0,1,121.13,31Z" transform="translate(-37.9 -8.19)"/><path d="M54.28,26.33c-2.68,1-2.74,1-4.44,4.31a19.21,19.21,0,0,0-1.45,3.28c.06.13.47.21.91.21,2,0,5.19-2.69,6.22-5.24C56.74,25.86,56.56,25.53,54.28,26.33Z" transform="translate(-37.9 -8.19)"/><path d="M138.49,26.17c-.2.52.8,3.26,1.6,4.32,1.53,2,4,3.64,5.51,3.64,1,0,1-.28-.26-2.89-1.65-3.39-1.65-3.39-3.39-4.27C139.91,26,138.67,25.68,138.49,26.17Z" transform="translate(-37.9 -8.19)"/><path d="M49.76,35a5.25,5.25,0,0,0-2.66,2.76,16.42,16.42,0,0,0-1.6,6c-.26,2.32,0,2.3,2.48-.26a12.46,12.46,0,0,0,3.72-6.61C52.32,34.21,52,33.87,49.76,35Z" transform="translate(-37.9 -8.19)"/><path d="M142.76,34.57a22.63,22.63,0,0,0,1.6,5.73c.88,1.84,4.36,5.63,4.88,5.3s-.34-5.32-1.45-7.7a8.24,8.24,0,0,0-1.24-1.76C145.44,35.06,142.76,34,142.76,34.57Z" transform="translate(-37.9 -8.19)"/><path d="M53.3,67.12A38.06,38.06,0,0,0,53,71.25c-.18,3.9-.18,4,.47,5.29s2.42,3.57,2.81,3.57a5.59,5.59,0,0,0,.6-1.68c.8-2.92,0-6.41-2.2-9.82C53.53,66.86,53.48,66.81,53.3,67.12Z" transform="translate(-37.9 -8.19)"/><path d="M140.28,68.41a15.75,15.75,0,0,0-2.69,7.9c0,1.5.57,3.67.95,3.67s2.46-2.51,3-3.69.59-2.51.31-6.59c-.1-1.58-.26-2.51-.44-2.51S140.71,67.74,140.28,68.41Z" transform="translate(-37.9 -8.19)"/><path d="M57.93,74.14A9.6,9.6,0,0,0,58,79.9c.83,2.69,2.56,4.6,4.18,4.6.39,0,.47-.23.49-1.63v-1.6l.75,2.07c.86,2.35,2.3,4,3,3.46,1.16-1-.44-6.61-2.76-9.79l-.86-1.16-.2.77a9.29,9.29,0,0,0-.08,2.2c.15,1.44.05,1.39-.65-.39-.8-2-3.07-6.07-3.41-6.07A5.82,5.82,0,0,0,57.93,74.14Z" transform="translate(-37.9 -8.19)"/><path d="M92.21,97.57h-4v-.94l.84-.81c.27-.27.53-.53.78-.8a9.64,9.64,0,0,0,1-1.32,2.11,2.11,0,0,0,.28-1.07,1.09,1.09,0,0,0-.3-.81,1.2,1.2,0,0,0-.85-.29,2.58,2.58,0,0,0-.78.14,3,3,0,0,0-.82.44h0v-.94A3.8,3.8,0,0,1,90,90.75a2,2,0,0,1,1.42.5A1.74,1.74,0,0,1,92,92.59a3.22,3.22,0,0,1-.08.71,2.89,2.89,0,0,1-.26.63,4.22,4.22,0,0,1-.36.54q-.21.27-.51.6c-.28.31-.57.62-.87.91s-.59.57-.85.82h3.18Z" transform="translate(-37.9 -8.19)"/><path d="M97.37,94.23a5.41,5.41,0,0,1-.5,2.64,1.84,1.84,0,0,1-3.1,0,5.46,5.46,0,0,1-.49-2.61,5.36,5.36,0,0,1,.5-2.63,1.83,1.83,0,0,1,3.1,0A5.37,5.37,0,0,1,97.37,94.23Zm-1,2a3.25,3.25,0,0,0,.18-.85,10.17,10.17,0,0,0,0-1.18,10.46,10.46,0,0,0,0-1.19,2.81,2.81,0,0,0-.19-.85,1.16,1.16,0,0,0-.38-.52,1,1,0,0,0-.61-.17,1,1,0,0,0-.62.17,1.23,1.23,0,0,0-.39.53,3,3,0,0,0-.18.87,10.52,10.52,0,0,0,0,1.17c0,.46,0,.85,0,1.17a3,3,0,0,0,.19.84,1.18,1.18,0,0,0,.37.53,1,1,0,0,0,.64.19,1,1,0,0,0,.61-.18A1.09,1.09,0,0,0,96.33,96.26Z" transform="translate(-37.9 -8.19)"/><path d="M102.21,97.57H99v-.68h1.23V92.41H99V91.8a2.49,2.49,0,0,0,.53,0,1.28,1.28,0,0,0,.44-.13.86.86,0,0,0,.28-.29,1,1,0,0,0,.13-.46H101v6h1.21Z" transform="translate(-37.9 -8.19)"/><path d="M107.73,91.89l-2.68,5.68h-.85l2.85-5.9h-3.37v-.78h4Z" transform="translate(-37.9 -8.19)"/><path d="M76.55,71.31c0-.06,0-.45-.08-.92-.29,0-.67,0-1.09,0h-1a8.27,8.27,0,0,0-.08,1.21.68.68,0,0,1-.69.75.74.74,0,0,1-.78-.74c0-.8.44-6.15,2.79-6.15,1.42,0,2,2.74,2.09,3.7a13.83,13.83,0,0,1,.17,2.15.81.81,0,0,1-.68.76A.69.69,0,0,1,76.55,71.31Zm-1.93-2.49,1.52.05h.07c-.12-.94-.42-1.44-.73-1.44S74.81,68,74.62,68.82Z" transform="translate(-37.9 -8.19)"/><path d="M82.15,71.31c0-.06,0-.45-.08-.92-.29,0-.67,0-1.09,0H80a8.27,8.27,0,0,0-.08,1.21.68.68,0,0,1-.69.75.74.74,0,0,1-.78-.74c0-.8.44-6.15,2.79-6.15,1.42,0,1.95,2.74,2.09,3.7a13.83,13.83,0,0,1,.17,2.15.81.81,0,0,1-.68.76A.69.69,0,0,1,82.15,71.31Zm-1.93-2.49,1.52.05h.07c-.12-.94-.42-1.44-.73-1.44S80.41,68,80.22,68.82Z" transform="translate(-37.9 -8.19)"/><path d="M87.08,65.48c.91,0,2.37.44,2.37,1.79a2.9,2.9,0,0,1-1.77,2.47,5.24,5.24,0,0,1,1.25,1.77.66.66,0,0,1-.68.63,1.71,1.71,0,0,1-.65-.3s-.91-.93-1.53-1.52a2.07,2.07,0,0,1-.41.07c0,.43.06.78.06,1,0,.46-.11.95-.7.95s-.78-.35-.78-.87v-.44c0-.89,0-1.86,0-2.64A3.38,3.38,0,0,0,84.09,67a.82.82,0,0,1-.1-.44C84,65.49,86.59,65.48,87.08,65.48Zm-1.4,1.82c0,.33,0,.74,0,1.13a2.39,2.39,0,0,0,0,.26.35.35,0,0,0,0,.06c1.42-.1,2.36-.84,2.36-1.36,0-.3-.63-.37-.93-.37A4.2,4.2,0,0,0,85.68,67.3Z" transform="translate(-37.9 -8.19)"/><path d="M94.92,66.65c0,.39-.14.71-.57.71-.16,0-.5,0-.74,0-.59,0-1.33,0-1.84,0,0,.15,0,.32,0,.87.64,0,1.34,0,1.84,0,.65,0,1.12.1,1.14.68a.79.79,0,0,1-.79.88l-2.2,0v.87c.7,0,1.79,0,2.55,0a.69.69,0,0,1,.75.66c0,.93-2,1-2.85,1H91.06c-.58,0-.75-.44-.75-1,0-.17,0-.66,0-4.55,0-1,1.19-1,2.54-1C93.45,65.7,94.92,65.75,94.92,66.65Z" transform="translate(-37.9 -8.19)"/><path d="M101.23,66.58H99.11c0,.76-.07,2-.07,3.08a19.28,19.28,0,0,0,.1,2.19c0,.23-.55.39-.7.39S98,72,98,71.62c0-.05,0-.34,0-2.92,0-.7,0-1.33-.07-2-.34.07-1.58.06-2,.1-.26,0-.37-.31-.37-.57,0-.69,1.63-.57,2.66-.63l2.59,0c.5,0,1,.08,1,.45A.62.62,0,0,1,101.23,66.58Z" transform="translate(-37.9 -8.19)"/><path d="M106.75,71.56c0-.11,0-.7-.14-1.35-.54,0-2,0-2.87,0a12,12,0,0,0-.13,1.7.45.45,0,0,1-.44.5.5.5,0,0,1-.54-.49c0-.84.45-6.54,2.8-6.54,1.33,0,1.86,2.88,2,3.86a15.93,15.93,0,0,1,.19,2.35.55.55,0,0,1-.43.51A.46.46,0,0,1,106.75,71.56Zm-2.89-2.46c.87,0,2.17.05,2.54.06-.1-1.47-.63-2.28-1.18-2.28S104.07,67.74,103.86,69.1Z" transform="translate(-37.9 -8.19)"/><path d="M109.75,71.12c.64,0,.79,0,1.55,0,.59,0,1.12-.07,1.51-.07a.42.42,0,0,1,.39.46c0,.19-.12.45-.26.49a7.68,7.68,0,0,1-2.12.24,11.2,11.2,0,0,1-1.5-.09.62.62,0,0,1-.58-.6c0-5,0-5,0-5.13,0-.44.11-.78.5-.78s.54.19.55.75,0,1.3,0,1.88C109.73,69.27,109.75,70.92,109.75,71.12Z" transform="translate(-37.9 -8.19)"/><path d="M118.27,69.4l-2.76,0c0,.17,0,.49,0,.65a9,9,0,0,0,0,1l3.14,0a.45.45,0,0,1,.51.4c0,.74-2.06.77-2.84.77h-1.29c-.39,0-.5-.34-.5-.78,0-.09,0-.18,0-5.13a.62.62,0,0,1,.58-.6,18.56,18.56,0,0,1,1.91-.09c.56,0,2,0,2,.72,0,.26-.08.47-.31.47-.39,0-1-.07-1.59-.07-.76,0-1,0-1.62,0,0,.2,0,.63,0,1.66.79,0,1.72,0,2.38,0s.92.06.94.44S118.68,69.4,118.27,69.4Z" transform="translate(-37.9 -8.19)"/><path d="M123.26,65.38c.87,0,2.3.4,2.3,1.66a3.16,3.16,0,0,1-2.21,2.67l.17.16A7.35,7.35,0,0,1,125,71.78a.4.4,0,0,1-.42.37.77.77,0,0,1-.51-.23s-.32-.34-1.38-1.4c-.16-.17-.32-.31-.45-.43a4.31,4.31,0,0,1-.88.1,2.53,2.53,0,0,0,0,.29,7.92,7.92,0,0,0,.06,1.21c0,.35-.07.72-.45.72s-.52-.25-.52-.63v-.49c0-1,0-2.07,0-3,0-1.9-.31-1.52-.31-2C120.13,65.38,122.75,65.38,123.26,65.38Zm-2,3.66c2,0,3.31-1.12,3.31-1.87s-.93-.74-1.36-.74a5.85,5.85,0,0,0-1.9.4C121.31,67.42,121.33,68.48,121.31,69Z" transform="translate(-37.9 -8.19)"/><path d="M75.92,77.31c0,.15-.11.27-.46.64h0c-.07.07-.14.13-.84.87.69.49,1.8,1.19,1.8,1.6a.56.56,0,0,1-.49.6,11.3,11.3,0,0,1-2-1.44c0,.46,0,.71,0,1s-.05.58-.52.58a.51.51,0,0,1-.52-.48V77.12c0-.3.32-.42.52-.42a.55.55,0,0,1,.54.53c0,.14-.06.61-.06.94l1.34-1.33a.45.45,0,0,1,.25-.09C75.7,76.75,75.92,77.05,75.92,77.31Z" transform="translate(-37.9 -8.19)"/><path d="M80.12,79.13c0,1.93-1.09,2-1.88,2a1.3,1.3,0,0,1-1.4-1.44c0-.42,0-.81,0-1.24,0-.17,0-.37,0-.56,0-.63.06-1.27.59-1.27.29,0,.45.41.45.63s-.07,1.84-.07,2.15,0,.56.58.56.73-.41.73-1.21a4.05,4.05,0,0,0,0-.52h0c0-.22,0-.49,0-.86a.7.7,0,0,1,.57-.74.44.44,0,0,1,.49.47Z" transform="translate(-37.9 -8.19)"/><path d="M82.77,76.4c.64,0,1.66.31,1.66,1.25a2,2,0,0,1-1.24,1.73,3.65,3.65,0,0,1,.88,1.24.47.47,0,0,1-.48.44,1.24,1.24,0,0,1-.46-.21s-.63-.65-1.06-1.06a1,1,0,0,1-.29,0c0,.3,0,.55,0,.73s-.08.67-.49.67-.54-.25-.54-.61v-.31c0-.62,0-1.3,0-1.84a2.43,2.43,0,0,0-.12-1,.62.62,0,0,1-.07-.31C80.61,76.41,82.43,76.4,82.77,76.4Zm-1,1.27c0,.23,0,.52,0,.8a.86.86,0,0,0,0,.17.43.43,0,0,0,0,0c1-.07,1.65-.59,1.65-1,0-.21-.44-.26-.65-.26A3,3,0,0,0,81.79,77.67Z" transform="translate(-37.9 -8.19)"/><path d="M85.08,77.37a.7.7,0,0,1,.22-.56,4.45,4.45,0,0,1,1.59-.19c.54,0,1.1,0,1.53,0a.46.46,0,0,1,.29.51,35.27,35.27,0,0,1-2.43,2.69c.69,0,1.59,0,1.89,0a.51.51,0,0,1,.49.57.57.57,0,0,1-.49.54c-.44,0-.86,0-1.25,0-.74,0-1.15,0-1.49,0a.73.73,0,0,1-.59-.72.69.69,0,0,1,.18-.45c.15-.18,1.55-1.66,2-2.12a6,6,0,0,0-1.52.19C85.19,77.9,85.08,77.71,85.08,77.37Z" transform="translate(-37.9 -8.19)"/><path d="M92.18,77.72c-.69,0-1.24-.11-1.8-.06,0,.12,0,.29,0,.71h1.29c.46,0,.77.07.79.48s-.37.62-.94.62H90.37c0,.3,0,.77,0,1,0,.53-.25.69-.51.69s-.52-.31-.52-.73c0-.09,0-.46,0-3.18,0-.6.64-.64,1.51-.64a6.17,6.17,0,0,1,1.42.15c.22,0,.28.34.28.51S92.49,77.72,92.18,77.72Z" transform="translate(-37.9 -8.19)"/><path d="M95,80l.22,0a.52.52,0,0,1,.59.53c0,.52-.68.52-1.12.52h-1c-.28,0-.56-.08-.56-.46a.51.51,0,0,1,.4-.54H94c0-1.94,0-2.16,0-2.28s-.27,0-.35,0a.52.52,0,0,1-.56-.54c0-.59.72-.5,1.15-.52h1c.28,0,.56.09.56.46a.52.52,0,0,1-.4.55H95v.8c0,.4,0,1,0,1.32Z" transform="translate(-37.9 -8.19)"/><path d="M97.33,78.4c0,.54,0,1.44,0,1.59l1.36,0,.35,0a.48.48,0,0,1,.46.51.58.58,0,0,1-.31.5,5.06,5.06,0,0,1-1.39.16c-.87,0-1.51,0-1.51-.64,0-2.72,0-3.1,0-3.18v0c0-.39.13-.7.53-.7.24,0,.55.17.55.68Z" transform="translate(-37.9 -8.19)"/><path d="M104.58,81.11a.49.49,0,0,1-.49-.55c0-.09,0-.41,0-.77,0-.79,0-2-.41-2s-.54,1.64-.54,2.11a.48.48,0,0,1-.48.52.52.52,0,0,1-.56-.49c0-.23-.06-2.09-.44-2.09s-.45,2.41-.45,2.82a.47.47,0,0,1-.48.52.51.51,0,0,1-.55-.51v-.12c0-1,.07-4.08,1.6-4.08.32,0,.67.47.89,1.08.19-.66.51-1.14,1.14-1.14,1.12,0,1.25,2.26,1.25,3.48,0,.27,0,.55,0,.67A.58.58,0,0,1,104.58,81.11Z" transform="translate(-37.9 -8.19)"/><path d="M109.49,77.17H108c0,.53-.05,1.4-.05,2.16a15.11,15.11,0,0,0,.07,1.53c0,.16-.38.27-.49.27s-.28-.2-.28-.43c0,0,0-.24,0-2,0-.48,0-.93,0-1.42-.24,0-1.1,0-1.41.07s-.26-.22-.26-.4c0-.48,1.14-.4,1.86-.44h1.81c.35,0,.68,0,.68.31A.43.43,0,0,1,109.49,77.17Z" transform="translate(-37.9 -8.19)"/><path d="M113.74,80.65a9.19,9.19,0,0,0-.1-.94c-.38,0-1.41,0-2,0a10.14,10.14,0,0,0-.09,1.19c0,.18-.09.35-.3.35a.36.36,0,0,1-.39-.34c0-.6.32-4.58,2-4.58.94,0,1.31,2,1.4,2.7a11.05,11.05,0,0,1,.14,1.64.39.39,0,0,1-.3.36A.32.32,0,0,1,113.74,80.65Zm-2-1.72,1.79,0c-.08-1-.45-1.59-.83-1.59S111.86,78,111.71,78.93Z" transform="translate(-37.9 -8.19)"/><path d="M119,77.31a4.46,4.46,0,0,0-1.34-.29,1.79,1.79,0,0,0-1.48,1.77,1.38,1.38,0,0,0,1.42,1.56c.65,0,1.47-.34,1.47-1,0-.25-.17-.27-.42-.27-.46,0-.84.18-1.25.18-.19,0-.29-.14-.29-.44a.31.31,0,0,1,.19-.31,3.49,3.49,0,0,1,1.24-.18c.63,0,1.19.13,1.19.73a2.05,2.05,0,0,1-2,2.13A2.13,2.13,0,0,1,115.37,79,2.6,2.6,0,0,1,118,76.29c.59,0,1.21.17,1.21.66C119.17,77.2,119.09,77.31,119,77.31Z" transform="translate(-37.9 -8.19)"/><path d="M123.58,79.14l-1.93,0c0,.12,0,.35,0,.46a5.8,5.8,0,0,0,0,.7c.83,0,1.78,0,2.19,0,.26,0,.36.17.36.28,0,.51-1.44.54-2,.54h-.9c-.27,0-.35-.24-.35-.54,0-.07,0-.13,0-3.59a.43.43,0,0,1,.4-.42c.31,0,1-.06,1.34-.06s1.38,0,1.38.5c0,.19,0,.33-.22.33s-.7,0-1.11,0l-1.14,0v1.16l1.67,0c.37,0,.64,0,.65.31S123.87,79.14,123.58,79.14Z" transform="translate(-37.9 -8.19)"/><path d="M79.44,13.49a3.09,3.09,0,0,1-.79-2.22A3.14,3.14,0,0,1,79.44,9a2.65,2.65,0,0,1,2-.85A2.68,2.68,0,0,1,83.56,9a3.17,3.17,0,0,1,.78,2.23,3.13,3.13,0,0,1-.78,2.22,2.68,2.68,0,0,1-2.07.85A2.65,2.65,0,0,1,79.44,13.49ZM83,13a2.58,2.58,0,0,0,.56-1.72A2.56,2.56,0,0,0,83,9.55a2,2,0,0,0-3,0,2.56,2.56,0,0,0-.55,1.72A2.57,2.57,0,0,0,80,13a2,2,0,0,0,3,0Z" transform="translate(-37.9 -8.19)"/><path d="M85.35,14.18V8.35h4v.7H86.14v1.78H89v.7H86.14v2.65h-.79Z" transform="translate(-37.9 -8.19)"/><path d="M90.32,14.18V8.35h4v.7H91.11v1.78H94v.7H91.11v2.65h-.79Z" transform="translate(-37.9 -8.19)"/><path d="M95.32,8.35h.79v5.83h-.79Z" transform="translate(-37.9 -8.19)"/><path d="M102.38,12a2.73,2.73,0,0,1-.83,1.69,2.44,2.44,0,0,1-1.71.61,2.41,2.41,0,0,1-1.92-.83,3.29,3.29,0,0,1-.72-2.24A3.25,3.25,0,0,1,97.94,9a2.83,2.83,0,0,1,3.63-.33,2.12,2.12,0,0,1,.76,1.4h-.76a1.44,1.44,0,0,0-.54-.9,1.81,1.81,0,0,0-1.1-.31,1.71,1.71,0,0,0-1.4.64A2.73,2.73,0,0,0,98,11.27,2.83,2.83,0,0,0,98.5,13a1.68,1.68,0,0,0,1.4.6,1.57,1.57,0,0,0,1.12-.42,2.08,2.08,0,0,0,.6-1.18Z" transform="translate(-37.9 -8.19)"/><path d="M103.45,8.35h.79v5.83h-.79Z" transform="translate(-37.9 -8.19)"/><path d="M107.29,8.35h.9l2.1,5.83h-.85l-.6-1.69h-2.33l-.61,1.69h-.81Zm-.53,3.44h1.84l-.9-2.58h0Z" transform="translate(-37.9 -8.19)"/><path d="M111,14.18V8.35h.79v5.13h3v.7Z" transform="translate(-37.9 -8.19)"/><path d="M77.76,17a1.16,1.16,0,0,0-.43-.85,1.64,1.64,0,0,0-1-.3,1.6,1.6,0,0,0-1,.26.88.88,0,0,0-.35.75.57.57,0,0,0,.23.5,2.55,2.55,0,0,0,.93.33l1,.25a2.28,2.28,0,0,1,1.17.57,1.53,1.53,0,0,1,.35,1.07,1.51,1.51,0,0,1-.6,1.26,2.61,2.61,0,0,1-1.63.46,2.77,2.77,0,0,1-1.79-.53A1.81,1.81,0,0,1,74,19.36v0h.73a1.23,1.23,0,0,0,.46,1,2.46,2.46,0,0,0,2.33.09.82.82,0,0,0,.38-.73.73.73,0,0,0-.25-.62,2.57,2.57,0,0,0-1-.38l-1-.24a2.4,2.4,0,0,1-1.1-.51,1.22,1.22,0,0,1-.33-.9,1.67,1.67,0,0,1,.57-1.33,2.26,2.26,0,0,1,1.54-.49,2.34,2.34,0,0,1,1.57.49A1.84,1.84,0,0,1,78.49,17Z" transform="translate(-37.9 -8.19)"/><path d="M79.71,21.18V15.35H84v.7H80.5v1.78h3.17v.7H80.5v1.95H84v.7Z" transform="translate(-37.9 -8.19)"/><path d="M85.05,21.18V15.35h.79v5.13h3v.7Z" transform="translate(-37.9 -8.19)"/><path d="M89.65,21.18V15.35h4.27v.7H90.44v1.78h3.17v.7H90.44v1.95H94v.7Z" transform="translate(-37.9 -8.19)"/><path d="M99.91,19a2.73,2.73,0,0,1-.83,1.69,2.44,2.44,0,0,1-1.71.61,2.4,2.4,0,0,1-1.92-.83,3.29,3.29,0,0,1-.72-2.24A3.25,3.25,0,0,1,95.47,16a2.83,2.83,0,0,1,3.63-.33,2.12,2.12,0,0,1,.76,1.4H99.1a1.44,1.44,0,0,0-.54-.9,1.81,1.81,0,0,0-1.1-.31,1.71,1.71,0,0,0-1.4.64,2.73,2.73,0,0,0-.52,1.74A2.76,2.76,0,0,0,96,20a1.67,1.67,0,0,0,1.39.6,1.58,1.58,0,0,0,1.13-.42,2.08,2.08,0,0,0,.6-1.18Z" transform="translate(-37.9 -8.19)"/><path d="M102.33,16.05h-2v-.7h4.73v.7h-2v5.13h-.79Z" transform="translate(-37.9 -8.19)"/><path d="M106,15.35h.78v5.83H106Z" transform="translate(-37.9 -8.19)"/><path d="M108.57,20.49a3.09,3.09,0,0,1-.79-2.22,3.14,3.14,0,0,1,.79-2.23,2.65,2.65,0,0,1,2.05-.85,2.68,2.68,0,0,1,2.07.85,3.17,3.17,0,0,1,.78,2.23,3.13,3.13,0,0,1-.78,2.22,2.68,2.68,0,0,1-2.07.85A2.65,2.65,0,0,1,108.57,20.49Zm3.53-.5a2.58,2.58,0,0,0,.56-1.72,2.56,2.56,0,0,0-.56-1.72,1.86,1.86,0,0,0-1.48-.66,1.82,1.82,0,0,0-1.46.66,2.51,2.51,0,0,0-.56,1.72,2.53,2.53,0,0,0,.56,1.72,1.84,1.84,0,0,0,1.46.65A1.88,1.88,0,0,0,112.1,20Z" transform="translate(-37.9 -8.19)"/><path d="M115.17,21.18h-.76V15.35h.94l2.92,4.74V15.35H119v5.83h-.87l-3-4.76Z" transform="translate(-37.9 -8.19)"/></svg>