<svg xmlns="http://www.w3.org/2000/svg" viewBox="0 0 52.07 33.31"><defs><style>.a{fill:#040606;fill-rule:evenodd;}.b{fill:#fff;stroke:#000;stroke-miterlimit:10;stroke-width:0.5px;}</style></defs><title>gg-djf-laurel</title><path class="a" d="M77.91,38.77c0-.4,0-.29.28-.59a5,5,0,0,0,1.14-2.77l.07-.82c0-.17,0-.26,0-.41a7.72,7.72,0,0,0-.09-.79,2.18,2.18,0,0,0-.53.48,5.88,5.88,0,0,0-.61.85,4.72,4.72,0,0,0-.76,2.58,1.87,1.87,0,0,0,.29,1c.17.23.17,0,.09.61a.44.44,0,0,1-.13.3c-.24.34-.46.65-.67,1-.11.18-.21.33-.31.51l-.29.55c-.2.34-.27.53-.42.83,0,.05,0,.1-.07.14l0,.1,0,0c0-.39,0-.23.21-.66a5.57,5.57,0,0,0,.55-2.1A6,6,0,0,0,76.44,38a4.51,4.51,0,0,0-.21-.68L76,36.68a3.51,3.51,0,0,0-.61,1.19c-.36,1.09-.71,2.76-.15,3.79a1.19,1.19,0,0,0,.42.49c0,.1,0,.22,0,.31s0,.09,0,.15,0,.06,0,.14l-.52,1.45-.15.49a11.39,11.39,0,0,0-.39,1.61c-.08-.06-.09-.28-.07-.34s.07-.25.09-.36a6.2,6.2,0,0,0,.13-2.5,4.76,4.76,0,0,0-1-2.19,1.27,1.27,0,0,1-.11-.13c-.07-.09-.06-.1-.13-.12a2,2,0,0,1-.11.32c0,.13-.06.21-.09.35a6.86,6.86,0,0,0,.33,4.15,1.67,1.67,0,0,0,.71.61l.1.5c0,.14.07.06,0,.25a2.34,2.34,0,0,0,0,.26c0,.28-.2,1.62-.21,1.94l0,.86c0,.2,0,.42,0,.63-.12-.14-.11-.13-.1-.32a12.46,12.46,0,0,0,0-1.39,5.24,5.24,0,0,0-.45-1.48,5.12,5.12,0,0,0-1.34-1.75,1.52,1.52,0,0,0-.43-.3c0,.14,0,.28,0,.41A6.84,6.84,0,0,0,71.84,47a5.22,5.22,0,0,0,1.4,3.17,1.22,1.22,0,0,0,.69.25c.07.14.12.3.19.45s0,.31,0,.6l.06.9c0,.1,0,.22,0,.3,0,.4.09.78.15,1.15l.21,1.08c-.14-.09-.14-.43-.22-.71s-.15-.48-.24-.72a5,5,0,0,0-.73-1.19,3.49,3.49,0,0,0-.45-.49,2.73,2.73,0,0,0-.25-.23,3.76,3.76,0,0,0-1.56-.83,3.53,3.53,0,0,0,.34,1.52,7.48,7.48,0,0,0,.65,1.26l.18.26A2.57,2.57,0,0,0,74,55a1.41,1.41,0,0,0,.42,0l.17.24.12.17a.45.45,0,0,1,.09.21,22,22,0,0,0,1.1,2.82l.56,1.09c-.14-.09-.15-.06-.23-.22a5.12,5.12,0,0,0-.8-1.25l-.11-.12a3.49,3.49,0,0,0-.49-.45,1.57,1.57,0,0,0-.26-.19,3.64,3.64,0,0,0-1.66-.65c-.13,0-.29,0-.43,0a3.27,3.27,0,0,0-.44,0,3.57,3.57,0,0,0,.59,1.28,4.72,4.72,0,0,0,.52.66l.36.36c.64.64,1.87,1.2,2.69.65l.45.27c.06,0,.12.19.17.26.4.61.7,1,1.13,1.56l.72.81a2.78,2.78,0,0,1,.38.39c-.27,0-.29-.16-.5-.37a5.92,5.92,0,0,0-.45-.41,2.93,2.93,0,0,0-.53-.33,4.2,4.2,0,0,0-3.23-.08,2.26,2.26,0,0,1-.33.13c.07.31.62.75.88.92.88.59,2.34,1.28,3.45.74a1,1,0,0,0,.27-.18c.13-.11.13-.08.23-.23a1.75,1.75,0,0,1,.32,0c.22,0,.12,0,.26.1l.79.64c.45.32.85.56,1.32.85.14.08.87.41.95.48-.38,0-.06.08-.63-.21A3.54,3.54,0,0,0,79,64.67a3.7,3.7,0,0,0-.62.26,8.43,8.43,0,0,0-.93.63.75.75,0,0,0-.13.11,3.3,3.3,0,0,0,1.93.8l.33,0h.77a2.54,2.54,0,0,0,1.61-.66c.36-.36.3-.51.48-.55l.28-.06c.21,0,.32.05.52.12a9.79,9.79,0,0,0,2.23.52c0-.26-.06-.33-.32-.37a5.79,5.79,0,0,1-.6-.12,11.57,11.57,0,0,1-1.86-.61c-.11,0-.11-.09-.13-.23a1.21,1.21,0,0,1,0-.14.78.78,0,0,1,0-.43,3.27,3.27,0,0,0,0-.7c0-.24,0-.39-.1-.59A4.35,4.35,0,0,0,81,60.5a3.25,3.25,0,0,0-.87-.54c0,.18.19,1.2.22,1.43a4.5,4.5,0,0,0,.9,2.41c.2.21.69.66,1.06.57,0,.09.05.19.08.29a4.67,4.67,0,0,1-.81-.4l-1.24-.79-1.11-.93c-.12-.11-.13-.07-.13-.28s0-.29,0-.41a4.82,4.82,0,0,0,.13-3.11,4.56,4.56,0,0,0-.48-1.15,4,4,0,0,0-.5-.72c-.07-.08-.1-.17-.21-.2,0,.57-.26,1.73-.26,3a4.41,4.41,0,0,0,.09.73,2.27,2.27,0,0,0,.23.6c.15.29.5.77.83.85a3.25,3.25,0,0,0,0,.36,3.69,3.69,0,0,1-.69-.73l-.82-1-.79-1.25c-.09-.15-.08-.1,0-.29s0-.23.05-.35a.53.53,0,0,1,.16-.28,3.25,3.25,0,0,0,.3-.51,4.64,4.64,0,0,0,.44-1.61,5.72,5.72,0,0,0-.13-1.85,4.42,4.42,0,0,0-.45-1.2,3.19,3.19,0,0,1-.11.33,18.06,18.06,0,0,0-.82,2.27A3.37,3.37,0,0,0,76.14,58a1.87,1.87,0,0,0,.25.41.45.45,0,0,0,.13.11,2.23,2.23,0,0,1,0,.36,1.15,1.15,0,0,1-.14-.27A17.06,17.06,0,0,1,75,54.94c-.09-.34,0-.3.14-.63.06-.17,0-.15.18-.24a4.49,4.49,0,0,0,1.66-3,5.7,5.7,0,0,0,0-1.6c0-.14,0-.26-.06-.38-.09.07-1.27,1.68-1.39,1.86a3.78,3.78,0,0,0-.77,2.44,1.54,1.54,0,0,0,.09.37.8.8,0,0,0,.18.3c0,.14-.11.24-.15.38h0v0a17.23,17.23,0,0,1-.4-2.7,10.92,10.92,0,0,1,0-1.51c0-.14.16-.23.23-.34s0-.1.08-.14a1,1,0,0,1,.28-.11,3.61,3.61,0,0,0,1.79-1.76,5.57,5.57,0,0,0,.59-2.5c-.11.06-1.44,1.14-1.58,1.28a4.82,4.82,0,0,0-.86,1,2.76,2.76,0,0,0-.38,1.52c0,.08.06.39.06.42s-.15.22-.21.27a16.29,16.29,0,0,1,.25-2.8c.07-.45.15-.88.25-1.29s.08-.24.31-.46a.33.33,0,0,1,.24-.14,2.47,2.47,0,0,0,1.46-.44l.22-.15.42-.36a4.24,4.24,0,0,0,.8-1.12,4.16,4.16,0,0,0,.41-1.12l-1.17.46a6.82,6.82,0,0,0-1.12.54l-.24.17c-.09.06-.15.12-.23.18a2.15,2.15,0,0,0-.72,1.77c-.09,0-.14.1-.24.12a18.21,18.21,0,0,1,.8-2.44l.6-1.37c.29,0,.33-.2.59-.11a2.1,2.1,0,0,0,.65.11,3.58,3.58,0,0,0,2.84-1.85.47.47,0,0,0,.07-.12c0-.11-.1-.06-.41,0s-.52,0-.77,0a3,3,0,0,0-2.23.89,1.34,1.34,0,0,0-.27.5c-.11.35,0,.32-.38.41l.19-.38.43-.75c0-.08.07-.11.11-.18a12.29,12.29,0,0,1,1-1.4.76.76,0,0,0,.12-.19,1.2,1.2,0,0,0,.34,0c.16,0,.15,0,.28.06a2.25,2.25,0,0,0,.55.21,2.89,2.89,0,0,0,2.36-.58c.17-.12.69-.58.74-.79A3.91,3.91,0,0,1,82,37.2c-1-.17-1.9-.35-2.8.36a1.61,1.61,0,0,0-.41.64c-.05.06,0,0-.13,0h-.17a1.73,1.73,0,0,1,.27-.35l.92-1,.32-.3a3.45,3.45,0,0,1,.53-.43,3.66,3.66,0,0,0,.84-.15,3.48,3.48,0,0,0,1.19-.73,4.08,4.08,0,0,0,.8-1.12,3.2,3.2,0,0,0,.33-1l-1.53.58a3.07,3.07,0,0,0-.48.24,3.21,3.21,0,0,0-.78.64,2.08,2.08,0,0,0-.47,1c0,.1,0,.22,0,.33s-.07.13-.35.41h0l-1.35,1.42Z" transform="translate(-71.17 -33.2)"/><path class="a" d="M119.35,45.29c-.1,0-.14-.09-.24-.12a2.16,2.16,0,0,0-.32-1.31c-.57-.93-1.88-1.29-2.85-1.68a2.58,2.58,0,0,0-.31-.13,5,5,0,0,0,.85,1.82l.36.41c.07.08.13.11.2.18a2.72,2.72,0,0,0,1.88.78c.2,0,.27.17.42.26s.11.13.16.32c.1.42.17.84.25,1.29a17.71,17.71,0,0,1,.25,2.82c-.45-.31,0-.38-.25-1.51A3,3,0,0,0,119,47a8.25,8.25,0,0,0-.87-.8c-.19-.15-.36-.27-.54-.42l-.27-.22a1.39,1.39,0,0,0-.27-.21,5.4,5.4,0,0,0,.35,2,2.21,2.21,0,0,0,.12.27,5.28,5.28,0,0,0,.27.53l.15.23c.06.07.1.14.16.22a3.2,3.2,0,0,0,1.06.94l.26.11c.19.08.26.06.36.23l.16.22c.06,0,.07,0,.09.12a10.07,10.07,0,0,1,0,1.54,17.09,17.09,0,0,1-.41,2.73c0-.14-.11-.24-.14-.38a1.26,1.26,0,0,0,.26-.65,3.57,3.57,0,0,0-.58-2.17,19.64,19.64,0,0,0-1.37-1.88,1.94,1.94,0,0,0-.21-.27,6.14,6.14,0,0,0-.07,1.57,6.26,6.26,0,0,0,.1.74,4,4,0,0,0,.19.64l.25.59a3.79,3.79,0,0,0,.58.89,3.46,3.46,0,0,0,.57.51c.22.15.18.27.31.53s0,.33-.06.65-.25.87-.39,1.28a15.55,15.55,0,0,1-.75,1.78,4.37,4.37,0,0,1-.29.57,2.23,2.23,0,0,1,0-.36,1.1,1.1,0,0,0,.37-.5,4.64,4.64,0,0,0-.36-3.57l-.38-1c0-.1-.08-.21-.11-.34a5.26,5.26,0,0,0-.58,1.88,5,5,0,0,0,.56,3c.34.57.26.2.38.87,0,.17.08.15,0,.3a17.27,17.27,0,0,1-1.7,2.41,4.11,4.11,0,0,1-.62.63,3.53,3.53,0,0,0,0-.36c.35-.08.68-.53.83-.83a3.15,3.15,0,0,0,.33-1.33,12.66,12.66,0,0,0-.09-1.57c0-.39-.18-1.15-.18-1.5-.07,0-.06,0-.11.08a.43.43,0,0,1-.09.1,5,5,0,0,0-1,1.87,8.5,8.5,0,0,0-.21,1.43c0,.14,0,.23,0,.38a2,2,0,0,0,0,.37,3.43,3.43,0,0,0,.16.65,1.33,1.33,0,0,1,.11.69c0,.25-.08.27-.33.48l-.9.74a11.13,11.13,0,0,1-1.51.93,3.49,3.49,0,0,1-.55.27c0-.1,0-.2.07-.29.38.09.85-.36,1-.56.81-.81.88-2.38,1.08-3.48a2.35,2.35,0,0,0,.05-.37A3.83,3.83,0,0,0,112.87,61a3.9,3.9,0,0,0-.66,1.12,3.72,3.72,0,0,0-.29,1.81,1.3,1.3,0,0,1,0,.59c-.06.28-.13.23-.37.32a10.22,10.22,0,0,1-2.21.64c-.25,0-.32.09-.34.37a5.52,5.52,0,0,0,1.16-.2c.39-.1.7-.2,1.06-.32.15,0,.33-.17.49-.13l.29.06c.16,0,.13,0,.19.16a1.8,1.8,0,0,0,.68.69,3.5,3.5,0,0,0,1.65.37h0a3.64,3.64,0,0,0,2.61-.84c-.26-.18-.48-.4-.76-.56l-.58-.31a3.67,3.67,0,0,0-3.52.23c-.2.13-.12.06-.35.06.07,0,.17-.08.24-.12l.24-.12a12.58,12.58,0,0,0,1.79-1.09,9.75,9.75,0,0,0,.8-.64c.13-.13,0-.08.26-.1a1.75,1.75,0,0,1,.32,0,1.55,1.55,0,0,0,1.2.6,4.81,4.81,0,0,0,2.73-.92c.1-.06.17-.12.27-.19a1.91,1.91,0,0,0,.62-.74,5.26,5.26,0,0,0-1.34-.38,3.76,3.76,0,0,0-2.73.66,4.4,4.4,0,0,0-.46.4,2.09,2.09,0,0,0-.2.22c-.1.13-.1.16-.31.16a4.64,4.64,0,0,1,.38-.39l1.4-1.68.46-.69c.21-.32.1-.2.38-.39l.24-.14a2.08,2.08,0,0,0,2.15-.23,3.06,3.06,0,0,0,.53-.42c.16-.17.32-.3.46-.48a3.75,3.75,0,0,0,1-1.82,1.88,1.88,0,0,0-.41,0,3.66,3.66,0,0,0-1.18.2,3.51,3.51,0,0,0-.91.45,5.12,5.12,0,0,0-1.67,2c-.09.19-.09.14-.24.24,0-.15.46-.85.55-1.07.15-.37.34-.74.51-1.15s.3-.77.44-1.19c.07-.2.11-.43.19-.63s0,0,.08-.11l.27-.38a1.25,1.25,0,0,0,.78-.05,2.11,2.11,0,0,0,.84-.56,6.58,6.58,0,0,0,1.53-2.74,2.5,2.5,0,0,0,.11-.85,2.69,2.69,0,0,0-.69.24,4.63,4.63,0,0,0-.86.58,4.76,4.76,0,0,0-.92,1,5.52,5.52,0,0,0-.85,2c0,.13,0,.27-.14.34l.22-1.08c0-.3.22-1.69.22-2s0-.31,0-.62,0-.17.05-.29.12-.31.19-.45c.91,0,1.48-1.2,1.72-1.93a7.74,7.74,0,0,0,.44-2.75c0-.15,0-.29,0-.44a2.22,2.22,0,0,0-.54.4,5.25,5.25,0,0,0-1.71,4.5c0,.21,0,.19-.1.34v-.61a2.66,2.66,0,0,0,0-.28c0-.37,0-.6,0-.87,0-.42-.15-1.5-.22-1.91a.59.59,0,0,1,0-.13,3.37,3.37,0,0,0,.14-.64,1.25,1.25,0,0,0,.51-.36,2.18,2.18,0,0,0,.56-1.17A8.38,8.38,0,0,0,121,41a3.4,3.4,0,0,1-.12-.34c-.16,0-.67.9-.76,1.06a3.61,3.61,0,0,0-.27.64,6.58,6.58,0,0,0-.2.74,5.76,5.76,0,0,0,0,1.71,6.85,6.85,0,0,0,.23,1.13c0,.09,0,.31-.07.36a18.22,18.22,0,0,0-.87-3.06c0-.07-.18-.44-.18-.47s0,0,0-.14,0-.06,0-.14,0-.23,0-.34a1.8,1.8,0,0,0,.65-1.14,4.92,4.92,0,0,0,0-1.67,9.3,9.3,0,0,0-.34-1.45,3.72,3.72,0,0,0-.62-1.21l-.26.6a5.71,5.71,0,0,0,.36,4.7c.09.14.07.17.07.39l-.84-1.64-.31-.52-.74-1.11a1.55,1.55,0,0,1-.12-.54c0-.19,0-.17.12-.27a1.2,1.2,0,0,0,.16-.27,4.09,4.09,0,0,0-.59-3.27,5,5,0,0,0-1-1.27c-.07-.06,0-.06-.13-.09a7.52,7.52,0,0,0-.1.77c0,.16,0,.23,0,.41s0,.23,0,.41a7.63,7.63,0,0,0,.26,1.49,4.64,4.64,0,0,0,.92,1.7c.16.21.24.2.27.37a1.3,1.3,0,0,1,0,.23l-1.31-1.53c-.07-.07-.09-.11-.15-.18l-.9-.88c-.08-.06-.15-.08-.16-.2s0-.24,0-.35a2.43,2.43,0,0,0-1.23-1.6,6,6,0,0,0-1.24-.54l-.79-.29a3.18,3.18,0,0,0,.33.94,4.32,4.32,0,0,0,.5.8,3.42,3.42,0,0,0,.46.47l.19.16A3.1,3.1,0,0,0,113,36a2.86,2.86,0,0,0,.79.14c.24,0,1,.83,1.2,1.06s.53.59.75.86a2.31,2.31,0,0,1,.14.19.88.88,0,0,1-.29,0s-.08-.2-.11-.25a2,2,0,0,0-.3-.4,3.09,3.09,0,0,0-2.79-.37,4.3,4.3,0,0,1-.64.08,2.52,2.52,0,0,0,.32.43,3.09,3.09,0,0,0,2.76.95c.55-.12.62-.34.84-.28a1.31,1.31,0,0,0,.35,0,2.36,2.36,0,0,0,.24.34c.26.34.49.7.72,1,.08.12.14.24.22.36.27.47.38.69.62,1.15-.4-.09-.28-.08-.37-.39a1.79,1.79,0,0,0-1.18-1.15,3.68,3.68,0,0,0-.94-.22l-.37,0c-.21,0-.73,0-1.1-.06-.17,0-.12,0,0,.16a4.1,4.1,0,0,0,1.59,1.53,2.43,2.43,0,0,0,1.89.22c.29-.1.3.11.61.11a4.09,4.09,0,0,0,.2.44c.18.43.42.91.58,1.37l.33,1c.05.16.1.31.15.5a2.56,2.56,0,0,1,.13.53" transform="translate(-71.17 -33.2)"/><path d="M88.57,65.67v-.49l.62-.6c1.5-1.42,2.17-2.18,2.18-3.06a1,1,0,0,0-1.16-1.15,2,2,0,0,0-1.24.5l-.25-.56a2.56,2.56,0,0,1,1.65-.59,1.64,1.64,0,0,1,1.79,1.7c0,1.08-.78,1.95-2,3.14l-.47.43v0h2.63v.66Z" transform="translate(-71.17 -33.2)"/><path d="M97.08,62.68c0,2-.74,3.09-2,3.09-1.14,0-1.91-1.08-1.93-3s.84-3,2-3S97.08,60.81,97.08,62.68Zm-3.18.09c0,1.52.47,2.38,1.19,2.38s1.2-.94,1.2-2.44-.37-2.38-1.19-2.38S93.9,61.17,93.9,62.77Z" transform="translate(-71.17 -33.2)"/><path d="M99.52,60.55h0l-1,.55-.15-.6,1.27-.68h.68v5.85h-.77Z" transform="translate(-71.17 -33.2)"/><path d="M106.22,59.82v.52l-2.55,5.33h-.82l2.54-5.18v0h-2.86v-.65Z" transform="translate(-71.17 -33.2)"/><path d="M87.17,36.46a1.28,1.28,0,0,1-1.32,1.42,1.26,1.26,0,0,1-1.27-1.37A1.31,1.31,0,0,1,85.9,35.1,1.25,1.25,0,0,1,87.17,36.46Zm-1.94,0c0,.53.25.9.65.9s.65-.39.65-.91-.23-.9-.65-.9S85.23,36,85.23,36.49Z" transform="translate(-71.17 -33.2)"/><path d="M88,35.14h1.65v.5h-1v.61h1v.5h-1v1.08H88Z" transform="translate(-71.17 -33.2)"/><path d="M90.62,35.14h1.65v.5h-1v.61h1v.5h-1v1.08h-.61Z" transform="translate(-71.17 -33.2)"/><path d="M93.81,35.14v2.69H93.2V35.14Z" transform="translate(-71.17 -33.2)"/><path d="M94.63,37.51l1.29-1.85v0H94.75v-.5h2v.35l-1.26,1.82v0h1.28v.5h-2.1Z" transform="translate(-71.17 -33.2)"/><path d="M98.19,35.14v2.69h-.61V35.14Z" transform="translate(-71.17 -33.2)"/><path d="M100.79,36.69h-1v.64h1.11v.5H99.19V35.14h1.66v.5h-1v.56h1Z" transform="translate(-71.17 -33.2)"/><path d="M101.79,35.14h.61v2.18h1.08v.51h-1.69Z" transform="translate(-71.17 -33.2)"/><path d="M104.3,35.14h.62v2.18H106v.51H104.3Z" transform="translate(-71.17 -33.2)"/><path d="M108.42,36.69h-1v.64h1.1v.5h-1.71V35.14h1.66v.5h-1v.56h1Z" transform="translate(-71.17 -33.2)"/><path d="M86.61,41.14l-.19.69h-.63l.82-2.69h.8l.84,2.69h-.66l-.21-.69Zm.69-.45-.17-.58c0-.16-.1-.36-.14-.51h0c0,.15-.08.36-.12.51l-.16.58Z" transform="translate(-71.17 -33.2)"/><path d="M89.54,39.14v1.55c0,.46.18.7.49.7s.5-.22.5-.7V39.14h.6v1.51c0,.83-.41,1.23-1.12,1.23s-1.08-.38-1.08-1.24v-1.5Z" transform="translate(-71.17 -33.2)"/><path d="M92.15,41.21a1.66,1.66,0,0,0,.68.16c.28,0,.43-.11.43-.29s-.13-.26-.46-.38-.74-.4-.74-.79.39-.81,1-.81a1.69,1.69,0,0,1,.69.13l-.13.49a1.35,1.35,0,0,0-.57-.12c-.26,0-.39.11-.39.25s.15.25.5.38.7.43.7.81-.35.83-1.09.83a1.8,1.8,0,0,1-.76-.16Z" transform="translate(-71.17 -33.2)"/><path d="M95.2,41.83l-.64-2.69h.65l.2,1.11c.06.32.12.67.16.94h0c0-.29.11-.62.18-.95l.22-1.1h.65l.22,1.13c.06.32.1.61.14.91h0c0-.3.1-.62.15-.94l.22-1.1H98l-.69,2.69h-.66l-.23-1.16c0-.27-.09-.52-.13-.83h0c0,.31-.1.56-.16.83l-.26,1.16Z" transform="translate(-71.17 -33.2)"/><path d="M99.19,41.14l-.19.69h-.63l.82-2.69h.8l.84,2.69h-.66l-.21-.69Zm.69-.45-.17-.58c0-.16-.1-.36-.14-.51h0c0,.15-.08.36-.12.51l-.16.58Z" transform="translate(-71.17 -33.2)"/><path d="M102.27,39.14v1h1v-1h.61v2.69h-.61V40.71h-1v1.12h-.61V39.14Z" transform="translate(-71.17 -33.2)"/><path d="M104.88,39.14h.61v2.18h1.07v.51h-1.68Z" transform="translate(-71.17 -33.2)"/><line class="b" x1="11.5" y1="9.97" x2="40.33" y2="9.97"/><path d="M86.19,45.5a6.81,6.81,0,0,1,1-.07,2,2,0,0,1,1.38.4,1.51,1.51,0,0,1,.52,1.24,1.74,1.74,0,0,1-.52,1.34,2.29,2.29,0,0,1-1.53.46,5.71,5.71,0,0,1-.83,0Zm.61,2.86a1.78,1.78,0,0,0,.34,0,1.16,1.16,0,0,0,1.28-1.29,1.06,1.06,0,0,0-1.2-1.17,2.12,2.12,0,0,0-.42,0Z" transform="translate(-71.17 -33.2)"/><path d="M91.49,47.34H90.22v1h1.42v.5h-2V45.46h2V46H90.22v.87h1.27Z" transform="translate(-71.17 -33.2)"/><path d="M92.79,45.46v2c0,.66.27,1,.69,1s.71-.3.71-1v-2h.62v1.93c0,1-.54,1.5-1.35,1.5s-1.29-.44-1.29-1.5V45.46Z" transform="translate(-71.17 -33.2)"/><path d="M96.15,46h-1v-.52h2.55V46h-1v2.85h-.62Z" transform="translate(-71.17 -33.2)"/><path d="M98.08,48.16a1.64,1.64,0,0,0,.81.22c.4,0,.62-.19.62-.46s-.17-.41-.6-.56-.91-.5-.91-1,.46-1,1.19-1a1.75,1.75,0,0,1,.81.17l-.15.5a1.47,1.47,0,0,0-.67-.16c-.39,0-.56.21-.56.41s.19.38.64.55.88.52.88,1-.41,1-1.29,1a2,2,0,0,1-.91-.21Z" transform="translate(-71.17 -33.2)"/><path d="M103.11,48.73a2.1,2.1,0,0,1-.88.15,1.59,1.59,0,0,1-1.72-1.69,1.7,1.7,0,0,1,1.8-1.79,2.08,2.08,0,0,1,.83.15l-.14.5a1.64,1.64,0,0,0-.66-.13,1.12,1.12,0,0,0-1.18,1.24,1.1,1.1,0,0,0,1.17,1.21,1.88,1.88,0,0,0,.68-.12Z" transform="translate(-71.17 -33.2)"/><path d="M104.24,45.46v1.35h1.43V45.46h.62v3.37h-.62V47.35h-1.43v1.48h-.61V45.46Z" transform="translate(-71.17 -33.2)"/><path d="M108.88,47.34H107.6v1H109v.5h-2V45.46h2V46H107.6v.87h1.28Z" transform="translate(-71.17 -33.2)"/><path d="M109.56,45.5a5.89,5.89,0,0,1,.93-.07,1.53,1.53,0,0,1,1.05.28.86.86,0,0,1,.29.67.91.91,0,0,1-.62.85h0a.86.86,0,0,1,.48.65,6.24,6.24,0,0,0,.26.94h-.63a3.43,3.43,0,0,1-.23-.79c-.09-.44-.26-.58-.61-.59h-.31v1.38h-.61Zm.61,1.5h.37c.42,0,.67-.22.67-.56s-.25-.54-.66-.54a2.25,2.25,0,0,0-.38,0Z" transform="translate(-71.17 -33.2)"/><path d="M86.86,50h.62v2.19c0,.93-.46,1.24-1.13,1.24a1.6,1.6,0,0,1-.51-.08l.07-.5a1.38,1.38,0,0,0,.38.06c.35,0,.57-.16.57-.74Z" transform="translate(-71.17 -33.2)"/><path d="M88.76,50v2c0,.66.27,1,.69,1s.71-.3.71-1V50h.62v1.93c0,1-.54,1.5-1.35,1.5s-1.29-.44-1.29-1.5V50Z" transform="translate(-71.17 -33.2)"/><path d="M94.18,53.18a3.28,3.28,0,0,1-1.08.19,1.85,1.85,0,0,1-1.33-.45,1.7,1.7,0,0,1-.47-1.24,1.72,1.72,0,0,1,1.88-1.76,2.36,2.36,0,0,1,.9.16l-.14.5a1.78,1.78,0,0,0-.76-.15A1.14,1.14,0,0,0,92,51.65a1.12,1.12,0,0,0,1.17,1.22,1.21,1.21,0,0,0,.47-.07V52H93v-.49h1.19Z" transform="translate(-71.17 -33.2)"/><path d="M96.7,51.84H95.42v1h1.43v.5h-2V50h2v.5H95.42v.88H96.7Z" transform="translate(-71.17 -33.2)"/><path d="M97.38,53.33V50h.7L99,51.41a8.55,8.55,0,0,1,.57,1.13h0c0-.45-.05-.89-.05-1.4V50h.57v3.37h-.64l-.88-1.48a11.72,11.72,0,0,1-.61-1.16h0c0,.44,0,.88,0,1.44v1.2Z" transform="translate(-71.17 -33.2)"/><path d="M100.76,50a6.93,6.93,0,0,1,1-.07,2,2,0,0,1,1.38.4,1.48,1.48,0,0,1,.53,1.24,1.75,1.75,0,0,1-.53,1.34,2.27,2.27,0,0,1-1.53.46,5.71,5.71,0,0,1-.83,0Zm.62,2.86a1.67,1.67,0,0,0,.34,0A1.16,1.16,0,0,0,103,51.59a1.07,1.07,0,0,0-1.2-1.17,2,2,0,0,0-.42,0Z" transform="translate(-71.17 -33.2)"/><path d="M86.19,54.46h2V55H86.8v.94h1.25v.5H86.8v1.43h-.61Z" transform="translate(-71.17 -33.2)"/><path d="M89.35,54.46v3.37h-.62V54.46Z" transform="translate(-71.17 -33.2)"/><path d="M90.05,54.46h.62v2.86h1.39v.51h-2Z" transform="translate(-71.17 -33.2)"/><path d="M95.37,56.46c0-.44-.05-1,0-1.42h0c-.11.41-.25.87-.4,1.29l-.49,1.46H94l-.45-1.44A13.41,13.41,0,0,1,93.15,55h0c0,.44,0,1-.06,1.44L93,57.83h-.58l.23-3.37h.81l.44,1.36c.12.39.23.79.31,1.17h0c.09-.37.2-.78.33-1.18L95,54.46h.8L96,57.83h-.6Z" transform="translate(-71.17 -33.2)"/><path d="M96.65,54.5a5.37,5.37,0,0,1,.94-.07,1.53,1.53,0,0,1,1,.28,1,1,0,0,1,.33.75,1,1,0,0,1-.29.76,1.46,1.46,0,0,1-1.07.36,1.37,1.37,0,0,1-.3,0v1.27h-.61Zm.61,1.58a1.32,1.32,0,0,0,.3,0c.46,0,.75-.22.75-.62s-.27-.57-.69-.57a1.48,1.48,0,0,0-.36,0Z" transform="translate(-71.17 -33.2)"/><path d="M99.45,54.5a5.79,5.79,0,0,1,.93-.07,1.49,1.49,0,0,1,1,.28.83.83,0,0,1,.29.67.9.9,0,0,1-.61.85h0a.86.86,0,0,1,.47.65,7.29,7.29,0,0,0,.27.94h-.64A5,5,0,0,1,101,57c-.09-.44-.25-.58-.6-.59h-.31v1.38h-.61Zm.61,1.5h.36c.42,0,.68-.22.68-.56s-.26-.54-.66-.54a2.14,2.14,0,0,0-.38,0Z" transform="translate(-71.17 -33.2)"/><path d="M104.18,56.34h-1.27v1h1.42v.5h-2V54.46h2V55h-1.35v.88h1.27Z" transform="translate(-71.17 -33.2)"/><path d="M105.48,54.46v3.37h-.61V54.46Z" transform="translate(-71.17 -33.2)"/><path d="M106.17,57.16a1.65,1.65,0,0,0,.82.22c.39,0,.61-.19.61-.46s-.17-.41-.6-.56-.91-.5-.91-1,.46-1,1.19-1a1.69,1.69,0,0,1,.82.18l-.15.49a1.4,1.4,0,0,0-.68-.16c-.39,0-.56.21-.56.41s.2.38.65.55.87.52.87,1-.41,1-1.28,1a2,2,0,0,1-.91-.21Z" transform="translate(-71.17 -33.2)"/></svg>