<svg xmlns="http://www.w3.org/2000/svg" viewBox="0 0 147.02 48.98"><title>gg-filmfest-laurel</title><path d="M45.65,50,49,41.41h1.22L53.69,50h-1.3l-1-2.6H47.8L46.86,50Zm2.48-3.53H51l-.9-2.38c-.27-.72-.47-1.31-.61-1.78A10.84,10.84,0,0,1,49.07,44Z" transform="translate(-26.9 -25.62)"/><path d="M60.23,41.41h1.14v5a6,6,0,0,1-.29,2.06A2.54,2.54,0,0,1,60,49.67a3.74,3.74,0,0,1-2,.48,4.08,4.08,0,0,1-2-.42,2.42,2.42,0,0,1-1.1-1.2,5.76,5.76,0,0,1-.33-2.16v-5h1.14v5A4.84,4.84,0,0,0,56,48a1.6,1.6,0,0,0,.71.81,2.4,2.4,0,0,0,1.24.29,2.37,2.37,0,0,0,1.79-.57,3.23,3.23,0,0,0,.53-2.18Z" transform="translate(-26.9 -25.62)"/><path d="M63.26,50V41.41h3a7.34,7.34,0,0,1,1.53.12,3,3,0,0,1,1.26.62,3.54,3.54,0,0,1,1,1.47,5.82,5.82,0,0,1,.33,2,6.06,6.06,0,0,1-.22,1.73,4.28,4.28,0,0,1-.59,1.25,3.2,3.2,0,0,1-.78.78,3.1,3.1,0,0,1-1,.43,5.72,5.72,0,0,1-1.38.15Zm1.14-1h1.83a4.7,4.7,0,0,0,1.34-.16,2,2,0,0,0,.77-.45A2.71,2.71,0,0,0,69,47.3a5.38,5.38,0,0,0,.22-1.66,4,4,0,0,0-.44-2.07,2.22,2.22,0,0,0-1.08-1,4.31,4.31,0,0,0-1.47-.18H64.4Z" transform="translate(-26.9 -25.62)"/><path d="M72.12,50V41.41h1.14V50Z" transform="translate(-26.9 -25.62)"/><path d="M75.29,50V41.41H81.5v1H76.42v2.63h4.75v1H76.42V49H81.7v1Z" transform="translate(-26.9 -25.62)"/><path d="M83.25,50V41.41h1.17l4.51,6.74V41.41H90V50H88.86l-4.52-6.75V50Z" transform="translate(-26.9 -25.62)"/><path d="M98.06,47l1.14.29a3.83,3.83,0,0,1-1.29,2.13,3.54,3.54,0,0,1-2.27.74,4.07,4.07,0,0,1-2.26-.57,3.5,3.5,0,0,1-1.32-1.64,5.87,5.87,0,0,1-.46-2.3,5,5,0,0,1,.52-2.34,3.46,3.46,0,0,1,1.46-1.52,4.31,4.31,0,0,1,2.08-.52,3.52,3.52,0,0,1,2.17.66,3.43,3.43,0,0,1,1.22,1.85L97.93,44a2.67,2.67,0,0,0-.87-1.37,2.3,2.3,0,0,0-1.42-.42,2.76,2.76,0,0,0-1.66.47A2.52,2.52,0,0,0,93.05,44a5.52,5.52,0,0,0,0,3.56,2.37,2.37,0,0,0,1,1.22,2.77,2.77,0,0,0,1.46.4,2.42,2.42,0,0,0,1.61-.55A2.77,2.77,0,0,0,98.06,47Z" transform="translate(-26.9 -25.62)"/><path d="M100.62,50V41.41h6.21v1h-5.07v2.63h4.75v1h-4.75V49H107v1Z" transform="translate(-26.9 -25.62)"/><path d="M110.33,50l3.3-8.59h1.22L118.37,50h-1.29l-1-2.6h-3.59l-.94,2.6Zm2.48-3.53h2.91l-.89-2.38c-.28-.72-.48-1.31-.61-1.78a10.88,10.88,0,0,1-.47,1.64Z" transform="translate(-26.9 -25.62)"/><path d="M120.33,50l-2.28-8.59h1.17L120.53,47c.14.59.26,1.18.36,1.76q.33-1.38.39-1.59l1.63-5.8h1.37l1.23,4.35a23.39,23.39,0,0,1,.67,3c.11-.54.25-1.17.43-1.87L128,41.41h1.14L126.74,50h-1.09l-1.81-6.54c-.16-.55-.25-.89-.27-1-.09.39-.18.73-.25,1L121.49,50Z" transform="translate(-26.9 -25.62)"/><path d="M128.77,50l3.3-8.59h1.22L136.81,50h-1.3l-1-2.6h-3.59L130,50Zm2.48-3.53h2.91l-.9-2.38c-.27-.72-.47-1.31-.6-1.78a10.88,10.88,0,0,1-.47,1.64Z" transform="translate(-26.9 -25.62)"/><path d="M137.74,50V41.41h3.8a5.2,5.2,0,0,1,1.75.23,2,2,0,0,1,1,.82,2.5,2.5,0,0,1,.35,1.29,2.12,2.12,0,0,1-.59,1.54,3,3,0,0,1-1.83.8,3.33,3.33,0,0,1,.69.43,6.14,6.14,0,0,1,.94,1.14l1.5,2.34h-1.43l-1.14-1.79c-.33-.51-.61-.91-.82-1.18a2.52,2.52,0,0,0-.58-.57,1.6,1.6,0,0,0-.52-.23,3.21,3.21,0,0,0-.63,0h-1.32V50Zm1.13-4.8h2.45a3.57,3.57,0,0,0,1.21-.16,1.27,1.27,0,0,0,.67-.52,1.39,1.39,0,0,0,.23-.77,1.3,1.3,0,0,0-.44-1,2.09,2.09,0,0,0-1.4-.39h-2.72Z" transform="translate(-26.9 -25.62)"/><path d="M146.38,50V41.41h3a7.34,7.34,0,0,1,1.53.12,3,3,0,0,1,1.26.62,3.54,3.54,0,0,1,1,1.47,5.81,5.81,0,0,1,.34,2,6,6,0,0,1-.23,1.73,4.28,4.28,0,0,1-.59,1.25,3.2,3.2,0,0,1-.78.78,3,3,0,0,1-1,.43,5.72,5.72,0,0,1-1.38.15Zm1.14-1h1.83a4.65,4.65,0,0,0,1.34-.16,2,2,0,0,0,.77-.45,2.71,2.71,0,0,0,.63-1.08,5.38,5.38,0,0,0,.22-1.66,3.93,3.93,0,0,0-.44-2.07,2.2,2.2,0,0,0-1.07-1,4.39,4.39,0,0,0-1.47-.18h-1.81Z" transform="translate(-26.9 -25.62)"/><path d="M51,66.67V59.51h4v.84H51.8v2.22h2.75v.85H51.8v3.25Z" transform="translate(-26.9 -25.62)"/><path d="M56.26,66.67V59.51H57v7.16Z" transform="translate(-26.9 -25.62)"/><path d="M58.49,66.67V59.51h.78v6.31h2.89v.85Z" transform="translate(-26.9 -25.62)"/><path d="M63.21,66.67V59.51h1.17l1.39,5.07.28,1.06c.07-.27.18-.65.32-1.15l1.4-5h1v7.16h-.75v-6l-1.71,6h-.7L64,60.58v6.09Z" transform="translate(-26.9 -25.62)"/><path d="M70.26,66.67V59.51h4v.84H71v2.22h2.75v.85H71v3.25Z" transform="translate(-26.9 -25.62)"/><path d="M75.37,66.67V59.51h4.25v.84H76.15v2.19H79.4v.85H76.15v2.43h3.6v.85Z" transform="translate(-26.9 -25.62)"/><path d="M80.7,64.36l.74-.08a2.06,2.06,0,0,0,.26.92,1.48,1.48,0,0,0,.6.53,1.75,1.75,0,0,0,.87.2,1.57,1.57,0,0,0,1.07-.33,1.19,1.19,0,0,0,.25-1.44,1.19,1.19,0,0,0-.42-.38,7.76,7.76,0,0,0-1.22-.43,4.42,4.42,0,0,1-1.18-.5,1.68,1.68,0,0,1-.55-.63,1.86,1.86,0,0,1-.19-.87,1.94,1.94,0,0,1,.56-1.42A2.11,2.11,0,0,1,83,59.38a2.47,2.47,0,0,1,1.15.26,1.81,1.81,0,0,1,.76.74,2.44,2.44,0,0,1,.29,1.14l-.75.07a1.51,1.51,0,0,0-.41-1,1.45,1.45,0,0,0-1-.33,1.56,1.56,0,0,0-1,.29,1,1,0,0,0-.34.77.87.87,0,0,0,.25.67,3,3,0,0,0,1.14.48,7,7,0,0,1,1.22.42,1.91,1.91,0,0,1,.81.72,2,2,0,0,1,.28,1.07,2.25,2.25,0,0,1-.29,1.12,2,2,0,0,1-.78.77,2.59,2.59,0,0,1-1.2.26,2.31,2.31,0,0,1-1.73-.66A2.45,2.45,0,0,1,80.7,64.36Z" transform="translate(-26.9 -25.62)"/><path d="M88.08,66.67V60.35H86.15v-.84H90.8v.84H88.86v6.32Z" transform="translate(-26.9 -25.62)"/><path d="M94,66.67V59.51h2.2a2.24,2.24,0,0,1,1.06.21,1.52,1.52,0,0,1,.64.64,1.92,1.92,0,0,1,.25,1,1.86,1.86,0,0,1-.21.89,1.7,1.7,0,0,1-.61.64,1.58,1.58,0,0,1,.81.63,2,2,0,0,1,.29,1.1,2.34,2.34,0,0,1-.27,1.14,1.53,1.53,0,0,1-.71.71,2.7,2.7,0,0,1-1.22.23Zm.77-4.15H96a2.75,2.75,0,0,0,.71-.07.89.89,0,0,0,.47-.35,1.14,1.14,0,0,0,.16-.65,1.35,1.35,0,0,0-.14-.64.81.81,0,0,0-.4-.36,2.9,2.9,0,0,0-.89-.1H94.75Zm0,3.3h1.46a2.09,2.09,0,0,0,.72-.09,1,1,0,0,0,.51-.41,1.49,1.49,0,0,0,.17-.73,1.36,1.36,0,0,0-.17-.69,1,1,0,0,0-.44-.41,2.22,2.22,0,0,0-.89-.13H94.75Z" transform="translate(-26.9 -25.62)"/><path d="M99.61,66.67V59.51h2.6a2.85,2.85,0,0,1,1.21.2,1.47,1.47,0,0,1,.63.67,2.21,2.21,0,0,1,.25,1.08,1.81,1.81,0,0,1-1.65,1.95,1.78,1.78,0,0,1,.5.4,5,5,0,0,1,.61.91l1,2h-1L103,65.18a11,11,0,0,0-.69-1.18,1.38,1.38,0,0,0-.45-.41,1.43,1.43,0,0,0-.61-.1h-.89v3.18Zm.78-4h1.67a2.21,2.21,0,0,0,.83-.13,1,1,0,0,0,.44-.42,1.2,1.2,0,0,0,.17-.66,1.15,1.15,0,0,0-.32-.85,1.27,1.27,0,0,0-.94-.31h-1.85Z" transform="translate(-26.9 -25.62)"/><path d="M105.69,66.67V59.51h4.24v.84h-3.47v2.19h3.25v.85h-3.25v2.43h3.61v.85Z" transform="translate(-26.9 -25.62)"/><path d="M111.26,66.67V59.51h1.16l1.4,5.07.28,1.06c.06-.27.17-.65.31-1.15l1.41-5h1v7.16h-.74v-6l-1.72,6h-.69L112,60.58v6.09Z" transform="translate(-26.9 -25.62)"/><path d="M118.27,66.67V59.51h4.24v.84H119v2.19h3.25v.85H119v2.43h3.61v.85Z" transform="translate(-26.9 -25.62)"/><path d="M123.84,66.67V59.51h.79l3.09,5.63V59.51h.74v7.16h-.8L124.58,61v5.64Z" transform="translate(-26.9 -25.62)"/><path d="M135.83,65.82v.85H132a2.37,2.37,0,0,1,.31-1.15,6.33,6.33,0,0,1,1.19-1.5,8.55,8.55,0,0,0,1.32-1.56,2.06,2.06,0,0,0,.31-1,1.22,1.22,0,0,0-.32-.89,1,1,0,0,0-.78-.35,1.06,1.06,0,0,0-.83.37,1.57,1.57,0,0,0-.32,1.07l-.75-.09a2.45,2.45,0,0,1,.59-1.55,1.76,1.76,0,0,1,1.33-.52,1.61,1.61,0,0,1,1.36.6,2.23,2.23,0,0,1,.46,1.38,2.59,2.59,0,0,1-.36,1.31,9.41,9.41,0,0,1-1.37,1.67q-.65.66-.84.9a3.15,3.15,0,0,0-.3.48Z" transform="translate(-26.9 -25.62)"/><path d="M136.73,63.14a6,6,0,0,1,.49-2.73,1.54,1.54,0,0,1,1.43-.93,1.49,1.49,0,0,1,1.32.75,5.46,5.46,0,0,1,.59,2.91,6.1,6.1,0,0,1-.48,2.72,1.55,1.55,0,0,1-1.44.93,1.57,1.57,0,0,1-1.37-.82A5.43,5.43,0,0,1,136.73,63.14Zm.74,0a5.45,5.45,0,0,0,.33,2.34,1,1,0,0,0,.86.6,1,1,0,0,0,.83-.6,5.54,5.54,0,0,0,.33-2.34,5.51,5.51,0,0,0-.33-2.34,1,1,0,0,0-.87-.59,1,1,0,0,0-.82.6A5.49,5.49,0,0,0,137.47,63.13Z" transform="translate(-26.9 -25.62)"/><path d="M144.15,66.67h-.73v-5.6a4,4,0,0,1-.66.6,4.77,4.77,0,0,1-.78.46v-.85a4.57,4.57,0,0,0,1.06-.84,3.41,3.41,0,0,0,.64-1h.47Z" transform="translate(-26.9 -25.62)"/><path d="M149.87,61.26l-.72.07a1.8,1.8,0,0,0-.3-.79.89.89,0,0,0-.69-.34,1.14,1.14,0,0,0-1,.78,4.73,4.73,0,0,0-.33,2,1.84,1.84,0,0,1,.62-.72,1.47,1.47,0,0,1,.8-.24,1.54,1.54,0,0,1,1.22.64,2.6,2.6,0,0,1,.52,1.69,3.05,3.05,0,0,1-.27,1.3,1.87,1.87,0,0,1-.67.86,1.52,1.52,0,0,1-.9.28,1.77,1.77,0,0,1-1.47-.8,4.77,4.77,0,0,1-.57-2.67,5.47,5.47,0,0,1,.59-3,1.75,1.75,0,0,1,1.51-.88,1.52,1.52,0,0,1,1.12.45A2.23,2.23,0,0,1,149.87,61.26Zm-2.94,3.09a2,2,0,0,0,.36,1.24,1.07,1.07,0,0,0,.85.48.94.94,0,0,0,.76-.45,1.92,1.92,0,0,0,.34-1.22,1.86,1.86,0,0,0-.33-1.18,1,1,0,0,0-.81-.42,1,1,0,0,0-.82.42A1.66,1.66,0,0,0,146.93,64.35Z" transform="translate(-26.9 -25.62)"/><path d="M85.68,39l-1.57-7.16h.8l.89,4.69c.1.49.18,1,.25,1.47l.27-1.32,1.11-4.84h.95l.83,3.62A23.63,23.63,0,0,1,89.67,38c.08-.47.17-1,.29-1.56l.92-4.6h.79L90.05,39h-.74l-1.25-5.45-.18-.84c-.06.31-.11.59-.17.84L86.46,39Z" transform="translate(-26.9 -25.62)"/><path d="M92.52,39V31.84h.78V39Z" transform="translate(-26.9 -25.62)"/><path d="M94.63,39V31.84h.8l3.08,5.63V31.84h.74V39h-.79l-3.08-5.63V39Z" transform="translate(-26.9 -25.62)"/><path d="M100.55,39V31.84h.79l3.09,5.63V31.84h.74V39h-.79l-3.09-5.63V39Z" transform="translate(-26.9 -25.62)"/><path d="M106.5,39V31.84h4.25v.85h-3.47v2.18h3.25v.85h-3.25v2.44h3.6V39Z" transform="translate(-26.9 -25.62)"/><path d="M112,39V31.84h2.61a2.8,2.8,0,0,1,1.2.2,1.6,1.6,0,0,1,.64.67,2.33,2.33,0,0,1,.25,1.08,1.83,1.83,0,0,1-1.65,2,1.88,1.88,0,0,1,.49.4,4.39,4.39,0,0,1,.61.91l1,2h-1l-.78-1.49a9,9,0,0,0-.69-1.18,1.32,1.32,0,0,0-.44-.4,1.45,1.45,0,0,0-.61-.11h-.9V39Zm.78-4h1.67a2,2,0,0,0,.83-.13,1,1,0,0,0,.45-.42,1.24,1.24,0,0,0,.17-.66,1.15,1.15,0,0,0-.32-.85,1.33,1.33,0,0,0-.94-.31h-1.86Z" transform="translate(-26.9 -25.62)"/><polygon points="7.56 16.71 8.65 22.94 15.11 22.2 9.4 25.01 12.23 31.08 7.56 26.34 2.89 31.08 5.64 25.16 0 22.2 6.51 22.78 7.56 16.71"/><polygon points="13.13 0.23 12.65 6.54 19.09 7.42 12.87 8.72 14.1 15.31 10.75 9.55 5.05 13 9.18 7.94 4.45 3.67 10.61 5.85 13.13 0.23"/><polygon points="8.45 34.04 12.22 39.12 17.66 35.56 13.82 40.63 19.07 44.79 12.77 42.65 10.72 48.98 10.53 42.46 4.16 42.34 10.24 39.94 8.45 34.04"/><polygon points="139.46 16.48 138.36 22.71 131.9 21.97 137.61 24.78 134.79 30.85 139.46 26.11 144.13 30.85 141.38 24.93 147.01 21.97 140.51 22.55 139.46 16.48"/><polygon points="133.88 0 134.36 6.31 127.92 7.19 134.15 8.49 132.92 15.08 136.27 9.33 141.97 12.77 137.84 7.71 142.56 3.45 136.4 5.62 133.88 0"/><polygon points="138.57 33.81 134.79 38.89 129.35 35.33 133.19 40.4 127.94 44.56 134.25 42.42 136.29 48.76 136.49 42.23 142.86 42.11 136.78 39.71 138.57 33.81"/></svg>