<svg xmlns="http://www.w3.org/2000/svg" viewBox="0 0 460.76 333.09"><defs><style>.a{fill:#040606;fill-rule:evenodd;}</style></defs><title>gg-selb-laurel</title><path class="a" d="M138,280c0-4,.42-2.85,2.78-5.86,7.31-9.34,9.73-16,11.42-27.69l.69-8.2c0-1.74-.25-2.62-.26-4.08,0-4-.92-6.35-1-7.93-1.18.32-4.5,3.78-5.28,4.8-2.56,3.35-3.41,3.85-6.14,8.5-4.93,8.4-7.56,15.85-7.55,25.83,0,3.08,1.16,7.38,2.85,9.63s1.76-.17.9,6.1c-.28,2.08-.37,1.69-1.29,3-2.32,3.36-4.57,6.52-6.69,10.1-1.06,1.79-2,3.29-3,5.13l-3,5.43c-1.93,3.46-2.67,5.38-4.16,8.33-.24.47-.5,1-.71,1.44l-.43,1a1.72,1.72,0,0,1-.3.43c0-3.88-.05-2.3,2.08-6.56a55.62,55.62,0,0,0,5.59-21,60.07,60.07,0,0,0-1.25-16.25,48.12,48.12,0,0,0-2.06-6.82l-2.68-6.2c-1.92,1.29-5.13,9-6.09,11.91-3.58,10.85-7,27.59-1.51,37.93.93,1.74,2.58,4,4.24,4.88,0,1,.06,2.15,0,3.12s-.17.83-.2,1.47c-.06,1.13.14.62.16,1.44L110,334.28c-.5,1.69-1,3.25-1.56,4.92-.84,2.72-3.81,13.73-3.81,16.11-.83-.61-.89-2.85-.76-3.39.28-1.19.7-2.48.94-3.63,1.73-8.2,2.93-16.6,1.33-25-1.49-7.8-4.87-15.94-10-21.94a14.28,14.28,0,0,1-1.09-1.31c-.66-.92-.6-1-1.24-1.16-.28,1.2-.73,1.93-1.1,3.22s-.61,2.08-.91,3.4c-2.57,11.25-2.72,32.2,3.26,41.57,1.36,2.13,4.68,5.47,7.15,6l.94,5.07c.51,1.38.68.6.34,2.44-.18,1-.3,1.66-.46,2.67-.42,2.75-2,16.18-2,19.33l-.48,8.64c-.07,2,0,4.2,0,6.25-1.16-1.34-1.08-1.23-1-3.11a112.82,112.82,0,0,0-.42-14,51.07,51.07,0,0,0-4.45-14.76,52,52,0,0,0-13.42-17.53c-.93-.84-3.17-2.69-4.26-2.95,0,1.34-.41,2.77-.48,4.08a70.36,70.36,0,0,0,.76,12.92c1.42,10.13,5.66,25.34,14,31.62a11.63,11.63,0,0,0,6.86,2.5c.7,1.46,1.19,3,1.95,4.53,1,1.95.17,3.12.49,6l.62,9c.13,1,.21,2.26.28,3.07.33,3.94.86,7.75,1.49,11.47l2.13,10.83c-1.41-1-1.46-4.28-2.26-7.1a69,69,0,0,0-2.4-7.2,48.3,48.3,0,0,0-7.23-12,51.91,51.91,0,0,0-4.49-4.87c-.85-.86-1.62-1.47-2.52-2.28-3.11-2.78-11.61-8.25-15.65-8.34,0,6,1.25,10,3.46,15.26a81,81,0,0,0,6.42,12.53c.62,1,1.24,1.78,1.88,2.69,4.05,5.78,9.41,10.74,16.69,11.87,1.92.3,2.56-.22,4.18-.35.56.83,1.11,1.59,1.68,2.4l1.19,1.68a5.91,5.91,0,0,1,.94,2.19,212,212,0,0,0,11,28.12l5.6,11c-1.36-.91-1.52-.57-2.32-2.23a54.37,54.37,0,0,0-7.94-12.46c-.42-.48-.77-.72-1.19-1.22a35,35,0,0,0-4.81-4.54,27.83,27.83,0,0,0-2.65-1.91A36.85,36.85,0,0,0,88.12,458c-1.31-.15-2.86-.09-4.3-.25a27.57,27.57,0,0,0-4.36,0,35.51,35.51,0,0,0,5.86,12.87,43.89,43.89,0,0,0,5.24,6.52l3.6,3.59c6.38,6.46,18.64,12,26.82,6.54l4.5,2.7a11.88,11.88,0,0,1,1.74,2.58c4,6.08,7,10,11.28,15.6l7.26,8.1a39.21,39.21,0,0,1,3.78,3.9c-2.71,0-2.91-1.59-5-3.66a59,59,0,0,0-4.56-4.08,33.39,33.39,0,0,0-5.26-3.38c-9.05-4.87-22.76-4.47-32.31-.71a28.77,28.77,0,0,1-3.29,1.27c.73,3.12,6.2,7.5,8.79,9.22,8.83,5.85,23.44,12.74,34.48,7.41a13.78,13.78,0,0,0,2.75-1.81,8.28,8.28,0,0,0,2.22-2.34,21.61,21.61,0,0,1,3.22.38c2.22.28,1.23-.24,2.62,1l7.94,6.46c4.45,3.19,8.48,5.63,13.14,8.45,1.44.87,8.7,4.11,9.56,4.85-3.86,0-.59.79-6.32-2.08-9.52-4.76-18.31-5.68-28.88-2.16a32.63,32.63,0,0,0-6.22,2.66,84.81,84.81,0,0,0-9.32,6.27c-.56.44-.85.74-1.34,1.07,2.9,4.32,12.63,7.06,19.33,8,1.11.16,2.23.29,3.34.38h7.64c6.41-.56,12.24-2.59,16.19-6.54,3.57-3.58,3-5.16,4.74-5.58,1-.24,1.82-.27,2.86-.51,2-.48,3.18.49,5.14,1.14,5.2,1.72,16.51,5.25,22.35,5.25-.21-2.62-.67-3.35-3.22-3.74a61,61,0,0,1-6-1.21,108.1,108.1,0,0,1-18.64-6.08c-1.08-.49-1.05-1-1.33-2.27-.12-.6-.18-1-.28-1.4a9.26,9.26,0,0,1-.12-4.33,29.76,29.76,0,0,0-.07-7,43.66,43.66,0,0,0-1-5.92A43.21,43.21,0,0,0,169,497.33c-1.62-1.42-6.51-5-8.69-5.47,0,1.85,1.88,12.1,2.2,14.36,1.11,7.9,3.3,18.17,9,24.1,2,2,6.89,6.57,10.63,5.7.21.91.49,1.89.72,2.88-1.66-.39-6.28-2.88-8.06-3.94l-12.44-8-11.12-9.28c-1.11-1.09-1.29-.74-1.27-2.81,0-1.23-.09-2.93,0-4.09.19-2.17,6.4-13.21,1.34-31.1a49.79,49.79,0,0,0-4.8-11.52,41.42,41.42,0,0,0-5-7.24c-.7-.74-1.07-1.7-2.1-2,0,5.7-2.67,17.31-2.65,30.49a43.12,43.12,0,0,0,.87,7.29,25.72,25.72,0,0,0,2.34,6.06c1.46,2.93,5,7.71,8.32,8.48a34.71,34.71,0,0,0,.24,3.6c-2.59-1.73-4.81-4.91-6.9-7.26l-8.12-10.36-8-12.45c-.87-1.51-.83-1-.42-2.91.27-1.23.4-2.36.57-3.52s.78-1.8,1.53-2.79a34,34,0,0,0,3-5.11,46.14,46.14,0,0,0,4.34-16.05,57.06,57.06,0,0,0-1.22-18.5c-.65-2.58-3.09-10.93-4.56-12a23.52,23.52,0,0,1-1.1,3.22c-2.88,7.52-6.24,14.81-8.21,22.74s-2.39,14.84.77,22.41a15.68,15.68,0,0,0,2.43,4.05,3.75,3.75,0,0,0,1.31,1.09,21.28,21.28,0,0,1-.48,3.6,12.93,12.93,0,0,1-1.44-2.64,179.31,179.31,0,0,1-13.68-36.71c-.88-3.43.26-3,1.41-6.27.61-1.74.45-1.49,1.85-2.48,9.41-6.58,14.75-18.4,16.53-29.55a56,56,0,0,0,.2-16c-.18-1.37-.46-2.65-.55-3.77-.9.66-12.67,16.73-13.87,18.53-5,7.5-8.37,15-7.71,24.41a17,17,0,0,0,.84,3.71,10.11,10.11,0,0,0,1.78,3c-.32,1.39-1.09,2.35-1.44,3.84,0,0-.07-.2-.08-.16s-.06-.13-.07-.17c-1.52-4-3.81-22.62-3.92-27-.13-4.89-1-10.28-.49-15.13.14-1.38,1.65-2.28,2.36-3.39a7.37,7.37,0,0,1,.83-1.33,8.88,8.88,0,0,1,2.71-1.13c9.08-3.46,13.28-10,17.91-17.61,3.14-5.14,7-20.3,6-25-1.1.59-14.37,11.36-15.78,12.78-3.29,3.32-6.32,6.41-8.69,10.51-2.13,3.69-4.42,10.65-3.75,15.25.11.73.64,3.87.61,4.16-.11.82-1.52,2.24-2.15,2.66a167.08,167.08,0,0,1,2.51-28c.76-4.53,1.52-8.77,2.48-12.88.92-3.88.81-2.4,3.11-4.57.75-.7,1.11-1.32,2.45-1.39,6.18-.33,9.64-1.11,14.56-4.4.84-.57,1.52-1,2.25-1.58l4.15-3.54a43.77,43.77,0,0,0,8-11.18c1.05-2.1,4.1-8.66,4.16-11.2L134.9,317.4a68.66,68.66,0,0,0-11.18,5.38,27.09,27.09,0,0,0-2.4,1.68c-.88.66-1.47,1.21-2.26,1.81-5.13,4-7.2,10.54-7.2,17.76-1,.26-1.42.94-2.4,1.2.08-3.33,6.32-20.48,7.92-24.47l6-13.68c3,0,3.35-2,5.91-1.12a20.61,20.61,0,0,0,6.57,1.12c11.93,0,22.51-8.9,28.33-18.47a8,8,0,0,0,.74-1.23c.35-1.06-1-.61-4.15-.26-2.47.28-5.12,0-7.61.31-8.36.94-16.61,1.7-22.39,8.81a14.83,14.83,0,0,0-2.63,5c-1.09,3.53.24,3.17-3.81,4.12.67-1.26,1.26-2.58,1.92-3.85L130.5,294c.4-.71.69-1.05,1.12-1.76a150.79,150.79,0,0,1,9.49-14,6.3,6.3,0,0,0,1.23-1.88,11.23,11.23,0,0,0,3.37-.25c1.58-.41,1.55-.07,2.79.57a20.94,20.94,0,0,0,5.55,2.13c8.35,1.91,17-.85,23.6-5.78,1.66-1.24,6.85-5.87,7.41-7.95a36,36,0,0,1-6.18-.79c-10.42-1.74-18.95-3.52-27.94,3.63-2.69,2.14-4.15,6.4-4.15,6.41-.48.56-.26.29-1.24.44a11.92,11.92,0,0,1-1.77.15,24.42,24.42,0,0,1,2.71-3.53l9.23-10.21c1.14-1.14,2.12-1.87,3.24-3,.73-.74,4.32-4.08,5.28-4.31,2.12-.51,3.67.1,8.37-1.47a34,34,0,0,0,11.91-7.29,41.93,41.93,0,0,0,8-11.23c.91-1.83,3.36-7.12,3.36-9.6L180.49,230a43.55,43.55,0,0,0-4.78,2.41,34.39,34.39,0,0,0-7.75,6.41,19.88,19.88,0,0,0-4.69,9.48,30.62,30.62,0,0,0,0,3.32c0,2-.72,1.32-3.53,4.16l-.12.12-13.47,14.12Z" transform="translate(-70.59 -224.28)"/><path class="a" d="M492.47,345.23c-1-.26-1.42-.94-2.4-1.2,0-6.22-.8-9.13-3.22-13.1-5.69-9.33-18.79-13-28.49-16.86a28.72,28.72,0,0,0-3.09-1.23c.1,4.4,5.54,14.19,8.5,18.14l3.56,4.12c.75.77,1.3,1,2,1.79a27.18,27.18,0,0,0,18.8,7.85c2,0,2.69,1.61,4.18,2.54s1.09,1.3,1.56,3.23c1,4.14,1.75,8.36,2.5,12.86A174.55,174.55,0,0,1,499,391.55c-4.53-3,.3-3.76-2.49-15a30.32,30.32,0,0,0-7.76-13.84,95.42,95.42,0,0,0-8.78-8c-1.84-1.49-3.58-2.72-5.39-4.21-.93-.76-1.74-1.41-2.67-2.14a16.75,16.75,0,0,0-2.67-2.13c-1,4.32,1.95,15.06,3.51,19.54a19.86,19.86,0,0,0,1.13,2.7,49.5,49.5,0,0,0,2.7,5.22l1.54,2.3c.55.78,1,1.42,1.61,2.23a30.7,30.7,0,0,0,10.55,9.37,26.62,26.62,0,0,0,2.65,1.19c1.85.72,2.58.61,3.53,2.23l1.64,2.2c.56.57.74.48.88,1.28.68,3.76-.37,11.19-.46,15.33-.08,3-2.62,25.07-4.08,27.37-.34-1.49-1.12-2.45-1.44-3.84a13,13,0,0,0,2.61-6.51c.79-7.91-2-15.33-5.8-21.74-4-6.72-9-12.52-13.68-18.72a16.37,16.37,0,0,0-2.09-2.71c-.08,3.72-1.84,7.59-.78,15.67a64.29,64.29,0,0,0,1,7.37,50.6,50.6,0,0,0,1.92,6.48l2.5,5.9a38.07,38.07,0,0,0,5.83,8.81,29.48,29.48,0,0,0,5.69,5.1c2.13,1.5,1.79,2.78,3.1,5.3,1.08,2.06.18,3.34-.61,6.52-1.05,4.25-2.49,8.73-3.94,12.86a148.94,148.94,0,0,1-7.45,17.74c-.78,1.57-1.8,4.35-3,5.68a21.28,21.28,0,0,1-.48-3.6,10.55,10.55,0,0,0,3.67-5c5.22-12.07.82-24.15-3.57-35.68l-3.73-9.47A26.36,26.36,0,0,1,473,424c-2.38,1.75-5.32,14.77-5.76,18.72-1.11,10,.46,21.6,5.6,30.16,3.38,5.63,2.58,2,3.79,8.68.31,1.73.77,1.52-.16,3-6.28,10.14-9.68,15.35-17,24.06-1.62,1.94-4.27,5-6.17,6.31a34.71,34.71,0,0,0,.24-3.6c3.42-.8,6.72-5.31,8.25-8.32a29.65,29.65,0,0,0,3.28-13.27,106.76,106.76,0,0,0-.89-15.68c-.52-3.88-1.76-11.48-1.76-15-.75.21-.62.18-1.11.82a7.16,7.16,0,0,1-.87,1c-4.47,4.69-8,12.5-9.86,18.7-1.37,4.56-1.49,9.5-2.05,14.28-.16,1.38.22,2.24.21,3.8a23.46,23.46,0,0,0,.41,3.67,39.6,39.6,0,0,0,1.66,6.5c1.33,3.81,1,2.7,1.06,6.88,0,2.57-.73,2.71-3.29,4.86l-9,7.37a120.3,120.3,0,0,1-15.11,9.36A44.53,44.53,0,0,1,419,538.9c.23-1,.5-2,.72-2.88,3.74.87,8.52-3.57,10.5-5.58,8.09-8.17,8.74-23.8,10.75-34.84a21.42,21.42,0,0,0,.59-3.74c-4.32,1-10.88,7.22-14,10.75a40.06,40.06,0,0,0-6.56,11.19,37.71,37.71,0,0,0-2.95,18.1c.37,3.32.24,2.78-.41,5.9-.57,2.78-1.28,2.29-3.7,3.26a102.64,102.64,0,0,1-22,6.3c-2.58.41-3.2,1-3.43,3.78,3.74,0,8.07-1.18,11.61-2.07,3.92-1,6.93-1.92,10.56-3.12,1.56-.52,3.32-1.69,4.94-1.31.95.23,1.8.34,2.84.55,1.62.31,1.31.28,2,1.63a17.68,17.68,0,0,0,6.81,6.86c4.23,2.55,10.25,3.67,16.47,3.7h.33c11.1,0,22.77-3.48,26.06-8.4-2.61-1.75-4.85-4-7.6-5.6l-5.84-3c-12.15-5.36-24.14-4.42-35.13,2.3-2.07,1.26-1.25.58-3.5.58a11.46,11.46,0,0,1,2.4-1.2l2.4-1.2a131,131,0,0,0,17.89-10.9,78.15,78.15,0,0,0,8-6.45c1.28-1.24.48-.72,2.6-1a21.76,21.76,0,0,1,3.22-.38c2.59,3.86,7.34,5.62,12,6,9.51.74,20.22-4.46,27.3-9.16,1-.66,1.72-1.21,2.66-1.9,2-1.45,5.74-5.14,6.27-7.41-3.46-.81-5.78-3-13.46-3.82-10.05-1.12-19.52.78-27.23,6.56a41.53,41.53,0,0,0-4.61,4,21.2,21.2,0,0,0-2.08,2.24c-1,1.29-1,1.54-3,1.54a40.36,40.36,0,0,1,3.78-3.9l13.94-16.78,4.6-6.92c2.1-3.14,1.09-2,3.84-3.84a27.21,27.21,0,0,1,2.4-1.44c6.08,4.07,15.59,1.69,21.51-2.25a33.24,33.24,0,0,0,5.31-4.29,60.54,60.54,0,0,0,4.58-4.77c5.07-6.3,8.07-9.39,10.12-18.21-1.93,0-2.25-.33-4.15-.06-5.08.71-5-.29-11.72,1.95a36,36,0,0,0-9.13,4.56,51.73,51.73,0,0,0-16.76,20.19c-.9,1.87-.81,1.34-2.4,2.4.37-1.56,4.66-8.54,5.55-10.76,1.48-3.64,3.42-7.35,5.08-11.49,1.59-4,3-7.71,4.4-11.92.67-2,1.14-4.27,1.92-6.24.42-1.06.1-.23.8-1.11l2.65-3.83c3.75.31,3.5,1,7.89-.51a21.79,21.79,0,0,0,8.37-5.55c7-7.05,12.62-18,15.32-27.4a25.53,25.53,0,0,0,1.06-8.54c-1.67,0-5.53,1.79-6.89,2.48a44,44,0,0,0-8.64,5.75,50.12,50.12,0,0,0-9.15,9.81c-4.57,6.76-6.61,12.32-8.49,20.31-.31,1.32-.25,2.64-1.39,3.41l2.13-10.83c.51-3,2.22-16.85,2.19-20.37,0-2.3.26-3.16.24-6.24,0-2.44-.16-1.7.45-2.91.76-1.48,1.25-3.07,1.95-4.53,9.13,0,14.83-11.93,17.25-19.23a78.59,78.59,0,0,0,4.36-27.57c-.05-1.46-.49-2.89-.49-4.32-1.31.31-4.31,3-5.45,3.91-3.52,2.95-7.3,8-9.72,11.88-6.41,10.22-7.86,21-7.39,33.18.08,2.11.34,1.85-1,3.35,0-2,0-4,0-6,0-1.33-.24-1.53-.26-2.86,0-3.69-.41-6-.47-8.64a187.36,187.36,0,0,0-2.2-19.17,4.12,4.12,0,0,1-.19-1.25c0-.73,1.43-3.78,1.43-6.47,2-.46,3.8-2.24,5.1-3.54,3.07-3.05,4.75-7.4,5.6-11.67a83,83,0,0,0-1.15-35.61c-.33-1.18-.87-2.22-1.15-3.41-1.58.42-6.68,9-7.64,10.6a37.59,37.59,0,0,0-2.71,6.41,54.76,54.76,0,0,0-2,7.4c-1,5.17-.77,11.59-.16,17.09A74.31,74.31,0,0,0,498,351.74c.23.85.06,3-.71,3.57,0-4.79-6.83-25.88-8.74-30.61-.28-.7-1.77-4.38-1.78-4.68-.06-1.12.17-.24.15-1.4,0-.59-.14-.58-.19-1.46-.06-1,0-2.3,0-3.36,3.44-1.82,5.73-7.51,6.58-11.43,1.17-5.42.37-11.5-.32-16.67a91.5,91.5,0,0,0-3.47-14.53c-1-3-4.17-10.76-6.15-12.09l-2.64,6c-5.54,13.95-4.24,34.48,3.65,47,.92,1.45.67,1.72.67,3.89l-8.39-16.33c-1-1.82-2.07-3.53-3.11-5.29l-7.4-11.08c-.75-1-.76-3.19-1.14-5.36-.34-1.93.24-1.66,1.15-2.68a12.21,12.21,0,0,0,1.58-2.73c4.26-11.36-.93-23.76-5.89-32.68a47.18,47.18,0,0,0-10.32-12.72c-.66-.58-.41-.65-1.28-.89,0,1.57-1,4.12-1,7.69,0,1.58-.29,2.32-.26,4.08,0,1.45.23,2.35.25,4.08a74.63,74.63,0,0,0,2.61,14.9c2.39,7.7,4.76,11.33,9.15,17,1.62,2.1,2.37,2.07,2.73,3.76a13.57,13.57,0,0,1,.15,2.24l-13-15.3c-.73-.72-.92-1.08-1.56-1.8l-9-8.74c-.79-.64-1.49-.81-1.61-2s.09-2.45,0-3.58c-.72-6.82-7.39-13.06-12.31-16A68.66,68.66,0,0,0,414,227.2l-7.88-2.92c0,2.4,2.35,7.59,3.28,9.44a42.61,42.61,0,0,0,5,8,35.63,35.63,0,0,0,4.63,4.72c.6.54,1.19,1,1.85,1.52a31.09,31.09,0,0,0,8.5,4.46c3.56,1.18,4.67,1,7.95,1.41,2.42.28,9.62,8.29,11.94,10.61s5.34,5.85,7.54,8.55a10.7,10.7,0,0,1,1.4,1.95,6.92,6.92,0,0,1-2.89-.47c-.21-.18-.82-2-1.11-2.49a18.89,18.89,0,0,0-3-3.93c-8.6-7.15-17.58-5.49-27.88-3.77a37.47,37.47,0,0,1-6.37.82c.23.89,2.44,3.46,3.17,4.26,6.53,7.06,17.55,11.69,27.64,9.52,5.44-1.17,6.16-3.35,8.35-2.81a11.09,11.09,0,0,0,3.55.31,20.49,20.49,0,0,0,2.37,3.39c2.56,3.39,4.89,7,7.19,10.57.78,1.22,1.41,2.36,2.16,3.6,2.79,4.63,3.84,6.85,6.28,11.48-4.07-.95-2.81-.77-3.75-3.93-1.65-5.58-6.2-9.59-11.75-11.52a39.15,39.15,0,0,0-9.41-2.12c-1-.12-2.76-.24-3.71-.37-2.08-.28-7.32-.27-11-.6-1.77-.16-1.23.18-.35,1.6,3.82,6.16,9.23,12,15.86,15.34,5.64,2.8,12.44,4.48,18.95,2.22,2.92-1,3,1.06,6.09,1.06a46,46,0,0,0,2,4.46c1.77,4.27,4.15,9,5.75,13.68l3.3,9.67c.54,1.61,1,3.13,1.51,5a27.67,27.67,0,0,1,1.34,5.38" transform="translate(-70.59 -224.28)"/><path d="M193.6,333.79q-5.41,0-8.28-2.77a10.11,10.11,0,0,1-2.87-7.64,11.25,11.25,0,0,1,1.39-5.78,9.33,9.33,0,0,1,3.86-3.66,13.79,13.79,0,0,1,6.35-1.27,13.39,13.39,0,0,1,6.11,1.22,8.83,8.83,0,0,1,3.65,3.4,10.3,10.3,0,0,1,1.28,5.34,11.88,11.88,0,0,1-1.4,5.93,9.75,9.75,0,0,1-4,3.86A12.76,12.76,0,0,1,193.6,333.79Zm.55-1.58a5.74,5.74,0,0,0,4.7-2.18c1.16-1.45,1.75-3.65,1.75-6.62s-.67-5.49-2-7.15a7,7,0,0,0-9.91.09q-1.74,2.1-1.74,6.45a13.13,13.13,0,0,0,1,5.31,6,6,0,0,0,6.25,4.1Z" transform="translate(-70.59 -224.28)"/><path d="M206.46,333.5v-1.2l.9-.07a2,2,0,0,0,1.13-.28,2.28,2.28,0,0,0,.28-1.22c.08-1.37.12-3,.12-4.93l0-3.54q-1.46.08-2.4.15v-.76l1.39-.72.25-.12.15-.07.42-.22v-1.38a5.72,5.72,0,0,1,.39-2.39,9.59,9.59,0,0,1,2-2.21,28.52,28.52,0,0,1,2.74-2.32,4.07,4.07,0,0,1,2.25-.61,4.24,4.24,0,0,1,.85.09,5.58,5.58,0,0,1,.91.24c-.17,1.14-.3,2.35-.41,3.63l-.57.12a5,5,0,0,0-1.28-.92,2.86,2.86,0,0,0-1.24-.3,1.5,1.5,0,0,0-1.72,1.56c-.07.56-.1,2.06-.1,4.49H214a14.3,14.3,0,0,0,2.49-.22l.17.23a18,18,0,0,0-.38,1.81c-.58,0-1.12-.08-1.62-.08h-2.16c0,4.25,0,7,.09,8.31,0,.73.14,1.18.32,1.33a6.11,6.11,0,0,0,2.61.4v1.2q-2.14-.09-4.14-.09C210,333.41,208.41,333.44,206.46,333.5Z" transform="translate(-70.59 -224.28)"/><path d="M217.55,333.5v-1.2l.9-.07a1.88,1.88,0,0,0,1.12-.28,2.16,2.16,0,0,0,.29-1.22c.08-1.37.12-3,.12-4.93l0-3.54q-1.45.08-2.4.15v-.76l1.39-.72.25-.12.15-.07.42-.22v-1.38a5.72,5.72,0,0,1,.39-2.39,9.34,9.34,0,0,1,2-2.21,30.44,30.44,0,0,1,2.73-2.32,4.12,4.12,0,0,1,2.26-.61,4.24,4.24,0,0,1,.85.09,5.58,5.58,0,0,1,.91.24c-.17,1.14-.3,2.35-.41,3.63l-.57.12a5,5,0,0,0-1.28-.92,2.86,2.86,0,0,0-1.24-.3,1.5,1.5,0,0,0-1.72,1.56c-.07.56-.1,2.06-.1,4.49h1.49a14.13,14.13,0,0,0,2.49-.22l.18.23a15.6,15.6,0,0,0-.38,1.81c-.58,0-1.12-.08-1.63-.08h-2.15c0,4.25,0,7,.09,8.31,0,.73.14,1.18.32,1.33a6.07,6.07,0,0,0,2.61.4v1.2q-2.15-.09-4.14-.09C221.13,333.41,219.5,333.44,217.55,333.5Zm10.7,0v-1.2a6.79,6.79,0,0,0,1.92-.21c.17-.09.28-.37.32-.82q.12-.91.12-4.08c0-.91,0-1.75,0-2.52l0-1.72a1.82,1.82,0,0,0-.18-1c-.12-.14-.45-.21-1-.23l-1.1-.05v-1.12a18.25,18.25,0,0,0,5.82-1.26l.37.29q-.23,2.81-.22,8.16a36.86,36.86,0,0,0,.1,3.75.83.83,0,0,0,.27.58,7.48,7.48,0,0,0,1.91.27v1.2c-1.76-.06-3.12-.09-4.09-.09C231.9,333.41,230.51,333.44,228.25,333.5Zm4.08-21.26a2.2,2.2,0,0,1,1.6.67,2.24,2.24,0,0,1,.67,1.62,2.2,2.2,0,0,1-.67,1.6,2.28,2.28,0,0,1-3.89-1.6,2.29,2.29,0,0,1,2.29-2.29Z" transform="translate(-70.59 -224.28)"/><path d="M247.79,324.52h-1.2a7.94,7.94,0,0,0-.25-2,1.71,1.71,0,0,0-.86-.74,3.61,3.61,0,0,0-1.68-.34,2.76,2.76,0,0,0-2.27.89,5.31,5.31,0,0,0-.71,3.19,6.9,6.9,0,0,0,1.33,4.52,4.28,4.28,0,0,0,3.43,1.59,6.73,6.73,0,0,0,1.4-.13,5,5,0,0,0,1.17-.38l.25.32c-.22.47-.42.94-.6,1.42a9.36,9.36,0,0,1-2,.72,8.73,8.73,0,0,1-2,.24A6.17,6.17,0,0,1,237,327a9.15,9.15,0,0,1,.24-2.18,6.18,6.18,0,0,1,.63-1.66,4.59,4.59,0,0,1,.89-1.1c.2-.16,1-.7,2.52-1.63a9.29,9.29,0,0,1,1.9-1,5.22,5.22,0,0,1,1.59-.19,10.76,10.76,0,0,1,1.71.13,11.06,11.06,0,0,1,1.63.39l.25.27A25.15,25.15,0,0,0,247.79,324.52Z" transform="translate(-70.59 -224.28)"/><path d="M250.5,333.5v-1.2a6.73,6.73,0,0,0,1.92-.21c.17-.09.28-.37.33-.82.07-.61.11-2,.11-4.08,0-.91,0-1.75,0-2.52l0-1.72a1.82,1.82,0,0,0-.18-1c-.12-.14-.45-.21-1-.23l-1.1-.05v-1.12a18.25,18.25,0,0,0,5.82-1.26l.37.29q-.22,2.81-.22,8.16a36.86,36.86,0,0,0,.1,3.75.83.83,0,0,0,.27.58,7.48,7.48,0,0,0,1.91.27v1.2c-1.76-.06-3.12-.09-4.09-.09C254.15,333.41,252.76,333.44,250.5,333.5Zm4.08-21.26a2.29,2.29,0,0,1,2.27,2.29,2.28,2.28,0,0,1-4.56,0,2.29,2.29,0,0,1,2.29-2.29Z" transform="translate(-70.59 -224.28)"/><path d="M273.91,332.3v1.2l-1.13,0c-.6,0-1.19,0-1.79,0q-1.38,0-2.61.09l-.15-.16.15-2-3.06,2.29a7,7,0,0,1-1.45.19,3.1,3.1,0,0,1-2.4-.93,3.85,3.85,0,0,1-.84-2.69,3.67,3.67,0,0,1,1.15-3.08c1-.78,3.19-1.48,6.6-2.09a4.48,4.48,0,0,0-.6-2.52,2.93,2.93,0,0,0-2.49-1.07,3.86,3.86,0,0,0-.81.09,4.7,4.7,0,0,0-.84.3l-.66,1.57-1-.25,0-.66v-.64l0-.59a20.48,20.48,0,0,1,3.23-1.74,5.88,5.88,0,0,1,2-.26,6.47,6.47,0,0,1,2.81.52,3.48,3.48,0,0,1,1.58,1.41,5.41,5.41,0,0,1,.5,2.62c0,.48,0,1.33-.06,2.57s-.06,2.29-.06,3.07a12.83,12.83,0,0,0,.11,2.23.56.56,0,0,0,.28.36A5.86,5.86,0,0,0,273.91,332.3Zm-5.53-6a8.55,8.55,0,0,0-3.35,1.21,2.2,2.2,0,0,0-.77,1.76,1.93,1.93,0,0,0,.5,1.41,1.66,1.66,0,0,0,1.25.51,3.38,3.38,0,0,0,2.37-1.31Z" transform="translate(-70.59 -224.28)"/><path d="M275.41,313.86V313c1.38-.19,2.48-.38,3.28-.57a22,22,0,0,0,2.59-.84l.38.32q-.21,5.24-.22,14.63c0,1.26,0,2.54.06,3.83a5.17,5.17,0,0,0,.14,1.43.77.77,0,0,0,.35.31,7.08,7.08,0,0,0,1.74.18v1.2l-1.54,0c-.95,0-1.76,0-2.41,0l-4.37.09v-1.2l1.08-.06a1.41,1.41,0,0,0,.95-.27,4.42,4.42,0,0,0,.25-1.84q.07-2.22.08-6.3l0-6.26a17.24,17.24,0,0,0-.16-3.23.41.41,0,0,0-.22-.26A6.49,6.49,0,0,0,275.41,313.86Z" transform="translate(-70.59 -224.28)"/><path d="M294.16,327.31h1.29a14.51,14.51,0,0,0,.13,2.54,2.85,2.85,0,0,0,.85,1,5.82,5.82,0,0,0,1.86,1,7.45,7.45,0,0,0,2.34.38,4.83,4.83,0,0,0,3.31-1.1,3.53,3.53,0,0,0,1.23-2.74,3.09,3.09,0,0,0-.82-2.31,5.83,5.83,0,0,0-3.16-1.14,18.74,18.74,0,0,1-4.67-1.09,4.36,4.36,0,0,1-1.9-1.76,5.35,5.35,0,0,1-.7-2.81,6.33,6.33,0,0,1,1.94-4.67q1.93-1.9,6.2-1.91a15.43,15.43,0,0,1,3,.25,12.59,12.59,0,0,1,2.6.82l.15.35a13.21,13.21,0,0,0-.33,1.67c-.07.5-.12,1.36-.17,2.58H306a11.75,11.75,0,0,0-.22-2.52,3.25,3.25,0,0,0-1.41-1,6,6,0,0,0-2.61-.53,4.56,4.56,0,0,0-3.11,1,3.19,3.19,0,0,0-1.11,2.51,2.94,2.94,0,0,0,.46,1.63,2.6,2.6,0,0,0,1.27,1,19.47,19.47,0,0,0,3.49.75,16.33,16.33,0,0,1,3.3.72,4.4,4.4,0,0,1,2.15,1.74,5.48,5.48,0,0,1,.73,3,6.56,6.56,0,0,1-2.37,5.16,9.59,9.59,0,0,1-6.49,2.05,14.3,14.3,0,0,1-3.33-.35,13.88,13.88,0,0,1-3.09-1.16,11.39,11.39,0,0,0,.35-1.85C294.1,329.65,294.15,328.62,294.16,327.31Z" transform="translate(-70.59 -224.28)"/><path d="M323.47,330.67l.42.43-.65,1.4a8.81,8.81,0,0,1-2.27,1,9.68,9.68,0,0,1-2.57.33,6.74,6.74,0,0,1-5-1.86,7,7,0,0,1-1.84-5.21,9.83,9.83,0,0,1,.54-3.52,4.2,4.2,0,0,1,1.44-1.88,17.15,17.15,0,0,1,2.32-1.42,6.17,6.17,0,0,1,2.88-.67,5.87,5.87,0,0,1,4,1.34,5.42,5.42,0,0,1,1.56,4.32c0,.25,0,.62-.05,1.12l-2.4.44c-.74,0-1.82.07-3.22.07H315.4a5.88,5.88,0,0,0,1.51,3.81,4.46,4.46,0,0,0,3.28,1.27,5.83,5.83,0,0,0,1.65-.24A7.47,7.47,0,0,0,323.47,330.67ZM315.31,325q1.32.12,2.64.12,1.16,0,2.43-.12v-.69a4.23,4.23,0,0,0-.66-2.64,2.16,2.16,0,0,0-1.78-.83,2.37,2.37,0,0,0-1.37.39,2.33,2.33,0,0,0-.85,1.09A11.18,11.18,0,0,0,315.31,325Z" transform="translate(-70.59 -224.28)"/><path d="M326.22,313.86V313c1.39-.19,2.48-.38,3.28-.57a22.13,22.13,0,0,0,2.6-.84l.38.32q-.23,5.24-.22,14.63c0,1.26,0,2.54.06,3.83a4.94,4.94,0,0,0,.13,1.43.82.82,0,0,0,.35.31,7.08,7.08,0,0,0,1.74.18v1.2l-1.53,0c-1,0-1.76,0-2.42,0l-4.37.09v-1.2l1.09-.06a1.37,1.37,0,0,0,.94-.27,4.35,4.35,0,0,0,.26-1.84q.08-2.22.07-6.3v-6.26a16.76,16.76,0,0,0-.17-3.23.38.38,0,0,0-.22-.26A6.43,6.43,0,0,0,326.22,313.86Z" transform="translate(-70.59 -224.28)"/><path d="M348.46,330.67l.42.43-.65,1.4a8.81,8.81,0,0,1-2.27,1,9.68,9.68,0,0,1-2.57.33,6.74,6.74,0,0,1-5-1.86,7,7,0,0,1-1.84-5.21,9.83,9.83,0,0,1,.54-3.52,4.2,4.2,0,0,1,1.44-1.88,17.15,17.15,0,0,1,2.32-1.42,6.17,6.17,0,0,1,2.88-.67,5.87,5.87,0,0,1,4,1.34,5.42,5.42,0,0,1,1.56,4.32c0,.25,0,.62-.05,1.12l-2.4.44c-.74,0-1.82.07-3.22.07h-3.17a5.88,5.88,0,0,0,1.51,3.81,4.46,4.46,0,0,0,3.28,1.27,5.83,5.83,0,0,0,1.65-.24A7.47,7.47,0,0,0,348.46,330.67ZM340.3,325q1.32.12,2.64.12,1.15,0,2.43-.12v-.69a4.23,4.23,0,0,0-.66-2.64,2.16,2.16,0,0,0-1.78-.83,2.37,2.37,0,0,0-1.37.39,2.33,2.33,0,0,0-.85,1.09A11.18,11.18,0,0,0,340.3,325Z" transform="translate(-70.59 -224.28)"/><path d="M361.91,324.52H360.7a7.46,7.46,0,0,0-.25-2,1.71,1.71,0,0,0-.86-.74,3.61,3.61,0,0,0-1.68-.34,2.76,2.76,0,0,0-2.27.89,5.31,5.31,0,0,0-.71,3.19,6.85,6.85,0,0,0,1.34,4.52,4.27,4.27,0,0,0,3.42,1.59,6.73,6.73,0,0,0,1.4-.13,5,5,0,0,0,1.17-.38l.25.32c-.22.47-.42.94-.6,1.42a9.36,9.36,0,0,1-2,.72,8.73,8.73,0,0,1-2,.24,6.17,6.17,0,0,1-6.76-6.79,9.15,9.15,0,0,1,.24-2.18,5.87,5.87,0,0,1,.64-1.66,4.34,4.34,0,0,1,.88-1.1c.2-.16,1-.7,2.52-1.63a9.29,9.29,0,0,1,1.9-1,5.22,5.22,0,0,1,1.59-.19,10.76,10.76,0,0,1,1.71.13,11.06,11.06,0,0,1,1.63.39l.25.27A24.2,24.2,0,0,0,361.91,324.52Z" transform="translate(-70.59 -224.28)"/><path d="M364,321.72l2-1.27c0-1.73-.07-3.24-.15-4.54a24.8,24.8,0,0,0,3.78-1.5l.44.34a52.75,52.75,0,0,0-.44,5.7,7.56,7.56,0,0,0,1.33.12,15.63,15.63,0,0,0,2.69-.21l.13.09-.13.53a13.35,13.35,0,0,0-.33,1.5c-1.14-.07-2-.11-2.52-.11a11.17,11.17,0,0,0-1.17.06q0,1.47,0,2.61a25.71,25.71,0,0,0,.3,5.6c.19.45.65.68,1.39.68a3.57,3.57,0,0,0,.69-.08,7.19,7.19,0,0,0,.8-.2l.25.56c-.59.65-1.16,1.33-1.71,2-.37.06-.7.1-1,.13s-.58.05-.84.05a4.35,4.35,0,0,1-2-.43,2.69,2.69,0,0,1-1.2-1.1,4.24,4.24,0,0,1-.38-2c0-.47,0-1.7.08-3.69,0-1.75.07-3.14.07-4.15l-.75,0c-.31,0-.71,0-1.2.08Z" transform="translate(-70.59 -224.28)"/><path d="M374.61,333.5v-1.2a6.69,6.69,0,0,0,1.91-.21c.17-.09.28-.37.33-.82.08-.61.11-2,.11-4.08,0-.91,0-1.75,0-2.52l0-1.72a1.72,1.72,0,0,0-.19-1c-.12-.14-.45-.21-1-.23l-1.1-.05v-1.12a18.24,18.24,0,0,0,5.81-1.26l.37.29q-.23,2.81-.22,8.16a36.86,36.86,0,0,0,.1,3.75.83.83,0,0,0,.27.58,7.48,7.48,0,0,0,1.91.27v1.2q-2.64-.09-4.08-.09C378.25,333.41,376.86,333.44,374.61,333.5Zm4.07-21.26a2.29,2.29,0,0,1,2.27,2.29,2.28,2.28,0,0,1-3.89,1.6,2.2,2.2,0,0,1-.67-1.6,2.24,2.24,0,0,1,.67-1.62A2.21,2.21,0,0,1,378.68,312.24Z" transform="translate(-70.59 -224.28)"/><path d="M384.88,326.53a6.46,6.46,0,0,1,7.25-7.28q3.66,0,5.34,1.65c1.13,1.11,1.69,2.85,1.69,5.24a7.81,7.81,0,0,1-1.94,5.67,7.21,7.21,0,0,1-5.4,2,6.77,6.77,0,0,1-5.17-1.87A7.55,7.55,0,0,1,384.88,326.53Zm4.05-1c0,2.6.33,4.46,1,5.56a2.53,2.53,0,0,0,2.33,1.28,2.38,2.38,0,0,0,2.1-1.09,7.51,7.51,0,0,0,.74-3.95c0-2.62-.3-4.44-.91-5.44a2.53,2.53,0,0,0-2.33-1.21,2.49,2.49,0,0,0-2.14,1.1A6.66,6.66,0,0,0,388.93,325.53Z" transform="translate(-70.59 -224.28)"/><path d="M401.19,333.5v-1.2A5.17,5.17,0,0,0,403,332a1.07,1.07,0,0,0,.25-.75c.06-1,.09-2.73.09-5.23q0-1.85-.06-3.18a3.51,3.51,0,0,0-.11-1,.5.5,0,0,0-.24-.17,11.88,11.88,0,0,0-1.73-.11v-1.12a14.67,14.67,0,0,0,2.48-.34,17.29,17.29,0,0,0,2.82-.79l.4-.13q.21,0,.21.33l0,.14c0,.27,0,1,0,2.1l2.26-1.9a2.54,2.54,0,0,1,.88-.5,6.38,6.38,0,0,1,1.57-.17,5.34,5.34,0,0,1,2.53.53,3.31,3.31,0,0,1,1.45,1.49,7,7,0,0,1,.46,2.94c0,.59,0,1.27,0,2,0,1.59-.07,3-.07,4.11a3.93,3.93,0,0,0,.16,1.37.6.6,0,0,0,.33.35,9.69,9.69,0,0,0,1.6.22v1.2l-1.8-.06-1.16,0-3,.09-.16-.19a41.32,41.32,0,0,0,.38-5.72q0-3.72-.45-4.59a2.2,2.2,0,0,0-2.14-1.12,3,3,0,0,0-1.73.51,2.48,2.48,0,0,0-.95,1.08A5.69,5.69,0,0,0,407,325q0,5.32,0,6.09c0,.52.11.83.25.95a4.91,4.91,0,0,0,2,.31v1.2c-1.7-.06-3.13-.09-4.3-.09C404.29,333.41,403,333.44,401.19,333.5Z" transform="translate(-70.59 -224.28)"/><path d="M187.63,363.9c-2.84,0-5.31,0-7.43.07l-.06-.4-.15-.88a71.05,71.05,0,0,1,3.52-6.91,66,66,0,0,1,4.19-6.52q1.49-.25,3.75-.75l.32.3c-.09,1.37-.16,2.81-.21,4.29l-.23,8.35q1.63,0,2.73-.06l.08.22v.48l0,.89v.93l-.05.12a26.86,26.86,0,0,0-2.73-.13v.67a8.83,8.83,0,0,0,.22,2.86c.2.25,1,.43,2.5.52l.15.09v1.06l-.15.1c-1.87-.1-3.48-.15-4.82-.15-.75,0-1.39,0-1.93,0l-3.24.12-.13-.13V368l.13-.11a24.71,24.71,0,0,0,2.78-.24.74.74,0,0,0,.53-.5A20.25,20.25,0,0,0,187.63,363.9Zm0-2.45.22-10a41.85,41.85,0,0,0-2.75,4.36,57.61,57.61,0,0,0-2.89,5.62c1,0,1.87,0,2.55,0Z" transform="translate(-70.59 -224.28)"/><path d="M195.8,359.19a19.12,19.12,0,0,1,.84-6.46,6.73,6.73,0,0,1,2.43-3.31,6.5,6.5,0,0,1,3.78-1.1,6.2,6.2,0,0,1,3.53.94,5.84,5.84,0,0,1,2.09,2.95,25.89,25.89,0,0,1-.15,12.72,7.09,7.09,0,0,1-2.38,3.42,6.67,6.67,0,0,1-7.23.07,5.94,5.94,0,0,1-2.2-3A19.91,19.91,0,0,1,195.8,359.19Zm3.63-1.91a39.89,39.89,0,0,0,.43,6.91,6.05,6.05,0,0,0,1.23,3.06,2.07,2.07,0,0,0,1.52.62,2.22,2.22,0,0,0,2.08-1.29q.87-1.59.87-6.19a31,31,0,0,0-.83-8.34c-.42-1.43-1.2-2.14-2.35-2.14a2.38,2.38,0,0,0-2.17,1.4Q199.43,352.71,199.43,357.28Z" transform="translate(-70.59 -224.28)"/><path d="M213.75,364.77a2.36,2.36,0,0,1,2.34,2.35,2.25,2.25,0,0,1-.69,1.65,2.22,2.22,0,0,1-1.65.69,2.36,2.36,0,0,1-2.35-2.34,2.29,2.29,0,0,1,.68-1.66A2.26,2.26,0,0,1,213.75,364.77Z" transform="translate(-70.59 -224.28)"/><path d="M226.05,369.15v-1.23a5.92,5.92,0,0,0,2.27-.33,1.81,1.81,0,0,0,.32-1.16q.12-1.94.12-7.21c0-1.34,0-3.3-.06-5.86a22.09,22.09,0,0,0-.12-2.88.64.64,0,0,0-.31-.37,9,9,0,0,0-2.22-.28V348.6c2,.07,3.55.11,4.61.11,1.84,0,3.5,0,5-.11v1.23a7.09,7.09,0,0,0-2.26.32,1.35,1.35,0,0,0-.33.91q-.12,1.41-.12,5.7,0,5.72,0,8a9.15,9.15,0,0,0,.26,2.68.68.68,0,0,0,.37.3,11.65,11.65,0,0,0,2,.22v1.23l-1.73,0c-1.09,0-2.07-.06-2.93-.06Z" transform="translate(-70.59 -224.28)"/><path d="M237.5,369.15V368a5.45,5.45,0,0,0,1.81-.25,1.18,1.18,0,0,0,.24-.76q.09-1.49.09-5.22,0-1.85-.06-3.18a3.13,3.13,0,0,0-.11-1,.45.45,0,0,0-.24-.18,12.86,12.86,0,0,0-1.73-.1v-1.13a13.69,13.69,0,0,0,2.48-.34,17.29,17.29,0,0,0,2.82-.79l.4-.13c.14,0,.21.11.21.34l0,.13c0,.27,0,1,0,2.11l2.26-1.9a2.39,2.39,0,0,1,.88-.5,5.9,5.9,0,0,1,1.57-.18,5.22,5.22,0,0,1,2.53.54,3.29,3.29,0,0,1,1.45,1.48,7,7,0,0,1,.46,2.94c0,.59,0,1.27,0,2-.05,1.59-.07,3-.07,4.12a3.86,3.86,0,0,0,.16,1.36.63.63,0,0,0,.33.35,8.61,8.61,0,0,0,1.6.22v1.2l-1.8,0-1.16,0-3,.08-.16-.19a41.11,41.11,0,0,0,.38-5.72q0-3.72-.45-4.59a2.2,2.2,0,0,0-2.14-1.11,3,3,0,0,0-1.73.51,2.41,2.41,0,0,0-1,1.07,5.79,5.79,0,0,0-.1,1.49q0,5.31,0,6.09c0,.51.11.83.25.94a4.91,4.91,0,0,0,2,.31v1.2c-1.7,0-3.13-.08-4.3-.08C240.6,369.07,239.34,369.1,237.5,369.15Z" transform="translate(-70.59 -224.28)"/><path d="M255.33,357.38l1.95-1.28c0-1.73-.07-3.24-.15-4.54a25.41,25.41,0,0,0,3.78-1.49l.44.33a52.75,52.75,0,0,0-.44,5.7,7.65,7.65,0,0,0,1.33.12,15.63,15.63,0,0,0,2.69-.21l.13.09-.13.53a13.49,13.49,0,0,0-.33,1.51q-1.71-.12-2.52-.12a11.17,11.17,0,0,0-1.17.06q0,1.49,0,2.61a25.77,25.77,0,0,0,.3,5.61c.19.45.65.67,1.39.67a3.51,3.51,0,0,0,.69-.07,7.34,7.34,0,0,0,.8-.21l.25.56q-.88,1-1.71,2l-1,.13c-.3,0-.58,0-.83,0a4.5,4.5,0,0,1-2.06-.42,2.75,2.75,0,0,1-1.2-1.1,4.24,4.24,0,0,1-.38-2c0-.47,0-1.7.08-3.7,0-1.75.07-3.13.07-4.15l-.75,0a10.28,10.28,0,0,0-1.2.09Z" transform="translate(-70.59 -224.28)"/><path d="M278.07,366.32l.42.43-.66,1.4a8,8,0,0,1-2.26,1,9.73,9.73,0,0,1-2.57.33,6.77,6.77,0,0,1-5-1.85,7.09,7.09,0,0,1-1.84-5.22,9.77,9.77,0,0,1,.54-3.51,4.15,4.15,0,0,1,1.44-1.88,16.2,16.2,0,0,1,2.32-1.42,6.17,6.17,0,0,1,2.87-.68,5.89,5.89,0,0,1,4,1.34,5.4,5.4,0,0,1,1.57,4.33q0,.36-.06,1.11l-2.4.44c-.74.05-1.81.08-3.21.08H270a5.9,5.9,0,0,0,1.51,3.8,4.49,4.49,0,0,0,3.28,1.28,5.9,5.9,0,0,0,1.66-.24A7.06,7.06,0,0,0,278.07,366.32Zm-8.16-5.68c.87.08,1.75.12,2.63.12s1.58,0,2.43-.12l0-.69a4.27,4.27,0,0,0-.66-2.64,2.18,2.18,0,0,0-1.79-.83,2.25,2.25,0,0,0-2.21,1.49A10.57,10.57,0,0,0,269.91,360.64Z" transform="translate(-70.59 -224.28)"/><path d="M280.29,369.15V368a8.17,8.17,0,0,0,1.7-.17.63.63,0,0,0,.28-.28,4.87,4.87,0,0,0,.19-1.56q.06-2.13.06-3.9,0-3.39-.09-4a.72.72,0,0,0-.26-.52,6.21,6.21,0,0,0-1.88-.21v-1.13a21.51,21.51,0,0,0,4.22-.7l1.51-.56c.14,0,.2.09.2.28v.2c0,.62,0,1.5,0,2.66a23.15,23.15,0,0,0,1.65-1.82,4.13,4.13,0,0,1,1.17-1.07,3,3,0,0,1,1.34-.25,3.21,3.21,0,0,1,.95.16q-.13,1.47-.18,4l-.66.23a2.15,2.15,0,0,0-.74-.8,2.11,2.11,0,0,0-1-.22,2.52,2.52,0,0,0-1.51.45,2.07,2.07,0,0,0-.81,1,19.46,19.46,0,0,0-.12,3c0,2.48,0,3.92.11,4.34a.76.76,0,0,0,.27.55,6.52,6.52,0,0,0,2.22.31v1.2l-1.64,0c-1.05,0-1.95,0-2.71,0s-1.57,0-2.52,0Z" transform="translate(-70.59 -224.28)"/><path d="M292.49,369.15V368a5.45,5.45,0,0,0,1.81-.25,1.12,1.12,0,0,0,.24-.76q.09-1.49.09-5.22,0-1.85-.06-3.18a3.13,3.13,0,0,0-.11-1,.45.45,0,0,0-.24-.18,12.86,12.86,0,0,0-1.73-.1v-1.13a13.69,13.69,0,0,0,2.48-.34,17.29,17.29,0,0,0,2.82-.79l.4-.13c.14,0,.21.11.21.34l0,.13c0,.27,0,1,0,2.11l2.27-1.9a2.28,2.28,0,0,1,.87-.5,5.9,5.9,0,0,1,1.57-.18,5.28,5.28,0,0,1,2.54.54,3.32,3.32,0,0,1,1.44,1.48,7,7,0,0,1,.46,2.94c0,.59,0,1.27,0,2-.05,1.59-.07,3-.07,4.12a3.86,3.86,0,0,0,.16,1.36.6.6,0,0,0,.33.35,8.61,8.61,0,0,0,1.6.22v1.2l-1.8,0-1.16,0-3,.08-.16-.19a41.11,41.11,0,0,0,.38-5.72q0-3.72-.45-4.59a2.2,2.2,0,0,0-2.14-1.11,3,3,0,0,0-1.73.51,2.41,2.41,0,0,0-.95,1.07,5.79,5.79,0,0,0-.1,1.49q0,5.31,0,6.09c0,.51.11.83.25.94a4.91,4.91,0,0,0,2,.31v1.2c-1.7,0-3.13-.08-4.3-.08C295.59,369.07,294.33,369.1,292.49,369.15Z" transform="translate(-70.59 -224.28)"/><path d="M324.33,368v1.2l-1.14,0c-.59,0-1.19,0-1.79,0-.92,0-1.79,0-2.61.08l-.15-.16.15-2-3.06,2.28a6.27,6.27,0,0,1-1.44.19,3.1,3.1,0,0,1-2.4-.92,3.84,3.84,0,0,1-.85-2.7,3.65,3.65,0,0,1,1.15-3.07q1.5-1.17,6.6-2.1a4.46,4.46,0,0,0-.6-2.51,2.89,2.89,0,0,0-2.48-1.08,3.88,3.88,0,0,0-1.66.4l-.65,1.57-1-.25,0-.66,0-.65v-.58a19.67,19.67,0,0,1,3.22-1.74,5.84,5.84,0,0,1,2-.27,6.62,6.62,0,0,1,2.81.52,3.47,3.47,0,0,1,1.59,1.42,5.53,5.53,0,0,1,.49,2.61c0,.48,0,1.34-.05,2.57s-.06,2.3-.06,3.07a13.22,13.22,0,0,0,.1,2.23.56.56,0,0,0,.29.37A5.61,5.61,0,0,0,324.33,368Zm-5.54-6a8.65,8.65,0,0,0-3.34,1.21,2.19,2.19,0,0,0-.78,1.76,1.94,1.94,0,0,0,.5,1.41,1.68,1.68,0,0,0,1.25.52,3.38,3.38,0,0,0,2.37-1.31Z" transform="translate(-70.59 -224.28)"/><path d="M325.32,357.38l1.95-1.28c0-1.73-.07-3.24-.15-4.54a25.41,25.41,0,0,0,3.78-1.49l.44.33a52.75,52.75,0,0,0-.44,5.7,7.67,7.67,0,0,0,1.34.12,15.51,15.51,0,0,0,2.68-.21l.13.09-.13.53a13.49,13.49,0,0,0-.33,1.51q-1.71-.12-2.52-.12a11.17,11.17,0,0,0-1.17.06q0,1.49,0,2.61a25.77,25.77,0,0,0,.3,5.61c.19.45.66.67,1.39.67a3.51,3.51,0,0,0,.69-.07,7.34,7.34,0,0,0,.8-.21l.25.56q-.89,1-1.71,2l-1,.13c-.3,0-.58,0-.83,0a4.53,4.53,0,0,1-2.06-.42,2.81,2.81,0,0,1-1.2-1.1,4.24,4.24,0,0,1-.38-2c0-.47,0-1.7.08-3.7.05-1.75.07-3.13.07-4.15l-.75,0a10.28,10.28,0,0,0-1.2.09Z" transform="translate(-70.59 -224.28)"/><path d="M335.9,369.15V368a6.88,6.88,0,0,0,1.91-.2c.17-.1.28-.37.33-.82q.12-.93.12-4.08c0-.91,0-1.75-.05-2.52l0-1.72a1.73,1.73,0,0,0-.19-1.05,1.6,1.6,0,0,0-1-.23l-1.1,0v-1.13a18.24,18.24,0,0,0,5.81-1.26l.37.29c-.15,1.87-.22,4.6-.22,8.17a36.75,36.75,0,0,0,.1,3.74.86.86,0,0,0,.27.59,7.23,7.23,0,0,0,1.91.26v1.2c-1.76,0-3.12-.08-4.08-.08ZM340,347.9a2.29,2.29,0,0,1,2.27,2.28,2.18,2.18,0,0,1-.67,1.61,2.28,2.28,0,1,1-3.22-3.22A2.17,2.17,0,0,1,340,347.9Z" transform="translate(-70.59 -224.28)"/><path d="M346.17,362.19a6.47,6.47,0,0,1,7.25-7.29q3.66,0,5.34,1.66c1.13,1.1,1.69,2.85,1.69,5.23a7.82,7.82,0,0,1-1.94,5.68,7.2,7.2,0,0,1-5.4,2,6.8,6.8,0,0,1-5.17-1.86A7.57,7.57,0,0,1,346.17,362.19Zm4.05-1c0,2.61.34,4.46,1,5.57a2.55,2.55,0,0,0,2.33,1.28,2.4,2.4,0,0,0,2.1-1.09,7.51,7.51,0,0,0,.74-3.95q0-3.93-.91-5.45a2.54,2.54,0,0,0-2.33-1.2,2.48,2.48,0,0,0-2.14,1.1A6.6,6.6,0,0,0,350.22,361.18Z" transform="translate(-70.59 -224.28)"/><path d="M362.48,369.15V368a5.45,5.45,0,0,0,1.81-.25,1.18,1.18,0,0,0,.24-.76q.09-1.49.09-5.22,0-1.85-.06-3.18a3.51,3.51,0,0,0-.11-1,.45.45,0,0,0-.24-.18,12.86,12.86,0,0,0-1.73-.1v-1.13a13.69,13.69,0,0,0,2.48-.34,17.29,17.29,0,0,0,2.82-.79l.4-.13c.14,0,.21.11.21.34l0,.13c0,.27,0,1,0,2.11l2.26-1.9a2.39,2.39,0,0,1,.88-.5,5.9,5.9,0,0,1,1.57-.18,5.28,5.28,0,0,1,2.54.54,3.32,3.32,0,0,1,1.44,1.48,7,7,0,0,1,.46,2.94c0,.59,0,1.27,0,2-.05,1.59-.07,3-.07,4.12a3.86,3.86,0,0,0,.16,1.36.6.6,0,0,0,.33.35,8.61,8.61,0,0,0,1.6.22v1.2l-1.8,0-1.16,0-3,.08-.16-.19a41.11,41.11,0,0,0,.38-5.72q0-3.72-.45-4.59a2.2,2.2,0,0,0-2.14-1.11,3,3,0,0,0-1.73.51,2.41,2.41,0,0,0-.95,1.07,5.79,5.79,0,0,0-.1,1.49q0,5.31,0,6.09c0,.51.11.83.25.94a4.91,4.91,0,0,0,2,.31v1.2c-1.7,0-3.13-.08-4.3-.08C365.58,369.07,364.32,369.1,362.48,369.15Z" transform="translate(-70.59 -224.28)"/><path d="M394.32,368v1.2l-1.14,0c-.59,0-1.19,0-1.79,0-.92,0-1.79,0-2.61.08l-.15-.16.15-2-3.06,2.28a6.27,6.27,0,0,1-1.44.19,3.1,3.1,0,0,1-2.4-.92,3.84,3.84,0,0,1-.85-2.7,3.65,3.65,0,0,1,1.15-3.07q1.5-1.17,6.6-2.1a4.46,4.46,0,0,0-.6-2.51,2.89,2.89,0,0,0-2.48-1.08,3.88,3.88,0,0,0-1.66.4l-.65,1.57-1-.25,0-.66,0-.65v-.58a19.67,19.67,0,0,1,3.22-1.74,5.84,5.84,0,0,1,2-.27,6.62,6.62,0,0,1,2.81.52,3.47,3.47,0,0,1,1.59,1.42,5.53,5.53,0,0,1,.49,2.61c0,.48,0,1.34-.05,2.57s-.06,2.3-.06,3.07a13.22,13.22,0,0,0,.1,2.23.56.56,0,0,0,.29.37A5.61,5.61,0,0,0,394.32,368Zm-5.54-6a8.65,8.65,0,0,0-3.34,1.21,2.19,2.19,0,0,0-.78,1.76,1.94,1.94,0,0,0,.5,1.41,1.68,1.68,0,0,0,1.25.52,3.38,3.38,0,0,0,2.37-1.31Z" transform="translate(-70.59 -224.28)"/><path d="M395.81,349.51v-.85a30.11,30.11,0,0,0,3.28-.57,21.28,21.28,0,0,0,2.59-.83l.38.32q-.21,5.24-.22,14.62c0,1.26,0,2.54.06,3.83a5.17,5.17,0,0,0,.14,1.43.78.78,0,0,0,.35.32,7.35,7.35,0,0,0,1.74.17v1.2l-1.54,0c-.95,0-1.76,0-2.41,0l-4.37.08V368l1.08-.06a1.34,1.34,0,0,0,.95-.27,4.21,4.21,0,0,0,.25-1.84q.07-2.2.08-6.29l0-6.27A17.42,17.42,0,0,0,398,350a.47.47,0,0,0-.22-.26A6.43,6.43,0,0,0,395.81,349.51Z" transform="translate(-70.59 -224.28)"/><path d="M418.05,366.32l.42.43-.66,1.4a8,8,0,0,1-2.26,1,9.73,9.73,0,0,1-2.57.33,6.77,6.77,0,0,1-5-1.85,7.09,7.09,0,0,1-1.84-5.22,9.77,9.77,0,0,1,.54-3.51,4.15,4.15,0,0,1,1.44-1.88,16.2,16.2,0,0,1,2.32-1.42,6.18,6.18,0,0,1,2.88-.68,5.88,5.88,0,0,1,4,1.34,5.4,5.4,0,0,1,1.57,4.33q0,.36-.06,1.11l-2.39.44c-.75.05-1.82.08-3.22.08H410a5.9,5.9,0,0,0,1.51,3.8,4.49,4.49,0,0,0,3.29,1.28,5.88,5.88,0,0,0,1.65-.24A7.06,7.06,0,0,0,418.05,366.32Zm-8.16-5.68c.88.08,1.75.12,2.63.12s1.59,0,2.44-.12V360a4.27,4.27,0,0,0-.66-2.64,2.17,2.17,0,0,0-1.79-.83,2.25,2.25,0,0,0-2.21,1.49A10.57,10.57,0,0,0,409.89,360.64Z" transform="translate(-70.59 -224.28)"/><path d="M176.29,397.6v-1.18c1.78,0,3.37.07,4.77.07s2.68,0,4.17-.07v.93a9.55,9.55,0,0,0-1.23.49,21.19,21.19,0,0,0-.18,2.52c0,.49.06,1.48.18,3a33.83,33.83,0,0,1-4.86,1.41,21.41,21.41,0,0,1-4,.37q-5.66,0-8.85-2.94a10.67,10.67,0,0,1,.06-15.3q3.27-2.88,9.38-2.88a24,24,0,0,1,4.13.34,19.38,19.38,0,0,1,3.77,1l.13.22a30,30,0,0,0-.63,4.63h-1.23a17.35,17.35,0,0,0-.19-2.46,5.8,5.8,0,0,0-2.41-1.63,10.1,10.1,0,0,0-3.48-.54,8,8,0,0,0-6,2.29,8.56,8.56,0,0,0-2.23,6.26,9.73,9.73,0,0,0,2.35,6.82,7.48,7.48,0,0,0,5.79,2.59,10,10,0,0,0,3.9-.89c.07-.76.11-1.47.11-2.14,0-1.51-.08-2.34-.26-2.49A10.41,10.41,0,0,0,176.29,397.6Z" transform="translate(-70.59 -224.28)"/><path d="M187,404.81v-1.2a7.82,7.82,0,0,0,1.7-.18.63.63,0,0,0,.28-.28,5.11,5.11,0,0,0,.19-1.55q.06-2.14.06-3.9,0-3.39-.09-4a.68.68,0,0,0-.27-.52,5.63,5.63,0,0,0-1.87-.22v-1.12a21.65,21.65,0,0,0,4.22-.7l1.51-.56c.13,0,.2.09.2.27V391c0,.61,0,1.5,0,2.65a21.41,21.41,0,0,0,1.66-1.82,4.29,4.29,0,0,1,1.17-1.07,3.1,3.1,0,0,1,1.33-.24,3,3,0,0,1,1,.16c-.09,1-.15,2.3-.18,4l-.66.24a2.07,2.07,0,0,0-.74-.8,2.15,2.15,0,0,0-1.05-.23,2.48,2.48,0,0,0-1.51.46,2,2,0,0,0-.8,1,19.27,19.27,0,0,0-.12,3c0,2.47,0,3.92.1,4.33a.81.81,0,0,0,.28.56,6.44,6.44,0,0,0,2.21.31v1.2l-1.64-.05c-1,0-1.94,0-2.71,0s-1.56,0-2.52,0Z" transform="translate(-70.59 -224.28)"/><path d="M211.41,402l.42.42-.65,1.41a8.81,8.81,0,0,1-2.27,1,9.68,9.68,0,0,1-2.57.33,6.74,6.74,0,0,1-5-1.86,7,7,0,0,1-1.84-5.21,9.83,9.83,0,0,1,.54-3.52,4.2,4.2,0,0,1,1.44-1.88,16.2,16.2,0,0,1,2.32-1.42,6.17,6.17,0,0,1,2.88-.67,5.87,5.87,0,0,1,4,1.34,5.41,5.41,0,0,1,1.56,4.32c0,.25,0,.62-.05,1.12l-2.4.44c-.74.05-1.82.07-3.22.07h-3.17a5.93,5.93,0,0,0,1.5,3.81,4.49,4.49,0,0,0,3.29,1.27,5.83,5.83,0,0,0,1.65-.24A7.47,7.47,0,0,0,211.41,402Zm-8.16-5.68c.88.08,1.76.12,2.63.12s1.59,0,2.44-.12v-.69a4.23,4.23,0,0,0-.66-2.64,2.14,2.14,0,0,0-1.79-.83,2.36,2.36,0,0,0-1.36.39,2.33,2.33,0,0,0-.85,1.09A11.08,11.08,0,0,0,203.25,396.3Z" transform="translate(-70.59 -224.28)"/><path d="M214.16,404.81v-1.2a5.17,5.17,0,0,0,1.8-.26,1.07,1.07,0,0,0,.25-.75c.06-1,.09-2.73.09-5.23q0-1.85-.06-3.18a3.51,3.51,0,0,0-.11-1,.44.44,0,0,0-.24-.17,11.88,11.88,0,0,0-1.73-.11v-1.12a14,14,0,0,0,2.48-.35,16.41,16.41,0,0,0,2.82-.78l.4-.13c.14,0,.2.11.2.33V391c0,.28,0,1,0,2.11l2.26-1.9a2.54,2.54,0,0,1,.88-.5,5.93,5.93,0,0,1,1.57-.17,5.25,5.25,0,0,1,2.53.53,3.34,3.34,0,0,1,1.45,1.48,7.1,7.1,0,0,1,.46,2.95c0,.59,0,1.27,0,2-.05,1.58-.08,2.95-.08,4.11a3.77,3.77,0,0,0,.17,1.36.61.61,0,0,0,.32.36,10.13,10.13,0,0,0,1.61.22v1.2l-1.8-.06-1.16,0-3,.09-.16-.19a42.93,42.93,0,0,0,.38-5.72q0-3.73-.45-4.59a2.2,2.2,0,0,0-2.14-1.12,3,3,0,0,0-1.73.51,2.41,2.41,0,0,0-.95,1.08,5.69,5.69,0,0,0-.1,1.48q0,5.33,0,6.09c0,.52.11.83.25.95a4.87,4.87,0,0,0,2,.31v1.2c-1.7-.06-3.13-.09-4.3-.09C217.26,404.72,216,404.75,214.16,404.81Z" transform="translate(-70.59 -224.28)"/><path d="M234.6,395h-1.25c.09-1.14.13-2.21.13-3.2V391l.17-.11c3,.06,4.82.09,5.5.09q2.91,0,6.46-.09v1q-4.77,6.18-8.2,11.22H240a14.59,14.59,0,0,0,3.84-.24c.27-.16.48-.83.63-2l.11-.82h1.28c-.16,1.28-.26,2.82-.3,4.6l-.15.21h-2l-2.37,0-4.44-.08-4.4.13v-1.08q1.49-1.77,3.49-4.47,3-4,4.92-6.82h-2.68a18.51,18.51,0,0,0-2.39.09.78.78,0,0,0-.49.24,3.91,3.91,0,0,0-.3,1.17Z" transform="translate(-70.59 -224.28)"/><path d="M247.49,385.17v-.85a32.84,32.84,0,0,0,3.28-.58,20.15,20.15,0,0,0,2.59-.83l.38.32q-.23,5.24-.22,14.63c0,1.26,0,2.54.06,3.83a5.23,5.23,0,0,0,.14,1.43.77.77,0,0,0,.35.31,7.08,7.08,0,0,0,1.74.18v1.2l-1.54-.05c-1,0-1.76,0-2.41,0l-4.37.09v-1.2l1.08-.06a1.41,1.41,0,0,0,1-.27,4.42,4.42,0,0,0,.25-1.84q.07-2.22.07-6.3v-6.26a17.24,17.24,0,0,0-.16-3.23.41.41,0,0,0-.22-.26A6.15,6.15,0,0,0,247.49,385.17Z" transform="translate(-70.59 -224.28)"/><path d="M271,403.61v1.2l-1.13-.05c-.6,0-1.19,0-1.79,0q-1.38,0-2.61.09l-.15-.16.15-2-3.06,2.29a7,7,0,0,1-1.45.19,3.1,3.1,0,0,1-2.4-.93,3.85,3.85,0,0,1-.84-2.69,3.67,3.67,0,0,1,1.15-3.08c1-.78,3.19-1.48,6.6-2.09a4.48,4.48,0,0,0-.6-2.52,2.93,2.93,0,0,0-2.49-1.07,3.86,3.86,0,0,0-.81.09,4.7,4.7,0,0,0-.84.3l-.66,1.57-1-.25,0-.66v-.64l0-.59a19.65,19.65,0,0,1,3.23-1.74,5.88,5.88,0,0,1,2-.26,6.47,6.47,0,0,1,2.81.52,3.43,3.43,0,0,1,1.58,1.41,5.41,5.41,0,0,1,.5,2.62c0,.48,0,1.33-.06,2.57S269,400,269,400.74a12.89,12.89,0,0,0,.11,2.24.56.56,0,0,0,.28.36A5.86,5.86,0,0,0,271,403.61Zm-5.53-6a8.55,8.55,0,0,0-3.35,1.21,2.18,2.18,0,0,0-.77,1.75,1.94,1.94,0,0,0,.5,1.42,1.66,1.66,0,0,0,1.25.51,3.38,3.38,0,0,0,2.37-1.31Z" transform="translate(-70.59 -224.28)"/><path d="M272.48,404.81v-1.2a5.29,5.29,0,0,0,1.8-.26,1.07,1.07,0,0,0,.25-.75c.06-1,.09-2.73.09-5.23q0-1.85-.06-3.18a3,3,0,0,0-.12-1,.45.45,0,0,0-.23-.17,12.2,12.2,0,0,0-1.73-.11v-1.12a13.85,13.85,0,0,0,2.47-.35,16.81,16.81,0,0,0,2.83-.78l.39-.13q.21,0,.21.33V391c0,.28-.05,1-.05,2.11l2.27-1.9a2.38,2.38,0,0,1,.88-.5,5.85,5.85,0,0,1,1.56-.17,5.29,5.29,0,0,1,2.54.53,3.34,3.34,0,0,1,1.45,1.48,7.27,7.27,0,0,1,.46,2.95c0,.59,0,1.27-.05,2-.05,1.58-.07,2.95-.07,4.11a3.82,3.82,0,0,0,.16,1.36.65.65,0,0,0,.33.36,9.9,9.9,0,0,0,1.6.22v1.2l-1.8-.06-1.15,0-3,.09-.16-.19a42.93,42.93,0,0,0,.38-5.72c0-2.49-.15-4-.46-4.59a2.19,2.19,0,0,0-2.14-1.12,2.91,2.91,0,0,0-1.72.51,2.51,2.51,0,0,0-1,1.08,6.22,6.22,0,0,0-.1,1.48q0,5.33.05,6.09a1.49,1.49,0,0,0,.24.95,4.94,4.94,0,0,0,2,.31v1.2c-1.7-.06-3.14-.09-4.31-.09C275.58,404.72,274.31,404.75,272.48,404.81Z" transform="translate(-70.59 -224.28)"/><path d="M301.88,391.19v-2.53a17.61,17.61,0,0,0-.11-2.73.53.53,0,0,0-.28-.39,9,9,0,0,0-2-.16v-1.05a19.92,19.92,0,0,0,5.84-1.41l.38.36c-.09,1.57-.15,3.06-.16,4.47l-.1,11.5a32.88,32.88,0,0,0,.1,3.52.75.75,0,0,0,.29.55,6.29,6.29,0,0,0,1.79.29v1.2c-1.19-.06-2.36-.09-3.49-.09-.83,0-1.59,0-2.31.09l-.25-.18c.13-1,.21-1.78.27-2.38-.67.49-1.73,1.35-3.18,2.56a4.7,4.7,0,0,1-1.57.31,5.23,5.23,0,0,1-4.05-1.81,7,7,0,0,1-1.62-4.82,9.93,9.93,0,0,1,.33-2.66,5.47,5.47,0,0,1,.78-1.8,8,8,0,0,1,1.79-1.54,15,15,0,0,1,2.68-1.6,5,5,0,0,1,1.83-.33,7.48,7.48,0,0,1,1.47.15A8.22,8.22,0,0,1,301.88,391.19Zm0,3.13a4.79,4.79,0,0,0-1.57-1.46,3.92,3.92,0,0,0-1.95-.49,2.69,2.69,0,0,0-2.31,1.08,6.16,6.16,0,0,0-.81,3.62,6.36,6.36,0,0,0,1,3.9,3.05,3.05,0,0,0,2.53,1.29,3.35,3.35,0,0,0,1.92-.6,2.45,2.45,0,0,0,1-1.1,23.32,23.32,0,0,0,.16-3.79Z" transform="translate(-70.59 -224.28)"/><path d="M308.64,399.15l-.2-.27a15,15,0,0,0,1-3.07c1.8.06,3.28.09,4.42.09s2.57,0,4.12-.09l.2.3a29.12,29.12,0,0,0-1,3c-1.63,0-3.08-.08-4.36-.08S310.09,399.1,308.64,399.15Z" transform="translate(-70.59 -224.28)"/><path d="M319.37,404.81v-1.23a4.67,4.67,0,0,0,2.16-.28c.16-.12.25-.46.28-1q.18-2.86.18-6.6c0-1.85,0-3.83-.07-5.94a21.32,21.32,0,0,0-.25-3.66.62.62,0,0,0-.25-.31,7.31,7.31,0,0,0-2.05-.26v-1.23c1.71.05,3.17.07,4.41.07,1.79,0,3.68,0,5.65,0l3.28,0c.64,0,1.24,0,1.82.05l.14.31a33.2,33.2,0,0,0-.38,4.31h-1.23l-.11-1.57a1.77,1.77,0,0,0-.2-.91,2.5,2.5,0,0,0-1.09-.35,16.08,16.08,0,0,0-2.66-.17c-.84,0-1.74,0-2.69.13-.11,1.65-.16,2.82-.16,3.51l0,3.15,0,.68c.59,0,1.3,0,2.13,0a18.87,18.87,0,0,0,2.69-.1.51.51,0,0,0,.34-.24,6.7,6.7,0,0,0,.26-1.84h1.26c0,.86,0,1.72,0,2.57s0,2.08,0,3.83h-1.26a9.27,9.27,0,0,0-.28-2.23.53.53,0,0,0-.36-.25,14,14,0,0,0-2.86-.19l-1.92.05.06,5.61a10.19,10.19,0,0,0,.21,2.36.75.75,0,0,0,.3.31,12.51,12.51,0,0,0,2.45.26v1.23c-1.56-.07-3-.1-4.39-.1S321.77,404.74,319.37,404.81Z" transform="translate(-70.59 -224.28)"/><path d="M335.89,404.81v-1.2a6.69,6.69,0,0,0,1.91-.21c.17-.1.28-.37.33-.82.08-.62.12-2,.12-4.08,0-.91,0-1.75-.05-2.52l0-1.72a1.89,1.89,0,0,0-.18-1.05,1.65,1.65,0,0,0-1-.22l-1.1-.05v-1.12a18.37,18.37,0,0,0,5.82-1.26l.36.29q-.22,2.81-.22,8.16c0,2.07,0,3.32.1,3.75a.83.83,0,0,0,.27.58,7.51,7.51,0,0,0,1.92.27v1.2c-1.76-.06-3.13-.09-4.09-.09C339.53,404.72,338.15,404.75,335.89,404.81ZM340,383.55a2.27,2.27,0,0,1,2.27,2.29,2.28,2.28,0,1,1-3.89-1.62A2.24,2.24,0,0,1,340,383.55Z" transform="translate(-70.59 -224.28)"/><path d="M345.79,385.17v-.85a32.31,32.31,0,0,0,3.28-.58,20.26,20.26,0,0,0,2.6-.83l.38.32q-.23,5.24-.22,14.63c0,1.26,0,2.54.06,3.83a5.44,5.44,0,0,0,.13,1.43.82.82,0,0,0,.35.31,7.08,7.08,0,0,0,1.74.18v1.2l-1.53-.05c-1,0-1.76,0-2.42,0l-4.37.09v-1.2l1.09-.06a1.37,1.37,0,0,0,.94-.27,4.35,4.35,0,0,0,.26-1.84q.07-2.22.07-6.3v-6.26a16.76,16.76,0,0,0-.17-3.23.38.38,0,0,0-.22-.26A6.1,6.1,0,0,0,345.79,385.17Z" transform="translate(-70.59 -224.28)"/><path d="M355.86,404.81v-1.2a5.84,5.84,0,0,0,1.72-.2.7.7,0,0,0,.27-.51,29,29,0,0,0,.11-3.4,57.57,57.57,0,0,0-.14-6.12c-.08-.26-.42-.4-1-.41l-.94,0v-1.12a25.58,25.58,0,0,0,3.06-.49,14.21,14.21,0,0,0,2.3-.7.94.94,0,0,1,.3-.07q.21,0,.21.36c0,.19,0,.44,0,.75,0,.14,0,.38,0,.73v.53l2.4-1.8a3.85,3.85,0,0,1,2.31-.57,4.54,4.54,0,0,1,2.49.6,3.82,3.82,0,0,1,1.4,1.94l2.49-2a3.16,3.16,0,0,1,2-.57,4.47,4.47,0,0,1,3.38,1.13,5.18,5.18,0,0,1,1.08,3.67l0,1.22c0,1.35-.06,2.55-.06,3.61a16.57,16.57,0,0,0,.13,2.71.77.77,0,0,0,.3.48,5.65,5.65,0,0,0,1.65.23v1.2q-1.83-.09-3.18-.09t-2.73.09l-.17-.28a52.21,52.21,0,0,0,.38-6.16c0-2.38-.19-3.86-.55-4.45a2.12,2.12,0,0,0-2-.89,2.78,2.78,0,0,0-1.6.46,2.22,2.22,0,0,0-.91,1,11.68,11.68,0,0,0-.15,2.57c0,2.59,0,4.37.1,5.36a1.2,1.2,0,0,0,.28.85,5.46,5.46,0,0,0,1.86.3v1.2c-1.28-.06-2.53-.09-3.76-.09-1.53,0-2.91,0-4.13.09v-1.2c1,0,1.53-.14,1.7-.42a13.54,13.54,0,0,0,.25-3.68,40.54,40.54,0,0,0-.15-4.63,2.24,2.24,0,0,0-.71-1.38,2.4,2.4,0,0,0-1.56-.47,2.61,2.61,0,0,0-1.33.34,2.86,2.86,0,0,0-1,.95,1.85,1.85,0,0,0-.24,1.05l0,.55c0,.28,0,1.05,0,2.31l0,1.73a25.47,25.47,0,0,0,.09,3,.58.58,0,0,0,.24.42,5.86,5.86,0,0,0,1.61.27v1.2c-1.17-.06-2.45-.09-3.85-.09C359.32,404.72,358,404.75,355.86,404.81Z" transform="translate(-70.59 -224.28)"/><path d="M382,393l2-1.27c0-1.73-.07-3.25-.15-4.54a25.22,25.22,0,0,0,3.78-1.5l.44.34a49.9,49.9,0,0,0-.44,5.7,7.54,7.54,0,0,0,1.33.11,15.49,15.49,0,0,0,2.68-.2l.14.09-.14.52c-.14.55-.25,1.05-.32,1.51-1.14-.08-2-.11-2.52-.11s-.79,0-1.17.05c0,1,0,1.86,0,2.62a26.84,26.84,0,0,0,.29,5.6c.2.45.66.68,1.4.68a3.57,3.57,0,0,0,.69-.08,7.19,7.19,0,0,0,.8-.2l.25.55c-.59.66-1.16,1.34-1.72,2-.36.06-.69.1-1,.13s-.58.05-.84.05a4.55,4.55,0,0,1-2.06-.43,2.75,2.75,0,0,1-1.2-1.1,4.38,4.38,0,0,1-.37-2c0-.47,0-1.7.07-3.69.05-1.75.08-3.14.08-4.16l-.75,0a9.94,9.94,0,0,0-1.2.08Z" transform="translate(-70.59 -224.28)"/><path d="M406,403.61v1.2l-1.13-.05c-.6,0-1.19,0-1.79,0q-1.38,0-2.61.09l-.15-.16.15-2-3.06,2.29a7,7,0,0,1-1.45.19,3.1,3.1,0,0,1-2.4-.93,3.85,3.85,0,0,1-.84-2.69,3.67,3.67,0,0,1,1.15-3.08c1-.78,3.19-1.48,6.6-2.09a4.48,4.48,0,0,0-.6-2.52,2.93,2.93,0,0,0-2.49-1.07,3.86,3.86,0,0,0-.81.09,5,5,0,0,0-.84.3L395,394.7l-1-.25,0-.66v-.64l0-.59a19.65,19.65,0,0,1,3.23-1.74,5.88,5.88,0,0,1,2-.26,6.47,6.47,0,0,1,2.81.52,3.43,3.43,0,0,1,1.58,1.41,5.41,5.41,0,0,1,.5,2.62c0,.48,0,1.33-.06,2.57S404,400,404,400.74a12.89,12.89,0,0,0,.11,2.24.56.56,0,0,0,.28.36A5.86,5.86,0,0,0,406,403.61Zm-5.53-6a8.55,8.55,0,0,0-3.35,1.21,2.18,2.18,0,0,0-.77,1.75,1.94,1.94,0,0,0,.5,1.42,1.66,1.66,0,0,0,1.25.51,3.38,3.38,0,0,0,2.37-1.31Z" transform="translate(-70.59 -224.28)"/><path d="M422.59,393.5h-2.43a4.77,4.77,0,0,1,.21,1.34,4.53,4.53,0,0,1-1.93,4,7.74,7.74,0,0,1-4.49,1.32q-.42,0-1.2-.06a3.66,3.66,0,0,0-.86.63.85.85,0,0,0-.18.53c0,.47.33.75,1,.85.36.06,2.35.09,5.95.09a6.84,6.84,0,0,1,2.51.31,2.53,2.53,0,0,1,1.15,1.12,4.25,4.25,0,0,1,.45,2.08,6.25,6.25,0,0,1-2.32,4.94,9.39,9.39,0,0,1-6.3,2,8.69,8.69,0,0,1-5-1.18,3.56,3.56,0,0,1-1.65-3,2.93,2.93,0,0,1,.51-1.76,6.9,6.9,0,0,1,1.61-1.11l1.06-.6a3.32,3.32,0,0,1-1.59-.62,1.5,1.5,0,0,1-.39-1.11,4.43,4.43,0,0,1,.57-1.9l.48-.31a15.5,15.5,0,0,0,1.59-1.17,4.94,4.94,0,0,1-2.43-1.63,4.3,4.3,0,0,1-.74-2.58,4.61,4.61,0,0,1,1.72-3.68,7.35,7.35,0,0,1,4.84-1.44,10.92,10.92,0,0,1,2.7.3,5.74,5.74,0,0,1,1.73.84q3.22,0,4.2-.09l.25.3A17.69,17.69,0,0,0,422.59,393.5Zm-10.35,11.67a6.65,6.65,0,0,0-1.61,1.52,2.55,2.55,0,0,0-.37,1.38,2.78,2.78,0,0,0,1.1,2.28,5.13,5.13,0,0,0,3.24.87,6.45,6.45,0,0,0,2.62-.48,3.56,3.56,0,0,0,1.62-1.34,3.37,3.37,0,0,0,.55-1.89,2.9,2.9,0,0,0-.44-1.62,1.48,1.48,0,0,0-.89-.58,21.08,21.08,0,0,0-3.26-.14Zm-.34-10.42a5.52,5.52,0,0,0,.65,3.1,2.14,2.14,0,0,0,1.86.89,2.06,2.06,0,0,0,1.71-.78,4,4,0,0,0,.61-2.46,4.49,4.49,0,0,0-.63-2.67,2.1,2.1,0,0,0-1.78-.84,2.22,2.22,0,0,0-1.76.73A2.9,2.9,0,0,0,411.9,394.75Z" transform="translate(-70.59 -224.28)"/><path d="M436.38,402l.42.42-.65,1.41a8.81,8.81,0,0,1-2.27,1,9.68,9.68,0,0,1-2.57.33,6.74,6.74,0,0,1-5-1.86,7,7,0,0,1-1.84-5.21,9.83,9.83,0,0,1,.54-3.52,4.2,4.2,0,0,1,1.44-1.88,16.2,16.2,0,0,1,2.32-1.42,6.17,6.17,0,0,1,2.88-.67,5.87,5.87,0,0,1,4,1.34,5.41,5.41,0,0,1,1.56,4.32c0,.25,0,.62,0,1.12l-2.4.44c-.74.05-1.82.07-3.22.07h-3.17a5.88,5.88,0,0,0,1.51,3.81,4.46,4.46,0,0,0,3.28,1.27,5.83,5.83,0,0,0,1.65-.24A7.47,7.47,0,0,0,436.38,402Zm-8.16-5.68q1.32.12,2.64.12,1.15,0,2.43-.12v-.69a4.23,4.23,0,0,0-.66-2.64,2.13,2.13,0,0,0-1.78-.83,2.37,2.37,0,0,0-1.37.39,2.33,2.33,0,0,0-.85,1.09A11.08,11.08,0,0,0,428.22,396.3Z" transform="translate(-70.59 -224.28)"/><path d="M275,434.27h1.29a14,14,0,0,0,.14,2.54,2.61,2.61,0,0,0,.84,1,5.46,5.46,0,0,0,1.86,1,7.56,7.56,0,0,0,2.35.38,4.8,4.8,0,0,0,3.3-1.1,3.49,3.49,0,0,0,1.24-2.74,3.13,3.13,0,0,0-.82-2.31,5.92,5.92,0,0,0-3.17-1.14,18.3,18.3,0,0,1-4.66-1.08,4.51,4.51,0,0,1-1.91-1.76,5.46,5.46,0,0,1-.69-2.82,6.27,6.27,0,0,1,1.94-4.66q1.94-1.92,6.19-1.92a16.39,16.39,0,0,1,3,.25,12.32,12.32,0,0,1,2.59.82l.15.36a12.56,12.56,0,0,0-.33,1.67c-.06.5-.12,1.36-.17,2.58h-1.26a11.17,11.17,0,0,0-.22-2.53,3.2,3.2,0,0,0-1.41-1,6.13,6.13,0,0,0-2.6-.53,4.53,4.53,0,0,0-3.11,1,3.19,3.19,0,0,0-1.11,2.51,2.91,2.91,0,0,0,.45,1.63,2.69,2.69,0,0,0,1.27,1,19.65,19.65,0,0,0,3.5.75,17.52,17.52,0,0,1,3.29.72,4.31,4.31,0,0,1,2.15,1.74,5.48,5.48,0,0,1,.74,3,6.52,6.52,0,0,1-2.38,5.16,9.56,9.56,0,0,1-6.48,2.06,14.22,14.22,0,0,1-3.33-.36,13.47,13.47,0,0,1-3.09-1.15,13.87,13.87,0,0,0,.35-1.86C275,436.62,275,435.58,275,434.27Z" transform="translate(-70.59 -224.28)"/><path d="M304.32,437.63l.42.43-.66,1.4a8.28,8.28,0,0,1-2.26,1,9.73,9.73,0,0,1-2.57.33,6.81,6.81,0,0,1-5-1.85,7.13,7.13,0,0,1-1.83-5.22,9.87,9.87,0,0,1,.54-3.52,4.18,4.18,0,0,1,1.44-1.87,16.65,16.65,0,0,1,2.31-1.43,6.23,6.23,0,0,1,2.88-.67,5.91,5.91,0,0,1,4,1.34,5.4,5.4,0,0,1,1.57,4.33q0,.36-.06,1.11l-2.4.44c-.74.05-1.81.08-3.21.08h-3.18a5.9,5.9,0,0,0,1.51,3.8,4.49,4.49,0,0,0,3.28,1.28,5.9,5.9,0,0,0,1.66-.24A7.52,7.52,0,0,0,304.32,437.63ZM296.15,432q1.32.12,2.64.12,1.15,0,2.43-.12l0-.69a4.27,4.27,0,0,0-.66-2.64,2.18,2.18,0,0,0-1.79-.83,2.25,2.25,0,0,0-2.21,1.49A10.45,10.45,0,0,0,296.15,432Z" transform="translate(-70.59 -224.28)"/><path d="M307.07,420.82V420c1.38-.19,2.48-.38,3.28-.57a22,22,0,0,0,2.59-.84l.38.33q-.21,5.24-.22,14.62c0,1.26,0,2.54.06,3.83a5.17,5.17,0,0,0,.14,1.43.78.78,0,0,0,.35.32,8,8,0,0,0,1.74.17v1.2l-1.54,0c-1,0-1.76,0-2.41,0l-4.37.08v-1.2l1.08-.06a1.41,1.41,0,0,0,1-.27,4.38,4.38,0,0,0,.25-1.84c0-1.48.08-3.57.08-6.29l0-6.27a17.33,17.33,0,0,0-.16-3.23A.47.47,0,0,0,309,421,6.49,6.49,0,0,0,307.07,420.82Z" transform="translate(-70.59 -224.28)"/><path d="M319.75,440.77l-.7-.28c.18-2.36.26-5.63.26-9.81,0-1.88,0-3.34,0-4.36l-.09-3.77a3,3,0,0,0-.14-1.14.56.56,0,0,0-.37-.27A13.37,13.37,0,0,0,317,421v-1a20.21,20.21,0,0,0,5.18-1.05l.65-.25c.18,0,.27.11.27.35l0,1.54q0,.78-.1,8.3l1.77-1.48a5.22,5.22,0,0,1,1.5-.94,5,5,0,0,1,1.6-.23,5.16,5.16,0,0,1,3.95,1.57,5.73,5.73,0,0,1,1.49,4.1,8.83,8.83,0,0,1-.41,2.58,7.3,7.3,0,0,1-1,2.17,6.06,6.06,0,0,1-1.57,1.49c-.81.51-1.5,1-2.07,1.42a6.56,6.56,0,0,1-1.7,1,5.45,5.45,0,0,1-1.68.23,6.28,6.28,0,0,1-1.83-.25,7.77,7.77,0,0,1-1.92-.91A16.7,16.7,0,0,0,319.75,440.77Zm3.17-10.37v6.72a3.46,3.46,0,0,0,3,1.63,3.05,3.05,0,0,0,2.53-1.25,6.17,6.17,0,0,0,1-3.8,5.67,5.67,0,0,0-1-3.63,3.18,3.18,0,0,0-2.58-1.22,3.34,3.34,0,0,0-1.59.39A4.21,4.21,0,0,0,322.92,430.4Z" transform="translate(-70.59 -224.28)"/><path d="M270.52,511.82v-1.64l3-2.95a29.82,29.82,0,0,0,4.8-5.54,7.56,7.56,0,0,0,1.09-3.7,3.92,3.92,0,0,0-.88-2.74,3.11,3.11,0,0,0-2.41-.95,3.79,3.79,0,0,0-2,.5,2.32,2.32,0,0,0-1.06,1q-.09.21-.63,2.49h-1.23a49.4,49.4,0,0,0,.6-5.17,7.1,7.1,0,0,1,2.44-1.64,7.73,7.73,0,0,1,2.93-.52,6.45,6.45,0,0,1,4.59,1.58,5.31,5.31,0,0,1,1.68,4.06,7.4,7.4,0,0,1-1.31,4q-1.32,2-7.31,7.43l.08.19h3.45c2.53,0,4.5-.07,5.88-.19l.17.19a17.53,17.53,0,0,0-.15,1.89,9.77,9.77,0,0,0,.15,1.55l-.17.15q-2.85-.15-6.53-.15C275.92,511.67,273.52,511.72,270.52,511.82Z" transform="translate(-70.59 -224.28)"/><path d="M285.78,501.81a18.9,18.9,0,0,1,.85-6.47,6.82,6.82,0,0,1,2.43-3.31,6.54,6.54,0,0,1,3.77-1.09,6.2,6.2,0,0,1,3.53.94,5.74,5.74,0,0,1,2.09,2.94,19.47,19.47,0,0,1,.72,6.14,19.88,19.88,0,0,1-.86,6.59,7.2,7.2,0,0,1-2.39,3.42,6.65,6.65,0,0,1-7.22.07,6,6,0,0,1-2.21-3A20,20,0,0,1,285.78,501.81Zm3.64-1.91a41,41,0,0,0,.42,6.9,6.06,6.06,0,0,0,1.23,3.07,2.07,2.07,0,0,0,1.52.61,2.21,2.21,0,0,0,2.08-1.29q.87-1.57.87-6.18a31,31,0,0,0-.82-8.34c-.42-1.43-1.21-2.15-2.36-2.15a2.4,2.4,0,0,0-2.17,1.4C289.67,494.86,289.42,496.85,289.42,499.9Z" transform="translate(-70.59 -224.28)"/><path d="M301.76,511.79l-.14-.18v-.88l.14-.17a21.39,21.39,0,0,0,3.17-.4.71.71,0,0,0,.39-.37,11.75,11.75,0,0,0,.27-2.88q.12-4.25.12-7.51c0-2.86,0-4.46-.09-4.78s-.13-.26-.28-.26a1.08,1.08,0,0,0-.41.11l-4,1.85-.19-.12a12.34,12.34,0,0,0-.31-1.79l.12-.22a90.36,90.36,0,0,0,9.14-3.06l.38.22c-.13,1.36-.22,3.21-.29,5.56s-.09,5.18-.09,8.52a26.66,26.66,0,0,0,.19,4.25.72.72,0,0,0,.34.51,12,12,0,0,0,3,.37l.18.17v.88l-.18.18-1.82-.05q-2.74-.06-3.72-.06C305.83,511.68,303.87,511.72,301.76,511.79Z" transform="translate(-70.59 -224.28)"/><path d="M330.11,491.24v1.4q-3,5.17-5.61,10.73a86.07,86.07,0,0,0-3.56,8.42c-.79-.07-1.38-.11-1.77-.11s-1,0-1.7.11l-.15-.44c1-1.6,1.95-3.14,2.82-4.6s2.2-3.74,4-6.83l2.63-4.67-.14-.24H321a11.46,11.46,0,0,0-2.72.17.76.76,0,0,0-.41.43,12.76,12.76,0,0,0-.47,2.91l-.12.13-1.2-.1c.07-1.1.1-2.4.1-3.9,0-.95,0-2.05-.1-3.29l.24-.25q4.28.26,8.8.25C326.51,491.34,328.17,491.3,330.11,491.24Z" transform="translate(-70.59 -224.28)"/></svg>