<svg xmlns="http://www.w3.org/2000/svg" viewBox="0 0 111.1 37.37"><defs><style>.a{fill:#000;}.b{fill:none;stroke:#000;stroke-miterlimit:10;stroke-width:0.75px;}</style></defs><title>gg-upandcoming-laurel</title><path class="a" d="M125.49,37.46h-2.43V43c0,3-1.24,5.07-4,5.07-2.12-.12-2.79-1.52-2.79-4.4V37.46h-2.43v7.18c0,3.31,1.53,5.29,4.94,5.29a4.84,4.84,0,0,0,4.32-2.25h0V49.8h2.35V37.46" transform="translate(-44.43 -29.5)"/><path class="a" d="M138.77,43.43c.06,1.93-1,4.66-3.64,4.66s-3.88-2.54-3.88-4.59c0-2.3,1.27-4.64,3.91-4.64s3.67,2.34,3.61,4.57Zm-10,10.64h2.43V48h.06c.74,1.13,2.06,2,4.39,2,4,0,5.66-3.29,5.66-6.67S139.5,37,135.67,37a5.43,5.43,0,0,0-4.47,2h0V37.46h-2.33V54.07" transform="translate(-44.43 -29.5)"/><path class="a" d="M138.45,51.39v1.55h1.73V51.39Zm-21.58,2.54a3,3,0,0,0-3.22,3.22,3,3,0,0,0,2.38,3.2h2.11a4.37,4.37,0,0,0,.52-.12l-.08-1.34a3.86,3.86,0,0,1-1.33.29c-1.21,0-1.79-.88-1.79-2a1.76,1.76,0,0,1,1.75-2,2.83,2.83,0,0,1,1.18.23l.15-1.28A6.05,6.05,0,0,0,116.87,53.93ZM116,60.35a4.29,4.29,0,0,0,.9.09,7.12,7.12,0,0,0,1.21-.09Zm6.59-6.42a3.23,3.23,0,0,0-3.48,3.3,3.08,3.08,0,0,0,2.56,3.12h0a4.49,4.49,0,0,0,.92.09,4.39,4.39,0,0,0,.91-.09h0a3.08,3.08,0,0,0,2.57-3.12,3.23,3.23,0,0,0-3.49-3.3Zm8.18,0a2.4,2.4,0,0,0-2,1h0v-.87h-1.62v6.22h1.73v-3c0-.81.15-2.09,1.3-2.09,1,0,1,.83,1,1.41v3.7h1.73v-3c0-.81.14-2.09,1.29-2.09,1,0,1,.83,1,1.41v3.7H137V56.37c0-1.39-.46-2.44-2.11-2.44a2.32,2.32,0,0,0-2.08,1.1A1.94,1.94,0,0,0,130.8,53.93Zm14.83,0a2.57,2.57,0,0,0-2.19,1h0v-.85h-1.64v6.22h1.73v-3c0-.8.27-2.07,1.52-2.07s1.13,1,1.13,1.79v3.32h1.73V56.37A2.14,2.14,0,0,0,145.63,53.93Zm6.18,0c-2,0-2.82,1.73-2.82,3.22,0,1.67.75,3.14,2.71,3.14a2.4,2.4,0,0,0,2.07-1h0a5.31,5.31,0,0,1-.08,1.05h0c-.15.74-.61,1.37-1.92,1.37a5.33,5.33,0,0,1-1.93-.54l-.15,1.37A6.18,6.18,0,0,0,152,63c2.43,0,3.29-1.21,3.48-2.63h0a4.87,4.87,0,0,0,0-.66V54.07h-1.66v.85h0a2.26,2.26,0,0,0-2-1Zm-13.36.14v6.22h1.73V54.07Zm-15.83,1.11A1.68,1.68,0,0,1,124.3,57c0,1-.35,2.15-1.68,2.15S121,58.06,121,57A1.69,1.69,0,0,1,122.62,55.18Zm29.73,0c1,0,1.45.87,1.45,1.94S153.36,59,152.27,59s-1.47-1-1.47-1.89S151.17,55.18,152.35,55.18Z" transform="translate(-44.43 -29.5)"/><path class="a" d="M115,52.83c0-.65.8-.74,1.33-.74h.52a1.37,1.37,0,0,1-.25.88,1,1,0,0,1-.84.39c-.43,0-.76-.16-.76-.53Zm-.6-1.86a2.53,2.53,0,0,1,1.41-.47c.71,0,1,.24,1,.93h-.66a3.81,3.81,0,0,0-1.54.25,1.24,1.24,0,0,0-.79,1.22c0,.82.8,1.27,1.61,1.27a1.64,1.64,0,0,0,1.41-.74h0a5.75,5.75,0,0,0,0,.64h1c0-.33,0-.63,0-1s0-.64,0-1.08v-.55c0-1.26-.58-1.8-2-1.8a4.39,4.39,0,0,0-1.6.32l0,1h0" transform="translate(-44.43 -29.5)"/><path class="a" d="M118.55,54.07h1.19V52c0-.55.19-1.43,1.06-1.43s.77.71.77,1.23v2.29h1.19v-2.7a1.47,1.47,0,0,0-1.56-1.68,1.75,1.75,0,0,0-1.5.68h0v-.58h-1.13v4.28" transform="translate(-44.43 -29.5)"/><path class="a" d="M126.62,54.07h1.16V47.83h-1.2v2.46h0a1.65,1.65,0,0,0-1.37-.6c-1.4,0-1.92,1.05-1.92,2.23s.52,2.25,1.92,2.25a1.75,1.75,0,0,0,1.41-.58h0Zm-2.1-2.15c0-.58.21-1.37,1-1.37s1.06.77,1.06,1.37-.25,1.39-1,1.39-1-.8-1-1.39h0" transform="translate(-44.43 -29.5)"/><path d="M49.59,35.49a.42.42,0,0,1,0,.2.4.4,0,0,1-.1.15.48.48,0,0,1-.16.08l-.18,0h-.54a.85.85,0,0,1-.29,0,.57.57,0,0,1-.23-.12,1,1,0,0,1-.2-.24c-.06-.1-.14-.23-.22-.39l-1.55-2.93c-.09-.17-.19-.36-.28-.56s-.18-.4-.25-.59h0l0,.69c0,.23,0,.47,0,.72v3.27a.16.16,0,0,1,0,.09l-.09.06a.6.6,0,0,1-.18,0L45,36l-.28,0a.6.6,0,0,1-.18,0,.18.18,0,0,1-.08-.06.16.16,0,0,1,0-.09V30.14a.44.44,0,0,1,.13-.34.48.48,0,0,1,.33-.12h.68a1.3,1.3,0,0,1,.31,0,.61.61,0,0,1,.23.11.9.9,0,0,1,.18.2,2.13,2.13,0,0,1,.18.31l1.22,2.29.21.41c.07.13.14.27.2.4l.19.4.18.38h0c0-.22,0-.46,0-.7s0-.48,0-.7V29.87a.16.16,0,0,1,0-.09l.1-.06a.65.65,0,0,1,.18,0h.56a.58.58,0,0,1,.17,0l.09.06a.29.29,0,0,1,0,.09Z" transform="translate(-44.43 -29.5)"/><path d="M56.58,32.74a4.58,4.58,0,0,1-.19,1.39,2.7,2.7,0,0,1-.58,1,2.41,2.41,0,0,1-.94.65,3.52,3.52,0,0,1-1.31.23,3.77,3.77,0,0,1-1.27-.19,2.33,2.33,0,0,1-.91-.58,2.53,2.53,0,0,1-.54-1,5,5,0,0,1-.18-1.43,4.49,4.49,0,0,1,.19-1.37,2.74,2.74,0,0,1,.58-1,2.52,2.52,0,0,1,.94-.65,3.52,3.52,0,0,1,1.31-.23,3.79,3.79,0,0,1,1.26.19,2.22,2.22,0,0,1,.9.58,2.52,2.52,0,0,1,.56,1A4.93,4.93,0,0,1,56.58,32.74Zm-1.33.07a4.94,4.94,0,0,0-.08-.9,2,2,0,0,0-.26-.69,1.36,1.36,0,0,0-.5-.45,1.76,1.76,0,0,0-.77-.15,1.57,1.57,0,0,0-.79.17,1.5,1.5,0,0,0-.5.47,2.13,2.13,0,0,0-.28.69,4.44,4.44,0,0,0-.08.84,5.08,5.08,0,0,0,.08.92,2.08,2.08,0,0,0,.26.7,1.22,1.22,0,0,0,.49.44,1.81,1.81,0,0,0,.78.15,1.68,1.68,0,0,0,.79-.17,1.36,1.36,0,0,0,.5-.48,2.1,2.1,0,0,0,.28-.7A4.44,4.44,0,0,0,55.25,32.81Z" transform="translate(-44.43 -29.5)"/><path d="M64.94,35.76a.12.12,0,0,1,0,.09s0,0-.09.06l-.19,0-.29,0-.29,0-.19,0a.15.15,0,0,1-.09-.06.12.12,0,0,1,0-.09V30.67h0l-1.82,5.09a.17.17,0,0,1-.06.1.35.35,0,0,1-.12.07.84.84,0,0,1-.19,0H61l-.19,0a.35.35,0,0,1-.12-.07.18.18,0,0,1-.06-.09l-1.75-5.09h0v5.09a.2.2,0,0,1,0,.09.14.14,0,0,1-.1.06l-.19,0-.29,0L58,36l-.19,0s-.08,0-.09-.06a.12.12,0,0,1,0-.09V30.19a.52.52,0,0,1,.13-.38.5.5,0,0,1,.35-.13H59a1.38,1.38,0,0,1,.38,0,.65.65,0,0,1,.28.12.67.67,0,0,1,.19.22,1.84,1.84,0,0,1,.14.34l1.35,3.73h0l1.4-3.72a1.84,1.84,0,0,1,.14-.34,1.06,1.06,0,0,1,.17-.23.55.55,0,0,1,.24-.12,1,1,0,0,1,.31,0h.86a.51.51,0,0,1,.22,0,.29.29,0,0,1,.16.1.38.38,0,0,1,.09.15.78.78,0,0,1,0,.22Z" transform="translate(-44.43 -29.5)"/><path d="M67.58,35.76a.12.12,0,0,1,0,.09.17.17,0,0,1-.1.06.88.88,0,0,1-.2,0l-.31,0-.3,0a.77.77,0,0,1-.2,0,.14.14,0,0,1-.1-.06.1.1,0,0,1,0-.09v-5.9a.1.1,0,0,1,0-.09.14.14,0,0,1,.1-.06.88.88,0,0,1,.2,0l.3,0,.31,0a.88.88,0,0,1,.2,0,.17.17,0,0,1,.1.06.12.12,0,0,1,0,.09Z" transform="translate(-44.43 -29.5)"/><path d="M74.1,35.49a.42.42,0,0,1,0,.2.4.4,0,0,1-.1.15.44.44,0,0,1-.15.08.58.58,0,0,1-.19,0h-.54a.85.85,0,0,1-.29,0,.57.57,0,0,1-.23-.12,1.27,1.27,0,0,1-.2-.24l-.22-.39-1.55-2.93c-.09-.17-.18-.36-.28-.56s-.18-.4-.25-.59h0l0,.69c0,.23,0,.47,0,.72v3.27a.16.16,0,0,1,0,.09.23.23,0,0,1-.09.06.6.6,0,0,1-.18,0l-.28,0-.28,0a.53.53,0,0,1-.17,0,.17.17,0,0,1-.09-.06.16.16,0,0,1,0-.09V30.14a.42.42,0,0,1,.14-.34.45.45,0,0,1,.32-.12h.68a1.3,1.3,0,0,1,.31,0,.61.61,0,0,1,.23.11.73.73,0,0,1,.19.2c0,.08.11.19.17.31l1.22,2.29.21.41c.07.13.14.27.2.4l.19.4.18.38h0c0-.22,0-.46,0-.7V29.87a.16.16,0,0,1,0-.09.23.23,0,0,1,.09-.06l.18,0h.56a.49.49,0,0,1,.17,0l.09.06a.29.29,0,0,1,0,.09Z" transform="translate(-44.43 -29.5)"/><path d="M76.74,35.76a.12.12,0,0,1,0,.09.14.14,0,0,1-.1.06.88.88,0,0,1-.2,0l-.31,0-.3,0-.2,0a.14.14,0,0,1-.1-.06.12.12,0,0,1,0-.09v-5.9a.12.12,0,0,1,0-.09.14.14,0,0,1,.1-.06l.2,0,.3,0,.31,0a.88.88,0,0,1,.2,0,.14.14,0,0,1,.1.06.12.12,0,0,1,0,.09Z" transform="translate(-44.43 -29.5)"/><path d="M81.81,35.44a1.55,1.55,0,0,1,0,.23,1.57,1.57,0,0,1,0,.16.28.28,0,0,1-.06.08l-.08,0H78.48a.39.39,0,0,1-.27-.1.38.38,0,0,1-.1-.3V30.08a.38.38,0,0,1,.1-.3.39.39,0,0,1,.27-.1h3.13a.09.09,0,0,1,.07,0,.1.1,0,0,1,.06.08.53.53,0,0,1,0,.16,1.63,1.63,0,0,1,0,.24,1.41,1.41,0,0,1,0,.22.53.53,0,0,1,0,.16.12.12,0,0,1-.06.08.09.09,0,0,1-.07,0H79.37v1.53h1.89a.11.11,0,0,1,.08,0,.16.16,0,0,1,.06.08.54.54,0,0,1,0,.15,2.77,2.77,0,0,1,0,.47.39.39,0,0,1,0,.14.1.1,0,0,1-.06.08.11.11,0,0,1-.08,0H79.37v1.76h2.26l.08,0,.06.08a1.57,1.57,0,0,1,0,.16A1.55,1.55,0,0,1,81.81,35.44Z" transform="translate(-44.43 -29.5)"/><path d="M87.58,35.77a.2.2,0,0,1,0,.09.15.15,0,0,1-.09.06.87.87,0,0,1-.22,0h-.7a.69.69,0,0,1-.19,0,.2.2,0,0,1-.1-.07.23.23,0,0,1-.05-.1l-.56-1.39c-.07-.16-.14-.3-.2-.42a1.07,1.07,0,0,0-.22-.31.88.88,0,0,0-.27-.19,1,1,0,0,0-.36-.06h-.39v2.38a.12.12,0,0,1,0,.09.2.2,0,0,1-.11.06l-.19,0-.31,0-.31,0a.69.69,0,0,1-.19,0,.17.17,0,0,1-.11-.06.2.2,0,0,1,0-.09V30.08a.38.38,0,0,1,.1-.3.39.39,0,0,1,.27-.1h2l.29,0a2.34,2.34,0,0,1,.68.18,1.69,1.69,0,0,1,.51.34,1.38,1.38,0,0,1,.32.5,2.05,2.05,0,0,1,0,1.23,1.42,1.42,0,0,1-.23.46,1.45,1.45,0,0,1-.38.36A2.07,2.07,0,0,1,86,33a1.4,1.4,0,0,1,.26.16,1.36,1.36,0,0,1,.24.24,1.84,1.84,0,0,1,.2.31,3,3,0,0,1,.19.4l.53,1.23c0,.13.08.21.09.27A.45.45,0,0,1,87.58,35.77Zm-1.64-4.24A.94.94,0,0,0,85.8,31a.81.81,0,0,0-.46-.3l-.22,0-.34,0h-.57v1.78h.64a1.39,1.39,0,0,0,.48-.07.92.92,0,0,0,.34-.18.69.69,0,0,0,.2-.28A.9.9,0,0,0,85.94,31.53Z" transform="translate(-44.43 -29.5)"/><path d="M93.62,33.61a3,3,0,0,1-.17,1,2.14,2.14,0,0,1-.5.77,2.18,2.18,0,0,1-.81.48,3.83,3.83,0,0,1-1.12.16,3.41,3.41,0,0,1-1-.15,2.21,2.21,0,0,1-.8-.44,2,2,0,0,1-.49-.75,2.82,2.82,0,0,1-.17-1.05v-3.8a.2.2,0,0,1,0-.09.17.17,0,0,1,.11-.06l.19,0,.31,0,.31,0,.19,0a.2.2,0,0,1,.11.06.12.12,0,0,1,0,.09v3.69a2.13,2.13,0,0,0,.09.65,1.24,1.24,0,0,0,.26.45,1.13,1.13,0,0,0,.41.27,1.53,1.53,0,0,0,.54.09,1.43,1.43,0,0,0,.53-.1,1.15,1.15,0,0,0,.41-.26,1.26,1.26,0,0,0,.25-.44,1.78,1.78,0,0,0,.09-.59V29.86a.12.12,0,0,1,0-.09.14.14,0,0,1,.1-.06l.2,0,.3,0,.3,0a.88.88,0,0,1,.2,0,.17.17,0,0,1,.1.06.12.12,0,0,1,0,.09Z" transform="translate(-44.43 -29.5)"/><path d="M100.13,35.49a.42.42,0,0,1,0,.2.4.4,0,0,1-.1.15.36.36,0,0,1-.15.08.58.58,0,0,1-.19,0h-.54a.85.85,0,0,1-.29,0,.57.57,0,0,1-.23-.12,1.27,1.27,0,0,1-.2-.24q-.09-.15-.21-.39l-1.56-2.93c-.09-.17-.18-.36-.28-.56s-.17-.4-.25-.59h0l0,.69c0,.23,0,.47,0,.72v3.27a.16.16,0,0,1,0,.09.17.17,0,0,1-.09.06.61.61,0,0,1-.17,0l-.29,0-.28,0a.61.61,0,0,1-.17,0,.23.23,0,0,1-.09-.06.16.16,0,0,1,0-.09V30.14a.42.42,0,0,1,.14-.34.47.47,0,0,1,.32-.12h.69a1.42,1.42,0,0,1,.31,0,.65.65,0,0,1,.22.11.73.73,0,0,1,.19.2l.18.31,1.21,2.29.21.41c.07.13.14.27.2.4l.19.4.18.38h0c0-.22,0-.46,0-.7V29.87a.16.16,0,0,1,0-.09l.09-.06.18,0h.56a.49.49,0,0,1,.17,0l.09.06a.15.15,0,0,1,0,.09Z" transform="translate(-44.43 -29.5)"/><path d="M106.52,30.65a1.69,1.69,0,0,1,0,.25.65.65,0,0,1,0,.16.12.12,0,0,1,0,.08.13.13,0,0,1-.08,0,.45.45,0,0,1-.2-.09l-.37-.19a4,4,0,0,0-.56-.19,2.78,2.78,0,0,0-.75-.08,2.18,2.18,0,0,0-.82.15,2,2,0,0,0-.63.45,2.12,2.12,0,0,0-.4.69,2.81,2.81,0,0,0-.14.89,2.79,2.79,0,0,0,.15,1,1.81,1.81,0,0,0,.39.68,1.89,1.89,0,0,0,.62.42,2.28,2.28,0,0,0,.8.14,2,2,0,0,0,.42-.05,1.16,1.16,0,0,0,.38-.15V33.34h-1.18c-.06,0-.1,0-.14-.11a1.07,1.07,0,0,1,0-.37,1.41,1.41,0,0,1,0-.22l0-.15a.18.18,0,0,1,.06-.08.11.11,0,0,1,.08,0h2.11a.32.32,0,0,1,.14,0,.21.21,0,0,1,.11.08.35.35,0,0,1,.07.12.9.9,0,0,1,0,.18v2.49a.66.66,0,0,1,0,.25.34.34,0,0,1-.21.17,2.94,2.94,0,0,1-.39.13,3.37,3.37,0,0,1-.48.12l-.5.07a4.35,4.35,0,0,1-.51,0,4,4,0,0,1-1.34-.21,2.73,2.73,0,0,1-1-.62,2.94,2.94,0,0,1-.63-1,4,4,0,0,1-.21-1.33,4,4,0,0,1,.23-1.38,2.86,2.86,0,0,1,1.68-1.7,3.86,3.86,0,0,1,1.35-.22,4.31,4.31,0,0,1,.74.05,3.8,3.8,0,0,1,.58.14,2,2,0,0,1,.41.17.81.81,0,0,1,.23.16.35.35,0,0,1,.1.19A1.6,1.6,0,0,1,106.52,30.65Z" transform="translate(-44.43 -29.5)"/><path d="M65.13,41a4.33,4.33,0,0,1-.21,1.42,2.56,2.56,0,0,1-.61,1,2.48,2.48,0,0,1-1,.59,4,4,0,0,1-1.38.2H60.63a.31.31,0,0,1-.21-.07.31.31,0,0,1-.1-.27V38.29a.3.3,0,0,1,.1-.26.31.31,0,0,1,.21-.07H62a4,4,0,0,1,1.38.21,2.61,2.61,0,0,1,.94.6,2.56,2.56,0,0,1,.57,1A3.78,3.78,0,0,1,65.13,41Zm-.88,0a3.58,3.58,0,0,0-.12-1,2.21,2.21,0,0,0-.4-.76,1.8,1.8,0,0,0-.68-.49A2.63,2.63,0,0,0,62,38.65h-.84v4.87H62a3,3,0,0,0,1-.15,1.68,1.68,0,0,0,.69-.46,2.07,2.07,0,0,0,.41-.78A3.63,3.63,0,0,0,64.25,41Z" transform="translate(-44.43 -29.5)"/><path d="M69.89,43.87a.66.66,0,0,1,0,.15l0,.11-.06.06a.08.08,0,0,1-.07,0h-3a.31.31,0,0,1-.21-.07.31.31,0,0,1-.1-.27V38.29a.3.3,0,0,1,.1-.26.31.31,0,0,1,.21-.07h3a.11.11,0,0,1,.07,0s0,0,0,.06a.81.81,0,0,1,0,.11.71.71,0,0,1,0,.16.66.66,0,0,1,0,.15l0,.11s0,0,0,.06l-.07,0H67.24v2h2.1l.07,0,0,.06a.18.18,0,0,1,0,.11.76.76,0,0,1,0,.16.66.66,0,0,1,0,.15.17.17,0,0,1,0,.1s0,0,0,.06H67.24v2.24h2.48l.07,0a.17.17,0,0,1,.06.06.81.81,0,0,1,0,.11A.71.71,0,0,1,69.89,43.87Z" transform="translate(-44.43 -29.5)"/><path d="M76,41.9a3,3,0,0,1-.17,1,2.06,2.06,0,0,1-.48.76,1.9,1.9,0,0,1-.75.46,2.89,2.89,0,0,1-1,.16,2.77,2.77,0,0,1-.94-.15A1.9,1.9,0,0,1,71.4,43a2.87,2.87,0,0,1-.17-1V38.08a.19.19,0,0,1,0-.07l.07,0,.13,0h.4L72,38,72,38a.19.19,0,0,1,0,.07v3.78a2.44,2.44,0,0,0,.11.76,1.41,1.41,0,0,0,.3.54,1.34,1.34,0,0,0,.49.32,1.61,1.61,0,0,0,.63.11,1.89,1.89,0,0,0,.65-.1,1.23,1.23,0,0,0,.48-.32,1.44,1.44,0,0,0,.3-.53,2.3,2.3,0,0,0,.1-.73V38.08a.19.19,0,0,1,0-.07.14.14,0,0,1,.07,0l.13,0h.39l.13,0,.07,0a.19.19,0,0,1,0,.07Z" transform="translate(-44.43 -29.5)"/><path d="M81.52,38.31c0,.07,0,.12,0,.16a.53.53,0,0,1,0,.11l-.06.06a.08.08,0,0,1-.07,0H79.59v5.43s0,0,0,.06a.1.1,0,0,1-.07.05l-.12,0H79l-.13,0a.13.13,0,0,1-.07-.05.11.11,0,0,1,0-.06V38.66H77a.08.08,0,0,1-.07,0,.1.1,0,0,1-.05-.06.53.53,0,0,1,0-.11.71.71,0,0,1,0-.16.81.81,0,0,1,0-.16l0-.11a.1.1,0,0,1,.05-.06A.08.08,0,0,1,77,38h4.35a.08.08,0,0,1,.07,0l.06.06,0,.11C81.51,38.2,81.52,38.25,81.52,38.31Z" transform="translate(-44.43 -29.5)"/><path d="M85.73,42.46a1.78,1.78,0,0,1-.16.78,1.71,1.71,0,0,1-.45.58,1.93,1.93,0,0,1-.68.36,2.84,2.84,0,0,1-.84.12,2.72,2.72,0,0,1-.58,0,2.77,2.77,0,0,1-.48-.13,1.92,1.92,0,0,1-.35-.16,1,1,0,0,1-.2-.14.53.53,0,0,1-.08-.15.78.78,0,0,1,0-.24c0-.07,0-.13,0-.17a1,1,0,0,1,0-.12s0,0,0-.06H82a.35.35,0,0,1,.19.08l.32.18a3.7,3.7,0,0,0,.46.18,2,2,0,0,0,.63.08,1.59,1.59,0,0,0,.5-.07,1.43,1.43,0,0,0,.39-.2.88.88,0,0,0,.24-.33,1,1,0,0,0,.09-.44.85.85,0,0,0-.12-.46,1.42,1.42,0,0,0-.32-.33A3.14,3.14,0,0,0,84,41.5l-.52-.24a5.12,5.12,0,0,1-.52-.27,2.54,2.54,0,0,1-.45-.36,1.56,1.56,0,0,1-.32-.47A1.62,1.62,0,0,1,82,39.5a1.75,1.75,0,0,1,.14-.7,1.54,1.54,0,0,1,.4-.51,1.91,1.91,0,0,1,.6-.32,2.68,2.68,0,0,1,.76-.11,3,3,0,0,1,.42,0,2.22,2.22,0,0,1,.39.1,1.75,1.75,0,0,1,.33.13,1.27,1.27,0,0,1,.2.12l.06.08s0,0,0,.06a.31.31,0,0,1,0,.1.66.66,0,0,1,0,.15.81.81,0,0,1,0,.16.36.36,0,0,1,0,.11.16.16,0,0,1,0,.07l-.06,0a.35.35,0,0,1-.17-.07l-.28-.15a1.88,1.88,0,0,0-.38-.15,1.61,1.61,0,0,0-.51-.07,1.22,1.22,0,0,0-.45.07.77.77,0,0,0-.32.18.67.67,0,0,0-.19.28.94.94,0,0,0-.07.34.77.77,0,0,0,.13.45,1.24,1.24,0,0,0,.32.33,3.15,3.15,0,0,0,.45.27l.53.24c.17.08.35.17.52.27a2.24,2.24,0,0,1,.46.35,1.56,1.56,0,0,1,.32.47A1.6,1.6,0,0,1,85.73,42.46Z" transform="translate(-44.43 -29.5)"/><path d="M91.1,43.33a.53.53,0,0,1,0,.13.28.28,0,0,1,0,.1l0,.08-.07.08a.77.77,0,0,1-.2.15,3.09,3.09,0,0,1-.92.35,2.59,2.59,0,0,1-.65.07,3,3,0,0,1-1.1-.2,2.36,2.36,0,0,1-.83-.6,2.72,2.72,0,0,1-.53-1,4.25,4.25,0,0,1-.19-1.34,4.57,4.57,0,0,1,.2-1.39,2.91,2.91,0,0,1,.56-1,2.32,2.32,0,0,1,.87-.65,2.73,2.73,0,0,1,1.12-.22,3.07,3.07,0,0,1,.53,0,2.91,2.91,0,0,1,.47.13,2,2,0,0,1,.39.18,1.08,1.08,0,0,1,.23.16l.09.1,0,.08s0,.07,0,.11,0,.09,0,.15,0,.12,0,.17l0,.11-.05.07-.07,0a.38.38,0,0,1-.19-.1,2.41,2.41,0,0,0-.31-.2,2.2,2.2,0,0,0-1.12-.31,1.7,1.7,0,0,0-.76.17,1.63,1.63,0,0,0-.59.49,2.52,2.52,0,0,0-.38.79,3.87,3.87,0,0,0-.13,1.07,3.72,3.72,0,0,0,.13,1.05,2.08,2.08,0,0,0,.37.76,1.51,1.51,0,0,0,.59.47,2,2,0,0,0,.79.15,2.08,2.08,0,0,0,.65-.09,2.78,2.78,0,0,0,.48-.2l.32-.21A.41.41,0,0,1,91,43H91a.09.09,0,0,1,0,.06.36.36,0,0,1,0,.11A1,1,0,0,1,91.1,43.33Z" transform="translate(-44.43 -29.5)"/><path d="M96.71,44.09a.11.11,0,0,1,0,.06.18.18,0,0,1-.07.05l-.13,0h-.4l-.12,0a.13.13,0,0,1-.07-.05.11.11,0,0,1,0-.06V41.31H93v2.78s0,0,0,.06a.1.1,0,0,1-.06.05l-.13,0h-.4l-.13,0a.13.13,0,0,1-.07-.05.11.11,0,0,1,0-.06v-6a.19.19,0,0,1,0-.07l.07,0,.13,0h.4L93,38,93,38a.1.1,0,0,1,0,.07v2.51h2.85V38.08a.19.19,0,0,1,0-.07L96,38l.12,0h.4l.13,0,.07,0a.19.19,0,0,1,0,.07Z" transform="translate(-44.43 -29.5)"/><path d="M101.85,43.87a.66.66,0,0,1,0,.15.35.35,0,0,1,0,.11l-.06.06a.08.08,0,0,1-.07,0h-3a.35.35,0,0,1-.21-.07.31.31,0,0,1-.1-.27V38.29a.3.3,0,0,1,.1-.26.35.35,0,0,1,.21-.07h3a.1.1,0,0,1,.07,0,.1.1,0,0,1,0,.06.81.81,0,0,1,0,.11.71.71,0,0,1,0,.16.66.66,0,0,1,0,.15l0,.11a.1.1,0,0,1,0,.06l-.07,0H99.2v2h2.1l.07,0,0,.06a.28.28,0,0,1,0,.11v.31a.3.3,0,0,1,0,.1s0,0,0,.06H99.2v2.24h2.48l.07,0a.17.17,0,0,1,.06.06.29.29,0,0,1,0,.11A.71.71,0,0,1,101.85,43.87Z" transform="translate(-44.43 -29.5)"/><path d="M107.38,44.09a.11.11,0,0,1,0,.06.1.1,0,0,1-.06.05.25.25,0,0,1-.13,0h-.44a.35.35,0,0,1-.13,0,.16.16,0,0,1-.08-.06,1,1,0,0,1,0-.1l-.58-1.47a2.78,2.78,0,0,0-.21-.46,1.64,1.64,0,0,0-.26-.37.93.93,0,0,0-.35-.23,1.19,1.19,0,0,0-.49-.09H104v2.67a.11.11,0,0,1,0,.06.18.18,0,0,1-.07.05l-.13,0h-.4l-.13,0a.18.18,0,0,1-.07-.05s0,0,0-.06v-5.8a.33.33,0,0,1,.09-.26.35.35,0,0,1,.21-.07h1.73l.28,0a2.29,2.29,0,0,1,.64.19,1.52,1.52,0,0,1,.47.35,1.31,1.31,0,0,1,.28.47,1.87,1.87,0,0,1,.1.59,1.58,1.58,0,0,1-.33,1,1.55,1.55,0,0,1-.39.33,2.79,2.79,0,0,1-.49.24,1.17,1.17,0,0,1,.28.17,1.39,1.39,0,0,1,.23.25,2.37,2.37,0,0,1,.21.33c.06.13.13.27.19.43l.56,1.37a1.61,1.61,0,0,1,.09.25A.52.52,0,0,1,107.38,44.09Zm-1.25-4.4a1.13,1.13,0,0,0-.17-.62.89.89,0,0,0-.55-.36,1.08,1.08,0,0,0-.27-.05l-.4,0H104v2.11h.81a1.91,1.91,0,0,0,.57-.08,1.18,1.18,0,0,0,.4-.22,1,1,0,0,0,.23-.34A1.16,1.16,0,0,0,106.13,39.69Z" transform="translate(-44.43 -29.5)"/><path d="M58.65,51.29a.43.43,0,0,1,0,.17.44.44,0,0,1-.08.11l-.12.06a.32.32,0,0,1-.13,0H58l-.22,0a.5.5,0,0,1-.19-.1.79.79,0,0,1-.17-.19,2.1,2.1,0,0,1-.19-.31l-1.91-3.56c-.1-.18-.2-.38-.3-.58s-.2-.39-.28-.58h0c0,.23,0,.46,0,.71s0,.48,0,.72v3.77a.19.19,0,0,1,0,.07l-.07.05-.13,0-.2,0-.2,0-.13,0-.07-.05a.19.19,0,0,1,0-.07V45.74a.35.35,0,0,1,.11-.28.46.46,0,0,1,.24-.08h.41a.78.78,0,0,1,.24,0,.37.37,0,0,1,.18.08.53.53,0,0,1,.15.15,1.83,1.83,0,0,1,.15.25l1.47,2.75.26.49.24.47c.08.15.16.3.23.45s.16.3.23.46h0c0-.26,0-.52,0-.8V45.52a.14.14,0,0,1,0-.06.13.13,0,0,1,.07-.05.25.25,0,0,1,.13,0h.4a.25.25,0,0,1,.13,0,.1.1,0,0,1,.06.05.07.07,0,0,1,0,.06Z" transform="translate(-44.43 -29.5)"/><path d="M65,51.34a.45.45,0,0,1,0,.17.13.13,0,0,1,0,.1.22.22,0,0,1-.13,0H64.4l-.14,0s-.05,0-.06,0l0-.07L63.62,50H61L60.5,51.5l0,.07-.07.06-.13,0h-.22l-.23,0a.2.2,0,0,1-.13,0,.11.11,0,0,1,0-.1.45.45,0,0,1,0-.17l2.1-5.81a.19.19,0,0,1,.14-.14.57.57,0,0,1,.15,0h.5a.57.57,0,0,1,.16,0l.1,0a.41.41,0,0,1,0,.09Zm-2.69-5.13h0l-1.07,3.12H63.4Z" transform="translate(-44.43 -29.5)"/><path d="M70.15,50.75v.14s0,.07,0,.1l0,.08-.07.08-.2.15a3.57,3.57,0,0,1-.39.19,3,3,0,0,1-.53.16,3.2,3.2,0,0,1-.65.06,2.8,2.8,0,0,1-1.1-.2,2.13,2.13,0,0,1-.83-.6,2.63,2.63,0,0,1-.53-1,4.17,4.17,0,0,1-.19-1.34,4.57,4.57,0,0,1,.2-1.39,3,3,0,0,1,.56-1,2.49,2.49,0,0,1,.87-.64,2.73,2.73,0,0,1,1.12-.23,2.33,2.33,0,0,1,.53.06,2.93,2.93,0,0,1,.47.12,2.38,2.38,0,0,1,.39.18,1.5,1.5,0,0,1,.23.17.65.65,0,0,1,.09.1l0,.08s0,.07,0,.11,0,.09,0,.15,0,.12,0,.16a.81.81,0,0,1,0,.11s0,.06,0,.07a.07.07,0,0,1-.06,0,.35.35,0,0,1-.19-.09l-.32-.21a4.09,4.09,0,0,0-.46-.21,2.19,2.19,0,0,0-.66-.09,1.7,1.7,0,0,0-.76.17,1.54,1.54,0,0,0-.59.49,2.42,2.42,0,0,0-.38.79,4.39,4.39,0,0,0,0,2.12,2.16,2.16,0,0,0,.37.76,1.55,1.55,0,0,0,.59.46,1.83,1.83,0,0,0,.79.16,2.08,2.08,0,0,0,.65-.09,2.16,2.16,0,0,0,.48-.21,2.61,2.61,0,0,0,.32-.2.45.45,0,0,1,.2-.09h.06a.09.09,0,0,1,0,.06.27.27,0,0,1,0,.11A1,1,0,0,1,70.15,50.75Z" transform="translate(-44.43 -29.5)"/><path d="M75.76,51.51a.14.14,0,0,1,0,.07s0,0-.07.05l-.13,0-.19,0-.21,0-.12,0s-.06,0-.07-.05a.14.14,0,0,1,0-.07V48.74H72.08v2.77a.08.08,0,0,1,0,.07s0,0-.06.05l-.13,0-.2,0-.2,0-.13,0s-.06,0-.07-.05a.14.14,0,0,1,0-.07v-6a.14.14,0,0,1,0-.07s0,0,.07,0l.13,0,.2,0,.2,0,.13,0s0,0,.06,0a.08.08,0,0,1,0,.07V48h2.85v-2.5a.14.14,0,0,1,0-.07s0,0,.07,0l.12,0,.21,0,.19,0,.13,0s.06,0,.07,0a.14.14,0,0,1,0,.07Z" transform="translate(-44.43 -29.5)"/><path d="M83.41,51.45a.17.17,0,0,1-.06.11.26.26,0,0,1-.1.07l-.17,0h-.5l-.17,0a.26.26,0,0,1-.1-.07.23.23,0,0,1,0-.11L81,46.73h0l-1.21,4.72a.23.23,0,0,1,0,.11.26.26,0,0,1-.1.07l-.16,0H78.9l-.17,0a.3.3,0,0,1-.11-.07.23.23,0,0,1-.05-.11l-1.65-5.77a.82.82,0,0,1,0-.18.1.1,0,0,1,0-.09s.07,0,.13,0h.48a.49.49,0,0,1,.14,0,.1.1,0,0,1,.06,0,.2.2,0,0,1,0,.09l1.41,5.24h0l1.33-5.23a.19.19,0,0,1,0-.09.09.09,0,0,1,.07-.06l.13,0h.45l.13,0a.11.11,0,0,1,.07.06.19.19,0,0,1,0,.09l1.44,5.23h0l1.38-5.24,0-.08a.09.09,0,0,1,.06-.06l.13,0h.23l.23,0a.21.21,0,0,1,.12,0,.12.12,0,0,1,0,.1.67.67,0,0,1,0,.17Z" transform="translate(-44.43 -29.5)"/><path d="M90.93,49.33a2.86,2.86,0,0,1-.16,1,2.06,2.06,0,0,1-.48.76,2,2,0,0,1-.75.47,2.93,2.93,0,0,1-1,.16,2.87,2.87,0,0,1-1-.15,2.16,2.16,0,0,1-.73-.44,1.9,1.9,0,0,1-.46-.73,3,3,0,0,1-.17-1V45.51a.14.14,0,0,1,0-.07s0,0,.07,0l.12,0,.21,0,.19,0,.13,0s.06,0,.07,0a.14.14,0,0,1,0,.07v3.78a2.5,2.5,0,0,0,.1.76,1.59,1.59,0,0,0,.31.54,1.31,1.31,0,0,0,.48.32,1.83,1.83,0,0,0,.64.11,1.88,1.88,0,0,0,.65-.11,1.16,1.16,0,0,0,.47-.32,1.4,1.4,0,0,0,.3-.52,2.35,2.35,0,0,0,.11-.74V45.51a.08.08,0,0,1,0-.07s0,0,.06,0l.13,0,.2,0,.2,0,.13,0s.05,0,.06,0a.08.08,0,0,1,0,.07Z" transform="translate(-44.43 -29.5)"/><path d="M96.76,50.75v.14s0,.07,0,.1l0,.08-.07.08-.2.15a2.85,2.85,0,0,1-.39.19,3,3,0,0,1-.53.16,3.2,3.2,0,0,1-.65.06,2.8,2.8,0,0,1-1.1-.2,2.13,2.13,0,0,1-.83-.6,2.63,2.63,0,0,1-.53-1,4.17,4.17,0,0,1-.19-1.34,4.57,4.57,0,0,1,.2-1.39,3,3,0,0,1,.56-1,2.58,2.58,0,0,1,.87-.64A2.73,2.73,0,0,1,95,45.3a2.33,2.33,0,0,1,.53.06,2.93,2.93,0,0,1,.47.12,2.38,2.38,0,0,1,.39.18,1.5,1.5,0,0,1,.23.17.35.35,0,0,1,.09.1l0,.08s0,.07,0,.11,0,.09,0,.15,0,.12,0,.16a.81.81,0,0,1,0,.11s0,.06,0,.07a.07.07,0,0,1-.06,0,.35.35,0,0,1-.19-.09l-.32-.21a4.09,4.09,0,0,0-.46-.21A2.19,2.19,0,0,0,95,46a1.7,1.7,0,0,0-.76.17,1.54,1.54,0,0,0-.59.49,2.42,2.42,0,0,0-.38.79,4.21,4.21,0,0,0-.13,1.06,3.8,3.8,0,0,0,.13,1.06,2.16,2.16,0,0,0,.37.76,1.55,1.55,0,0,0,.59.46A1.83,1.83,0,0,0,95,51a2.19,2.19,0,0,0,.66-.09,2.29,2.29,0,0,0,.47-.21,2.61,2.61,0,0,0,.32-.2.45.45,0,0,1,.2-.09h.06a.09.09,0,0,1,0,.06.27.27,0,0,1,0,.11A1,1,0,0,1,96.76,50.75Z" transform="translate(-44.43 -29.5)"/><path d="M102.37,51.51a.14.14,0,0,1,0,.07s0,0-.07.05l-.13,0-.19,0-.21,0-.12,0s-.06,0-.07-.05a.14.14,0,0,1,0-.07V48.74H98.69v2.77a.15.15,0,0,1,0,.07l-.07.05-.13,0-.2,0-.2,0-.13,0-.07-.05a.14.14,0,0,1,0-.07v-6a.14.14,0,0,1,0-.07l.07,0,.13,0,.2,0,.2,0,.13,0,.07,0a.15.15,0,0,1,0,.07V48h2.85v-2.5a.14.14,0,0,1,0-.07s0,0,.07,0l.12,0,.21,0,.19,0,.13,0s.06,0,.07,0a.14.14,0,0,1,0,.07Z" transform="translate(-44.43 -29.5)"/><path d="M107.39,49.88a1.69,1.69,0,0,1-.61,1.37,1.93,1.93,0,0,1-.68.36,2.84,2.84,0,0,1-.84.12,3.48,3.48,0,0,1-.58,0,4.09,4.09,0,0,1-.48-.13l-.35-.16a1.58,1.58,0,0,1-.2-.14.53.53,0,0,1-.08-.15.78.78,0,0,1,0-.24c0-.07,0-.13,0-.18l0-.11s0,0,0-.06l.07,0a.45.45,0,0,1,.19.08,1.82,1.82,0,0,0,.32.18,2.45,2.45,0,0,0,1.09.27,1.59,1.59,0,0,0,.5-.07,1.22,1.22,0,0,0,.39-.21.88.88,0,0,0,.24-.33,1,1,0,0,0,.09-.43.85.85,0,0,0-.12-.46,1.25,1.25,0,0,0-.32-.33,2.42,2.42,0,0,0-.45-.26l-.52-.24-.52-.28a2.18,2.18,0,0,1-.45-.35,1.49,1.49,0,0,1-.32-.48,1.6,1.6,0,0,1-.12-.65,1.75,1.75,0,0,1,.14-.7,1.44,1.44,0,0,1,.4-.51,1.73,1.73,0,0,1,.6-.32,2.68,2.68,0,0,1,.76-.11,2,2,0,0,1,.42,0,2.23,2.23,0,0,1,.39.09,1.72,1.72,0,0,1,.33.14,1.27,1.27,0,0,1,.2.12l.06.07a.64.64,0,0,1,0,.07.31.31,0,0,1,0,.1,1.13,1.13,0,0,1,0,.3.37.37,0,0,1,0,.12.09.09,0,0,1,0,.06.09.09,0,0,1-.06,0,.5.5,0,0,1-.17-.07,1.77,1.77,0,0,0-.28-.15,2.42,2.42,0,0,0-.39-.16,1.55,1.55,0,0,0-.5-.07,1.18,1.18,0,0,0-.45.07.91.91,0,0,0-.32.19.64.64,0,0,0-.19.27,1,1,0,0,0-.07.34.73.73,0,0,0,.13.45,1,1,0,0,0,.32.33,2.44,2.44,0,0,0,.45.27l.53.25c.17.08.35.17.52.27a2.19,2.19,0,0,1,.46.34,1.75,1.75,0,0,1,.32.48A1.56,1.56,0,0,1,107.39,49.88Z" transform="translate(-44.43 -29.5)"/><path d="M69.83,53.17c0,.06,0,.11,0,.16a.23.23,0,0,1,0,.1.18.18,0,0,1,0,.07H67.37v2.13h2.17l.06,0,.06.05a.81.81,0,0,1,0,.11.76.76,0,0,1,0,.16.71.71,0,0,1,0,.16.81.81,0,0,1,0,.11.17.17,0,0,1-.06.06.07.07,0,0,1-.06,0H67.37v2.61a.14.14,0,0,1,0,.06s0,0-.07,0l-.12,0h-.4l-.13,0s-.06,0-.07,0a.07.07,0,0,1,0-.06V53.15a.31.31,0,0,1,.1-.27.31.31,0,0,1,.21-.07h2.81a.1.1,0,0,1,.07,0,.1.1,0,0,1,0,.06.36.36,0,0,1,0,.11S69.83,53.1,69.83,53.17Z" transform="translate(-44.43 -29.5)"/><path d="M71.92,58.94a.19.19,0,0,1,0,.07s0,0-.07,0l-.13,0h-.39l-.14,0a.09.09,0,0,1-.06,0,.1.1,0,0,1,0-.07v-6a.14.14,0,0,1,0-.06.13.13,0,0,1,.07,0l.13,0h.39l.13,0a.13.13,0,0,1,.07,0,.14.14,0,0,1,0,.06Z" transform="translate(-44.43 -29.5)"/><path d="M76.83,58.7c0,.07,0,.12,0,.16a.81.81,0,0,1,0,.11.14.14,0,0,1-.06.07.08.08,0,0,1-.07,0H73.89a.35.35,0,0,1-.21-.07.33.33,0,0,1-.1-.26v-5.8a.14.14,0,0,1,0-.06.18.18,0,0,1,.07,0l.13,0h.4l.13,0a.18.18,0,0,1,.07,0,.13.13,0,0,1,0,.06v5.41h2.25a.09.09,0,0,1,.07,0l.06.06a.81.81,0,0,1,0,.11S76.83,58.64,76.83,58.7Z" transform="translate(-44.43 -29.5)"/><path d="M84.55,58.94a.19.19,0,0,1,0,.07s0,0-.07,0l-.13,0h-.4l-.13,0a.09.09,0,0,1-.06,0,.1.1,0,0,1,0-.07V53.49h0L81.5,59a.13.13,0,0,1,0,.06l-.08,0-.12,0h-.34l-.12,0-.07,0a.21.21,0,0,1,0-.06l-2.11-5.47h0v5.45a.19.19,0,0,1,0,.07l-.07,0-.13,0H78l-.12,0s-.06,0-.07,0a.17.17,0,0,1,0-.07V53.19a.34.34,0,0,1,.1-.29.4.4,0,0,1,.24-.09h.51a1.14,1.14,0,0,1,.28,0,.67.67,0,0,1,.21.09.44.44,0,0,1,.14.16,1,1,0,0,1,.11.23l1.79,4.53h0L83,53.33a2,2,0,0,1,.12-.25.73.73,0,0,1,.14-.16.56.56,0,0,1,.17-.09l.21,0h.54l.14,0a.26.26,0,0,1,.11.07.44.44,0,0,1,.08.11.48.48,0,0,1,0,.18Z" transform="translate(-44.43 -29.5)"/><path d="M90.06,54.64a2.3,2.3,0,0,1-.16.85,1.79,1.79,0,0,1-.44.64,2,2,0,0,1-.71.41,3,3,0,0,1-1,.15H87v2.25A.1.1,0,0,1,87,59s0,0-.07,0l-.12,0h-.4l-.13,0s-.06,0-.07,0a.19.19,0,0,1,0-.07V53.17a.38.38,0,0,1,.1-.28.4.4,0,0,1,.23-.08h1.34a2.55,2.55,0,0,1,.39,0,3,3,0,0,1,.44.07,1.5,1.5,0,0,1,.52.21,1.58,1.58,0,0,1,.44.37A1.55,1.55,0,0,1,90,54,2.15,2.15,0,0,1,90.06,54.64Zm-.88.07a1.35,1.35,0,0,0-.14-.64,1.09,1.09,0,0,0-.79-.54l-.44,0H87V56h.75a1.91,1.91,0,0,0,.63-.09,1.51,1.51,0,0,0,.42-.27,1.08,1.08,0,0,0,.25-.41A1.46,1.46,0,0,0,89.18,54.71Z" transform="translate(-44.43 -29.5)"/><path d="M95.5,58.94a.19.19,0,0,1,0,.07s0,0-.06,0a.25.25,0,0,1-.13,0h-.44a.25.25,0,0,1-.13,0,.11.11,0,0,1-.07-.06.26.26,0,0,1-.05-.09L94,57.42a2.78,2.78,0,0,0-.21-.46,1.36,1.36,0,0,0-.25-.36,1.13,1.13,0,0,0-.36-.24,1.19,1.19,0,0,0-.49-.09h-.55v2.67a.19.19,0,0,1,0,.07l-.07,0-.13,0h-.4l-.13,0a.09.09,0,0,1-.06,0,.1.1,0,0,1,0-.07V53.15a.31.31,0,0,1,.1-.27.31.31,0,0,1,.21-.07h1.72l.28,0a2.68,2.68,0,0,1,.64.19,1.7,1.7,0,0,1,.47.35,1.34,1.34,0,0,1,.28.47A1.82,1.82,0,0,1,95,55a1.34,1.34,0,0,1-.24.44,1.7,1.7,0,0,1-.38.33,3.31,3.31,0,0,1-.5.24,1.17,1.17,0,0,1,.28.17,1.39,1.39,0,0,1,.23.25,2.66,2.66,0,0,1,.21.33c.06.13.13.27.19.43l.56,1.38a1.28,1.28,0,0,1,.09.24A.65.65,0,0,1,95.5,58.94Zm-1.25-4.4a1.13,1.13,0,0,0-.17-.62.89.89,0,0,0-.55-.36l-.27-.05h-1.1v2.1H93a1.64,1.64,0,0,0,.57-.08,1,1,0,0,0,.4-.22.89.89,0,0,0,.23-.34A1.08,1.08,0,0,0,94.25,54.54Z" transform="translate(-44.43 -29.5)"/><path d="M100.18,58.72a.66.66,0,0,1,0,.15.18.18,0,0,1,0,.11s0,.05-.06.06a.08.08,0,0,1-.07,0H97A.35.35,0,0,1,96.8,59a.33.33,0,0,1-.1-.26V53.15a.34.34,0,0,1,.1-.27.35.35,0,0,1,.21-.07h3a.08.08,0,0,1,.07,0,.1.1,0,0,1,0,.06.35.35,0,0,1,0,.11.76.76,0,0,1,0,.16.66.66,0,0,1,0,.15.29.29,0,0,1,0,.11.1.1,0,0,1,0,.06l-.07,0H97.53v2h2.1l.07,0,.06.06,0,.11c0,.05,0,.1,0,.16s0,.11,0,.15a.62.62,0,0,1,0,.1l-.06.06H97.53v2.24H100l.07,0a.34.34,0,0,1,.06.06.2.2,0,0,1,0,.11A.76.76,0,0,1,100.18,58.72Z" transform="translate(-44.43 -29.5)"/><path d="M102.37,58.94a.19.19,0,0,1,0,.07s0,0-.07,0l-.13,0h-.39l-.13,0s-.06,0-.07,0a.1.1,0,0,1,0-.07v-6a.07.07,0,0,1,0-.06.13.13,0,0,1,.07,0l.13,0h.39l.13,0a.13.13,0,0,1,.07,0,.14.14,0,0,1,0,.06Z" transform="translate(-44.43 -29.5)"/><path d="M107.39,57.31a1.78,1.78,0,0,1-.16.78,1.62,1.62,0,0,1-.45.58,1.94,1.94,0,0,1-.68.37,2.82,2.82,0,0,1-.83.12A3.35,3.35,0,0,1,104.2,59a1.92,1.92,0,0,1-.35-.16,1,1,0,0,1-.2-.14.64.64,0,0,1-.08-.14.78.78,0,0,1,0-.24c0-.08,0-.13,0-.18a.81.81,0,0,1,0-.11s0,0,0-.06a.08.08,0,0,1,.07,0,.45.45,0,0,1,.19.08,1.82,1.82,0,0,0,.32.18,3.7,3.7,0,0,0,.46.18,2.08,2.08,0,0,0,.63.09,1.59,1.59,0,0,0,.5-.08,1,1,0,0,0,.64-.53,1.19,1.19,0,0,0,.08-.44.79.79,0,0,0-.12-.45,1.12,1.12,0,0,0-.32-.33,2.44,2.44,0,0,0-.45-.27l-.52-.24a5.12,5.12,0,0,1-.52-.27,3,3,0,0,1-.45-.35,1.75,1.75,0,0,1-.32-.48,1.6,1.6,0,0,1-.12-.65,1.68,1.68,0,0,1,.14-.7,1.48,1.48,0,0,1,.4-.52,1.71,1.71,0,0,1,.6-.31,2.37,2.37,0,0,1,.76-.11,3,3,0,0,1,.42,0l.39.1a1.75,1.75,0,0,1,.33.13l.2.13.06.07a.64.64,0,0,1,0,.07s0,.06,0,.09v.16a.76.76,0,0,1,0,.15.36.36,0,0,1,0,.11s0,.06,0,.07a.07.07,0,0,1-.06,0,.43.43,0,0,1-.17-.06,3.08,3.08,0,0,0-.28-.16,2.74,2.74,0,0,0-.38-.15,1.61,1.61,0,0,0-.51-.07,1.22,1.22,0,0,0-.45.07.89.89,0,0,0-.32.18.67.67,0,0,0-.19.28,1,1,0,0,0-.07.34.77.77,0,0,0,.13.45,1.24,1.24,0,0,0,.32.33,2.44,2.44,0,0,0,.45.27l.53.24c.17.08.35.17.52.27a2.66,2.66,0,0,1,.46.35,1.56,1.56,0,0,1,.32.47A1.64,1.64,0,0,1,107.39,57.31Z" transform="translate(-44.43 -29.5)"/><path d="M92.39,66.52a.52.52,0,0,1,0,.11l0,.08a.17.17,0,0,1-.06.06l-.07,0H88.83l-.09,0-.06,0a.19.19,0,0,1-.05-.09.45.45,0,0,1,0-.12v-.11a.64.64,0,0,1,0-.09l0-.08.06-.08L90,64.8a9.91,9.91,0,0,0,.76-.89,5,5,0,0,0,.43-.72,2.36,2.36,0,0,0,.2-.58,2.85,2.85,0,0,0,0-.49,1.33,1.33,0,0,0-.07-.45,1.09,1.09,0,0,0-.22-.36,1,1,0,0,0-.36-.25,1.15,1.15,0,0,0-.5-.1,1.63,1.63,0,0,0-.55.09,2.79,2.79,0,0,0-.42.18l-.3.19a.36.36,0,0,1-.18.09l0,0,0,0s0-.05,0-.08,0-.07,0-.11,0-.07,0-.1,0,0,0-.07l0-.06.07-.08.19-.13.34-.17a3.45,3.45,0,0,1,.45-.14,2.1,2.1,0,0,1,.51-.06,2,2,0,0,1,.77.13,1.58,1.58,0,0,1,.54.35,1.33,1.33,0,0,1,.32.52,1.78,1.78,0,0,1,.11.61,4,4,0,0,1,0,.6,2.38,2.38,0,0,1-.22.65,4.68,4.68,0,0,1-.48.77,9.13,9.13,0,0,1-.85,1l-1.14,1.19h2.87l.07,0,.06,0,0,.08A.36.36,0,0,1,92.39,66.52Z" transform="translate(-44.43 -29.5)"/><path d="M97.66,63.65a6.61,6.61,0,0,1-.12,1.3,2.75,2.75,0,0,1-.37,1,1.8,1.8,0,0,1-.67.67,2.08,2.08,0,0,1-1,.24,2,2,0,0,1-.95-.21,1.5,1.5,0,0,1-.64-.61,2.94,2.94,0,0,1-.36-1,8.11,8.11,0,0,1-.1-1.38,6.46,6.46,0,0,1,.11-1.29,2.92,2.92,0,0,1,.36-1,1.82,1.82,0,0,1,.68-.67,2,2,0,0,1,1-.24,2.13,2.13,0,0,1,1,.2,1.65,1.65,0,0,1,.64.62,2.94,2.94,0,0,1,.36,1A8,8,0,0,1,97.66,63.65ZM97,63.7c0-.32,0-.61,0-.87a4.34,4.34,0,0,0-.11-.69,2.94,2.94,0,0,0-.2-.53,1.34,1.34,0,0,0-.28-.37A1.22,1.22,0,0,0,96,61a1.51,1.51,0,0,0-.48-.07,1.27,1.27,0,0,0-.78.23,1.5,1.5,0,0,0-.46.59,3.12,3.12,0,0,0-.23.85,8,8,0,0,0-.06,1,7.37,7.37,0,0,0,.09,1.23,2.65,2.65,0,0,0,.26.86,1.15,1.15,0,0,0,.46.49,1.29,1.29,0,0,0,.68.17,1.31,1.31,0,0,0,.55-.11,1.07,1.07,0,0,0,.41-.28,1.51,1.51,0,0,0,.28-.44,2.63,2.63,0,0,0,.18-.54,4.2,4.2,0,0,0,.08-.62C97,64.16,97,63.93,97,63.7Z" transform="translate(-44.43 -29.5)"/><path d="M102.48,66.54a.37.37,0,0,1,0,.12.16.16,0,0,1,0,.07l0,0H99.08l0,0a.43.43,0,0,1,0-.07.41.41,0,0,1,0-.12.34.34,0,0,1,0-.1.2.2,0,0,1,0-.08.12.12,0,0,1,0,0l.06,0h1.39V61.16L99.2,62a.28.28,0,0,1-.12.05A.1.1,0,0,1,99,62a.2.2,0,0,1,0-.08.61.61,0,0,1,0-.14.37.37,0,0,1,0-.11.24.24,0,0,1,0-.08.09.09,0,0,1,0-.05s0,0,.06,0l1.5-1,0,0,.06,0H101l.09,0,0,0a.13.13,0,0,1,0,.06v5.67h1.19l.07,0a.12.12,0,0,1,.05,0,.19.19,0,0,1,0,.08A.36.36,0,0,1,102.48,66.54Z" transform="translate(-44.43 -29.5)"/><path d="M107.58,60.79v.11s0,.07,0,.1,0,.07,0,.1l-.05.11-2.36,5.42a.31.31,0,0,1,0,.1.18.18,0,0,1-.07,0l-.11,0h-.15l-.17,0a.19.19,0,0,1-.09,0,.14.14,0,0,1,0-.07.63.63,0,0,1,0-.09L107,61.06h-3.2a.16.16,0,0,1-.14-.08.36.36,0,0,1,0-.19.37.37,0,0,1,0-.11.2.2,0,0,1,0-.08.12.12,0,0,1,.05-.05l.08,0h3.6l.1,0a.08.08,0,0,1,.07,0,.25.25,0,0,1,0,.09A.37.37,0,0,1,107.58,60.79Z" transform="translate(-44.43 -29.5)"/><line class="b" x1="66.07" x2="66.07" y2="37.29"/></svg>