<?xml version="1.0" standalone="no"?>
<!DOCTYPE svg PUBLIC "-//W3C//DTD SVG 20010904//EN"
 "http://www.w3.org/TR/2001/REC-SVG-20010904/DTD/svg10.dtd">
<svg version="1.0" xmlns="http://www.w3.org/2000/svg"
 width="1665.000000pt" height="1079.000000pt" viewBox="0 0 1665.000000 1079.000000"
 preserveAspectRatio="xMidYMid meet">
<metadata>
Created by potrace 1.14, written by Peter Selinger 2001-2017
</metadata>
<g transform="translate(0.000000,1079.000000) scale(0.100000,-0.100000)"
fill="#000000" stroke="none">
<path d="M3935 10759 c-71 -38 -161 -107 -210 -161 -60 -67 -100 -147 -126
-251 -24 -97 -35 -291 -21 -365 l9 -52 -161 -78 c-139 -68 -345 -179 -426
-231 -17 -10 -8 4 25 44 79 94 104 130 137 202 27 57 32 80 36 170 5 113 -5
184 -44 310 -41 129 -37 128 -134 37 -139 -131 -193 -234 -210 -400 -11 -109
1 -257 29 -355 10 -35 20 -70 22 -78 2 -8 -44 -47 -121 -102 -69 -48 -187
-138 -264 -199 -76 -61 -136 -108 -134 -103 2 4 24 49 50 99 66 129 82 189 76
294 -4 62 -15 113 -40 187 -33 96 -113 253 -129 253 -13 0 -92 -97 -131 -162
-73 -120 -83 -157 -83 -313 0 -163 20 -254 86 -395 l40 -85 -93 -86 c-78 -73
-202 -206 -311 -334 l-25 -30 24 85 c50 168 42 274 -31 428 -40 85 -120 203
-169 251 l-34 33 -28 -43 c-109 -172 -141 -351 -95 -529 27 -102 94 -248 155
-335 l45 -64 -102 -153 c-56 -85 -133 -209 -171 -276 -37 -67 -69 -122 -70
-122 -1 0 4 39 11 88 26 167 -1 295 -90 429 -50 76 -241 267 -260 260 -16 -5
-56 -106 -73 -186 -19 -90 -18 -234 2 -302 38 -126 138 -290 246 -402 59 -60
69 -75 62 -93 -5 -12 -38 -88 -73 -170 -36 -82 -85 -209 -111 -283 l-47 -133
-6 108 c-8 130 -27 209 -68 282 -38 66 -124 159 -201 219 -66 50 -186 123
-205 123 -28 0 -50 -220 -33 -335 15 -98 44 -173 100 -256 57 -83 175 -205
251 -260 114 -82 106 -51 60 -239 -22 -91 -51 -225 -65 -298 -24 -130 -36
-171 -36 -120 0 32 -45 189 -66 231 -68 133 -237 263 -447 342 -99 37 -97 38
-97 -51 0 -155 40 -310 107 -410 75 -114 249 -255 407 -330 l78 -37 -6 -41
c-3 -23 -8 -155 -12 -294 l-7 -253 -50 103 c-62 130 -141 212 -262 274 -114
59 -299 114 -382 114 -25 0 -26 0 -19 -62 10 -86 59 -229 106 -308 88 -149
293 -287 525 -355 49 -14 90 -26 91 -28 1 -1 10 -67 19 -147 9 -80 27 -203 40
-275 13 -71 23 -130 21 -132 -1 -1 -22 28 -46 65 -113 171 -260 257 -505 292
-86 12 -255 13 -255 2 0 -44 83 -220 146 -308 62 -88 125 -139 239 -195 122
-59 249 -96 385 -112 l103 -12 42 -150 c24 -83 61 -201 84 -263 l40 -113 -62
64 c-152 155 -290 204 -547 194 -131 -5 -236 -20 -254 -37 -23 -22 134 -243
227 -320 140 -115 403 -182 649 -165 l97 7 65 -131 c37 -72 95 -180 131 -240
36 -61 65 -112 65 -115 0 -3 -33 19 -74 48 -135 97 -222 126 -377 126 -114 0
-219 -18 -345 -60 -138 -46 -136 -41 -57 -133 111 -126 252 -224 370 -256 160
-43 473 -26 624 34 11 4 42 -29 117 -127 55 -73 135 -172 176 -220 42 -48 76
-90 76 -92 0 -3 -33 12 -74 33 -124 63 -176 76 -306 76 -87 -1 -134 -6 -195
-23 -83 -23 -333 -141 -355 -167 -11 -13 -6 -21 26 -50 66 -58 181 -135 249
-166 109 -49 183 -62 320 -56 174 9 294 41 520 143 6 2 66 -48 135 -112 69
-63 164 -148 212 -187 47 -40 85 -73 84 -74 -1 -1 -36 8 -77 22 -41 13 -110
28 -153 34 -160 22 -331 -30 -521 -159 -68 -47 -177 -136 -183 -149 -3 -9 89
-64 180 -106 233 -107 449 -97 725 35 57 27 136 71 176 99 40 28 76 51 80 51
4 0 55 -33 114 -74 60 -40 155 -101 213 -136 58 -34 107 -64 109 -66 2 -2 -50
0 -115 3 -92 4 -134 2 -184 -11 -96 -24 -214 -86 -309 -162 -81 -66 -241 -237
-241 -259 0 -15 165 -71 263 -90 172 -33 302 -14 471 68 131 64 230 132 332
229 l74 71 98 -43 c53 -24 160 -67 236 -96 155 -58 155 -51 -5 -73 -42 -6
-102 -20 -133 -31 -126 -48 -274 -178 -383 -337 -58 -85 -118 -191 -111 -198
2 -2 44 -11 93 -19 178 -31 372 -15 498 41 158 71 360 253 478 429 l34 51 113
-23 c700 -144 1318 -445 1737 -845 l80 -77 84 77 84 78 -64 62 c-205 198 -572
423 -959 586 -243 102 -609 215 -862 265 l-58 11 0 97 c0 185 -60 431 -135
557 -73 121 -211 239 -377 321 -61 30 -80 36 -90 26 -8 -8 -13 -69 -16 -195
-5 -217 13 -329 73 -453 39 -80 147 -205 225 -259 22 -15 39 -30 37 -32 -13
-12 -497 159 -497 175 0 4 7 45 16 92 9 51 16 141 16 225 0 223 -43 388 -136
514 -45 60 -158 172 -221 217 -88 63 -81 65 -109 -28 -64 -212 -74 -452 -24
-595 27 -77 89 -175 166 -262 l47 -55 -100 54 c-100 54 -220 125 -326 193
l-55 35 37 114 c42 126 69 285 69 404 -1 203 -86 389 -258 557 l-58 58 -52
-108 c-89 -189 -125 -358 -111 -518 8 -83 33 -153 93 -257 24 -43 42 -78 40
-78 -15 0 -394 321 -402 340 -1 4 13 34 33 67 126 213 189 491 150 669 -28
128 -165 392 -198 381 -21 -6 -125 -160 -171 -252 -70 -141 -91 -221 -91 -345
0 -95 4 -115 37 -210 20 -57 36 -106 34 -107 -9 -9 -346 393 -346 413 0 6 10
19 22 30 76 68 200 277 254 429 24 70 28 95 28 195 0 124 -12 183 -64 317 -50
132 -46 131 -135 43 -135 -132 -232 -281 -271 -415 -21 -75 -21 -202 1 -309 9
-43 15 -80 13 -82 -6 -6 -170 260 -232 377 l-56 106 44 31 c57 41 175 162 231
237 58 77 118 193 141 270 26 88 23 262 -6 382 -12 51 -25 95 -30 98 -18 11
-170 -103 -265 -199 -162 -163 -205 -265 -205 -491 -1 -90 -4 -125 -10 -113
-37 63 -190 489 -190 526 0 10 28 33 72 57 165 93 341 262 402 387 61 126 86
269 71 422 -8 90 1 89 -137 21 -113 -56 -188 -107 -265 -178 -109 -102 -163
-212 -185 -378 -7 -49 -16 -89 -20 -89 -4 0 -8 2 -8 5 0 2 -14 65 -30 139 -32
144 -73 390 -68 413 2 8 39 26 84 42 231 80 441 243 518 404 37 77 70 201 81
305 6 61 6 62 -18 62 -48 0 -203 -51 -302 -100 -202 -99 -287 -203 -356 -434
l-26 -88 -6 68 c-9 88 -9 438 -1 525 l7 67 63 6 c206 21 471 150 574 278 67
84 160 290 160 354 0 21 -123 18 -243 -7 -255 -51 -384 -150 -499 -378 -21
-41 -38 -67 -38 -56 0 72 86 547 110 611 7 18 14 20 63 16 129 -10 363 36 492
98 74 36 162 113 219 193 45 64 121 205 113 213 -2 2 -51 9 -109 15 -217 21
-416 -24 -541 -125 -35 -28 -125 -132 -169 -196 -16 -24 -16 -23 -2 27 35 123
190 548 209 571 1 1 33 -5 71 -15 94 -23 340 -23 442 0 142 33 258 112 368
251 35 44 64 84 64 88 0 11 -38 25 -135 51 -117 31 -345 31 -427 0 -76 -28
-152 -80 -244 -166 l-76 -71 52 104 c72 145 245 441 281 483 3 5 49 -7 100
-26 125 -47 237 -67 373 -67 123 0 183 13 277 60 79 40 239 169 239 192 0 12
-127 73 -213 102 -44 14 -119 31 -168 38 -155 20 -260 -12 -442 -135 -54 -37
-95 -61 -91 -54 19 31 165 220 223 287 80 93 233 250 244 250 5 0 29 -14 53
-31 74 -50 208 -109 311 -135 112 -28 230 -32 318 -9 72 19 182 73 248 121
l48 35 -28 23 c-92 75 -243 155 -339 180 -138 35 -266 17 -442 -65 -47 -21
-87 -39 -89 -39 -7 0 155 145 252 225 121 99 273 215 292 222 8 3 36 -16 66
-44 95 -90 209 -158 345 -207 96 -34 187 -42 283 -23 81 16 235 72 245 89 10
16 -123 144 -214 205 -45 30 -115 67 -155 80 -65 23 -82 25 -182 20 -66 -3
-140 -14 -185 -27 -41 -11 -84 -23 -95 -26 -51 -14 271 186 476 294 64 34 118
62 121 62 3 0 18 -19 33 -42 89 -134 282 -286 425 -334 76 -25 239 -25 343 0
42 10 77 23 77 28 0 6 -23 43 -52 84 -73 106 -192 215 -285 261 l-77 38 -155
0 c-86 0 -178 -3 -206 -7 l-50 -7 45 23 c25 13 121 54 214 91 l168 67 48 -21
c65 -28 165 -51 223 -51 63 0 185 41 267 90 66 39 199 153 190 163 -3 3 -46
18 -95 32 -128 39 -269 45 -346 16 -76 -29 -141 -73 -219 -149 -62 -61 -71
-66 -200 -111 -74 -27 -144 -52 -155 -57 -11 -4 21 26 70 67 167 139 223 244
233 435 4 93 -9 238 -26 285 -7 18 -9 18 -47 -2z"/>
<path d="M12666 10753 c-53 -260 -23 -461 89 -597 31 -38 115 -114 190 -171
11 -8 -18 -1 -65 16 -47 17 -115 41 -151 53 -55 18 -80 34 -148 98 -47 43
-114 93 -154 115 l-72 38 -120 -1 c-101 0 -134 -5 -210 -28 -49 -15 -92 -29
-94 -32 -3 -2 13 -23 35 -45 64 -66 197 -149 292 -182 75 -25 96 -29 157 -24
39 3 104 17 145 32 41 15 86 27 100 27 27 1 229 -77 350 -135 l75 -35 -50 6
c-27 4 -120 7 -206 7 l-155 0 -79 -39 c-61 -30 -99 -59 -166 -125 -78 -78
-169 -196 -169 -219 0 -5 35 -17 78 -28 110 -26 276 -24 356 5 151 54 334 207
442 369 3 5 113 -52 251 -129 133 -74 366 -220 360 -225 -1 -2 -43 8 -92 22
-60 17 -126 27 -200 31 -96 5 -118 2 -175 -17 -94 -31 -200 -101 -298 -196
-101 -98 -102 -94 32 -142 100 -37 222 -56 293 -47 146 18 352 122 477 240 29
28 54 44 63 41 41 -16 328 -248 489 -394 l69 -64 -73 36 c-128 64 -239 96
-332 96 -44 0 -102 -5 -128 -11 -72 -17 -239 -100 -316 -157 l-68 -50 43 -32
c63 -46 190 -108 256 -125 87 -23 204 -19 319 10 100 25 263 97 321 141 17 13
36 24 41 24 29 0 379 -401 455 -521 19 -28 11 -25 -75 35 -183 126 -289 159
-449 138 -146 -20 -385 -114 -372 -148 10 -26 155 -142 223 -178 113 -60 164
-69 330 -63 152 6 222 20 356 74 l67 26 17 -24 c40 -52 180 -293 249 -429 l74
-145 -76 72 c-92 88 -163 136 -242 165 -52 20 -78 23 -205 22 -124 0 -159 -4
-244 -27 -55 -15 -103 -30 -108 -35 -11 -11 52 -102 120 -171 73 -74 168 -136
249 -161 142 -44 353 -50 502 -15 35 9 65 14 67 12 17 -17 224 -584 224 -613
0 -3 -31 34 -69 84 -99 128 -162 176 -284 217 -107 36 -244 49 -375 36 -58 -6
-107 -13 -109 -15 -7 -7 68 -150 112 -211 79 -112 167 -179 295 -225 116 -43
232 -63 362 -64 l116 -1 31 -140 c35 -156 66 -334 76 -440 l7 -70 -47 91
c-111 217 -240 312 -492 363 -95 20 -243 29 -243 15 0 -26 38 -142 66 -202 49
-107 117 -197 187 -249 124 -91 336 -174 481 -189 l64 -7 6 -51 c8 -68 8 -501
-1 -561 l-6 -47 -24 83 c-67 233 -160 346 -368 445 -92 44 -248 94 -291 94
-24 0 -24 -2 -19 -52 31 -268 107 -413 287 -551 92 -70 207 -132 312 -168 60
-21 82 -33 84 -47 9 -56 -94 -574 -109 -550 -5 7 -9 26 -9 41 0 59 -33 185
-66 257 -65 137 -239 284 -444 371 -39 16 -75 27 -79 24 -3 -4 -6 -70 -5 -148
2 -237 45 -352 191 -507 93 -99 171 -161 284 -227 l77 -44 -25 -82 c-31 -102
-112 -319 -153 -412 l-31 -70 5 78 c14 232 -39 380 -193 541 -65 67 -196 173
-253 202 -27 14 -29 13 -38 -10 -41 -109 -54 -350 -25 -461 19 -72 80 -187
145 -275 48 -65 190 -208 244 -246 l28 -20 -77 -140 c-76 -135 -214 -356 -215
-342 0 4 7 40 16 80 9 40 16 116 17 168 0 79 -4 108 -27 174 -47 137 -125 252
-260 386 -48 47 -79 71 -85 65 -18 -18 -72 -156 -92 -232 -28 -111 -34 -215
-16 -298 33 -156 126 -342 240 -476 31 -38 57 -72 57 -77 0 -18 -337 -418
-345 -410 -2 2 13 50 33 108 33 96 36 115 37 215 0 101 -3 119 -36 212 -20 55
-55 134 -78 175 -49 85 -137 208 -150 208 -13 0 -84 -107 -124 -185 -19 -39
-46 -104 -59 -145 -58 -186 -4 -478 132 -710 22 -38 40 -72 40 -77 0 -16 -386
-343 -405 -343 -3 0 2 12 13 28 33 47 90 166 108 228 45 155 7 383 -104 613
l-46 94 -75 -79 c-183 -190 -252 -366 -237 -604 9 -131 28 -227 71 -353 l33
-99 -83 -53 c-84 -54 -274 -164 -354 -205 l-44 -22 58 69 c84 99 133 177 158
258 19 61 22 91 21 240 -1 149 -4 182 -26 265 -14 52 -32 110 -40 129 l-13 33
-80 -59 c-107 -79 -221 -204 -268 -290 -60 -113 -78 -201 -84 -398 -4 -131 -2
-190 11 -256 9 -47 16 -91 16 -97 0 -20 -482 -193 -497 -179 -2 2 14 16 36 31
69 48 187 178 219 243 70 138 100 332 82 536 -6 67 -15 126 -21 132 -13 13
-176 -70 -261 -134 -95 -72 -184 -174 -223 -256 -69 -144 -105 -299 -112 -482
l-6 -132 -56 -11 c-131 -26 -377 -92 -516 -138 -539 -178 -1058 -464 -1313
-724 l-53 -54 80 -72 c43 -40 82 -72 86 -72 4 0 46 37 93 81 417 392 1022 685
1707 828 l129 27 57 -79 c113 -158 299 -323 442 -391 107 -51 213 -70 366 -63
133 5 241 23 241 39 0 6 -24 51 -54 101 -107 181 -246 327 -377 397 -66 35
-192 70 -253 70 -100 0 -91 11 51 65 76 28 182 71 235 94 l98 43 82 -77 c149
-139 361 -260 510 -291 133 -29 325 -6 491 59 31 12 57 26 57 31 0 15 -109
143 -171 200 -129 119 -275 203 -397 227 -42 8 -102 10 -175 6 l-111 -7 120
73 c65 40 163 103 218 140 54 37 100 67 103 67 3 0 42 -25 87 -55 104 -69 245
-136 361 -171 114 -35 291 -40 394 -11 100 27 321 134 321 155 0 4 -21 25 -48
48 -228 196 -463 291 -654 264 -62 -9 -170 -36 -227 -58 -9 -3 18 22 59 57 41
34 139 121 217 192 l142 130 48 -24 c202 -102 514 -154 672 -112 124 32 262
109 371 205 l45 40 -25 22 c-39 33 -257 135 -340 158 -41 12 -118 24 -170 27
-117 7 -187 -9 -319 -72 -106 -51 -107 -56 18 91 45 55 120 148 164 207 59 78
85 106 97 101 148 -58 465 -76 623 -33 121 32 296 156 390 277 56 72 60 65
-81 113 -119 40 -228 59 -341 59 -152 0 -255 -36 -388 -134 -35 -25 -63 -44
-63 -42 0 2 27 50 60 106 34 56 92 164 130 240 l69 137 158 0 c352 -2 552 81
713 295 57 75 110 165 110 186 0 19 -158 37 -315 36 -146 0 -167 -3 -240 -27
-97 -32 -161 -74 -247 -162 l-66 -66 50 143 c27 79 64 197 83 263 l33 120 102
12 c209 24 433 112 542 212 92 85 197 263 222 379 l8 32 -94 0 c-173 -1 -310
-29 -436 -91 -96 -47 -164 -110 -231 -212 -24 -37 -45 -66 -46 -65 -1 2 8 59
21 128 12 69 30 193 40 275 9 83 17 151 18 152 1 2 42 14 91 28 234 68 438
206 530 360 40 68 89 210 102 303 l10 62 -31 0 c-51 -1 -197 -36 -282 -69
-197 -77 -295 -167 -371 -341 l-33 -75 0 55 c0 87 -19 441 -26 485 l-6 41 104
51 c125 63 210 126 310 231 121 126 165 239 175 450 7 141 11 136 -89 98 -85
-31 -181 -81 -248 -126 -77 -52 -173 -157 -204 -225 -27 -57 -66 -191 -66
-228 0 -44 -11 -5 -35 129 -14 76 -44 210 -65 296 -22 87 -40 160 -40 162 0 3
26 22 58 43 153 101 330 315 372 451 29 92 36 235 16 341 -8 45 -17 85 -20 88
-16 16 -190 -95 -283 -181 -71 -65 -143 -169 -166 -236 -18 -54 -37 -180 -37
-253 l-1 -52 -48 130 c-59 160 -132 338 -166 404 -14 28 -25 55 -25 61 0 6 17
25 37 43 51 45 145 165 191 245 87 150 115 263 100 411 -8 91 -64 271 -83 271
-21 0 -193 -168 -240 -235 -102 -142 -134 -257 -116 -418 6 -52 14 -102 17
-111 17 -44 -11 -4 -71 104 -36 66 -113 190 -170 276 l-103 156 43 62 c61 87
120 209 151 312 32 108 36 227 10 324 -18 71 -82 211 -113 249 l-19 23 -43
-48 c-147 -167 -232 -371 -217 -521 4 -35 18 -99 31 -141 13 -42 23 -77 22
-78 -1 -2 -47 49 -102 113 -55 63 -150 163 -212 222 l-112 106 35 72 c90 189
121 430 75 580 -13 45 -68 151 -100 194 -39 54 -89 109 -99 109 -12 0 -85
-134 -117 -214 -33 -85 -55 -184 -55 -256 0 -81 24 -162 81 -269 27 -52 49
-96 49 -98 0 -2 -37 27 -82 65 -93 77 -244 191 -360 272 -43 29 -78 56 -78 60
0 3 12 50 26 105 21 82 26 125 27 235 1 84 -4 156 -12 190 -18 73 -72 176
-126 238 -54 64 -155 153 -166 147 -11 -7 -57 -148 -74 -230 -18 -88 -19 -224
-1 -291 19 -73 59 -142 140 -241 67 -84 68 -86 30 -62 -104 64 -270 153 -407
219 l-152 73 -1 176 c0 192 -16 277 -71 391 -35 73 -158 195 -250 248 -39 23
-74 42 -76 42 -3 0 -8 -12 -11 -27z"/>
<path d="M6170 8627 c-173 -49 -269 -217 -257 -452 10 -207 102 -347 256 -391
198 -58 389 66 441 286 20 83 16 232 -9 310 -49 156 -164 249 -316 257 -38 1
-90 -3 -115 -10z m201 -108 c90 -45 139 -157 139 -313 0 -106 -16 -170 -59
-239 -89 -140 -284 -137 -373 5 -76 122 -78 337 -3 463 60 103 188 140 296 84z"/>
<path d="M5130 8200 l0 -420 51 0 51 0 -3 348 -4 348 72 -130 c39 -72 127
-228 196 -346 l125 -215 53 0 54 0 3 418 2 417 -51 0 -51 0 4 -348 3 -348 -71
130 c-39 72 -127 228 -195 346 l-124 215 -57 3 -58 3 0 -421z"/>
<path d="M6802 8203 l3 -418 48 -3 49 -3 -4 354 -3 355 28 -76 c15 -43 66
-182 113 -309 l86 -233 32 0 31 0 109 300 c110 301 132 355 119 290 -4 -19 -7
-179 -8 -355 l0 -320 48 -3 47 -3 0 421 0 421 -62 -3 -62 -3 -108 -300 c-59
-165 -109 -304 -110 -308 -2 -5 -53 130 -114 300 l-111 308 -67 3 -66 3 2
-418z"/>
<path d="M7732 8203 l3 -418 53 -3 52 -3 0 420 0 421 -55 0 -55 0 2 -417z"/>
<path d="M8070 8200 l0 -420 51 0 52 0 -5 349 -4 350 57 -107 c31 -59 119
-215 195 -347 l139 -240 55 0 55 0 3 418 2 417 -56 0 -57 0 7 -322 c3 -178 9
-336 12 -353 4 -23 -2 -17 -28 29 -18 32 -108 190 -199 350 l-166 291 -56 3
-57 3 0 -421z"/>
<path d="M9060 8594 c-28 -72 -270 -794 -270 -804 0 -7 19 -10 52 -8 l52 3 40
128 39 127 153 0 152 0 37 -117 c20 -65 38 -124 40 -130 3 -8 24 -13 60 -13
30 0 55 2 55 3 0 3 -129 386 -247 735 l-35 102 -59 0 c-55 0 -60 -2 -69 -26z
m130 -267 c33 -108 60 -199 60 -202 0 -7 -235 -7 -242 0 -3 3 18 83 47 178 29
95 55 185 59 201 4 15 9 27 11 24 2 -2 31 -92 65 -201z"/>
<path d="M9510 8575 l0 -45 130 0 130 0 0 -375 0 -375 50 0 50 0 0 375 0 374
128 3 127 3 3 43 3 42 -310 0 -311 0 0 -45z"/>
<path d="M10280 8200 l0 -420 245 0 245 0 0 45 0 45 -192 2 -193 3 0 150 0
150 158 3 157 3 0 44 0 45 -160 0 -160 0 0 130 0 130 190 0 190 0 0 45 0 45
-240 0 -240 0 0 -420z"/>
<path d="M10950 8200 l0 -420 113 0 c203 1 302 28 381 105 131 130 151 427 40
592 -75 109 -165 143 -385 143 l-149 0 0 -420z m341 309 c117 -51 176 -198
150 -375 -27 -183 -124 -264 -316 -264 l-65 0 0 336 0 337 90 -6 c58 -5 109
-15 141 -28z"/>
<path d="M5700 7159 c-84 -26 -125 -87 -118 -174 5 -65 37 -111 92 -136 88
-40 206 -12 253 60 30 44 32 132 4 177 -40 65 -146 99 -231 73z"/>
<path d="M9090 7137 c-179 -41 -271 -166 -287 -388 l-6 -88 -66 -3 -66 -3 -3
-122 -3 -123 71 0 70 0 0 -420 0 -420 165 0 165 0 0 420 0 419 98 3 97 3 0
125 0 125 -97 3 -98 3 0 60 c0 118 46 166 149 156 31 -3 63 -8 72 -12 14 -5
21 14 46 114 l31 121 -52 16 c-69 21 -218 27 -286 11z"/>
<path d="M6220 6462 c0 -557 2 -667 15 -717 32 -126 113 -195 239 -203 77 -5
172 3 193 16 10 6 8 34 -7 122 -11 63 -20 116 -20 118 0 1 -13 2 -28 2 -17 0
-37 9 -48 21 -18 20 -19 48 -22 660 l-2 639 -160 0 -160 0 0 -658z"/>
<path d="M4470 6285 l0 -725 160 0 160 0 2 283 3 282 248 3 247 2 0 135 0 135
-250 0 -250 0 2 168 3 167 293 3 292 2 0 135 0 135 -455 0 -455 0 0 -725z"/>
<path d="M11729 6943 c0 -10 -8 -76 -17 -148 l-17 -130 -30 -3 c-17 -1 -54 -5
-82 -8 l-53 -5 0 -120 0 -119 74 0 75 0 3 -297 c3 -257 6 -305 22 -349 30 -84
82 -144 160 -184 61 -31 78 -35 167 -38 93 -4 189 7 244 28 l23 9 -24 112
c-14 62 -26 114 -28 116 -2 2 -24 -1 -50 -8 -91 -23 -165 15 -185 95 -6 27
-11 139 -11 280 l0 235 133 3 132 3 3 122 3 122 -133 3 -133 3 -3 148 -3 147
-134 0 c-122 0 -135 -2 -136 -17z"/>
<path d="M7368 6676 c-56 -20 -119 -60 -176 -111 -29 -26 -52 -43 -53 -38 -1
4 -6 37 -13 73 l-11 65 -133 3 -132 3 2 -553 3 -553 160 0 160 0 3 377 2 377
38 29 c58 46 97 62 149 62 58 0 89 -19 112 -69 14 -31 16 -89 19 -408 l3 -373
160 0 159 0 0 374 0 374 35 31 c78 68 180 92 234 55 53 -37 55 -59 59 -461 l4
-373 159 0 159 0 0 389 c0 213 -4 410 -9 437 -19 98 -52 166 -106 221 -67 66
-131 87 -249 81 -97 -5 -166 -37 -262 -123 l-61 -54 -31 48 c-58 88 -149 131
-276 131 -39 -1 -87 -7 -108 -14z"/>
<path d="M9833 6675 c-86 -24 -154 -64 -224 -134 -107 -107 -158 -226 -166
-392 -7 -129 12 -226 64 -330 135 -270 485 -359 800 -203 40 20 73 41 73 46 0
5 -23 51 -52 102 l-52 93 -65 -30 c-55 -26 -81 -32 -157 -35 -77 -4 -98 -1
-142 18 -79 34 -152 129 -152 199 0 8 89 11 324 11 286 0 325 2 330 16 12 31
6 240 -9 302 -41 172 -155 296 -310 336 -73 19 -192 20 -262 1z m227 -254 c40
-21 75 -83 85 -148 l7 -43 -201 0 -201 0 6 28 c20 80 71 146 135 171 42 17
131 13 169 -8z"/>
<path d="M10888 6675 c-117 -32 -202 -95 -245 -183 -24 -49 -28 -69 -28 -142
0 -67 5 -93 22 -125 46 -87 140 -154 308 -220 144 -56 175 -81 175 -140 0 -51
-38 -78 -114 -83 -81 -5 -150 15 -239 68 -38 23 -70 40 -71 38 -28 -33 -136
-190 -136 -197 0 -13 84 -65 154 -96 85 -38 169 -55 271 -55 266 0 440 139
439 350 -1 172 -78 251 -347 354 -124 48 -157 74 -157 127 0 30 5 42 25 55 61
40 172 27 270 -32 32 -19 61 -31 65 -27 4 4 35 46 70 92 48 63 61 88 54 99
-16 24 -163 100 -229 117 -71 18 -221 18 -287 0z"/>
<path d="M5605 6658 c-3 -7 -4 -256 -3 -553 l3 -540 160 0 160 0 0 550 0 550
-158 3 c-120 2 -159 0 -162 -10z"/>
<path d="M4650 4095 l0 -727 333 5 c366 5 415 11 534 68 83 40 156 111 191
187 30 66 42 208 23 279 -28 103 -118 184 -245 220 l-59 16 54 24 c113 50 179
147 187 274 9 149 -53 257 -181 318 -105 49 -139 53 -499 58 l-338 5 0 -727z
m622 448 c62 -28 82 -66 76 -145 -5 -66 -26 -102 -79 -133 -28 -17 -56 -21
-166 -23 l-133 -4 0 167 0 168 128 -5 c100 -4 137 -9 174 -25z m-29 -543 c78
-12 127 -38 155 -80 20 -30 23 -45 20 -105 -4 -83 -27 -124 -91 -158 -37 -19
-60 -22 -199 -25 l-158 -4 0 191 0 191 108 0 c59 0 133 -4 165 -10z"/>
<path d="M6483 4486 c-81 -26 -169 -100 -209 -177 -15 -30 -18 -32 -24 -14 -4
11 -11 55 -15 98 l-7 77 -134 0 -134 0 0 -550 0 -550 163 2 162 3 5 330 c5
315 6 332 27 371 26 49 83 101 132 121 26 11 58 14 118 10 l81 -5 22 117 c12
64 24 126 27 137 4 17 -2 24 -28 33 -42 15 -133 13 -186 -3z"/>
<path d="M7177 4485 c-170 -47 -297 -170 -364 -353 -33 -88 -42 -254 -20 -358
44 -204 188 -358 383 -408 78 -20 229 -20 314 0 71 16 230 89 230 104 0 11
-99 190 -104 190 -2 0 -28 -11 -59 -24 -145 -65 -300 -51 -385 34 -37 37 -55
69 -70 123 l-10 37 328 0 c290 0 329 2 334 16 12 32 6 240 -9 299 -36 136
-112 243 -213 298 -100 54 -247 72 -355 42z m206 -249 c18 -7 45 -27 59 -45
29 -34 56 -137 41 -152 -5 -5 -93 -8 -199 -7 l-189 3 3 29 c8 71 67 149 133
175 36 14 115 13 152 -3z"/>
<path d="M8513 4486 c-52 -17 -101 -47 -174 -107 -64 -54 -60 -56 -74 44 l-7
47 -134 0 -134 0 0 -550 0 -550 163 2 162 3 5 377 5 376 40 32 c53 43 95 60
147 60 50 0 81 -18 106 -63 15 -29 17 -73 20 -409 l3 -378 160 0 159 0 0 375
0 375 61 45 c64 47 108 61 165 52 44 -7 63 -22 83 -67 14 -30 16 -93 19 -407
l3 -373 160 0 159 0 0 398 c0 433 -5 478 -57 575 -61 111 -170 165 -312 155
-88 -7 -152 -37 -247 -117 l-71 -60 -31 48 c-38 59 -96 100 -164 118 -65 16
-160 16 -215 -1z"/>
<path d="M10221 4484 c-180 -48 -325 -201 -377 -394 -22 -86 -23 -253 0 -339
51 -196 192 -338 386 -387 103 -26 272 -16 375 23 45 17 100 42 123 57 l43 27
-32 57 c-18 31 -42 74 -53 95 -23 42 -20 42 -116 1 -52 -21 -81 -27 -145 -27
-149 -1 -248 72 -280 206 l-7 27 330 0 331 0 7 57 c9 75 -2 215 -22 283 -51
172 -174 290 -333 320 -74 14 -165 12 -230 -6z m236 -261 c41 -30 64 -75 70
-138 l6 -55 -197 0 -196 0 0 23 c0 31 43 118 71 144 42 38 89 54 156 50 44 -2
71 -9 90 -24z"/>
<path d="M11575 4487 c-63 -21 -120 -53 -179 -102 -31 -25 -60 -45 -65 -45 -5
0 -13 28 -18 63 l-8 62 -132 3 -133 3 0 -551 0 -550 160 0 160 0 0 374 0 375
43 34 c63 52 100 67 161 67 66 0 110 -31 126 -88 6 -22 10 -183 10 -400 l0
-362 163 2 162 3 3 350 c2 212 -2 383 -8 433 -30 228 -128 332 -319 339 -52 2
-102 -2 -126 -10z"/>
<path d="M7339 2726 c-41 -14 -85 -44 -113 -75 -20 -22 -20 -22 6 -48 l27 -26
36 32 c21 18 48 37 62 42 37 14 100 11 134 -7 42 -21 73 -93 65 -146 -14 -88
-103 -213 -260 -368 -73 -72 -86 -89 -86 -117 l0 -33 241 0 240 0 -3 43 -3 42
-169 -2 -169 -3 76 80 c204 213 264 353 205 482 -26 57 -59 87 -117 106 -44
16 -127 14 -172 -2z"/>
<path d="M7945 2721 c-52 -24 -78 -53 -109 -121 -49 -107 -56 -314 -16 -452
30 -105 118 -178 213 -178 137 0 221 120 234 335 9 166 -22 302 -85 368 -62
66 -157 85 -237 48z m158 -85 c37 -34 55 -84 68 -186 14 -106 0 -246 -29 -313
-29 -65 -57 -87 -110 -87 -38 0 -50 5 -77 34 -47 51 -60 108 -60 276 0 167 11
218 60 267 43 43 107 47 148 9z"/>
<path d="M9105 2721 c-74 -34 -115 -95 -115 -171 0 -54 13 -83 59 -133 l40
-44 -43 -30 c-61 -43 -101 -126 -92 -190 8 -63 45 -116 103 -150 43 -25 57
-28 138 -28 74 0 98 4 132 22 76 41 121 129 104 203 -16 70 -38 99 -120 157
-3 2 9 18 27 36 35 37 71 110 72 147 0 76 -46 150 -115 181 -52 24 -138 24
-190 0z m154 -65 c80 -42 89 -155 17 -233 l-32 -35 -61 31 c-75 38 -103 73
-103 134 0 93 94 147 179 103z m-33 -350 c86 -41 114 -76 114 -139 0 -134
-198 -176 -277 -58 -43 64 -22 152 50 212 29 24 32 24 113 -15z"/>
<path d="M8600 2720 c-8 -6 -45 -20 -82 -31 -63 -19 -68 -23 -68 -50 0 -28 1
-28 68 -31 l67 -3 0 -270 0 -270 -82 -3 -83 -3 0 -39 0 -40 205 0 205 0 0 40
0 40 -75 0 -75 0 0 335 0 335 -32 0 c-18 0 -40 -5 -48 -10z"/>
</g>
</svg>
