<svg xmlns="http://www.w3.org/2000/svg" width="1600" height="1062" viewBox="0 0 16000 10620"><path d="M6005 10219c-136-139-383-315-607-433-290-153-561-253-908-335-202-47-194-48-228 7-119 191-360 382-542 429-111 29-383 18-440-17-28-17 124-246 235-353 113-109 241-169 389-183l76-7-78-27c-71-26-167-64-300-121l-53-22-62 60c-114 111-277 213-426 265-86 30-217 34-331 10-77-16-221-63-239-78-7-6 65-92 146-172 186-184 353-254 558-233 44 4 81 7 82 6 1 0-28-19-65-40-37-22-127-79-201-128l-134-89-26 21c-98 77-284 165-430 202-177 45-394 2-572-113l-50-33 52-48c110-102 280-199 407-231 104-28 236-17 377 29 11 3 0-11-25-32-102-88-160-140-241-219l-86-85-44 26c-105 60-331 115-478 116-119 1-171-11-286-67-81-39-235-149-243-173-7-20 165-112 288-154 201-69 338-60 523 34l62 31-31-34c-42-44-136-159-204-248-30-40-64-83-75-96l-20-25-80 22c-62 17-117 23-244 27-230 6-300-11-442-104-64-42-196-171-219-213-10-19-7-23 36-41 25-11 92-32 148-47 87-24 121-27 241-27 161 0 206 12 323 91l75 50c11 6-6-26-41-82-28-44-72-126-138-255l-43-84-163-1c-142-2-176-5-263-28-55-15-127-40-160-56-108-53-230-182-296-313l-29-57 42-11c65-18 244-28 343-20 152 13 254 61 364 171 29 30 50 45 46 34-38-102-70-201-103-315l-39-135-77-7c-155-14-348-79-461-153-29-20-77-64-105-98-53-64-143-236-155-296l-7-34 143 6c281 11 429 78 551 251 40 57 49 65 44 41-22-111-48-284-53-362-3-50-9-95-12-100s-37-16-76-26c-89-24-252-102-334-160-73-53-142-130-176-198-36-69-74-189-83-258l-9-61h37c64 0 226 47 326 94 125 59 202 135 260 254l41 83 8-213c13-341 16-309-25-323-65-23-209-116-282-183-156-145-205-252-215-471l-6-124 29 7c133 33 338 155 416 249 58 70 82 121 108 227 18 76 23 77 35 5 9-60 53-257 81-369 14-54 24-99 22-100-106-60-251-196-322-303-68-104-88-167-94-297-5-109 10-240 29-252 21-13 185 96 282 188 58 55 124 158 142 223 8 27 18 92 22 143l8 93 57-153c32-84 80-202 107-263l49-110-67-71c-158-166-241-339-241-501 0-128 52-323 86-323 24 0 218 200 258 267 67 112 88 228 67 373-5 30-7 56-6 58 1 1 29-46 63-105 33-60 99-166 147-238 48-71 87-133 88-136 1-4-21-42-50-86-81-123-153-326-153-427 0-74 29-180 74-271 69-142 63-139 128-61 67 82 136 200 165 286 31 89 30 192-1 300l-23 81 31-38c67-82 229-254 291-308 44-39 62-61 56-69-20-24-80-186-97-261-11-49-18-119-18-180 0-84 5-111 27-168 28-73 96-181 148-236 31-33 32-34 47-15 29 38 111 220 127 284 12 46 16 93 13 160-4 84-8 105-42 180-22 47-48 99-60 115-16 24-8 19 39-21 80-68 233-185 339-259 61-42 85-64 80-75-22-58-44-208-44-309 0-207 38-299 182-443 48-48 91-88 95-88 11 0 47 97 69 185 25 96 25 271 0 340-19 51-57 114-123 200l-38 50 35-23c71-46 288-161 392-208 101-46 106-50 100-74-15-55-5-264 17-360 27-114 65-184 142-260 52-51 183-140 207-140 15 0 35 138 35 240 1 199-46 295-213 444-30 27-46 45-35 41 11-5 69-25 128-45 94-32 114-43 150-82 159-170 298-202 562-129 69 19 74 26 40 61-42 44-122 104-178 134-145 76-243 85-389 35l-88-30-118 46c-64 25-144 58-177 73l-60 27h350l67 32c50 24 91 55 157 120 78 78 170 198 159 209-2 2-33 11-69 21-96 26-266 24-343-5-120-44-255-146-347-262-28-36-55-66-60-68-10-4-241 116-317 164-29 19-55 34-57 34-3 0-43 25-88 56s-75 54-65 51c9-3 62-16 119-28 178-38 305-13 442 84 80 57 151 121 177 157l21 29-41 21c-79 40-163 61-267 67-91 5-111 3-185-20-103-33-234-108-316-182-38-35-66-54-74-49-54 30-336 257-433 347l-50 47 75-34c213-95 345-95 535 0 86 43 205 121 205 136 0 4-35 30-77 58-84 55-193 95-289 105-119 13-346-53-476-139l-68-45-94 102c-109 119-193 218-256 302-66 87-66 89-8 50 95-62 172-103 227-119 74-22 189-20 291 4 87 21 260 96 260 113s-116 121-174 156c-31 18-87 45-124 58-63 23-76 25-212 20-119-4-161-10-235-32-49-15-105-35-124-45l-36-18-49 77c-63 97-152 253-206 361l-42 84 58-50c95-81 136-109 191-132 106-45 290-45 458-1 44 12 83 25 88 28 20 19-131 193-220 254-126 87-388 119-590 72-32-7-59-13-60-11-16 15-168 436-188 516l-6 25 18-25c155-213 299-279 593-268 69 3 131 8 138 12 31 19-86 215-181 301-70 64-148 103-262 133-103 27-257 46-315 38l-46-6-32 147c-33 153-55 278-67 373l-6 55 33-60c58-103 84-138 141-192 89-85 238-142 422-163 135-15 128-16 120 27-22 125-101 277-188 362-90 89-288 180-449 206-50 8-93 16-95 19-9 9-15 368-8 471l8 110 19-70c23-83 65-174 108-233 51-71 197-168 312-206 52-18 189-56 200-56 30 0-16 240-66 345-73 155-262 302-486 381-38 14-66 30-68 39-5 23 23 193 60 363l32 147 18-105c25-139 70-233 152-315 74-74 181-146 296-197 85-37 85-37 92-15 3 12 6 68 7 125 1 114-17 213-56 300-25 58-115 174-178 231-58 52-186 142-233 163-23 10-42 20-42 21 2 18 81 248 121 352l54 138 6-129c7-131 16-170 62-260 34-66 131-177 208-240 59-47 159-114 171-114 6 0 22 60 38 138 14 73 12 246-4 312-28 117-113 249-245 380-53 52-105 100-116 106-20 12-19 13 10 70 61 120 214 369 221 361 2-1-4-41-12-87-39-215 33-402 235-612 46-49 88-88 93-88 15 0 76 140 98 224 30 117 28 255-5 352-47 141-121 270-217 382-21 24-38 46-38 50 0 14 294 362 305 362 2 0-8-32-21-70-13-39-29-100-35-136-20-114 15-269 93-414 44-82 138-220 150-220 24 0 133 192 169 299 42 121 34 289-22 455-31 94-99 238-125 267-13 14-8 22 53 75 168 148 234 202 278 229 30 19 30 19 14 0-27-32-76-136-94-198-41-143-9-359 84-553 47-97 52-104 71-94 45 24 161 176 211 276 44 89 51 112 59 191 15 165-11 358-67 501-14 35-24 64-22 66 19 13 179 111 234 143 130 75 189 104 174 86-120-143-159-209-184-315-19-81-19-230 0-338 18-101 56-222 71-227s149 98 208 161c144 153 196 301 196 560 0 109-6 170-25 262l-7 32 83 32c114 44 350 122 354 118 3-2-20-23-50-46-108-85-172-179-217-322-21-68-23-94-23-265 0-104 3-202 8-217l7-27 47 20c154 66 327 208 390 320 67 118 123 350 123 510 0 84 1 89 23 94 12 3 74 16 138 30 64 13 169 41 235 61l153 46c99 28 367 140 526 218 270 133 471 265 629 412l89 82-79 73c-43 40-81 73-84 73s-32-28-65-61zm3841-12l-79-73 90-83c95-87 125-111 285-217 259-171 586-322 947-435 129-41 212-62 449-114 21-5 22-10 22-94 0-166 56-391 129-516 47-80 161-189 258-247 92-54 171-90 177-80 11 18 26 242 20 310-13 164-63 311-137 405-16 21-61 65-99 98-57 49-64 58-41 53 39-10 241-79 337-116 78-30 78-30 72-62-34-169-33-394 3-531 28-105 89-209 172-294 65-66 186-161 206-161 12 0 48 117 68 223 21 112 19 266-5 360-23 92-53 147-134 246-68 84-76 85 99-15 55-31 136-79 180-107l83-53c2-1-10-40-27-87-47-133-61-220-61-375 0-160 11-209 72-322 42-78 164-232 199-250 18-10 24-2 69 92 100 205 130 423 81 573-13 39-39 96-58 129-19 32-32 60-30 62 4 4 245-194 310-256l45-42-28-45c-42-66-107-220-131-310-29-105-31-283-5-368 21-72 106-236 146-285 34-41 27-46 114 85 101 151 149 275 162 415 6 66-18 196-52 278-7 17-11 32-9 32 5 0 208-233 267-306l47-59-38-40c-93-98-203-294-236-422-21-81-19-224 4-316 21-81 84-227 98-227 17 0 172 167 221 239 64 91 110 208 118 298 6 60-3 154-22 233l-6 25 21-25c28-33 137-214 192-318l44-84-25-15c-57-36-227-223-274-303-80-132-90-172-91-335 0-138 24-295 45-295 24 0 176 115 250 190 138 139 180 233 189 425l6 130 48-121c46-119 107-294 120-346 7-25 3-29-45-53-114-57-255-177-337-285-80-107-112-204-118-365-3-66-1-135 3-152l9-33 96 43c189 86 319 197 383 330 34 69 65 190 67 259 1 45 64-228 87-379l19-122-76-26c-230-82-408-220-486-377-37-76-75-229-75-306v-44l33 7c175 35 374 131 459 221 58 63 130 214 151 319 10 52 19-160 15-347-3-155-8-212-17-218-7-4-42-10-76-14-139-14-358-111-454-201-59-55-88-96-137-196-31-62-70-197-60-206 9-9 215 18 287 38 197 55 291 131 396 324 20 36 33 52 33 40 0-35-39-266-70-407l-30-143c0-3-22-3-48 1-99 13-338-31-450-83-74-35-162-111-216-186-58-81-109-188-96-201 5-5 70-11 143-14 272-9 415 47 550 217l62 79c7 8-67-215-108-323-76-200-88-226-106-221-202 61-485 35-626-58-89-59-248-238-228-256 16-15 171-50 253-58 155-16 289 12 380 77 19 14 64 50 98 80l64 54-47-93c-54-107-134-248-202-355l-47-73-41 20c-89 46-202 70-355 75-136 5-149 3-212-20-37-13-93-40-124-58-71-43-178-144-168-160 13-22 172-89 260-110 68-16 110-20 179-17 113 6 177 30 301 113 52 34 91 57 87 51s-38-51-77-101c-149-193-326-382-347-371-8 3-32 18-54 31-133 85-308 139-445 139-68 0-102-6-170-30-76-27-230-116-230-132 1-16 166-122 246-158 77-34 199-57 263-49s181 45 254 80l52 26-65-62c-80-75-365-305-403-325-28-15-29-14-87 39-77 72-215 151-318 184-74 23-94 25-185 20-104-6-188-27-267-67l-40-21 32-40c38-47 158-146 221-183 23-13 75-34 116-47 62-18 88-21 160-16 47 4 120 16 161 27s77 20 80 20c24 1-283-184-433-260-106-54-108-55-122-35-130 178-308 308-460 336-73 14-186 7-277-16l-67-17 16-32c51-101 199-246 301-298l67-33h354l-52-23c-29-13-109-46-178-73l-126-50-90 31c-147 49-230 42-379-31-66-33-186-126-204-158-9-17-5-21 38-35 144-48 279-58 368-26 64 22 148 82 212 148 37 39 58 51 150 82l127 45c11 5-21-30-70-77-138-131-175-217-175-408 0-107 14-217 30-234 14-15 149 73 215 140 75 75 109 137 135 245 24 99 35 261 23 339l-8 55 120 56c128 60 331 168 379 202 36 25 30 13-36-70-98-124-130-241-110-398 12-96 68-285 84-285 18 0 184 175 213 224 47 81 65 164 65 306 0 113-20 248-45 311-4 11 14 29 66 65l93 64c40 28 151 113 228 177l77 63-44-89c-24-49-49-110-56-135-19-74-6-217 26-306 29-79 84-192 110-225 15-19 17-18 56 25 52 58 113 161 141 236 46 124 25 323-54 517l-40 99 83 78c46 42 129 127 183 189 55 61 101 110 102 108 1-1-6-33-16-72-23-85-25-181-5-255 22-84 88-207 162-300l66-83 18 24c60 79 129 276 129 369 0 112-73 317-158 443l-50 73 39 55c55 78 169 261 220 351 23 43 44 76 45 75 2-1-2-36-8-77-30-217 55-398 276-583l60-49 19 48c60 151 75 322 36 436-44 133-114 244-225 358l-62 65 45 100c26 55 74 174 109 264l62 164 7-89c12-171 58-270 178-383 84-80 233-181 266-181 18 0 33 141 29 259-5 133-25 194-99 302-55 82-176 203-257 258-40 27-62 48-58 56 12 31 66 267 86 375l27 130c3 8 15-23 27-70 40-155 105-245 239-333 78-51 217-117 281-133l29-7-6 124c-10 220-63 339-210 470-92 81-241 175-306 192-23 6-24 9-17 64 3 32 9 150 13 263l6 206 49-97c60-122 122-181 252-244 97-48 262-95 328-95 33 0 39 3 35 18-3 9-8 38-12 65-14 103-71 237-138 325-74 97-289 225-452 270-81 22-77 13-95 191-6 63-20 160-30 215-11 55-18 101-16 103 1 2 18-21 36-50 115-177 274-253 559-264l144-6-6 34c-4 19-32 85-62 147-75 150-149 227-285 295-106 52-255 94-374 105l-78 7-33 115c-18 63-51 168-72 232l-40 117 73-68c75-72 157-118 249-141 98-23 416-10 465 20 23 14-64 152-160 251-98 101-155 133-316 176-86 23-121 26-262 28l-162 1-69 135c-38 75-88 167-111 205l-48 78c-6 11 6 4 76-45 29-20 83-50 120-65 62-26 77-28 207-28 120 0 155 3 240 26 55 14 122 36 148 47 45 19 47 22 36 43-21 40-192 202-250 236-111 65-157 75-344 80-166 3-240-5-370-43-17-5-37 14-115 117-51 68-96 125-99 128s-34 37-69 77l-63 72 84-39c190-89 323-91 542-8 96 36 244 118 245 135 0 17-145 127-220 167-114 60-182 77-300 77-154 0-373-52-486-115l-41-23-119 110c-66 60-149 134-186 165s-66 57-65 58c2 2 32-6 67-17 80-26 227-36 299-20 126 27 315 131 429 237l53 49-50 33c-178 115-395 158-572 113-144-37-333-126-430-202l-26-21-104 70c-57 38-148 97-203 131-83 50-93 60-65 56 106-13 137-14 206-4 127 18 246 82 380 204 74 68 181 192 172 199-18 15-163 63-239 78-114 24-245 20-330-10-145-51-303-148-417-256l-73-69-53 23c-151 64-278 115-326 130l-54 17 76 7c146 13 251 59 365 159 120 105 295 357 261 377-56 35-328 46-439 17-173-45-397-219-526-407-54-80-35-77-244-29-602 141-1137 408-1486 742-50 48-93 87-95 87s-40-33-83-73zM7655 8415c-76-27-128-120-145-258-25-208 31-382 138-429 85-38 189-9 240 66 44 65 57 132 56 281 0 122-3 148-23 199-52 132-148 183-266 141zm133-90c40-34 62-101 69-215 6-106-6-192-37-255-47-96-156-84-197 23-23 59-26 314-5 374 32 89 111 123 170 73zm922 90c-99-32-153-125-128-222 9-36 24-61 63-98l52-51-25-18c-59-45-82-149-47-215 46-90 185-128 284-77 106 55 120 217 27 306l-25 22 52 48c51 47 51 47 55 116 4 86-16 127-80 167-56 35-158 45-228 22zm150-71c46-19 70-55 70-108 0-48-45-98-116-126-66-27-86-21-128 43-36 55-32 114 10 158 45 47 100 58 164 33zm24-351c51-78 39-162-27-196-77-39-157 5-157 87 0 54 34 100 95 127 55 25 61 24 89-18zm-1914 396c0-26 18-50 101-137 197-208 247-306 202-399-39-83-151-83-241 0l-23 21-24-29-23-30 21-23c111-120 317-102 378 33 51 112 2 234-172 426l-78 85 299-8v92h-440v-31zm1110-9v-40h150v-500h-120v-34c0-30 3-34 34-39 18-3 53-15 77-26 23-12 58-21 76-21h33v620h140v80h-390v-40zM5781 7155c-186-42-304-150-367-335-26-78-27-273 0-350 48-143 136-249 254-309 167-85 374-57 497 66 46 45 96 131 109 187 15 62 24 184 18 241l-7 60-601 10 8 31c13 52 70 126 113 148 33 17 58 21 140 21 88 0 107-3 159-28 46-21 61-25 68-15 4 7 8 16 8 20 0 3 19 39 41 78 46 80 48 73-31 114-121 63-289 88-409 61zm253-662c-9-54-44-113-76-129-32-17-115-18-155-3-52 19-94 71-114 141l-8 28h360l-7-37zm631 658c-80-20-212-80-239-110-17-19-16-22 46-110 34-50 66-91 70-91s28 14 53 31c71 48 149 72 222 67 74-5 103-25 103-74 0-43-36-72-137-113-261-107-333-185-321-351 9-125 84-215 214-260 134-46 277-35 409 31 129 65 127 60 50 162-36 48-67 87-69 87-1 0-37-18-80-40-85-44-153-53-205-25-36 18-47 59-26 91 18 28 50 45 136 75 226 77 312 164 313 314 1 97-17 148-72 208-101 109-289 152-467 108zm1018 9c-93-19-167-74-205-152-41-85-48-142-48-398v-240h-140v-109c0-125-3-121 101-121h56l7-57c3-32 11-93 17-135l11-78h248v270h240v230h-241l3 233c3 263 9 286 76 314 31 13 46 14 91 5 30-7 56-10 57-9 11 11 45 210 38 217-15 14-159 40-216 39-29-1-72-5-95-9zm2282 1c-84-22-154-80-196-161-31-61-34-206-5-260 69-127 215-204 443-232l95-11-6-36c-3-24-17-47-41-68-32-31-39-33-106-33-55 0-87 7-147 31-43 16-87 36-98 44-20 13-24 10-73-81-28-53-51-100-51-105 0-14 147-85 230-110 98-31 278-33 355-5 82 30 151 88 186 158 50 99 58 174 59 531v318l-255-6-8-47-9-46-41 31c-96 73-243 112-332 88zm240-241c14-5 44-24 66-42l39-31v-84c0-51-4-83-11-83-35 0-161 36-196 56-87 50-99 152-22 183 32 13 91 13 124 1zm833 236c-101-27-158-105-178-241-5-40-10-309-10-632v-563h310v583c0 553 1 585 18 600 10 10 30 17 44 17 24 0 26 4 43 110 10 61 16 113 13 115-9 9-110 25-152 24-22 0-62-6-88-13zm-6618-676v-660h830v260h-530v300h450v250h-450v510h-300v-660zm3740 155v-505h310v1010h-310v-505zm790 502c0-2-76-229-169-505l-170-502h307l46 168 151 570c4 24 9 41 11 39 3-2 34-114 69-248l104-384 39-140 146-3c80-1 146 0 146 4 0 3-48 151-106 328l-221 671-176 3c-97 1-177 1-177-1zm-715-1156c-11-5-33-22-49-37-104-105-27-264 128-264 110 0 181 68 173 166-6 91-71 144-173 143-33 0-68-4-79-8zm-3590-816c-76-16-177-58-232-97-24-16-43-31-43-33 0-9 133-185 140-185 4 0 19 9 33 20s52 33 84 48c47 22 72 27 136 27 74 0 80-2 103-28 53-62 17-102-152-171-179-73-246-127-279-227-34-100 1-229 81-299 100-87 262-120 414-84 68 16 230 97 230 116 0 13-122 177-133 178-4 0-24-11-45-25-120-79-272-71-272 15 0 41 40 74 129 105 170 61 254 114 303 193 20 32 23 50 23 132 0 74-5 104-20 135-72 147-291 226-500 180zm2195 4c-25-5-82-27-127-49-173-85-263-247-263-470 0-167 43-283 144-385 120-121 299-172 461-130 122 32 240 118 299 218 98 169 95 442-8 601-109 168-309 253-506 215zm170-257c88-44 131-208 96-371-24-115-79-171-167-171-66 0-121 38-149 102-45 103-38 287 14 382 37 68 133 95 206 58zm1711 257c-58-11-139-58-173-100-16-19-38-62-50-94-21-55-23-80-26-327l-3-268h-139v-109c0-125-3-121 101-121h56l12-112c19-177 1-158 146-158h125v270h240v230h-241l3 233c3 201 5 236 21 265 31 56 91 71 183 46 19-5 22 2 42 102 12 60 19 111 14 115-13 13-160 39-214 38-29-1-73-5-97-10zm2714 2c-95-25-153-86-180-187-13-49-15-154-15-656v-598h300v578c0 458 3 582 13 596 7 10 28 21 47 25l34 7 32 216-25 10c-34 13-168 19-206 9zm-8715-681v-660h310v1320h-310v-660zm580 155v-505h248l6 28c3 15 8 44 12 64l6 37 61-46c101-74 152-96 238-101 181-11 289 74 328 256 7 34 11 183 11 412v360h-299l-3-342c-3-373-5-386-59-414-59-30-136-12-202 46l-37 32v678h-310v-505zm2050-205v-710h313l-6 243c-3 133-8 250-12 259-4 11 22-2 69-33 89-60 146-79 231-79 128 0 218 51 267 151 44 91 48 137 48 519v360h-299l-3-342c-3-373-5-386-59-414-59-30-136-12-202 46l-37 32v678h-310v-710zm2270 205v-506l255 6 20 175 28-44c73-116 195-172 331-152 56 9 56 11 25 168l-21 106-74-5c-65-5-79-3-126 20-41 20-62 39-91 83l-37 57v597h-310v-505zm2030-155v-660h830v260h-530v300h460v250h-460v510h-300v-660zm1030 155v-505h300v1010h-300v-505zm1140 0v-506l245 6 9 60c5 33 10 62 12 64s26-17 55-42c110-96 222-127 348-97 59 14 130 64 161 115l22 36 37-34c100-90 181-127 281-127 157 0 255 83 295 251 12 51 15 138 15 422v357h-299l-3-342c-3-298-5-347-20-374-41-75-152-69-240 14l-28 26v676h-299l-3-337c-3-301-5-342-21-374-40-80-149-76-239 9l-28 26v676h-300v-505zm-1080-664c-52-27-80-74-80-135 0-103 71-161 187-154 101 6 157 61 157 153 0 61-19 95-74 133-43 29-139 31-190 3zm-6638-862c-93-46-152-162-152-299 0-131 51-236 139-288 40-23 57-27 126-27s86 4 127 28c26 15 59 43 74 62 74 98 84 298 21 421-20 39-80 92-123 110-52 22-161 18-212-7zm176-63c79-42 117-130 110-259-7-141-68-217-173-217-103 0-163 73-172 210-9 128 24 214 101 261 37 22 96 25 134 5zm1622 63c-81-37-121-91-146-197-39-164 15-319 134-389 39-23 58-28 122-28s82 4 122 28c61 36 65 44 36 74l-25 24-38-25c-82-56-190-25-242 68-25 46-28 60-28 146 0 76 4 104 21 141 54 116 186 143 280 58 20-19 21-19 44 6l23 25-24 26c-59 64-188 84-279 43zm1874 5c-22-8-56-27-74-43l-34-28 25-30 26-31 24 20c68 54 148 71 214 44 38-16 55-42 55-84 0-46-26-68-150-130-141-70-164-97-158-182 7-103 74-155 198-154 76 0 106 10 160 53l25 20-26 27-27 26-31-23c-37-27-127-37-170-19-35 14-55 59-41 94 12 33 47 58 137 96 97 42 136 69 157 113 41 89 4 185-89 228-49 23-161 24-221 3zm2001-8c-57-26-98-70-129-136-30-65-30-245 0-311 52-111 128-163 244-163 79-1 112 11 158 54l24 23-24 24-25 24-38-25c-76-52-184-26-238 56-45 70-50 225-8 306 56 110 186 134 277 51 20-19 21-19 44 6l23 25-24 26c-61 67-189 85-284 40zm1290 10c-116-51-185-213-158-373 25-142 102-233 212-248 197-27 320 108 309 339-6 140-58 233-153 277-48 22-165 25-210 5zm163-70c79-41 112-111 112-234 0-160-60-242-178-242-98 0-161 79-170 214-10 160 63 274 176 276 18 0 45-6 60-14zm-6618-236v-310h360v70h-280v210h240v70h-240v270h-80v-310zm460 0v-310h360v70h-270v210h230v70h-230v270h-90v-310zm460 0v-310h90v620h-90v-310zm780 0v-310h90v620h-90v-310zm170 303c0-5 46-143 103-308l102-300 91-6 213 621h-94l-56-180h-219l-27 90-28 90h-42c-24 0-43-3-43-7zm299-370l-45-143c-4-8-17 22-31 70-13 47-33 111-43 143l-19 57h177l-39-127zm291 67v-310h80v550h270v70h-350v-310zm1140 0v-310h360v80h-270v180h230v70h-230v220h280v70h-370v-310zm500 0v-310h80v550h270v70h-350v-310zm450 0v-310h360v80h-270v180h230v70h-230v220h280v70h-370v-310zm1160 35v-275h-190v-70h460v70h-190v550h-80v-275zm370-35v-310h90v620h-90v-310zm870 0v-310h43c42 0 42 1 84 73l68 122c15 28 31 55 35 60 5 6 37 63 73 128l65 118-11-501h83v620h-87l-148-259c-11-20-34-61-52-91-17-30-42-76-55-101l-23-47 7 498h-82v-310z"/></svg>