<?xml version="1.0" standalone="no"?>
<!DOCTYPE svg PUBLIC "-//W3C//DTD SVG 20010904//EN"
 "http://www.w3.org/TR/2001/REC-SVG-20010904/DTD/svg10.dtd">
<svg version="1.0" xmlns="http://www.w3.org/2000/svg"
 width="1463.000000pt" height="810.000000pt" viewBox="0 0 1463.000000 810.000000"
 preserveAspectRatio="xMidYMid meet">
<g transform="translate(0.000000,810.000000) scale(0.100000,-0.100000)"
fill="#000000" stroke="none">
<path d="M1875 8074 c-51 -19 -112 -78 -136 -131 -38 -87 -118 -333 -152 -468
-67 -262 -116 -558 -136 -830 -18 -223 -18 -236 -14 -231 3 3 27 60 54 127
118 292 257 546 510 930 93 141 176 272 184 292 34 81 13 178 -52 248 -69 74
-164 97 -258 63z"/>
<path d="M12590 8077 c-49 -16 -133 -102 -148 -153 -15 -52 -15 -109 2 -155 7
-20 71 -124 143 -231 257 -382 434 -702 552 -995 29 -73 55 -133 57 -133 2 0
2 26 -1 58 -3 31 -10 118 -15 192 -29 361 -105 750 -205 1053 -67 203 -94 264
-136 306 -63 63 -161 86 -249 58z"/>
<path d="M3144 7311 c-142 -36 -219 -159 -217 -346 1 -111 28 -189 87 -253 55
-60 113 -85 197 -85 126 0 221 75 260 205 28 92 24 238 -10 314 -26 60 -91
127 -143 148 -45 19 -133 28 -174 17z m169 -104 c130 -99 117 -404 -20 -484
-59 -34 -134 -30 -188 12 -136 103 -119 412 26 488 50 27 136 19 182 -16z"/>
<path d="M5088 7306 c-147 -41 -225 -171 -216 -360 9 -201 116 -319 289 -319
53 0 76 5 117 28 28 15 59 36 68 47 16 17 16 20 -5 42 l-23 24 -42 -30 c-102
-71 -229 -39 -287 73 -25 50 -38 150 -29 220 13 93 67 173 133 198 63 24 152
8 187 -34 12 -14 15 -14 37 6 28 27 29 37 6 56 -67 52 -157 71 -235 49z"/>
<path d="M7145 7311 c-143 -35 -200 -177 -112 -278 22 -25 67 -53 147 -90 63
-30 123 -64 132 -76 22 -28 23 -85 2 -115 -50 -72 -200 -66 -282 11 l-23 21
-24 -29 -25 -30 36 -32 c70 -62 213 -86 299 -49 86 37 133 116 120 203 -10 70
-62 116 -193 172 -114 48 -142 74 -142 131 0 55 34 83 110 88 52 4 66 1 112
-26 l53 -29 18 23 c9 12 17 26 17 31 0 16 -72 56 -123 70 -56 14 -76 15 -122
4z"/>
<path d="M9298 7306 c-139 -38 -218 -161 -218 -337 0 -210 112 -342 290 -342
69 0 116 18 175 67 l30 24 -24 26 -24 25 -45 -32 c-39 -28 -52 -32 -111 -32
-90 0 -130 26 -173 112 -55 111 -41 270 30 354 42 49 84 69 147 69 49 0 77
-10 111 -41 20 -19 21 -19 44 6 23 24 23 25 4 46 -49 54 -153 79 -236 55z"/>
<path d="M10678 7307 c-135 -38 -208 -155 -208 -333 0 -212 109 -347 279 -347
171 0 282 132 284 338 2 110 -19 184 -68 247 -62 82 -186 123 -287 95z m151
-85 c111 -56 155 -259 88 -406 -33 -71 -82 -108 -152 -114 -90 -7 -160 48
-195 152 -16 49 -17 177 -1 232 15 55 61 117 102 137 44 22 115 21 158 -1z"/>
<path d="M3640 6970 l0 -330 40 0 39 0 3 148 3 147 128 3 128 3 -3 32 -3 32
-127 3 -128 3 0 109 0 110 150 0 150 0 0 35 0 35 -190 0 -190 0 0 -330z"/>
<path d="M4140 6970 l0 -330 40 0 39 0 3 148 3 147 128 3 128 3 -3 32 -3 32
-127 3 -128 3 0 109 0 110 150 0 150 0 0 35 0 35 -190 0 -190 0 0 -330z"/>
<path d="M4640 6965 l0 -335 40 0 40 0 0 335 0 335 -40 0 -40 0 0 -335z"/>
<path d="M5490 6965 l0 -335 40 0 40 0 0 335 0 335 -40 0 -40 0 0 -335z"/>
<path d="M5885 7288 c-17 -45 -215 -644 -215 -650 0 -5 18 -8 39 -8 l39 0 34
103 35 102 120 3 120 3 27 -88 c33 -111 37 -117 70 -121 60 -7 61 -11 -55 337
l-111 331 -49 0 c-31 0 -51 -5 -54 -12z m100 -213 c25 -81 45 -152 45 -157 0
-4 -43 -8 -96 -8 -73 0 -95 3 -91 13 2 6 24 78 48 159 24 81 44 146 46 144 1
-1 23 -69 48 -151z"/>
<path d="M6310 6965 l0 -335 185 0 185 0 0 40 0 40 -145 0 -145 0 0 295 0 295
-40 0 -40 0 0 -335z"/>
<path d="M7550 6965 l0 -335 195 0 195 0 0 40 0 40 -155 0 -155 0 0 120 0 120
130 0 130 0 0 35 0 34 -127 3 -128 3 -3 103 -3 102 151 0 150 0 0 35 0 35
-190 0 -190 0 0 -335z"/>
<path d="M8090 6965 l0 -335 185 0 185 0 0 40 0 40 -145 0 -145 0 0 295 0 295
-40 0 -40 0 0 -335z"/>
<path d="M8580 6965 l0 -335 195 0 195 0 0 40 0 40 -155 0 -155 0 0 120 0 120
130 0 130 0 0 35 0 34 -127 3 -128 3 -3 103 -3 102 151 0 150 0 0 35 0 35
-190 0 -190 0 0 -335z"/>
<path d="M9632 7268 l3 -33 98 -3 97 -3 0 -294 0 -295 45 0 45 0 0 295 0 295
100 0 100 0 0 35 0 35 -246 0 -245 0 3 -32z"/>
<path d="M10240 6965 l0 -335 40 0 40 0 0 335 0 335 -40 0 -40 0 0 -335z"/>
<path d="M11182 6968 l3 -333 38 -3 39 -3 -4 279 -3 280 39 -71 c22 -40 93
-166 159 -280 l119 -208 42 3 41 3 3 333 2 332 -40 0 -41 0 3 -275 c2 -151 2
-275 1 -275 0 0 -39 69 -86 153 -47 83 -116 206 -155 272 l-70 120 -46 3 -46
3 2 -333z"/>
<path d="M894 7276 c-52 -23 -100 -73 -124 -128 -22 -52 -23 -57 -17 -373 7
-412 31 -641 103 -989 52 -248 145 -551 227 -735 l24 -54 7 244 c12 440 32
805 82 1479 28 382 28 402 -19 471 -12 18 -42 47 -65 63 -37 26 -54 31 -115
33 -46 2 -83 -2 -103 -11z"/>
<path d="M13540 7266 c-53 -27 -105 -91 -121 -148 -8 -33 -4 -129 20 -462 50
-684 66 -975 79 -1426 l7 -235 52 130 c143 360 231 734 284 1210 17 159 24
736 9 790 -16 56 -72 122 -124 146 -59 27 -149 25 -206 -5z"/>
<path d="M6005 6015 c-141 -50 -147 -244 -11 -306 92 -42 209 -11 253 67 83
146 -72 299 -242 239z"/>
<path d="M4800 5145 l0 -725 448 2 447 3 3 138 3 137 -291 0 -290 0 0 585 0
585 -160 0 -160 0 0 -725z"/>
<path d="M298 5725 c-97 -36 -162 -128 -163 -230 0 -51 11 -90 74 -255 254
-674 572 -1205 1054 -1760 107 -122 496 -514 504 -506 3 2 -34 73 -81 156
-376 657 -697 1373 -992 2214 -46 131 -95 257 -108 280 -56 96 -182 140 -288
101z"/>
<path d="M14181 5728 c-50 -14 -101 -52 -131 -97 -15 -21 -53 -115 -85 -207
-296 -862 -633 -1620 -1027 -2307 -44 -77 -78 -141 -76 -143 8 -7 322 302 434
427 523 581 873 1156 1136 1864 70 190 76 223 54 299 -38 128 -175 202 -305
164z"/>
<path d="M7065 5537 c-59 -20 -96 -41 -171 -97 -36 -28 -68 -49 -70 -47 -3 2
-9 30 -14 62 -5 32 -13 62 -18 67 -5 5 -65 7 -133 6 l-124 -3 0 -550 0 -550
160 0 160 0 3 371 2 372 41 37 c53 48 96 65 161 65 61 0 90 -16 116 -63 15
-29 17 -73 20 -409 l3 -378 160 0 160 0 -3 428 c-4 413 -5 429 -26 487 -55
147 -139 207 -296 212 -56 2 -106 -2 -131 -10z"/>
<path d="M8129 5536 c-177 -49 -325 -207 -374 -401 -20 -78 -20 -253 0 -330
50 -197 197 -345 386 -390 141 -33 317 -11 450 55 98 49 95 41 43 139 -26 47
-50 90 -55 95 -5 5 -34 -3 -71 -19 -75 -34 -209 -46 -274 -25 -90 29 -150 96
-179 198 l-6 22 326 0 325 0 10 26 c15 38 12 199 -5 277 -38 180 -155 309
-320 353 -62 17 -195 16 -256 0z m232 -259 c42 -27 79 -98 79 -149 l0 -38
-196 0 -196 0 7 33 c25 111 102 176 211 177 47 0 69 -5 95 -23z"/>
<path d="M9255 5536 c-98 -23 -237 -80 -288 -118 -18 -13 -16 -20 38 -120 l56
-106 52 29 c119 66 266 88 337 51 35 -19 66 -67 72 -111 3 -24 0 -25 -107 -43
-263 -43 -407 -116 -473 -242 -24 -45 -27 -62 -27 -146 0 -121 24 -178 101
-249 71 -65 129 -84 237 -79 92 4 174 36 259 101 l47 36 10 -37 c5 -20 11 -46
13 -57 3 -19 12 -20 136 -23 l133 -3 -3 398 c-3 379 -5 401 -26 463 -42 125
-108 198 -222 241 -70 28 -255 36 -345 15z m275 -700 l0 -94 -39 -31 c-75 -60
-147 -75 -216 -47 -18 8 -38 23 -44 34 -30 56 2 137 69 176 40 24 150 55 198
55 l32 1 0 -94z"/>
<path d="M5922 4978 l3 -553 160 0 160 0 0 550 0 550 -163 3 -162 2 2 -552z"/>
<path d="M187 4106 c-88 -33 -146 -94 -173 -182 -33 -112 -14 -162 137 -349
175 -217 285 -339 476 -526 486 -478 1039 -867 1723 -1213 281 -143 643 -304
610 -273 -8 8 -87 74 -175 147 -744 620 -1488 1351 -2091 2058 -222 259 -259
299 -309 324 -50 26 -147 33 -198 14z"/>
<path d="M14278 4106 c-74 -26 -71 -24 -355 -356 -431 -504 -976 -1063 -1513
-1550 -141 -129 -567 -496 -683 -589 -37 -30 -67 -56 -67 -57 0 -13 415 177
655 300 619 316 1146 681 1607 1112 196 184 353 355 562 613 130 161 153 211
143 304 -20 164 -197 277 -349 223z"/>
<path d="M3772 3522 l3 -268 -61 41 c-205 141 -473 46 -596 -211 -115 -239
-77 -580 83 -749 78 -82 157 -118 273 -123 110 -5 173 15 266 84 39 29 62 40
64 32 3 -7 8 -31 13 -53 l9 -40 132 -3 132 -3 0 781 0 780 -161 0 -160 0 3
-268z m-101 -443 c19 -7 49 -23 67 -36 l32 -24 0 -222 0 -223 -30 -32 c-103
-113 -266 -87 -326 53 -22 52 -31 247 -15 321 14 61 58 126 104 154 37 23 114
27 168 9z"/>
<path d="M8460 3010 l0 -781 127 3 127 3 7 30 c4 17 10 43 13 58 l7 28 47 -41
c26 -23 70 -54 97 -69 45 -23 61 -26 155 -26 96 0 110 3 165 29 122 60 230
203 269 359 35 136 29 310 -14 449 -80 257 -334 377 -562 265 -40 -20 -83 -44
-95 -53 l-23 -16 0 271 0 271 -160 0 -160 0 0 -780z m600 61 c24 -12 44 -36
65 -76 29 -56 30 -64 30 -189 0 -167 -13 -215 -76 -278 -37 -36 -56 -48 -91
-53 -54 -8 -119 8 -170 41 l-38 24 0 226 0 226 32 30 c73 68 175 89 248 49z"/>
<path d="M4488 3760 c-55 -29 -83 -82 -83 -157 0 -47 5 -68 21 -89 33 -44 68
-66 118 -71 44 -5 46 -7 46 -37 -2 -77 -52 -155 -136 -211 -30 -20 -54 -40
-54 -46 0 -14 59 -129 66 -129 22 0 126 72 173 119 96 97 141 210 141 357 0
136 -52 243 -133 273 -44 17 -118 12 -159 -9z"/>
<path d="M5570 3699 c-146 -15 -282 -82 -380 -186 -166 -176 -229 -492 -159
-793 32 -139 88 -241 183 -335 128 -127 249 -175 443 -175 130 0 188 12 290
61 237 113 363 351 363 688 0 207 -36 346 -127 483 -125 191 -348 284 -613
257z m189 -294 c88 -31 154 -108 194 -228 29 -87 31 -333 4 -422 -39 -125
-102 -208 -189 -245 -62 -27 -171 -25 -229 4 -89 43 -167 166 -189 299 -16 90
-8 294 14 362 34 111 110 201 192 230 51 19 151 19 203 0z"/>
<path d="M7083 3346 c-52 -17 -101 -47 -174 -107 -64 -54 -60 -56 -74 44 l-7
47 -134 0 -134 0 0 -550 0 -550 163 2 162 3 5 377 5 376 40 32 c53 43 95 60
147 60 50 0 81 -18 106 -63 15 -29 17 -73 20 -409 l3 -378 160 0 159 0 0 375
0 375 61 45 c64 47 108 61 165 52 44 -7 63 -22 83 -67 14 -30 16 -93 19 -407
l3 -373 160 0 159 0 0 398 c0 421 -5 474 -50 563 -32 62 -85 114 -143 140 -43
20 -69 24 -147 24 -83 0 -102 -3 -150 -27 -30 -15 -87 -54 -126 -87 l-71 -60
-31 48 c-38 59 -96 100 -164 118 -65 16 -160 16 -215 -1z"/>
<path d="M10253 3346 c-78 -25 -148 -82 -206 -169 -30 -46 -32 -41 -43 76 l-6
77 -134 0 -134 0 0 -550 0 -550 160 0 160 0 0 318 c0 358 1 360 80 446 57 62
109 80 208 73 l78 -5 23 122 c13 66 25 129 27 138 10 35 -128 50 -213 24z"/>
<path d="M10941 3350 c-108 -23 -337 -119 -329 -138 2 -4 27 -53 57 -109 l55
-101 66 33 c98 49 172 68 245 63 91 -8 131 -41 149 -124 l7 -31 -113 -17
c-212 -33 -375 -103 -441 -189 -66 -87 -82 -193 -48 -307 19 -62 31 -82 79
-130 70 -69 123 -90 233 -90 95 0 160 22 250 85 35 25 67 45 71 45 4 0 10 -20
13 -43 4 -24 10 -49 14 -56 5 -8 45 -11 137 -9 l129 3 -1 370 c-1 311 -3 381
-18 439 -36 147 -111 240 -233 286 -66 25 -245 36 -322 20z m249 -704 l0 -94
-37 -32 c-47 -42 -92 -60 -147 -60 -58 0 -94 17 -112 51 -30 60 -5 126 65 167
48 28 155 60 204 61 l27 1 0 -94z"/>
<path d="M936 2264 c-72 -23 -149 -103 -172 -179 -29 -102 -5 -203 66 -274 50
-49 200 -138 445 -261 870 -440 1995 -767 3234 -940 113 -16 207 -28 208 -26
1 1 -50 19 -115 40 -292 95 -776 285 -1182 463 -695 305 -1670 799 -2173 1101
-161 96 -207 107 -311 76z"/>
<path d="M13543 2270 c-17 -4 -101 -48 -185 -98 -478 -282 -1301 -703 -1929
-988 -524 -237 -1031 -439 -1442 -574 -38 -12 -67 -24 -65 -25 6 -7 545 75
763 115 1040 192 1962 487 2705 866 263 134 397 219 437 278 42 61 57 117 50
187 -14 162 -175 277 -334 239z"/>
<path d="M6140 1600 c0 -5 45 -89 100 -186 l99 -177 -23 -41 c-80 -139 -196
-347 -196 -351 0 -3 22 -5 49 -5 l50 0 80 153 c44 83 83 158 88 165 5 8 38
-43 97 -153 l88 -165 55 0 55 0 -20 33 c-41 67 -183 318 -193 340 -9 21 2 46
90 205 56 99 101 183 101 186 0 3 -22 6 -48 6 l-48 0 -80 -154 c-43 -85 -82
-152 -85 -148 -4 4 -42 73 -84 155 l-78 147 -48 0 c-27 0 -49 -4 -49 -10z"/>
<path d="M6766 1543 c21 -38 68 -121 104 -187 l67 -119 -104 -184 c-58 -102
-107 -191 -110 -199 -4 -11 6 -14 44 -14 l49 0 88 165 89 166 89 -166 89 -165
51 0 c61 0 65 -15 -52 190 -48 85 -94 167 -100 181 -11 25 -4 41 89 208 56
100 101 183 101 186 0 3 -22 5 -50 5 l-50 0 -78 -157 -79 -156 -48 89 c-26 49
-64 119 -84 156 l-36 68 -53 0 -54 0 38 -67z"/>
<path d="M7400 1225 l0 -385 50 0 50 0 0 385 0 385 -50 0 -50 0 0 -385z"/>
<path d="M7710 1225 l0 -386 48 3 47 3 0 380 0 380 -47 3 -48 3 0 -386z"/>
<path d="M8020 1225 l0 -385 45 0 45 0 0 385 0 385 -45 0 -45 0 0 -385z"/>
<path d="M8325 1597 c-3 -6 -4 -179 -3 -382 l3 -370 48 -3 47 -3 0 385 0 386
-45 0 c-27 0 -48 -5 -50 -13z"/>
<path d="M2677 566 c-172 -62 -247 -253 -159 -409 36 -65 96 -112 170 -133 72
-21 115 -16 597 81 369 74 1451 305 1516 323 26 8 28 10 11 11 -12 1 -172 12
-355 26 -817 61 -1615 115 -1692 115 -27 -1 -67 -7 -88 -14z"/>
<path d="M11715 574 c-22 -2 -146 -11 -275 -19 -334 -22 -1623 -115 -1635
-119 -5 -1 36 -12 90 -24 912 -196 1177 -252 1471 -311 460 -92 504 -98 576
-77 248 72 281 411 52 526 -41 20 -65 25 -144 26 -52 1 -113 0 -135 -2z"/>
</g>
</svg>
