<?xml version="1.0" standalone="no"?>
<!DOCTYPE svg PUBLIC "-//W3C//DTD SVG 20010904//EN"
 "http://www.w3.org/TR/2001/REC-SVG-20010904/DTD/svg10.dtd">
<svg version="1.0" xmlns="http://www.w3.org/2000/svg"
 width="800.000000pt" height="443.000000pt" viewBox="0 0 800.000000 443.000000"
 preserveAspectRatio="xMidYMid meet">
<metadata>
Created by potrace 1.15, written by Peter Selinger 2001-2017
</metadata>
<g transform="translate(0.000000,443.000000) scale(0.100000,-0.100000)"
fill="#000000" stroke="none">
<path d="M1220 4297 c-14 -7 -46 -21 -71 -30 -67 -26 -175 -134 -221 -224 -21
-40 -38 -78 -38 -84 0 -6 -13 -28 -30 -49 -16 -21 -30 -41 -30 -46 0 -4 -8
-17 -18 -28 -21 -24 -92 -141 -92 -151 0 -3 -11 -21 -23 -38 -13 -18 -30 -48
-37 -67 -7 -19 -18 -42 -25 -50 -14 -19 -79 -171 -95 -223 -15 -47 -23 -44
-10 4 11 37 12 324 1 428 -3 36 -11 66 -18 68 -16 6 -85 -90 -113 -157 -19
-44 -24 -79 -28 -180 -5 -134 6 -200 49 -301 23 -53 36 -57 56 -18 13 24 13
24 13 2 0 -13 -11 -62 -25 -109 -14 -47 -25 -99 -25 -115 0 -63 -17 -22 -53
129 -21 86 -42 173 -47 192 -4 19 -11 72 -15 118 -4 45 -11 82 -15 82 -4 0
-12 -12 -18 -27 -74 -191 -77 -203 -92 -343 -12 -112 -6 -209 16 -252 22 -43
66 -84 104 -97 34 -12 36 -11 68 26 l34 38 -7 -55 c-12 -96 -23 -303 -20 -362
4 -69 -6 -75 -23 -13 -16 59 -38 112 -93 221 -50 100 -129 224 -141 224 -19 0
-31 -63 -36 -190 -4 -130 -3 -137 23 -200 31 -75 74 -141 122 -188 40 -40 138
-93 158 -86 10 4 15 -7 19 -43 10 -80 36 -215 51 -263 62 -206 82 -263 106
-317 16 -33 29 -65 29 -69 0 -24 166 -318 202 -358 10 -11 18 -24 18 -29 0 -5
12 -24 28 -42 15 -18 43 -52 62 -76 87 -107 176 -199 269 -279 54 -46 216
-160 228 -160 3 0 14 -6 22 -13 19 -16 162 -81 226 -103 49 -16 157 -42 213
-51 35 -6 44 9 15 26 -16 8 -13 12 19 25 39 17 78 74 78 114 0 40 -40 110
-123 215 -49 62 -211 186 -225 172 -2 -2 6 -25 18 -52 38 -84 71 -186 86 -261
11 -59 38 -135 60 -174 6 -10 -57 10 -148 46 -101 41 -230 109 -279 147 -20
16 -41 29 -46 29 -10 0 -81 57 -172 138 -71 63 -241 248 -275 298 -124 185
-159 244 -203 334 -125 259 -181 451 -224 774 -15 113 -19 333 -9 454 9 109
49 358 69 432 5 19 16 62 25 95 17 67 83 254 95 270 5 5 14 28 21 50 7 22 18
47 25 55 7 8 25 40 40 70 37 74 148 233 182 259 14 12 38 24 52 27 14 3 35 9
46 14 11 5 44 11 74 14 82 8 155 74 220 198 39 73 74 134 89 150 8 10 12 24 9
33 -8 19 -140 21 -177 2z"/>
<path d="M6617 4296 c-3 -7 0 -22 7 -32 14 -20 58 -97 86 -149 24 -47 82 -128
105 -148 35 -31 98 -57 142 -57 23 0 44 -4 47 -9 3 -4 23 -11 44 -14 26 -5 49
-18 73 -44 42 -44 123 -164 166 -243 16 -30 35 -64 41 -75 18 -30 61 -133 83
-195 118 -331 174 -722 150 -1039 -7 -86 -16 -174 -21 -196 -6 -22 -12 -67
-15 -100 -10 -96 -62 -279 -127 -440 -33 -82 -66 -157 -73 -165 -7 -8 -20 -31
-28 -51 -26 -64 -210 -332 -267 -389 -19 -20 -49 -51 -66 -70 -39 -45 -159
-156 -210 -195 -89 -69 -179 -124 -314 -194 -47 -25 -145 -62 -208 -80 l-30
-9 24 53 c14 29 31 86 39 127 14 72 60 210 90 268 31 61 12 60 -74 -3 -63 -46
-169 -152 -182 -181 -5 -12 -21 -36 -34 -55 -14 -19 -30 -51 -36 -71 -16 -54
12 -115 65 -142 33 -17 37 -22 23 -30 -9 -5 -17 -13 -17 -18 0 -12 67 -13 74
-1 3 4 25 11 48 14 73 10 169 45 313 113 17 8 44 23 60 34 17 11 46 28 65 39
50 28 188 141 268 219 88 86 236 263 262 312 7 14 19 29 26 33 8 4 14 14 14
21 0 6 12 28 26 47 14 19 34 50 43 69 10 19 34 64 53 100 19 36 45 92 58 125
13 33 26 65 30 70 10 14 73 212 104 325 20 76 46 228 46 273 0 5 6 7 14 4 26
-10 120 45 174 101 31 33 69 88 90 132 36 73 37 79 40 200 3 124 -11 220 -33
227 -9 3 -62 -72 -107 -151 -51 -90 -117 -243 -133 -308 -11 -42 -28 -34 -21
10 6 34 -7 287 -20 392 l-5 45 33 -38 c32 -36 35 -37 68 -26 43 14 84 51 104
93 40 84 24 327 -32 486 -35 99 -53 140 -62 140 -3 0 -11 -48 -18 -107 -6 -60
-31 -186 -55 -280 -41 -161 -57 -199 -57 -132 0 15 -11 70 -25 123 -29 110
-31 133 -9 93 8 -16 20 -27 26 -25 6 2 24 37 40 78 25 64 31 93 35 195 6 137
-5 214 -42 289 -26 53 -80 126 -94 126 -10 0 -31 -224 -31 -320 1 -41 5 -106
9 -145 5 -38 7 -72 5 -73 -1 -2 -9 18 -18 45 -19 62 -66 171 -108 253 -54 104
-184 315 -218 355 -10 11 -20 33 -24 48 -4 15 -26 60 -49 99 -46 77 -148 174
-207 197 -19 7 -49 20 -67 27 -42 19 -169 19 -176 0z"/>
<path d="M801 4181 c-111 -59 -185 -191 -201 -361 -8 -88 0 -243 14 -257 4 -4
56 81 56 92 0 4 10 21 23 38 12 18 27 41 33 52 78 144 104 201 118 260 18 74
18 186 1 191 -5 2 -25 -5 -44 -15z"/>
<path d="M7157 4193 c-12 -12 -7 -109 10 -184 17 -77 61 -169 155 -324 30 -49
58 -99 62 -109 10 -28 15 -17 26 67 16 111 -1 257 -40 351 -34 81 -97 154
-161 187 -43 21 -43 21 -52 12z"/>
<path d="M3310 3943 c0 -1 23 -9 50 -18 58 -19 58 -18 62 -162 l4 -101 -43
-21 -43 -21 -67 132 c-49 95 -74 133 -88 135 -11 2 -98 6 -192 10 -149 5 -173
8 -173 22 0 9 -9 3 -21 -16 -24 -38 -26 -38 -65 -18 -60 31 -148 10 -204 -50
-21 -22 -25 -37 -25 -85 0 -66 18 -99 75 -137 40 -28 129 -31 175 -7 27 14 30
14 43 -3 12 -16 13 -12 7 27 -7 45 -24 88 -25 62 0 -7 -11 -24 -25 -37 -35
-35 -102 -35 -138 1 -70 69 -24 194 71 194 34 0 72 -30 98 -75 9 -16 12 -9 18
43 4 34 11 62 15 62 4 0 22 -5 40 -11 34 -12 33 -3 35 -188 l1 -83 -43 -17
-42 -17 116 3 c64 1 119 4 122 8 3 3 33 3 66 -1 l61 -6 -40 27 c-22 15 -41 29
-43 30 -2 2 3 12 10 24 11 18 23 21 73 21 l61 0 18 -51 18 -50 -28 -30 c-15
-16 -25 -29 -21 -29 4 0 56 12 115 27 l107 27 -47 15 c-27 8 -48 18 -48 22 0
4 67 10 149 14 l150 7 3 88 c2 49 1 87 -2 85 -3 -2 -16 -33 -30 -69 l-24 -66
-53 0 -53 0 4 43 c2 23 4 78 5 123 l1 81 41 13 c22 8 42 16 43 19 2 3 -59 6
-135 6 -76 0 -139 -1 -139 -2z m-192 -83 l39 -22 -52 -101 c-43 -82 -60 -104
-89 -119 -20 -10 -41 -16 -46 -13 -5 3 -8 25 -6 48 2 23 4 79 5 124 l1 83 33
14 c39 17 65 14 115 -14z"/>
<path d="M4380 3943 c0 -1 23 -9 50 -18 58 -19 58 -18 62 -162 l4 -102 -48
-22 c-26 -12 -46 -24 -43 -27 2 -2 75 -1 162 3 l158 7 0 88 c0 48 -2 87 -5 85
-3 -2 -16 -33 -30 -69 l-24 -66 -52 0 -52 0 5 123 c4 73 10 125 17 130 6 4 23
10 39 14 60 13 29 18 -104 18 -76 0 -139 -1 -139 -2z"/>
<path d="M5377 3900 c-21 -34 -24 -35 -63 -15 -60 31 -148 10 -204 -50 -21
-22 -25 -37 -25 -85 0 -66 18 -99 75 -137 40 -28 125 -31 172 -7 30 15 32 15
46 -2 12 -17 13 -14 7 26 -7 45 -24 88 -25 62 0 -7 -11 -24 -25 -37 -35 -35
-102 -35 -138 1 -33 33 -44 92 -23 132 43 84 138 83 183 -1 l17 -32 7 45 c18
116 20 130 17 130 -2 0 -12 -13 -21 -30z"/>
<path d="M1905 3904 c-33 -7 -98 -13 -145 -14 -60 0 -91 -5 -105 -16 -19 -15
-19 -15 8 -8 17 4 38 1 53 -7 24 -12 25 -15 22 -127 l-3 -114 -45 -19 -45 -18
130 1 130 0 -47 21 c-47 20 -48 22 -48 64 0 56 27 59 58 6 l22 -38 0 100 0
100 -22 -37 c-12 -22 -30 -38 -40 -38 -15 0 -17 6 -11 48 3 26 6 47 7 48 1 1
23 -2 51 -5 49 -6 50 -7 70 -58 11 -29 22 -53 25 -53 3 0 4 24 4 52 -1 29 1
59 3 66 7 16 33 15 56 -2 15 -12 17 -28 15 -126 l-3 -112 -45 -19 -45 -18 130
1 130 0 -47 21 c-47 20 -48 22 -48 64 0 56 27 59 58 6 l22 -38 0 100 0 100
-22 -37 c-12 -22 -30 -38 -40 -38 -15 0 -17 6 -11 48 3 26 6 47 7 48 1 1 23
-2 50 -5 49 -6 50 -7 72 -61 l23 -55 2 60 c1 33 1 66 0 73 -2 15 7 15 48 1 34
-12 33 -3 35 -188 l1 -83 -43 -17 -42 -17 117 3 c65 1 120 3 123 3 3 1 -15 9
-40 19 l-45 19 4 123 c1 68 5 126 8 129 3 3 23 13 46 22 l42 17 -122 0 c-67 1
-124 5 -127 10 -3 5 -33 3 -68 -5 -85 -18 -227 -18 -242 0 -9 11 -21 11 -71 0z"/>
<path d="M4214 3910 c-50 -4 -101 -11 -113 -15 -12 -4 -21 -2 -21 4 0 8 -6 7
-19 -1 -11 -7 -17 -16 -14 -21 4 -6 -6 -7 -23 -3 -114 27 -193 11 -212 -43
-16 -47 7 -86 65 -106 95 -34 102 -37 115 -52 10 -12 9 -18 -7 -29 -40 -29
-101 -10 -136 42 l-19 29 0 -46 c0 -26 -2 -62 -5 -80 l-6 -34 17 31 c17 32 17
32 53 17 57 -24 128 -13 163 26 15 17 28 41 28 52 0 36 -52 76 -128 98 -43 13
-72 27 -72 35 0 48 94 46 144 -3 18 -17 35 -31 39 -31 4 0 7 17 7 38 0 53 9
63 44 48 29 -12 29 -12 33 -116 l5 -105 -54 -27 -53 -26 171 1 171 2 7 119 c3
65 6 139 6 163 l0 43 -47 -1 c-27 -1 -89 -5 -139 -9z m150 -103 c19 -46 19
-47 0 -104 l-19 -58 -63 -3 -62 -3 0 36 c0 28 4 35 19 35 10 0 26 -12 36 -26
9 -14 19 -24 21 -21 3 3 7 43 10 89 l5 83 -27 -42 c-16 -27 -33 -43 -45 -43
-17 0 -20 6 -18 48 1 26 3 50 5 53 2 3 29 5 61 4 l58 -2 19 -46z"/>
<path d="M4865 3909 c-102 -9 -194 -26 -155 -28 14 -1 38 -7 54 -14 29 -13 29
-13 33 -117 l5 -105 -54 -27 -53 -26 173 1 172 2 0 41 c0 22 3 96 7 162 l6
122 -49 -1 c-27 -1 -89 -5 -139 -10z m149 -102 c19 -46 19 -47 0 -104 l-19
-58 -63 -3 -62 -3 0 36 c0 45 24 47 60 3 l26 -31 2 94 2 94 -26 -42 c-16 -27
-33 -43 -45 -43 -17 0 -20 6 -18 48 1 26 3 50 5 53 2 3 29 5 61 4 l58 -2 19
-46z"/>
<path d="M6456 3911 c5 -4 30 -16 57 -26 l47 -18 0 -56 -1 -56 -27 30 c-15 17
-45 52 -67 78 l-40 48 -90 -3 -90 -3 52 -19 c41 -15 52 -25 56 -45 4 -29 1
-181 -4 -185 -2 -1 -26 -12 -54 -24 l-50 -21 147 -3 c80 -2 144 0 141 5 -2 4
-8 7 -13 7 -5 0 -34 9 -65 21 l-55 20 0 77 1 77 26 -30 c14 -16 42 -48 62 -70
20 -22 53 -59 74 -83 l37 -42 1 87 c1 49 2 95 3 103 2 8 3 33 4 56 2 38 5 42
50 62 l47 21 -129 0 c-74 1 -126 -3 -120 -8z"/>
<path d="M5430 3864 c0 -17 3 -53 7 -79 l6 -49 17 55 c15 46 21 54 44 57 25 3
26 2 27 -55 0 -32 1 -77 3 -101 2 -42 1 -44 -43 -67 -25 -13 -41 -25 -36 -25
28 -4 245 -6 245 -3 0 2 -20 13 -44 24 -24 10 -46 25 -48 31 -2 7 -2 55 0 106
l3 92 29 0 c25 0 29 -5 41 -50 7 -28 16 -47 20 -43 5 6 17 85 19 125 0 3 18
-1 40 -9 45 -18 42 -4 44 -192 l1 -83 -43 -17 -42 -17 117 3 c65 1 120 3 123
3 3 1 -15 9 -40 19 l-45 19 4 123 c1 68 5 126 8 129 3 3 23 13 46 22 41 17 35
17 -230 15 l-273 -2 0 -31z"/>
<path d="M1425 3863 c-79 -22 -118 -110 -80 -183 38 -73 153 -102 239 -60 52
25 76 61 76 114 0 81 -52 126 -153 132 -34 1 -71 0 -82 -3z m108 -45 c34 -18
46 -40 47 -84 0 -47 -28 -80 -76 -90 -67 -13 -115 79 -75 143 17 27 30 34 74
42 5 0 18 -4 30 -11z"/>
<path d="M6035 3863 c-79 -22 -118 -110 -80 -183 38 -73 153 -102 239 -60 52
25 76 61 76 114 0 81 -52 126 -153 132 -34 1 -71 0 -82 -3z m108 -45 c34 -18
46 -40 47 -84 0 -47 -28 -80 -76 -90 -91 -18 -126 134 -39 172 38 17 41 17 68
2z"/>
<path d="M1060 3823 c-8 -2 -29 -11 -47 -19 -17 -8 -35 -14 -41 -14 -5 0 -15
-7 -22 -15 -7 -8 -20 -15 -30 -15 -27 0 -103 -81 -132 -141 -54 -115 -89 -185
-101 -201 -7 -11 -8 -21 -2 -27 14 -13 125 6 146 24 8 8 21 15 27 15 15 0 152
138 152 152 0 6 10 25 23 42 32 43 77 148 77 180 0 26 -14 32 -50 19z"/>
<path d="M6907 3823 c-19 -18 12 -100 81 -220 35 -60 106 -133 164 -169 95
-58 219 -66 170 -10 -10 12 -41 70 -68 130 -69 153 -102 184 -276 260 -39 17
-61 20 -71 9z"/>
<path d="M808 3340 c-15 -4 -48 -22 -73 -39 -25 -17 -49 -31 -53 -31 -16 0
-65 -74 -93 -142 -57 -134 -99 -368 -65 -368 22 0 152 126 198 193 24 34 58
90 76 124 33 63 86 248 76 264 -6 11 -29 10 -66 -1z"/>
<path d="M7140 3329 c0 -43 37 -173 65 -234 44 -95 102 -174 186 -257 101
-100 114 -101 106 -10 -12 134 -68 313 -123 394 -30 43 -142 113 -197 123 -34
7 -37 5 -37 -16z"/>
<path d="M4543 3000 c-172 -4 -316 -9 -320 -14 -9 -9 13 -24 47 -32 14 -3 59
-21 100 -39 41 -18 96 -42 122 -52 l48 -18 0 -169 c0 -188 1 -186 -64 -100
-57 74 -131 168 -147 185 -9 9 -35 41 -56 70 -22 30 -60 75 -84 102 l-44 48
-218 0 c-136 0 -217 3 -217 10 0 10 -28 9 -285 -16 -148 -14 -462 -35 -519
-35 -28 0 -29 1 -10 15 17 13 -2 15 -176 16 -107 1 -233 3 -280 4 -103 3 -204
-5 -193 -15 10 -9 67 -38 159 -80 l71 -32 7 -160 c4 -87 4 -163 1 -168 -3 -5
-73 -9 -156 -9 l-150 1 3 129 3 130 50 22 c28 11 52 24 55 27 3 4 26 15 52 26
27 10 48 22 48 25 0 4 -105 6 -234 4 -129 -2 -262 0 -295 4 -34 4 -80 5 -104
2 l-42 -6 52 -23 c28 -12 55 -22 59 -22 5 0 36 -14 70 -32 l62 -32 6 -206 c3
-113 8 -259 11 -325 l5 -120 -52 -22 c-29 -13 -80 -32 -113 -43 -33 -11 -64
-25 -69 -30 -12 -12 -11 -12 386 -14 309 -1 317 -1 283 17 -19 9 -76 31 -127
48 -51 17 -97 35 -103 40 -6 6 -10 66 -10 137 l0 128 154 17 c85 9 155 16 156
14 1 -1 5 -45 9 -97 l6 -95 -87 -39 c-47 -21 -99 -43 -115 -48 -15 -6 -28 -13
-28 -16 0 -4 108 -6 240 -5 142 1 242 -2 245 -8 4 -5 -1 -9 -9 -9 -8 0 -17 -4
-21 -9 -4 -8 853 -9 933 -2 6 1 12 8 12 17 0 14 42 15 395 12 228 -2 394 1
392 6 -3 8 -45 25 -208 81 -36 13 -89 33 -118 45 l-51 22 -1 67 c-1 36 -3 134
-5 216 l-3 150 42 -46 c49 -53 112 -127 156 -183 17 -21 37 -44 44 -50 7 -6
33 -36 58 -66 24 -30 51 -62 59 -71 14 -14 130 -149 194 -224 l25 -30 2 65 c3
130 9 419 12 593 3 137 7 181 18 192 8 7 43 25 79 40 36 15 72 33 80 40 8 7
32 18 53 26 20 7 37 15 37 19 0 6 -3 6 -387 0z m-700 -115 l97 -46 1 -57 c1
-61 1 -394 0 -478 l-1 -50 -57 -27 c-165 -74 -194 -87 -202 -87 -4 0 -9 86
-10 192 -1 105 -3 193 -5 195 -3 4 -46 -113 -91 -249 l-28 -86 -76 -4 c-42 -1
-121 -1 -176 0 l-100 4 3 106 3 107 50 -1 c27 0 50 -3 52 -5 2 -2 29 -44 61
-92 32 -48 61 -86 64 -83 4 5 8 117 12 396 2 178 3 171 -21 130 -12 -19 -40
-70 -62 -113 -42 -83 -60 -97 -121 -97 l-33 0 4 147 c3 81 6 149 8 151 2 2 68
8 147 13 79 5 151 10 161 12 17 2 37 -36 110 -208 12 -27 24 -52 27 -55 4 -3
10 -14 13 -24 4 -10 9 -17 12 -15 6 6 13 159 14 283 1 116 -9 113 144 41z
m227 -12 c25 -31 61 -74 81 -97 97 -112 229 -276 221 -276 -5 0 -24 19 -42 43
-34 43 -49 61 -93 109 -14 15 -31 36 -39 46 -21 29 -91 113 -114 136 -12 12
-26 31 -33 44 -6 12 -16 22 -21 22 -6 0 -10 -135 -10 -360 l0 -360 87 0 c47 0
83 -3 80 -7 -8 -7 -317 -6 -325 2 -3 3 29 5 71 5 l76 0 -2 368 -2 367 -70 6
-70 5 80 2 80 2 45 -57z m-1380 38 c0 -5 -20 -6 -44 -4 l-44 5 0 -226 c1 -154
5 -226 12 -226 8 0 8 -3 0 -8 -7 -4 -11 -56 -10 -151 l0 -143 48 4 c27 3 51 1
54 -3 3 -5 -46 -8 -108 -8 -82 1 -100 3 -66 8 26 4 50 9 53 13 3 3 4 68 3 144
l-3 139 -230 -17 c-126 -9 -238 -17 -248 -17 -17 -1 -18 -14 -16 -177 3 -191
2 -194 -53 -194 -16 0 -28 5 -28 10 0 6 16 10 35 10 l35 0 0 175 c0 133 -3
175 -12 176 -10 0 -10 2 0 6 9 3 12 54 12 203 l0 199 -72 4 c-45 2 -21 4 60 5
88 1 132 -2 132 -9 0 -7 -18 -8 -55 -4 l-56 7 2 -202 2 -202 41 5 c23 3 106
11 186 17 80 6 173 13 208 16 l62 6 0 224 0 224 50 0 c28 0 50 -4 50 -9z m107
-44 c21 -8 70 -24 109 -37 l72 -22 6 -197 c3 -108 8 -243 11 -301 l5 -105 -48
-22 c-89 -42 -97 -44 -149 -24 -26 11 -63 25 -81 32 l-33 12 7 301 c4 166 7
315 6 333 -1 23 3 33 16 36 30 8 41 7 79 -6z m313 -327 l0 -60 134 0 133 0 -4
53 c-3 37 -2 48 6 37 5 -8 9 -57 8 -110 0 -52 -3 -72 -4 -44 l-4 52 -132 -2
-132 -1 -3 -161 -2 -162 92 3 c51 2 111 -1 133 -5 37 -7 34 -8 -30 -10 -168
-6 -222 -6 -245 1 -23 7 -23 7 7 8 l33 1 -1 138 c-2 172 -4 190 -32 195 -17 3
-16 5 6 6 l29 1 -7 60 c-5 41 -4 60 4 60 7 0 11 -23 11 -60z"/>
<path d="M6652 2946 c-18 -30 -32 -57 -32 -61 0 -3 -19 -39 -42 -78 -23 -40
-53 -94 -66 -122 -13 -27 -40 -74 -59 -103 l-34 -54 -70 143 c-38 79 -88 180
-111 224 l-41 80 -259 2 c-142 2 -257 -1 -254 -5 5 -8 42 -25 179 -83 43 -18
81 -37 84 -43 3 -5 10 -72 14 -150 5 -78 13 -181 18 -231 18 -163 22 -285 8
-290 -6 -2 -41 -13 -77 -25 -36 -12 -96 -31 -135 -42 -100 -29 -102 -38 -9
-38 43 0 129 -1 189 -1 61 -1 202 0 315 1 l205 2 -85 30 c-47 16 -95 31 -107
33 -12 2 -51 13 -87 25 -55 18 -65 25 -70 48 -3 15 -8 117 -11 227 l-6 200 26
-45 c14 -25 50 -85 80 -135 29 -49 75 -130 101 -178 51 -93 70 -116 83 -101 9
10 28 47 160 313 l91 184 0 -230 0 -231 -96 -47 c-53 -25 -94 -48 -92 -49 2
-3 158 -8 606 -21 39 -1 72 1 72 6 0 4 -33 19 -72 34 -40 15 -100 38 -133 50
l-60 23 1 139 c0 76 5 206 9 288 5 83 9 171 8 196 -1 46 -1 46 40 59 56 16
191 79 185 85 -3 3 -54 8 -114 10 -60 3 -156 7 -214 9 l-106 5 -32 -53z m148
-6 c0 -5 -9 -10 -20 -10 -19 0 -20 -7 -21 -202 -1 -133 -4 -179 -8 -133 -4 39
-6 125 -5 193 1 113 -7 148 -23 105 -6 -16 -88 -155 -113 -193 -6 -8 -17 -28
-25 -45 -8 -16 -31 -55 -50 -85 -19 -30 -40 -66 -47 -80 -7 -14 -23 -39 -35
-56 -13 -17 -23 -35 -23 -40 -1 -18 -35 -53 -46 -46 -7 4 -20 23 -30 43 -39
75 -67 124 -74 129 -4 3 -24 37 -45 75 -21 39 -42 72 -46 75 -3 3 -16 23 -28
45 -12 22 -39 69 -61 104 -23 35 -39 68 -38 73 2 6 39 -50 82 -124 43 -73 93
-155 111 -183 34 -53 74 -117 115 -185 l24 -40 22 37 c48 81 80 136 111 186
56 92 79 131 123 207 90 156 93 159 123 160 15 0 27 -4 27 -10z"/>
<path d="M830 2893 c0 -3 148 -72 155 -72 3 -1 31 -14 63 -30 l59 -30 2 -248
c1 -136 4 -263 7 -280 4 -23 2 -33 -6 -33 -13 0 -227 -115 -243 -130 -5 -4
162 -6 369 -3 208 2 380 6 382 8 6 5 -36 26 -103 51 -33 12 -85 32 -116 44
l-57 22 -1 87 c-1 47 -4 101 -7 119 -6 29 -4 32 19 32 45 0 271 40 307 54 19
8 51 20 70 27 19 7 58 36 86 64 48 46 52 53 48 90 -2 22 -9 52 -15 67 -13 33
-88 83 -155 103 -61 19 -226 45 -279 44 -33 -1 -293 6 -528 14 -31 1 -57 1
-57 0z m767 -93 c139 -32 205 -84 187 -147 l-8 -28 -3 25 c-9 62 -14 70 -61
94 -26 13 -74 31 -107 39 -57 14 -371 44 -379 36 -2 -2 -1 -78 2 -168 l5 -164
106 7 c106 6 184 18 254 38 20 6 40 9 42 6 10 -10 -148 -47 -225 -53 -189 -15
-180 -12 -182 -53 l-1 -37 -4 35 c-3 19 -10 38 -16 42 -9 6 -9 8 0 8 9 0 11
27 8 98 -2 53 -4 130 -5 170 l0 73 -62 -5 c-50 -4 -55 -3 -28 4 65 16 375 3
477 -20z m-7 -61 c50 -14 100 -54 100 -79 0 -54 -158 -109 -315 -110 l-60 0
-2 99 -2 100 27 4 c51 7 208 -1 252 -14z"/>
<path d="M5245 2860 c-145 -14 -256 -58 -349 -139 -10 -9 -32 -43 -49 -76 -26
-52 -31 -73 -35 -155 -4 -89 -2 -99 27 -164 47 -102 139 -180 258 -218 53 -17
90 -21 173 -20 145 3 227 25 320 87 64 42 81 61 115 120 39 67 40 73 43 176 4
102 2 109 -27 165 -16 32 -40 71 -53 86 -58 66 -195 131 -303 142 -22 2 -76 0
-120 -4z m97 -131 c65 -13 120 -58 159 -130 21 -41 16 -220 -7 -262 -23 -40
-87 -97 -121 -107 -80 -23 -126 -23 -185 0 -49 18 -63 30 -92 74 -49 73 -65
170 -42 251 23 78 81 140 156 165 67 23 64 23 132 9z m303 -302 c-21 -91 -55
-155 -108 -199 -55 -46 -70 -53 -151 -73 -84 -21 -198 -16 -268 12 -26 10 -71
39 -100 64 -47 40 -57 57 -81 126 -26 73 -27 85 -18 143 6 34 12 64 14 66 1 2
3 -34 2 -79 0 -91 10 -150 28 -169 7 -7 25 -30 40 -51 32 -42 126 -94 183
-102 20 -2 45 -7 55 -10 37 -12 171 16 232 48 111 58 177 189 164 329 l-6 63
15 -48 c14 -43 14 -55 -1 -120z"/>
<path d="M662 2791 c-78 -68 -157 -157 -171 -193 -5 -13 -14 -58 -21 -99 -10
-64 -10 -93 5 -189 9 -63 18 -117 20 -119 14 -13 69 61 127 172 37 71 43 91
98 324 17 73 33 139 36 148 13 32 -27 13 -94 -44z"/>
<path d="M7282 2733 c15 -65 32 -134 37 -153 5 -19 14 -57 20 -85 15 -62 78
-199 102 -221 11 -10 19 -22 19 -29 0 -6 11 -22 26 -35 21 -21 27 -22 34 -10
14 23 24 116 24 225 0 147 -15 183 -122 293 -92 94 -137 132 -157 132 -9 0 -4
-34 17 -117z"/>
<path d="M637 2318 c-9 -18 -22 -42 -29 -53 -7 -11 -22 -36 -35 -56 -45 -76
-66 -219 -48 -330 9 -51 50 -149 62 -149 15 0 68 62 99 115 28 48 29 55 29
180 0 104 -5 150 -24 228 -13 53 -27 97 -31 97 -3 0 -14 -15 -23 -32z"/>
<path d="M7337 2323 c-3 -16 -15 -71 -27 -123 -32 -138 -26 -273 15 -353 16
-31 44 -72 63 -90 l33 -32 19 25 c72 95 70 339 -4 460 -32 53 -55 93 -68 118
-15 29 -25 28 -31 -5z"/>
<path d="M145 2260 c-3 -5 -2 -68 4 -139 11 -141 41 -237 101 -332 42 -65 120
-133 176 -155 62 -24 70 -14 54 73 -40 211 -121 377 -247 501 -64 63 -77 70
-88 52z"/>
<path d="M7826 2251 c-71 -47 -154 -158 -218 -291 -27 -56 -71 -210 -83 -287
-8 -54 7 -62 67 -35 123 54 237 226 267 399 12 72 15 233 4 233 -4 0 -21 -9
-37 -19z"/>
<path d="M737 1860 c-8 -19 -18 -59 -22 -89 -4 -29 -17 -74 -28 -100 -14 -32
-20 -65 -20 -111 1 -56 7 -78 45 -155 74 -150 123 -229 138 -220 11 7 35 92
51 182 26 150 -34 386 -126 498 l-24 29 -14 -34z"/>
<path d="M7224 1848 c-88 -131 -136 -329 -115 -472 12 -79 23 -125 43 -176
l10 -25 22 28 c33 44 73 114 117 207 35 74 41 94 41 155 1 49 -5 85 -20 120
-11 28 -23 68 -27 90 -9 57 -27 115 -35 115 -4 0 -20 -19 -36 -42z"/>
<path d="M207 1703 c-3 -4 6 -30 19 -58 13 -27 40 -99 59 -161 34 -109 79
-191 132 -241 68 -65 221 -118 283 -98 26 8 25 25 -6 87 -14 28 -32 69 -40 90
-15 43 -65 120 -103 160 -27 27 -187 138 -200 138 -5 0 -26 13 -47 28 -70 51
-92 63 -97 55z"/>
<path d="M7790 1702 c-8 -3 -38 -22 -67 -44 -29 -21 -56 -38 -62 -38 -17 0
-175 -111 -204 -144 -53 -60 -86 -114 -111 -177 -13 -35 -32 -79 -41 -97 -15
-30 -16 -36 -2 -49 11 -12 28 -13 80 -8 87 10 196 69 240 131 17 24 34 44 37
44 7 0 51 114 85 220 10 30 29 79 42 108 26 58 26 62 3 54z"/>
<path d="M2960 1694 c0 -2 25 -11 56 -21 30 -9 59 -24 63 -33 5 -8 11 -74 14
-147 l6 -132 -62 -29 -62 -30 61 -1 c33 -1 122 2 197 6 l135 6 0 114 c0 62 -1
113 -3 113 -1 0 -17 -38 -35 -85 l-33 -85 -59 0 -59 0 2 138 2 137 56 27 56
27 -167 -1 c-93 0 -168 -2 -168 -4z"/>
<path d="M3710 1607 c-50 -95 -72 -129 -79 -122 -3 4 -25 41 -47 83 l-42 77
-108 2 -109 2 57 -26 c64 -29 60 -19 74 -204 l6 -87 -66 -22 c-36 -12 -66 -24
-66 -26 0 -2 75 -4 168 -3 l167 1 -77 25 -78 25 0 86 c0 98 -2 98 64 -20 21
-38 42 -68 47 -68 4 0 26 37 48 83 61 124 61 124 61 21 l0 -92 -42 -20 -43
-20 142 -4 c78 -2 139 -1 136 2 -2 3 -25 12 -51 21 l-47 16 1 94 c3 193 -2
174 51 194 57 22 44 30 -63 38 l-71 6 -33 -62z"/>
<path d="M4789 1666 c-2 -2 -76 -9 -164 -15 -88 -7 -173 -14 -189 -18 -24 -5
-28 -3 -23 11 5 14 -1 16 -46 15 -82 -1 -336 -25 -344 -32 -3 -4 1 -7 11 -7 9
0 35 -9 56 -20 l40 -20 0 -134 0 -133 -52 -21 -53 -21 75 -1 c41 -1 111 -3
154 -5 l79 -2 -49 19 c-65 26 -72 34 -66 91 5 61 29 63 63 5 l24 -43 3 58 c2
31 2 83 0 115 l-3 57 -23 -42 c-15 -29 -29 -43 -42 -43 -18 0 -20 7 -20 60 l0
60 64 0 64 0 28 -70 c15 -39 28 -69 30 -67 2 1 4 37 5 80 2 85 1 84 69 53 25
-11 25 -14 28 -138 l3 -126 -48 -18 c-26 -9 -52 -21 -57 -26 -6 -4 77 -8 182
-8 145 0 194 3 197 13 7 22 10 176 3 169 -3 -4 -15 -34 -26 -67 l-19 -60 -75
-3 -74 -3 0 43 c1 36 4 43 23 46 16 2 29 -7 49 -37 15 -23 27 -41 28 -41 0 0
2 55 3 122 2 66 0 118 -4 114 -4 -4 -17 -26 -28 -49 -14 -27 -29 -43 -43 -45
-21 -3 -22 1 -22 60 l0 64 70 2 71 3 25 -56 c15 -31 27 -55 29 -53 2 2 6 40 9
86 6 71 1 94 -15 78z"/>
<path d="M2523 1646 c-73 -6 -135 -15 -139 -19 -4 -4 0 -7 10 -7 9 0 35 -9 56
-20 l40 -20 0 -134 0 -133 -52 -21 -53 -21 75 -2 c41 -1 108 -2 149 -3 l73 -2
-53 25 c-30 14 -54 32 -53 39 1 6 2 30 3 52 2 55 29 54 62 -2 l24 -43 3 58 c2
31 2 83 0 115 l-3 57 -23 -42 c-15 -29 -29 -43 -42 -43 -18 0 -20 7 -20 60 l0
60 64 0 64 0 29 -72 28 -73 3 88 c2 79 5 88 20 82 9 -4 29 -12 45 -17 30 -11
27 10 31 -217 l1 -95 -55 -22 -55 -23 148 -1 c81 0 147 2 147 4 0 3 -22 12
-49 21 -28 9 -51 20 -53 25 -2 5 -1 75 2 156 l5 146 55 24 55 23 -116 1 c-64
0 -156 2 -205 4 -49 3 -148 -1 -221 -8z"/>
<path d="M5132 1620 c-22 -30 -23 -30 -54 -14 -41 21 -145 21 -186 0 -36 -19
-52 -43 -52 -81 0 -54 23 -71 154 -112 95 -29 102 -71 14 -80 -53 -5 -103 23
-122 68 -12 29 -13 27 -22 -55 -9 -85 -3 -110 16 -61 11 29 8 29 53 10 104
-43 227 3 227 85 0 63 -43 93 -186 130 -72 18 -63 70 12 70 47 0 77 -14 117
-54 l36 -35 5 27 c9 49 18 132 14 132 -2 0 -14 -14 -26 -30z"/>
<path d="M5194 1592 c3 -25 6 -62 6 -83 0 -56 13 -48 33 21 17 56 20 60 48 60
21 0 29 -5 29 -17 1 -10 3 -65 6 -123 l6 -105 -56 -24 c-31 -13 -55 -26 -52
-28 5 -6 296 -12 296 -6 0 2 -25 15 -55 29 l-55 25 0 78 c0 43 3 99 6 125 7
45 8 47 37 44 27 -3 32 -9 44 -53 8 -27 18 -53 22 -58 4 -4 12 29 17 73 l9 80
-50 1 c-27 1 -106 2 -174 3 l-123 2 6 -44z"/>
<path d="M939 1538 c0 -13 -4 -59 -8 -103 -5 -44 -5 -138 -1 -211 10 -149 26
-194 102 -289 57 -70 77 -83 94 -60 20 26 36 119 36 199 -1 79 -49 251 -83
295 -11 13 -19 28 -19 33 0 14 -102 158 -112 158 -4 0 -8 -10 -9 -22z"/>
<path d="M7007 1492 c-65 -95 -91 -146 -126 -250 -26 -75 -31 -104 -30 -178 0
-90 24 -194 45 -201 12 -4 84 67 116 114 47 70 59 116 67 248 5 72 5 168 0
215 -4 47 -8 93 -8 103 -1 30 -16 19 -64 -51z"/>
<path d="M1227 1262 c-3 -4 -13 -43 -22 -86 -22 -100 -16 -254 14 -338 33 -96
107 -186 180 -222 45 -21 58 -20 72 5 16 31 7 111 -33 279 -23 100 -194 392
-211 362z"/>
<path d="M6750 1239 c-13 -17 -29 -41 -35 -53 -6 -12 -29 -53 -52 -91 -59
-103 -78 -145 -91 -195 -50 -204 -53 -300 -7 -300 19 0 98 43 122 66 39 38 85
116 109 186 19 57 24 92 24 172 0 92 -24 246 -39 246 -3 0 -17 -14 -31 -31z"/>
<path d="M424 1129 c8 -49 68 -162 113 -213 18 -20 34 -36 37 -36 3 0 20 -14
38 -30 18 -17 69 -49 113 -72 70 -36 90 -41 166 -45 81 -5 87 -4 115 20 26 23
27 27 13 39 -9 7 -50 55 -93 106 -43 50 -92 103 -109 116 -53 39 -142 83 -199
97 -29 7 -57 16 -63 20 -5 4 -27 10 -48 14 -20 4 -40 11 -43 16 -3 5 -14 9
-26 9 -18 0 -20 -4 -14 -41z"/>
<path d="M7520 1153 c-25 -8 -54 -18 -65 -23 -11 -4 -42 -14 -69 -21 -28 -7
-68 -23 -90 -36 -23 -12 -51 -27 -62 -32 -30 -13 -91 -73 -165 -161 -34 -41
-69 -81 -78 -88 -14 -12 -13 -16 13 -39 28 -24 34 -25 115 -20 72 4 98 11 156
40 160 79 267 195 308 335 20 69 17 71 -63 45z"/>
<path d="M1457 1063 c-13 -13 -7 -113 13 -200 22 -100 36 -163 45 -211 4 -17
23 -56 43 -84 58 -85 94 -106 123 -71 18 21 15 139 -5 208 -31 109 -110 262
-171 330 -32 36 -37 39 -48 28z"/>
<path d="M6520 1052 c-130 -146 -233 -421 -198 -528 7 -22 21 -40 30 -42 26
-5 71 34 106 91 31 51 38 76 67 224 8 40 19 89 24 110 6 21 11 66 11 101 0 65
-10 77 -40 44z"/>
<path d="M783 703 c-65 -5 -66 -14 -15 -80 48 -59 117 -117 168 -139 21 -9 47
-20 56 -25 24 -12 165 -11 173 1 3 6 13 10 22 10 23 0 93 59 93 78 -1 31 -177
131 -233 132 -10 0 -26 4 -35 9 -21 11 -159 19 -229 14z"/>
<path d="M3354 702 c2 -4 10 -55 16 -112 12 -102 29 -166 30 -109 0 14 13 46
29 71 32 51 68 66 114 49 22 -9 27 -17 27 -45 0 -28 -7 -40 -33 -60 -19 -15
-38 -26 -43 -26 -5 0 -33 -16 -62 -36 -55 -37 -92 -84 -92 -119 0 -17 7 -20
43 -20 23 -1 88 -3 144 -5 57 -2 105 -2 107 1 2 2 7 45 10 94 l6 90 -32 -62
-32 -63 -69 0 c-65 0 -69 1 -56 18 21 26 40 39 95 66 62 30 94 67 94 112 0 51
-19 82 -65 104 -52 25 -101 25 -142 1 l-31 -20 -26 40 c-15 21 -29 39 -32 39
-3 0 -3 -3 0 -8z"/>
<path d="M4314 702 c2 -4 10 -55 16 -112 12 -102 29 -166 30 -109 0 14 13 46
29 71 32 51 68 66 114 49 22 -9 27 -17 27 -45 0 -37 -27 -66 -85 -91 -55 -23
-115 -75 -132 -113 -10 -20 -18 -38 -19 -40 -1 -2 -17 4 -35 13 l-32 17 6 164
c4 90 3 164 -1 164 -4 0 -41 -7 -82 -16 -41 -9 -91 -20 -110 -24 -39 -8 -39
-8 55 -27 39 -8 40 -10 47 -58 3 -28 7 -85 7 -127 l1 -78 -55 -27 -54 -28 148
0 c84 0 147 4 144 9 -3 5 13 6 38 3 55 -8 217 -12 223 -6 2 2 7 45 10 94 l6
90 -32 -62 -32 -63 -69 0 c-65 0 -69 1 -56 18 21 26 40 39 95 66 62 30 94 67
94 112 0 51 -19 82 -65 104 -52 25 -101 25 -142 1 l-31 -20 -26 40 c-15 21
-29 39 -32 39 -3 0 -3 -3 0 -8z"/>
<path d="M7060 699 c-69 -8 -159 -33 -208 -58 -54 -28 -122 -79 -122 -92 0
-17 72 -79 91 -79 10 0 21 -4 24 -10 8 -12 162 -13 169 -1 3 4 20 11 37 15 61
12 229 165 229 208 0 18 0 18 -135 23 -16 0 -55 -2 -85 -6z"/>
<path d="M3838 620 c-101 -13 -158 -72 -158 -163 1 -120 154 -195 271 -134
124 66 115 240 -14 295 -15 7 -31 11 -35 11 -4 -1 -32 -5 -64 -9z m86 -81 c49
-57 25 -160 -41 -178 -71 -20 -121 37 -110 122 11 84 100 117 151 56z"/>
<path d="M1275 460 c-3 -5 -15 -10 -26 -10 -11 0 -39 -9 -62 -19 -23 -11 -60
-22 -82 -26 -34 -5 -77 -20 -94 -32 -8 -5 72 -83 85 -83 6 0 17 -7 24 -15 7
-8 20 -15 29 -15 9 0 29 -7 45 -15 19 -10 58 -15 119 -15 84 0 96 3 164 36 80
40 123 85 107 112 -6 8 -28 21 -50 29 -21 7 -48 17 -59 23 -83 39 -185 55
-200 30z"/>
<path d="M6530 429 c-52 -22 -99 -44 -104 -49 -12 -12 24 -68 55 -86 93 -54
129 -64 224 -64 51 0 96 4 99 9 3 5 21 12 40 15 19 4 39 13 46 21 7 8 18 15
24 15 13 0 93 78 85 82 -30 19 -52 28 -66 28 -18 0 -163 46 -195 61 -38 19
-113 7 -208 -32z"/>
<path d="M1588 291 c-37 -20 -101 -57 -143 -83 -42 -27 -80 -48 -86 -48 -6 0
-9 -7 -7 -16 3 -15 23 -25 109 -53 43 -13 171 -15 213 -1 47 14 157 41 196 47
41 7 50 17 50 58 0 23 -10 41 -37 67 -82 80 -184 90 -295 29z"/>
<path d="M6200 312 c-56 -27 -110 -86 -110 -120 0 -34 13 -47 55 -55 41 -8
153 -36 191 -47 40 -13 169 -13 208 0 17 5 51 16 76 24 24 7 46 18 48 24 1 5
-16 19 -39 31 -23 12 -67 38 -98 59 -78 51 -94 60 -111 67 -8 3 -28 13 -43 21
-39 19 -134 18 -177 -4z"/>
</g>
</svg>
