<svg xmlns="http://www.w3.org/2000/svg" viewBox="0 0 129.4 59.48"><title>lynch-daroca-prision-laurel</title><path d="M73.71,77.49C69.5,74.58,66,77.13,62.79,80,66.93,81.14,71.31,81.65,73.71,77.49Z" transform="translate(-37.17 -21.34)"/><path d="M72.7,75c-.19-5.12-4.32-6.41-8.55-7.26C65.72,71.72,67.92,75.55,72.7,75Z" transform="translate(-37.17 -21.34)"/><path d="M66.19,75.18c-4-3.25-7.66-1-11.1,1.6C59.12,78.25,63.45,79.13,66.19,75.18Z" transform="translate(-37.17 -21.34)"/><path d="M62.52,72.75C65,68.27,62.1,65,58.91,62.14,58.2,66.37,58.14,70.78,62.52,72.75Z" transform="translate(-37.17 -21.34)"/><path d="M59.32,72.65c-2.91-4.21-7.09-3.07-11.11-1.51C51.68,73.66,55.59,75.69,59.32,72.65Z" transform="translate(-37.17 -21.34)"/><path d="M55.21,68.9c3.76-3.47,2-7.45-.05-11.22C53.15,61.47,51.68,65.63,55.21,68.9Z" transform="translate(-37.17 -21.34)"/><path d="M53.21,68.47c-2.06-4.69-6.38-4.36-10.63-3.6C45.51,68,49,70.75,53.21,68.47Z" transform="translate(-37.17 -21.34)"/><path d="M49.77,63.94c4.35-2.71,3.41-6.94,2-11C49.13,56.26,46.91,60.07,49.77,63.94Z" transform="translate(-37.17 -21.34)"/><path d="M48.26,63.3c-1.14-5-5.44-5.49-9.75-5.54C40.79,61.39,43.67,64.74,48.26,63.3Z" transform="translate(-37.17 -21.34)"/><path d="M47,56c4.62-2.2,4.17-6.51,3.28-10.73C47.2,48.26,44.57,51.8,47,56Z" transform="translate(-37.17 -21.34)"/><path d="M46.2,57.39c-.54-5.09-4.75-6.1-9-6.66C39,54.61,41.47,58.27,46.2,57.39Z" transform="translate(-37.17 -21.34)"/><path d="M45,47.62c5-1.11,5.52-5.41,5.6-9.72C47,40.16,43.61,43,45,47.62Z" transform="translate(-37.17 -21.34)"/><path d="M44,51.37c1.45-4.91-2.06-7.44-5.8-9.59C38.46,46.06,39.34,50.39,44,51.37Z" transform="translate(-37.17 -21.34)"/><path d="M47,38c5.11.25,6.75-3.76,8-7.89-4.12,1.21-8.11,3.08-8,7.89Z" transform="translate(-37.17 -21.34)"/><path d="M43.7,43.48c3.07-4.1.66-7.7-2.09-11C40.32,36.55,39.63,40.91,43.7,43.48Z" transform="translate(-37.17 -21.34)"/><path d="M49.23,30.68c5.11-.29,6.31-4.46,7.07-8.7C52.34,23.63,48.57,25.92,49.23,30.68Z" transform="translate(-37.17 -21.34)"/><path d="M46,35.1c3.84-3.39,2.22-7.4.2-11.21C44.06,27.63,42.51,31.76,46,35.1Z" transform="translate(-37.17 -21.34)"/><path d="M141,79.37c-3.21-2.88-6.71-5.43-10.93-2.53C132.43,81,136.82,80.5,141,79.37Z" transform="translate(-37.17 -21.34)"/><path d="M139.6,67.09c-4.23.85-8.37,2.14-8.56,7.25C135.82,74.9,138,71.08,139.6,67.09Z" transform="translate(-37.17 -21.34)"/><path d="M148.65,76.14c-3.44-2.61-7.14-4.85-11.1-1.6C140.3,78.48,144.62,77.61,148.65,76.14Z" transform="translate(-37.17 -21.34)"/><path d="M144.84,61.49c-3.2,2.91-6.08,6.13-3.62,10.62C145.61,70.14,145.54,65.73,144.84,61.49Z" transform="translate(-37.17 -21.34)"/><path d="M155.54,70.5c-4-1.56-8.2-2.7-11.12,1.51C148.15,75.05,152.07,73,155.54,70.5Z" transform="translate(-37.17 -21.34)"/><path d="M148.58,57c-2.1,3.77-3.81,7.75,0,11.21C152.06,65,150.6,60.83,148.58,57Z" transform="translate(-37.17 -21.34)"/><path d="M161.16,64.23c-4.25-.77-8.56-1.09-10.62,3.6C154.77,70.11,158.23,67.36,161.16,64.23Z" transform="translate(-37.17 -21.34)"/><path d="M151.93,52.27c-1.36,4.09-2.31,8.32,2,11C156.83,59.43,154.62,55.62,151.93,52.27Z" transform="translate(-37.17 -21.34)"/><path d="M165.24,57.12c-4.32.05-8.62.55-9.75,5.54C160.08,64.1,163,60.75,165.24,57.12Z" transform="translate(-37.17 -21.34)"/><path d="M153.49,44.6c-.89,4.22-1.34,8.53,3.29,10.72C159.18,51.16,156.54,47.62,153.49,44.6Z" transform="translate(-37.17 -21.34)"/><path d="M166.57,50.09c-4.28.56-8.49,1.57-9,6.66C162.28,57.63,164.74,54,166.57,50.09Z" transform="translate(-37.17 -21.34)"/><path d="M153.12,37.26c.08,4.31.6,8.61,5.6,9.71C160.13,42.38,156.77,39.52,153.12,37.26Z" transform="translate(-37.17 -21.34)"/><path d="M165.51,41.13c-3.74,2.15-7.26,4.69-5.81,9.6C164.41,49.74,165.29,45.42,165.51,41.13Z" transform="translate(-37.17 -21.34)"/><path d="M156.76,37.32c.14-4.8-3.86-6.67-8-7.89,1.21,4.14,2.85,8.15,8,7.89Z" transform="translate(-37.17 -21.34)"/><path d="M162.13,31.82c-2.75,3.32-5.16,6.92-2.08,11C164.11,40.27,163.42,35.91,162.13,31.82Z" transform="translate(-37.17 -21.34)"/><path d="M147.44,21.34c.77,4.24,2,8.4,7.08,8.7C155.18,25.28,151.4,23,147.44,21.34Z" transform="translate(-37.17 -21.34)"/><path d="M157.58,23.24c-2,3.81-3.64,7.83.2,11.22C161.24,31.12,159.68,27,157.58,23.24Z" transform="translate(-37.17 -21.34)"/><path d="M62.48,33.32a.52.52,0,0,1,.18-.42.68.68,0,0,1,.45-.15,3.67,3.67,0,0,1,2.75,1.41A4.26,4.26,0,0,1,67.08,37a3.28,3.28,0,0,1-.9,2.32,3.49,3.49,0,0,1-2.27,1.11l-.74.18a.57.57,0,0,1-.57-.44,2.67,2.67,0,0,1-.1-.84v-.24c0-.82,0-1.67.07-2.55s.12-1.79.22-2.71a.84.84,0,0,1-.22-.24A.52.52,0,0,1,62.48,33.32ZM65.94,37a2.67,2.67,0,0,0-.56-1.64A3.25,3.25,0,0,0,64,34.26a39.88,39.88,0,0,0-.32,5,2.22,2.22,0,0,0,1.61-.67A2.24,2.24,0,0,0,65.94,37Z" transform="translate(-37.17 -21.34)"/><path d="M72.79,38.27c0,.32-.13.49-.38.49l-.14,0c.09.26.16.46.21.58a4.13,4.13,0,0,0,.26.56l.06.13a.47.47,0,0,1,0,.14.41.41,0,0,1-.18.34.71.71,0,0,1-.4.13c-.38,0-.69-.35-.92-1,0-.08-.1-.36-.23-.85h-.94c-.54,0-.87.07-1,.21a2,2,0,0,0-.25,1.26.32.32,0,0,1-.17.27.54.54,0,0,1-.33.11.62.62,0,0,1-.48-.2.71.71,0,0,1-.18-.5,11.8,11.8,0,0,1,.48-1.95c.33-1.1.65-2.08,1-3A7.48,7.48,0,0,1,70,33.12a.66.66,0,0,1,.48-.18.72.72,0,0,1,.59.31s.11.49.29,1.43.37,1.92.56,2.91a1.29,1.29,0,0,1,.66.26A.57.57,0,0,1,72.79,38.27Zm-2.5-3c-.15.39-.29.77-.43,1.15s-.26.79-.38,1.23c.22,0,.44-.06.65-.07s.43,0,.67,0c0-.24-.12-.62-.24-1.13Z" transform="translate(-37.17 -21.34)"/><path d="M73.53,33.7a.51.51,0,0,1,.2-.44.76.76,0,0,1,.48-.15.62.62,0,0,1,.47-.24.76.76,0,0,1,.53.23,4.3,4.3,0,0,1,1.89.41A1.65,1.65,0,0,1,78.18,35a1.71,1.71,0,0,1-.77,1.36,5,5,0,0,1-1.47.74L77,38.59a4.79,4.79,0,0,0,1.34,1.19.84.84,0,0,0,.05.17.62.62,0,0,1-.23.46.8.8,0,0,1-.5.2,1.89,1.89,0,0,1-1.18-.73,13.58,13.58,0,0,1-1.64-2.22l0,.92A8.08,8.08,0,0,0,75,40.26a.47.47,0,0,1-.23.27.75.75,0,0,1-.37.09.64.64,0,0,1-.59-.32A2.55,2.55,0,0,1,73.6,39v-.46c0-.77,0-1.51.08-2.22s.15-1.41.27-2.12a1,1,0,0,1-.3-.18A.48.48,0,0,1,73.53,33.7Zm3.61,1.24c0-.31-.39-.53-1.15-.66a5.25,5.25,0,0,0-.81-.08c0,.22-.06.46-.1.72s-.08.7-.14,1.34a6.11,6.11,0,0,0,1.31-.44C76.84,35.55,77.14,35.25,77.14,34.94Z" transform="translate(-37.17 -21.34)"/><path d="M82.16,33.07a1.54,1.54,0,0,1,1.42,1.14,5.27,5.27,0,0,1,.35,2A6.6,6.6,0,0,1,83.36,39a2.4,2.4,0,0,1-2.23,1.57,1.86,1.86,0,0,1-1.74-1.05,4.35,4.35,0,0,1-.46-2.12,8.36,8.36,0,0,1,.59-2.78c.48-1.32,1-2,1.67-2a.53.53,0,0,1,.35.13.87.87,0,0,1,.24.32l.18,0Zm-2,4.37a4,4,0,0,0,.16,1.25c.17.5.45.74.85.74.64,0,1.09-.65,1.33-2a8.11,8.11,0,0,0,.15-1.5,4.72,4.72,0,0,0-.11-1.15c-.14-.48-.4-.72-.77-.72a.86.86,0,0,0-.76.59c-.19.39-.36.59-.5.59a7.59,7.59,0,0,0-.26,1.07A6.68,6.68,0,0,0,80.2,37.44Z" transform="translate(-37.17 -21.34)"/><path d="M89,38.12a2.64,2.64,0,0,1-.63,1.73,2.06,2.06,0,0,1-1.62.8,1.86,1.86,0,0,1-1.61-.79,3,3,0,0,1-.52-1.78,7.47,7.47,0,0,1,.33-1.9,8.77,8.77,0,0,1,.89-2.24c.43-.73.88-1.1,1.35-1.1a1.32,1.32,0,0,1,1.09.71,2.3,2.3,0,0,1,.4,1.28,1.16,1.16,0,0,1-.15.6.52.52,0,0,1-.48.26.49.49,0,0,1-.37-.11.42.42,0,0,1-.09-.29,1.31,1.31,0,0,1,0-.17,1.23,1.23,0,0,0,0-.17,1.12,1.12,0,0,0-.09-.44.55.55,0,0,0-.27-.29c-.39.14-.73.71-1,1.7A7.56,7.56,0,0,0,85.84,38,2.73,2.73,0,0,0,86,39a.76.76,0,0,0,.73.56c.49,0,.84-.35,1-1s.44-1,.72-1a.44.44,0,0,1,.38.19A.73.73,0,0,1,89,38.12Z" transform="translate(-37.17 -21.34)"/><path d="M94.72,38.27c0,.32-.13.49-.38.49l-.14,0c.09.26.16.46.21.58a4.13,4.13,0,0,0,.26.56l.06.13a.47.47,0,0,1,0,.14.41.41,0,0,1-.18.34.71.71,0,0,1-.4.13c-.38,0-.69-.35-.92-1,0-.08-.1-.36-.23-.85h-.94c-.54,0-.87.07-1,.21a2,2,0,0,0-.25,1.26.32.32,0,0,1-.17.27.54.54,0,0,1-.33.11.62.62,0,0,1-.48-.2.71.71,0,0,1-.18-.5,11.8,11.8,0,0,1,.48-1.95c.33-1.1.65-2.08,1-3A7.48,7.48,0,0,1,92,33.12a.67.67,0,0,1,.49-.18.7.7,0,0,1,.58.31s.11.49.29,1.43.37,1.92.56,2.91a1.29,1.29,0,0,1,.66.26A.57.57,0,0,1,94.72,38.27Zm-2.49-3c-.16.39-.3.77-.44,1.15s-.26.79-.38,1.23c.22,0,.44-.06.65-.07s.43,0,.67,0c0-.24-.12-.62-.24-1.13S92.28,35.58,92.23,35.32Z" transform="translate(-37.17 -21.34)"/><path d="M103.23,37.06a1,1,0,0,0-.07-.38l-.15-.37a.44.44,0,0,1,.24-.29.73.73,0,0,1,.37-.12.64.64,0,0,1,.58.46,2.15,2.15,0,0,1,.13.79,2.31,2.31,0,0,1-.41,1.35,1.8,1.8,0,0,0,.29.12l.25,0h.2c.12,0,.21.08.28.22a1.21,1.21,0,0,1,.1.44.58.58,0,0,1-.16.4.5.5,0,0,1-.4.17,1.73,1.73,0,0,1-.66-.15,5.38,5.38,0,0,1-.62-.32,5.49,5.49,0,0,1-1.22.86,3.07,3.07,0,0,1-1.35.34,2.12,2.12,0,0,1-1.44-.52,1.72,1.72,0,0,1-.59-1.37A2.06,2.06,0,0,1,99,37.55a4.39,4.39,0,0,1,.89-.9,3.63,3.63,0,0,1-.22-.56,2,2,0,0,1-.09-.58,2.3,2.3,0,0,1,1-1.84,3.17,3.17,0,0,1,2-.73,1.12,1.12,0,0,1,.93.51,1.83,1.83,0,0,1,.38,1.1q0,.64-1.29,1.56l-1,.7a7.45,7.45,0,0,0,.69.59l.75.53A1.65,1.65,0,0,0,103.23,37.06Zm-2.67.5a2.39,2.39,0,0,0-.53.52,1.17,1.17,0,0,0-.23.69.65.65,0,0,0,.22.52.89.89,0,0,0,.58.18,2.15,2.15,0,0,0,.82-.17,3.78,3.78,0,0,0,.79-.49c-.25-.17-.53-.37-.84-.61Zm2.11-3.16a.31.31,0,0,0-.11-.25.45.45,0,0,0-.28-.09,1.57,1.57,0,0,0-1.06.45,1.31,1.31,0,0,0-.51,1,.64.64,0,0,0,0,.2c0,.07.05.15.09.26.59-.37,1-.6,1.07-.69C102.41,34.9,102.67,34.6,102.67,34.4Z" transform="translate(-37.17 -21.34)"/><path d="M109.49,34.26a.8.8,0,0,1-.29-.18.44.44,0,0,1-.11-.3c0-.18.14-.37.4-.56a1.15,1.15,0,0,1,.65-.3.62.62,0,0,1,.48.23,4.65,4.65,0,0,1,2.52.8,1.67,1.67,0,0,1,.68,1.39,1.82,1.82,0,0,1-.72,1.45,5.48,5.48,0,0,1-2.69,1c0,.17,0,.42,0,.76s0,.59,0,.76a2.56,2.56,0,0,0,.11.55,1.16,1.16,0,0,1,.06.32.55.55,0,0,1-.6.38.67.67,0,0,1-.66-.49,3.09,3.09,0,0,1-.15-1.09c0-.26,0-.49,0-.69s0-.42.06-.68a1.54,1.54,0,0,1-.18-.27.67.67,0,0,1-.08-.3l.07-.19.24-.1a14.2,14.2,0,0,1,.13-1.56C109.43,34.72,109.47,34.4,109.49,34.26Zm3.2,1c0-.33-.21-.59-.64-.78a2.74,2.74,0,0,0-1.08-.22l-.25,0c-.07.52-.12.9-.15,1.16a8.83,8.83,0,0,0-.08,1.17,4.18,4.18,0,0,0,1.34-.39C112.41,36,112.69,35.65,112.69,35.29Z" transform="translate(-37.17 -21.34)"/><path d="M114.44,33.7a.54.54,0,0,1,.2-.44.81.81,0,0,1,.48-.15.64.64,0,0,1,.47-.24.75.75,0,0,1,.53.23,4.31,4.31,0,0,1,1.9.41A1.65,1.65,0,0,1,119.1,35a1.73,1.73,0,0,1-.77,1.36,5,5,0,0,1-1.47.74l1.07,1.47a4.76,4.76,0,0,0,1.33,1.19.85.85,0,0,0,.06.17.6.6,0,0,1-.24.46.78.78,0,0,1-.5.2,1.89,1.89,0,0,1-1.17-.73,13,13,0,0,1-1.65-2.22l0,.92a8.14,8.14,0,0,0,.2,1.68.56.56,0,0,1-.23.27.75.75,0,0,1-.37.09.66.66,0,0,1-.6-.32,2.66,2.66,0,0,1-.23-1.29v-.46q0-1.15.09-2.22c.06-.7.15-1.41.27-2.12a.78.78,0,0,1-.3-.18A.44.44,0,0,1,114.44,33.7Zm3.61,1.24c0-.31-.38-.53-1.15-.66a5,5,0,0,0-.8-.08c0,.22-.06.46-.1.72s-.08.7-.14,1.34a6.11,6.11,0,0,0,1.31-.44C117.76,35.55,118.05,35.25,118.05,34.94Z" transform="translate(-37.17 -21.34)"/><path d="M121.39,40.2a.32.32,0,0,1-.2.28.88.88,0,0,1-.4.1.66.66,0,0,1-.7-.5,3.51,3.51,0,0,1-.09-1c0-.58,0-1.21.08-1.9s.11-1.4.16-2.13.09-1.35.09-1.83a.3.3,0,0,1,.18-.27.81.81,0,0,1,.37-.09,1,1,0,0,1,.54.17.54.54,0,0,1,.26.45,4.2,4.2,0,0,1-.06.69q-.06.38-.12.72a42,42,0,0,0-.26,4.61.69.69,0,0,0,.05.26C121.35,40,121.39,40.17,121.39,40.2Z" transform="translate(-37.17 -21.34)"/><path d="M122.77,38.69a4.7,4.7,0,0,0,.75.6,1.67,1.67,0,0,0,.94.26,2.86,2.86,0,0,0,.72-.08c.32-.09.49-.24.49-.45s-.28-.38-.83-.62a9.56,9.56,0,0,1-1.54-.79,1.83,1.83,0,0,1-.83-1.5c0-.6.49-1.27,1.48-2A4.31,4.31,0,0,1,126.31,33a.81.81,0,0,1,.78.49,2.29,2.29,0,0,1,.19,1,3.17,3.17,0,0,1-.14,1,.75.75,0,0,1-.73.59.55.55,0,0,1-.31-.1.52.52,0,0,1-.18-.29c.1-.21.17-.36.2-.44a1.08,1.08,0,0,0,0-.4,1.4,1.4,0,0,0,0-.37.2.2,0,0,0-.21-.16,2.61,2.61,0,0,0-1.35.68c-.58.45-.87.83-.87,1.15s.28.52.85.81l1.6.82A1.54,1.54,0,0,1,127,39a1.37,1.37,0,0,1-1,1.27,5,5,0,0,1-1.76.29,3.48,3.48,0,0,1-1.27-.21,1,1,0,0,1-.74-.92,1,1,0,0,1,.14-.53A.47.47,0,0,1,122.77,38.69Z" transform="translate(-37.17 -21.34)"/><path d="M129.43,40.2a.32.32,0,0,1-.2.28.88.88,0,0,1-.4.1.66.66,0,0,1-.7-.5,3.51,3.51,0,0,1-.09-1c0-.58,0-1.21.08-1.9s.1-1.4.16-2.13.09-1.35.09-1.83a.3.3,0,0,1,.18-.27.81.81,0,0,1,.37-.09,1,1,0,0,1,.54.17.53.53,0,0,1,.25.45,4.15,4.15,0,0,1-.05.69q-.06.38-.12.72a42,42,0,0,0-.26,4.61.92.92,0,0,0,0,.26A3.39,3.39,0,0,1,129.43,40.2Z" transform="translate(-37.17 -21.34)"/><path d="M133.64,33.07a1.53,1.53,0,0,1,1.41,1.14,5.07,5.07,0,0,1,.36,2,6.6,6.6,0,0,1-.58,2.86,2.4,2.4,0,0,1-2.23,1.57,1.88,1.88,0,0,1-1.74-1.05,4.46,4.46,0,0,1-.46-2.12,8.36,8.36,0,0,1,.59-2.78c.48-1.32,1-2,1.67-2a.51.51,0,0,1,.35.13,1,1,0,0,1,.25.32l.17,0Zm-2,4.37a4,4,0,0,0,.16,1.25c.17.5.45.74.85.74.65,0,1.09-.65,1.34-2a9.07,9.07,0,0,0,.15-1.5,4.19,4.19,0,0,0-.12-1.15c-.14-.48-.4-.72-.77-.72a.86.86,0,0,0-.76.59c-.19.39-.36.59-.49.59a6.45,6.45,0,0,0-.27,1.07A6.68,6.68,0,0,0,131.67,37.44Z" transform="translate(-37.17 -21.34)"/><path d="M141,32.91a.59.59,0,0,1,.38.14.39.39,0,0,1,.16.33c0,.42,0,1.07-.12,2s-.13,1.58-.13,2c0,.29,0,.91.12,1.85,0,.47.05.83.05,1.1a.25.25,0,0,1-.19.23.91.91,0,0,1-.35.07q-.47,0-1.2-1.08a15.63,15.63,0,0,1-1.23-2.16c-.12-.23-.37-.78-.76-1.63q0,.39-.06.75c0,.24,0,.52,0,.84,0,.51,0,1,.06,1.48a11.36,11.36,0,0,0,.19,1.41.44.44,0,0,1-.22.26.75.75,0,0,1-.37.09q-.51,0-.72-.69a5,5,0,0,1-.15-1.38v-.46c0-.15,0-.29,0-.42q0-1.32.06-2.25a5.94,5.94,0,0,1,.36-2.1.57.57,0,0,1,.27-.24,1,1,0,0,1,.4-.08l.23,0a.49.49,0,0,1,.19.07q.09,0,.15.3c0,.16.07.32.11.46a15.82,15.82,0,0,0,.83,1.94c.27.53.61,1.16,1,1.87,0-.07,0-.3,0-.68s0-.64,0-.77a8.63,8.63,0,0,1,.28-2.6C140.47,33.14,140.69,32.91,141,32.91Z" transform="translate(-37.17 -21.34)"/><path d="M61.64,43.48H69.3V47H66.16v3.3H69v3.31h-2.8v7.31H61.64Z" transform="translate(-37.17 -21.34)"/><path d="M74.92,43.48v17.4H70.4V43.48Z" transform="translate(-37.17 -21.34)"/><path d="M81.26,43.48V57.4H84v3.48H76.73V43.48Z" transform="translate(-37.17 -21.34)"/><path d="M99.06,43.48v17.4h-4V49.13L93.52,60.88h-2.8L89.06,49.4V60.88h-4V43.48H91c.18,1.05.36,2.28.54,3.7l.64,4.43,1-8.13Z" transform="translate(-37.17 -21.34)"/><path d="M104.75,43.48h7.66V47h-3.14v3.3h2.8v3.31h-2.8v7.31h-4.52Z" transform="translate(-37.17 -21.34)"/><path d="M113.5,43.48h7.55V47h-3v3.3h2.82v3.31H118V57.4h3.32v3.48H113.5Z" transform="translate(-37.17 -21.34)"/><path d="M132.23,48.75H128V47.46a2.64,2.64,0,0,0-.16-1.15.59.59,0,0,0-.54-.25.68.68,0,0,0-.62.34,1.93,1.93,0,0,0-.21,1,2.83,2.83,0,0,0,.24,1.31A3.35,3.35,0,0,0,128,49.78a13.07,13.07,0,0,1,3.8,2.94,6.78,6.78,0,0,1,.78,3.71,6.52,6.52,0,0,1-.43,2.74,3.46,3.46,0,0,1-1.68,1.48,6.76,6.76,0,0,1-2.9.59,6.45,6.45,0,0,1-3.1-.69,3.3,3.3,0,0,1-1.68-1.75,8.83,8.83,0,0,1-.4-3V54.65h4.2v2.11a2.78,2.78,0,0,0,.18,1.26.68.68,0,0,0,.63.28.74.74,0,0,0,.67-.36,2.05,2.05,0,0,0,.22-1,3.28,3.28,0,0,0-.42-2,13.83,13.83,0,0,0-2.12-1.58,19.5,19.5,0,0,1-2.23-1.62,3.74,3.74,0,0,1-.91-1.4,6.1,6.1,0,0,1-.36-2.27,6.35,6.35,0,0,1,.51-2.93,3.47,3.47,0,0,1,1.65-1.44,6.55,6.55,0,0,1,2.75-.52,7.14,7.14,0,0,1,3,.57,3.18,3.18,0,0,1,1.65,1.43,7.81,7.81,0,0,1,.4,2.94Z" transform="translate(-37.17 -21.34)"/><path d="M143.13,43.48V47h-2.68V60.88h-4.53V47h-2.67V43.48Z" transform="translate(-37.17 -21.34)"/></svg>