<svg xmlns="http://www.w3.org/2000/svg" viewBox="0 0 129.4 59.48"><title>lynch-openscreen-laurel</title><path d="M73.71,77.49C69.5,74.58,66,77.13,62.79,80,66.93,81.14,71.31,81.65,73.71,77.49Z" transform="translate(-37.17 -21.34)"/><path d="M72.7,75c-.19-5.12-4.32-6.41-8.55-7.26C65.72,71.72,67.92,75.55,72.7,75Z" transform="translate(-37.17 -21.34)"/><path d="M66.19,75.18c-4-3.25-7.66-1-11.1,1.6C59.12,78.25,63.45,79.13,66.19,75.18Z" transform="translate(-37.17 -21.34)"/><path d="M62.52,72.75C65,68.27,62.1,65,58.91,62.14,58.2,66.37,58.14,70.78,62.52,72.75Z" transform="translate(-37.17 -21.34)"/><path d="M59.32,72.65c-2.91-4.21-7.09-3.07-11.11-1.51C51.68,73.66,55.59,75.69,59.32,72.65Z" transform="translate(-37.17 -21.34)"/><path d="M55.21,68.9c3.76-3.47,2-7.45-.05-11.22C53.15,61.47,51.68,65.63,55.21,68.9Z" transform="translate(-37.17 -21.34)"/><path d="M53.21,68.47c-2.06-4.69-6.38-4.36-10.63-3.6C45.51,68,49,70.75,53.21,68.47Z" transform="translate(-37.17 -21.34)"/><path d="M49.77,63.94c4.35-2.71,3.41-6.94,2-11C49.13,56.26,46.91,60.07,49.77,63.94Z" transform="translate(-37.17 -21.34)"/><path d="M48.26,63.3c-1.14-5-5.44-5.49-9.75-5.54C40.79,61.39,43.67,64.74,48.26,63.3Z" transform="translate(-37.17 -21.34)"/><path d="M47,56c4.62-2.2,4.17-6.51,3.28-10.73C47.2,48.26,44.57,51.8,47,56Z" transform="translate(-37.17 -21.34)"/><path d="M46.2,57.39c-.54-5.09-4.75-6.1-9-6.66C39,54.61,41.47,58.27,46.2,57.39Z" transform="translate(-37.17 -21.34)"/><path d="M45,47.62c5-1.11,5.52-5.41,5.6-9.72C47,40.16,43.61,43,45,47.62Z" transform="translate(-37.17 -21.34)"/><path d="M44,51.37c1.45-4.91-2.06-7.44-5.8-9.59C38.46,46.06,39.34,50.39,44,51.37Z" transform="translate(-37.17 -21.34)"/><path d="M47,38c5.11.25,6.75-3.76,8-7.89-4.12,1.21-8.11,3.08-8,7.89Z" transform="translate(-37.17 -21.34)"/><path d="M43.7,43.48c3.07-4.1.66-7.7-2.09-11C40.32,36.55,39.63,40.91,43.7,43.48Z" transform="translate(-37.17 -21.34)"/><path d="M49.23,30.68c5.11-.29,6.31-4.46,7.07-8.7C52.34,23.63,48.57,25.92,49.23,30.68Z" transform="translate(-37.17 -21.34)"/><path d="M46,35.1c3.84-3.39,2.22-7.4.2-11.21C44.06,27.63,42.51,31.76,46,35.1Z" transform="translate(-37.17 -21.34)"/><path d="M141,79.37c-3.21-2.88-6.71-5.43-10.93-2.53C132.43,81,136.82,80.5,141,79.37Z" transform="translate(-37.17 -21.34)"/><path d="M139.6,67.09c-4.23.85-8.37,2.14-8.56,7.25C135.82,74.9,138,71.08,139.6,67.09Z" transform="translate(-37.17 -21.34)"/><path d="M148.65,76.14c-3.44-2.61-7.14-4.85-11.1-1.6C140.3,78.48,144.62,77.61,148.65,76.14Z" transform="translate(-37.17 -21.34)"/><path d="M144.84,61.49c-3.2,2.91-6.08,6.13-3.62,10.62C145.61,70.14,145.54,65.73,144.84,61.49Z" transform="translate(-37.17 -21.34)"/><path d="M155.54,70.5c-4-1.56-8.2-2.7-11.12,1.51C148.15,75.05,152.07,73,155.54,70.5Z" transform="translate(-37.17 -21.34)"/><path d="M148.58,57c-2.1,3.77-3.81,7.75,0,11.21C152.06,65,150.6,60.83,148.58,57Z" transform="translate(-37.17 -21.34)"/><path d="M161.16,64.23c-4.25-.77-8.56-1.09-10.62,3.6C154.77,70.11,158.23,67.36,161.16,64.23Z" transform="translate(-37.17 -21.34)"/><path d="M151.93,52.27c-1.36,4.09-2.31,8.32,2,11C156.83,59.43,154.62,55.62,151.93,52.27Z" transform="translate(-37.17 -21.34)"/><path d="M165.24,57.12c-4.32.05-8.62.55-9.75,5.54C160.08,64.1,163,60.75,165.24,57.12Z" transform="translate(-37.17 -21.34)"/><path d="M153.49,44.6c-.89,4.22-1.34,8.53,3.29,10.72C159.18,51.16,156.54,47.62,153.49,44.6Z" transform="translate(-37.17 -21.34)"/><path d="M166.57,50.09c-4.28.56-8.49,1.57-9,6.66C162.28,57.63,164.74,54,166.57,50.09Z" transform="translate(-37.17 -21.34)"/><path d="M153.12,37.26c.08,4.31.6,8.61,5.6,9.71C160.13,42.38,156.77,39.52,153.12,37.26Z" transform="translate(-37.17 -21.34)"/><path d="M165.51,41.13c-3.74,2.15-7.26,4.69-5.81,9.6C164.41,49.74,165.29,45.42,165.51,41.13Z" transform="translate(-37.17 -21.34)"/><path d="M156.76,37.32c.14-4.8-3.86-6.67-8-7.89,1.21,4.14,2.85,8.15,8,7.89Z" transform="translate(-37.17 -21.34)"/><path d="M162.13,31.82c-2.75,3.32-5.16,6.92-2.08,11C164.11,40.27,163.42,35.91,162.13,31.82Z" transform="translate(-37.17 -21.34)"/><path d="M147.44,21.34c.77,4.24,2,8.4,7.08,8.7C155.18,25.28,151.4,23,147.44,21.34Z" transform="translate(-37.17 -21.34)"/><path d="M157.58,23.24c-2,3.81-3.64,7.83.2,11.22C161.24,31.12,159.68,27,157.58,23.24Z" transform="translate(-37.17 -21.34)"/><path d="M78.57,38.38v-.65l.83-.8c2-1.9,2.89-2.9,2.9-4.08a1.39,1.39,0,0,0-1.55-1.52A2.66,2.66,0,0,0,79.1,32l-.34-.75A3.46,3.46,0,0,1,81,30.45a2.2,2.2,0,0,1,2.39,2.27c0,1.44-1,2.6-2.69,4.18l-.62.58v0h3.5v.88Z" transform="translate(-37.17 -21.34)"/><path d="M84.7,31.92c0-.35,0-.64,0-.92h.54l0,.56h0a1.25,1.25,0,0,1,1.12-.64c.47,0,1.2.28,1.2,1.44v2H87v-2c0-.54-.2-1-.78-1a.88.88,0,0,0-.83.63,1.27,1.27,0,0,0,0,.29v2H84.7Z" transform="translate(-37.17 -21.34)"/><path d="M91.5,29.42v4.09c0,.3,0,.64,0,.87H91l0-.58h0a1.28,1.28,0,0,1-1.16.66,1.54,1.54,0,0,1-1.44-1.72,1.62,1.62,0,0,1,1.51-1.82,1.13,1.13,0,0,1,1,.52h0v-2Zm-.61,3a1.15,1.15,0,0,0,0-.26.91.91,0,0,0-.89-.71c-.63,0-1,.56-1,1.3S89.29,34,90,34a.92.92,0,0,0,.9-.73,1.09,1.09,0,0,0,0-.26Z" transform="translate(-37.17 -21.34)"/><path d="M95.47,30.39a12.67,12.67,0,0,1,2-.15,3.32,3.32,0,0,1,2.27.67,2.18,2.18,0,0,1,.71,1.69,2.42,2.42,0,0,1-.62,1.73,3.41,3.41,0,0,1-2.48.88,3.47,3.47,0,0,1-.83-.07v3.24h-1Zm1,3.9a3.44,3.44,0,0,0,.86.08c1.26,0,2-.61,2-1.72s-.76-1.59-1.91-1.59a4,4,0,0,0-1,.09Z" transform="translate(-37.17 -21.34)"/><path d="M101.86,30.3h1v7.2h3.45v.88h-4.49Z" transform="translate(-37.17 -21.34)"/><path d="M108.83,35.84,108,38.38h-1.08l2.74-8.08h1.26l2.76,8.08h-1.11l-.87-2.54Zm2.65-.82-.8-2.33a14.37,14.37,0,0,1-.41-1.47h0c-.12.48-.25,1-.41,1.46L109,35Z" transform="translate(-37.17 -21.34)"/><path d="M120.33,38.12a5.2,5.2,0,0,1-2.13.38,3.78,3.78,0,0,1-4-4.09,4,4,0,0,1,4.22-4.25,4.37,4.37,0,0,1,1.92.36l-.25.86a3.66,3.66,0,0,0-1.63-.34,3,3,0,0,0-3.15,3.33,2.94,2.94,0,0,0,3.1,3.25,4.27,4.27,0,0,0,1.71-.33Z" transform="translate(-37.17 -21.34)"/><path d="M125.83,34.59h-3.14V37.5h3.5v.88h-4.55V30.3H126v.87h-3.32v2.56h3.14Z" transform="translate(-37.17 -21.34)"/><path d="M67,46.25c0,2.79-1.7,4.26-3.76,4.26s-3.63-1.65-3.63-4.1,1.59-4.25,3.75-4.25S67,43.86,67,46.25Zm-6.28.14c0,1.72.94,3.27,2.58,3.27s2.59-1.52,2.59-3.36c0-1.61-.84-3.28-2.58-3.28S60.69,44.61,60.69,46.39Z" transform="translate(-37.17 -21.34)"/><path d="M68.33,42.39a12.57,12.57,0,0,1,2-.15,3.34,3.34,0,0,1,2.27.67,2.17,2.17,0,0,1,.7,1.69,2.38,2.38,0,0,1-.62,1.73,3.37,3.37,0,0,1-2.47.88,3.61,3.61,0,0,1-.84-.07v3.24h-1Zm1,3.9a3.54,3.54,0,0,0,.86.08c1.26,0,2-.61,2-1.72s-.76-1.59-1.91-1.59a4.17,4.17,0,0,0-1,.09Z" transform="translate(-37.17 -21.34)"/><path d="M78.9,46.59H75.75V49.5h3.51v.88H74.71V42.3h4.37v.87H75.75v2.56H78.9Z" transform="translate(-37.17 -21.34)"/><path d="M80.61,50.38V42.3h1.14l2.59,4.09A22.21,22.21,0,0,1,85.79,49h0c-.1-1.08-.12-2.06-.12-3.32V42.3h1v8.08H85.63l-2.57-4.1a26.34,26.34,0,0,1-1.51-2.7h0c.06,1,.09,2,.09,3.34v3.45Z" transform="translate(-37.17 -21.34)"/><path d="M90.91,49.11a3.68,3.68,0,0,0,1.87.53c1.07,0,1.69-.57,1.69-1.38S94,47.07,93,46.65c-1.32-.47-2.14-1.15-2.14-2.29a2.34,2.34,0,0,1,2.62-2.2,3.72,3.72,0,0,1,1.79.4l-.29.85A3.33,3.33,0,0,0,93.39,43c-1.1,0-1.52.66-1.52,1.21,0,.75.49,1.13,1.61,1.56,1.36.53,2.06,1.19,2.06,2.37s-.92,2.33-2.83,2.33A4.13,4.13,0,0,1,90.65,50Z" transform="translate(-37.17 -21.34)"/><path d="M102.62,50.12a5.25,5.25,0,0,1-2.14.38,3.78,3.78,0,0,1-4-4.09,4,4,0,0,1,4.22-4.25,4.4,4.4,0,0,1,1.92.36l-.25.86a3.69,3.69,0,0,0-1.63-.34,3,3,0,0,0-3.16,3.33,2.94,2.94,0,0,0,3.11,3.25,4.25,4.25,0,0,0,1.7-.33Z" transform="translate(-37.17 -21.34)"/><path d="M103.93,42.4a11.65,11.65,0,0,1,2-.16,3.28,3.28,0,0,1,2.34.66,2,2,0,0,1,.64,1.53,2.12,2.12,0,0,1-1.53,2.06v0a2,2,0,0,1,1.19,1.63,13.27,13.27,0,0,0,.62,2.22h-1.08a10.23,10.23,0,0,1-.53-1.93c-.25-1.12-.68-1.54-1.62-1.57h-1v3.5h-1Zm1,3.69H106c1.12,0,1.82-.62,1.82-1.54s-.75-1.5-1.86-1.51a4.15,4.15,0,0,0-1,.1Z" transform="translate(-37.17 -21.34)"/><path d="M114.57,46.59h-3.14V49.5h3.5v.88h-4.55V42.3h4.37v.87h-3.32v2.56h3.14Z" transform="translate(-37.17 -21.34)"/><path d="M120.47,46.59h-3.14V49.5h3.5v.88h-4.54V42.3h4.36v.87h-3.32v2.56h3.14Z" transform="translate(-37.17 -21.34)"/><path d="M122.19,50.38V42.3h1.14l2.59,4.09A22.21,22.21,0,0,1,127.37,49h0c-.1-1.08-.12-2.06-.12-3.32V42.3h1v8.08h-1l-2.57-4.1a26.34,26.34,0,0,1-1.51-2.7h0c.06,1,.09,2,.09,3.34v3.45Z" transform="translate(-37.17 -21.34)"/><path d="M131.15,45.09a14.5,14.5,0,0,1,1.11-2.85l.67-.08a19.54,19.54,0,0,0-.71,2.81Z" transform="translate(-37.17 -21.34)"/><path d="M136,43.57h0l-1.36.73-.2-.8,1.7-.92h.9v7.8h-1Z" transform="translate(-37.17 -21.34)"/><path d="M144.56,43.47h-3l-.3,2a5,5,0,0,1,.64,0,3.28,3.28,0,0,1,1.68.42,2.21,2.21,0,0,1,1.11,2,2.7,2.7,0,0,1-2.9,2.66,3.8,3.8,0,0,1-1.94-.48l.26-.8a3.54,3.54,0,0,0,1.67.43A1.73,1.73,0,0,0,143.65,48c0-1-.69-1.73-2.25-1.73a7.42,7.42,0,0,0-1.08.09l.51-3.75h3.73Z" transform="translate(-37.17 -21.34)"/><path d="M69.2,62.89l-.63,1.91h-.81l2.06-6.07h.94l2.07,6.07H72l-.65-1.91Zm2-.61-.6-1.75c-.13-.4-.22-.76-.31-1.11h0c-.09.36-.19.73-.31,1.1l-.59,1.76Z" transform="translate(-37.17 -21.34)"/><path d="M74.25,58.73v3.59c0,1.36.61,1.94,1.42,1.94s1.47-.6,1.47-1.94V58.73h.8v3.54c0,1.86-1,2.62-2.3,2.62s-2.18-.71-2.18-2.59V58.73Z" transform="translate(-37.17 -21.34)"/><path d="M79.29,58.81A11.57,11.57,0,0,1,81,58.68a3.47,3.47,0,0,1,2.46.76,2.79,2.79,0,0,1,.85,2.18A3.2,3.2,0,0,1,83.4,64a3.77,3.77,0,0,1-2.68.87,14.21,14.21,0,0,1-1.43-.07Zm.79,5.36a4.42,4.42,0,0,0,.79,0,2.33,2.33,0,0,0,2.58-2.58A2.16,2.16,0,0,0,81,59.3a4,4,0,0,0-.92.09Z" transform="translate(-37.17 -21.34)"/><path d="M86.07,58.73V64.8h-.78V58.73Z" transform="translate(-37.17 -21.34)"/><path d="M90.58,62H88.22v2.19h2.63v.66H87.44V58.73h3.28v.66h-2.5V61.3h2.36Z" transform="translate(-37.17 -21.34)"/><path d="M91.87,64.8V58.73h.85l2,3.07a17.49,17.49,0,0,1,1.09,2h0c-.07-.81-.09-1.55-.09-2.49V58.73h.74V64.8h-.79L93.7,61.72a20.83,20.83,0,0,1-1.13-2h0c0,.77.06,1.49.06,2.5v2.6Z" transform="translate(-37.17 -21.34)"/><path d="M102,64.6a3.94,3.94,0,0,1-1.6.29,2.84,2.84,0,0,1-3-3.07,3,3,0,0,1,3.17-3.19,3.26,3.26,0,0,1,1.44.27l-.19.64a2.77,2.77,0,0,0-1.22-.25,2.25,2.25,0,0,0-2.37,2.5,2.21,2.21,0,0,0,2.33,2.44,3.2,3.2,0,0,0,1.28-.25Z" transform="translate(-37.17 -21.34)"/><path d="M106.15,62h-2.36v2.19h2.63v.66H103V58.73h3.28v.66h-2.5V61.3h2.36Z" transform="translate(-37.17 -21.34)"/><path d="M110.33,62.89l-.63,1.91h-.81L111,58.73h.94L114,64.8h-.83l-.65-1.91Zm2-.61-.6-1.75c-.13-.4-.22-.76-.31-1.11h0c-.09.36-.19.73-.31,1.1l-.59,1.76Z" transform="translate(-37.17 -21.34)"/><path d="M115.37,64.8l-1.54-6.07h.82l.73,3.07c.17.75.34,1.51.45,2.1h0c.1-.61.29-1.33.5-2.11l.81-3.06H118l.74,3.08c.17.72.33,1.44.42,2.08h0c.12-.67.29-1.35.48-2.1l.8-3.06h.81l-1.72,6.07h-.82l-.77-3.16a18,18,0,0,1-.39-2h0c-.11.6-.25,1.19-.47,2l-.87,3.16Z" transform="translate(-37.17 -21.34)"/><path d="M122.46,62.89l-.63,1.91H121l2.06-6.07H124l2.07,6.07h-.83l-.65-1.91Zm2-.61-.6-1.75c-.13-.4-.22-.76-.31-1.11h0c-.09.36-.19.73-.31,1.1l-.59,1.76Z" transform="translate(-37.17 -21.34)"/><path d="M127,58.81a8.33,8.33,0,0,1,1.51-.13,2.47,2.47,0,0,1,1.75.5,1.49,1.49,0,0,1,.48,1.15,1.6,1.6,0,0,1-1.14,1.55v0a1.53,1.53,0,0,1,.89,1.22,9.57,9.57,0,0,0,.47,1.67h-.81a7.7,7.7,0,0,1-.41-1.45c-.18-.84-.5-1.16-1.21-1.18h-.74V64.8H127Zm.79,2.76h.8c.84,0,1.37-.46,1.37-1.15s-.57-1.13-1.4-1.13a3,3,0,0,0-.77.07Z" transform="translate(-37.17 -21.34)"/><path d="M131.83,58.81a11.31,11.31,0,0,1,1.66-.13,3.45,3.45,0,0,1,2.46.76,2.79,2.79,0,0,1,.85,2.18,3.2,3.2,0,0,1-.87,2.36,3.77,3.77,0,0,1-2.68.87,13.84,13.84,0,0,1-1.42-.07Zm.78,5.36a4.42,4.42,0,0,0,.79,0A2.34,2.34,0,0,0,136,61.64a2.17,2.17,0,0,0-2.46-2.34,4,4,0,0,0-.92.09Z" transform="translate(-37.17 -21.34)"/></svg>