<svg xmlns="http://www.w3.org/2000/svg" viewBox="0 0 99.96 58.83"><title>lynch-tashort-laurel</title><path d="M73.69,76.09c-2.65-2.9-4.85-.35-6.86,2.53C69.43,79.75,72.18,80.26,73.69,76.09Z" transform="translate(-50.74 -20.58)"/><path d="M73.05,73.59c-.11-5.12-2.71-6.4-5.37-7.25C68.67,70.33,70.05,74.15,73.05,73.59Z" transform="translate(-50.74 -20.58)"/><path d="M69,73.79c-2.49-3.25-4.82-1-7,1.59C64.52,76.85,67.24,77.73,69,73.79Z" transform="translate(-50.74 -20.58)"/><path d="M66.66,71.36c1.55-4.49-.27-7.72-2.27-10.62C64,65,63.91,69.39,66.66,71.36Z" transform="translate(-50.74 -20.58)"/><path d="M64.65,71.26c-1.83-4.21-4.46-3.07-7-1.52C59.85,72.27,62.31,74.3,64.65,71.26Z" transform="translate(-50.74 -20.58)"/><path d="M62.07,67.5c2.36-3.47,1.29-7.45,0-11.21C60.77,60.07,59.85,64.24,62.07,67.5Z" transform="translate(-50.74 -20.58)"/><path d="M60.81,67.08c-1.29-4.69-4-4.37-6.68-3.6C56,66.61,58.15,69.35,60.81,67.08Z" transform="translate(-50.74 -20.58)"/><path d="M58.65,62.54c2.73-2.71,2.14-6.93,1.28-11C58.25,54.86,56.85,58.68,58.65,62.54Z" transform="translate(-50.74 -20.58)"/><path d="M57.7,61.91c-.71-5-3.42-5.49-6.13-5.54C53,60,54.82,63.34,57.7,61.91Z" transform="translate(-50.74 -20.58)"/><path d="M56.89,54.57c2.9-2.19,2.62-6.5,2.06-10.72C57,46.87,55.38,50.4,56.89,54.57Z" transform="translate(-50.74 -20.58)"/><path d="M56.4,56c-.33-5.09-3-6.1-5.66-6.66C51.89,53.21,53.43,56.88,56.4,56Z" transform="translate(-50.74 -20.58)"/><path d="M55.67,46.22c3.14-1.1,3.47-5.4,3.51-9.72C56.89,38.77,54.78,41.62,55.67,46.22Z" transform="translate(-50.74 -20.58)"/><path d="M55.05,50c.91-4.91-1.3-7.45-3.65-9.6C51.54,44.67,52.09,49,55.05,50Z" transform="translate(-50.74 -20.58)"/><path d="M56.9,36.57c3.22.26,4.25-3.75,5-7.89-2.59,1.22-5.1,3.09-5,7.89Z" transform="translate(-50.74 -20.58)"/><path d="M54.83,42.08c1.93-4.09.42-7.69-1.31-11C52.71,35.16,52.28,39.51,54.83,42.08Z" transform="translate(-50.74 -20.58)"/><path d="M58.31,29.29c3.21-.3,4-4.46,4.44-8.71C60.26,22.24,57.89,24.52,58.31,29.29Z" transform="translate(-50.74 -20.58)"/><path d="M56.26,33.71c2.41-3.39,1.39-7.41.12-11.22C55.06,26.23,54.09,30.36,56.26,33.71Z" transform="translate(-50.74 -20.58)"/><path d="M134.6,78.62c-2-2.88-4.21-5.43-6.86-2.53C129.25,80.26,132,79.75,134.6,78.62Z" transform="translate(-50.74 -20.58)"/><path d="M133.74,66.34c-2.65.85-5.25,2.13-5.37,7.25C131.37,74.15,132.76,70.33,133.74,66.34Z" transform="translate(-50.74 -20.58)"/><path d="M139.43,75.38c-2.16-2.6-4.48-4.84-7-1.59C134.19,77.73,136.9,76.85,139.43,75.38Z" transform="translate(-50.74 -20.58)"/><path d="M137,60.74c-2,2.9-3.82,6.13-2.27,10.62C137.52,69.39,137.48,65,137,60.74Z" transform="translate(-50.74 -20.58)"/><path d="M143.76,69.74c-2.53-1.55-5.15-2.69-7,1.52C139.12,74.3,141.58,72.27,143.76,69.74Z" transform="translate(-50.74 -20.58)"/><path d="M139.39,56.29c-1.32,3.76-2.39,7.74,0,11.21C141.58,64.24,140.66,60.07,139.39,56.29Z" transform="translate(-50.74 -20.58)"/><path d="M147.29,63.48c-2.66-.77-5.38-1.09-6.67,3.6C143.28,69.35,145.45,66.61,147.29,63.48Z" transform="translate(-50.74 -20.58)"/><path d="M141.5,51.52c-.86,4.09-1.45,8.31,1.28,11C144.57,58.68,143.18,54.86,141.5,51.52Z" transform="translate(-50.74 -20.58)"/><path d="M149.85,56.37c-2.71.05-5.41.55-6.12,5.54C146.61,63.34,148.42,60,149.85,56.37Z" transform="translate(-50.74 -20.58)"/><path d="M142.47,43.85c-.55,4.22-.84,8.53,2.07,10.72C146.05,50.4,144.39,46.87,142.47,43.85Z" transform="translate(-50.74 -20.58)"/><path d="M150.69,49.34C148,49.9,145.36,50.91,145,56,148,56.88,149.54,53.21,150.69,49.34Z" transform="translate(-50.74 -20.58)"/><path d="M142.24,36.5c0,4.32.38,8.62,3.52,9.72C146.65,41.62,144.53,38.77,142.24,36.5Z" transform="translate(-50.74 -20.58)"/><path d="M150,40.38c-2.35,2.15-4.55,4.69-3.64,9.6C149.33,49,149.89,44.67,150,40.38Z" transform="translate(-50.74 -20.58)"/><path d="M144.53,36.57c.09-4.8-2.43-6.67-5-7.89.76,4.14,1.79,8.15,5,7.89Z" transform="translate(-50.74 -20.58)"/><path d="M147.9,31.06c-1.73,3.33-3.24,6.93-1.31,11C149.15,39.51,148.71,35.16,147.9,31.06Z" transform="translate(-50.74 -20.58)"/><path d="M138.68,20.58c.47,4.25,1.23,8.41,4.44,8.71C143.53,24.52,141.16,22.24,138.68,20.58Z" transform="translate(-50.74 -20.58)"/><path d="M145.05,22.49c-1.27,3.81-2.29,7.83.12,11.22C147.34,30.36,146.36,26.23,145.05,22.49Z" transform="translate(-50.74 -20.58)"/><path d="M74.45,39.31a2.39,2.39,0,0,0,1.16.33A1.27,1.27,0,0,0,77,38.27a2.07,2.07,0,0,0-1.06-1.68,3,3,0,0,1-1.53-2.24,2,2,0,0,1,2.14-2.12,2.21,2.21,0,0,1,1.13.29l-.22.79a1.77,1.77,0,0,0-1-.27,1.12,1.12,0,0,0-1.17,1.15c0,.8.42,1.12,1.19,1.67a2.78,2.78,0,0,1,1.4,2.32,2.16,2.16,0,0,1-2.26,2.27,2.62,2.62,0,0,1-1.36-.35Z" transform="translate(-50.74 -20.58)"/><path d="M79.63,37.56c0,1.78.7,2.16,1.37,2.16a2.09,2.09,0,0,0,1-.22l.15.67a2.81,2.81,0,0,1-1.28.28c-1.39,0-2.11-1.13-2.11-2.91s.8-3,2-3,1.66,1.24,1.66,2.55c0,.23,0,.38,0,.52Zm1.82-.68c0-1.16-.42-1.67-.86-1.67-.61,0-.91.87-1,1.67Z" transform="translate(-50.74 -20.58)"/><path d="M83.33,36.08c0-.68,0-1,0-1.5h.81l0,.72h0a1.44,1.44,0,0,1,1.31-.81,1.2,1.2,0,0,1,1.21.88h0a1.7,1.7,0,0,1,.57-.66,1.44,1.44,0,0,1,.8-.22c.78,0,1.39.57,1.39,2v3.84h-.91V36.75c0-.76-.11-1.49-.81-1.49-.39,0-.72.32-.85.87a2.75,2.75,0,0,0,0,.52v3.73h-.92v-3.8c0-.64-.11-1.32-.79-1.32-.38,0-.76.32-.87.94a3.84,3.84,0,0,0,0,.5v3.68h-.92Z" transform="translate(-50.74 -20.58)"/><path d="M91.77,33.08a.55.55,0,1,1-1.09,0,.55.55,0,1,1,1.09,0Zm-1,7.3v-5.8h.92v5.8Z" transform="translate(-50.74 -20.58)"/><path d="M93.18,40.38v-5.1h-.73v-.7h.73V34.2A2,2,0,0,1,95.29,32a2.33,2.33,0,0,1,1.13.27l-.2.73a2.16,2.16,0,0,0-1-.23c-.94,0-1.17.64-1.17,1.53v.29h2.6v5.8h-.92v-5.1H94.1v5.1Z" transform="translate(-50.74 -20.58)"/><path d="M98,36.08c0-.68,0-1,0-1.5h.81l0,.7h0a1.44,1.44,0,0,1,1.33-.79c.8,0,1.4.59,1.4,2v3.9h-.92V36.64c0-.69-.13-1.37-.81-1.37-.38,0-.75.32-.87.94a2.62,2.62,0,0,0,0,.52v3.65H98Z" transform="translate(-50.74 -20.58)"/><path d="M105.15,40.38l-.06-.61h0a1.31,1.31,0,0,1-1.17.71,1.48,1.48,0,0,1-1.37-1.66c0-1.45,1.16-2.09,2.48-2.1v-.19c0-.78-.2-1.32-.93-1.32a1.73,1.73,0,0,0-1,.3l-.2-.65a2.56,2.56,0,0,1,1.35-.37c1.16,0,1.66.75,1.66,2.06v2.52a9,9,0,0,0,.07,1.31Zm-.14-3c-.47,0-1.59.09-1.59,1.35,0,.76.38,1,.71,1s.75-.3.86-.86a1.88,1.88,0,0,0,0-.33Z" transform="translate(-50.74 -20.58)"/><path d="M107.22,32.08h.92v8.3h-.92Z" transform="translate(-50.74 -20.58)"/><path d="M110.52,33.08a.55.55,0,0,1-.57.6.6.6,0,0,1,0-1.2A.54.54,0,0,1,110.52,33.08Zm-1,7.3v-5.8h.92v5.8Z" transform="translate(-50.74 -20.58)"/><path d="M111.57,39.42a1.81,1.81,0,0,0,.94.3.79.79,0,0,0,.86-.84c0-.44-.16-.75-.74-1.14-.76-.48-1.18-1-1.18-1.65a1.56,1.56,0,0,1,1.61-1.6,2,2,0,0,1,1,.29l-.25.7a1.29,1.29,0,0,0-.77-.26.72.72,0,0,0-.75.74c0,.39.15.61.72,1a2.13,2.13,0,0,1,1.2,1.77,1.61,1.61,0,0,1-1.74,1.72,2,2,0,0,1-1.15-.33Z" transform="translate(-50.74 -20.58)"/><path d="M116.33,33v1.54h1.12v.7h-1.12v3.45c0,.76.28,1,.61,1a1.82,1.82,0,0,0,.37,0l0,.71a2,2,0,0,1-.68.09,1.16,1.16,0,0,1-.91-.35,2.08,2.08,0,0,1-.34-1.45V35.28h-.71v-.7h.71V33.31Z" transform="translate(-50.74 -20.58)"/><path d="M120.56,40.38l-.06-.61h0a1.3,1.3,0,0,1-1.16.71,1.48,1.48,0,0,1-1.37-1.66c0-1.45,1.16-2.09,2.47-2.1v-.19c0-.78-.2-1.32-.93-1.32a1.79,1.79,0,0,0-1,.3l-.2-.65a2.63,2.63,0,0,1,1.36-.37c1.16,0,1.66.75,1.66,2.06v2.52a10.78,10.78,0,0,0,.06,1.31Zm-.14-3c-.47,0-1.59.09-1.59,1.35,0,.76.38,1,.71,1s.75-.3.85-.86a1.27,1.27,0,0,0,0-.33Z" transform="translate(-50.74 -20.58)"/><path d="M122.47,39.42a1.74,1.74,0,0,0,.94.3.79.79,0,0,0,.86-.84c0-.44-.17-.75-.75-1.14-.76-.48-1.17-1-1.17-1.65a1.56,1.56,0,0,1,1.6-1.6,2,2,0,0,1,1,.29l-.25.7a1.32,1.32,0,0,0-.77-.26.71.71,0,0,0-.75.74c0,.39.15.61.72,1a2.13,2.13,0,0,1,1.2,1.77,1.62,1.62,0,0,1-1.75,1.72,2.06,2.06,0,0,1-1.15-.33Z" transform="translate(-50.74 -20.58)"/><path d="M70.74,44.5H68.89v-1h4.85v1H71.89v9.07H70.74Z" transform="translate(-50.74 -20.58)"/><path d="M75.4,50.54l-.67,3H73.61l2.32-10.11h1.28l2.24,10.11H78.31l-.66-3Zm2.09-.93L77,47c-.15-.71-.28-1.55-.41-2.3h0c-.11.76-.26,1.63-.41,2.31l-.53,2.56Z" transform="translate(-50.74 -20.58)"/><path d="M80.49,52.24a3,3,0,0,0,1.45.41,1.59,1.59,0,0,0,1.69-1.72,2.59,2.59,0,0,0-1.34-2.1A3.77,3.77,0,0,1,80.39,46a2.55,2.55,0,0,1,2.67-2.65,2.7,2.7,0,0,1,1.42.37l-.28,1a2.14,2.14,0,0,0-1.2-.34,1.4,1.4,0,0,0-1.46,1.44c0,1,.52,1.4,1.48,2.08a3.47,3.47,0,0,1,1.76,2.91A2.71,2.71,0,0,1,82,53.66a3.39,3.39,0,0,1-1.71-.44Z" transform="translate(-50.74 -20.58)"/><path d="M87.29,43.46V47.8h2.83V43.46h1.15V53.57H90.12V48.85H87.29v4.72H86.14V43.46Z" transform="translate(-50.74 -20.58)"/><path d="M98.38,48.45c0,3.78-1.29,5.24-2.92,5.24s-2.81-1.79-2.81-5.18,1.21-5.17,3-5.17S98.38,45.22,98.38,48.45Zm-4.53.07c0,2.08.41,4.16,1.69,4.16s1.65-2.21,1.65-4.2-.35-4.13-1.66-4.13S93.85,46.46,93.85,48.52Z" transform="translate(-50.74 -20.58)"/><path d="M99.77,43.61a6.25,6.25,0,0,1,1.66-.19,3,3,0,0,1,2.27.72,2.63,2.63,0,0,1,.72,2,2.67,2.67,0,0,1-1.63,2.61v0c.75.22,1.14.94,1.36,2.26a14.06,14.06,0,0,0,.58,2.56h-1.18a14.46,14.46,0,0,1-.54-2.5c-.22-1.39-.66-1.9-1.64-1.9h-.45v4.4H99.77Zm1.15,4.66h.48a1.83,1.83,0,0,0,1.84-2c0-1.16-.47-1.9-1.72-1.9a2.09,2.09,0,0,0-.6.06Z" transform="translate(-50.74 -20.58)"/><path d="M106.91,44.5h-1.85v-1h4.86v1h-1.86v9.07h-1.15Z" transform="translate(-50.74 -20.58)"/><path d="M111.05,43.46h3.85v1h-2.7V48h2.52v1H112.2v4.59h-1.15Z" transform="translate(-50.74 -20.58)"/><path d="M119.9,48.77h-2.53v3.8h2.88v1h-4V43.46h3.85v1h-2.7v3.33h2.53Z" transform="translate(-50.74 -20.58)"/><path d="M121.29,52.24a3.08,3.08,0,0,0,1.46.41,1.6,1.6,0,0,0,1.69-1.72,2.59,2.59,0,0,0-1.34-2.1A3.75,3.75,0,0,1,121.19,46a2.55,2.55,0,0,1,2.68-2.65,2.66,2.66,0,0,1,1.41.37l-.28,1a2.12,2.12,0,0,0-1.2-.34,1.4,1.4,0,0,0-1.46,1.44c0,1,.53,1.4,1.49,2.08a3.48,3.48,0,0,1,1.75,2.91,2.7,2.7,0,0,1-2.83,2.84,3.35,3.35,0,0,1-1.7-.44Z" transform="translate(-50.74 -20.58)"/><path d="M128.12,44.5h-1.85v-1h4.85v1h-1.85v9.07h-1.15Z" transform="translate(-50.74 -20.58)"/><path d="M94.36,71.17v-.45l.48-.67a6.06,6.06,0,0,0,1.53-3.16c0-.65-.29-1-.83-1a1.42,1.42,0,0,0-.85.32l-.17-.52a1.88,1.88,0,0,1,1.14-.39c1,0,1.39.71,1.39,1.6A5.76,5.76,0,0,1,95.61,70l-.39.54v0h2v.61Z" transform="translate(-50.74 -20.58)"/><path d="M100.76,68.24c0,2.13-.68,3-1.53,3s-1.45-1.08-1.45-3,.58-3,1.54-3S100.76,66.37,100.76,68.24Zm-2.29,0c0,1.41.24,2.4.81,2.4s.78-1,.78-2.4-.22-2.41-.78-2.41S98.47,66.84,98.47,68.25Z" transform="translate(-50.74 -20.58)"/><path d="M102.7,66h0l-1,.56-.13-.54,1.23-.72h.57v5.85h-.67Z" transform="translate(-50.74 -20.58)"/><path d="M107.46,65.93h-1.57l-.24,1.56a.71.71,0,0,1,.21,0,1.71,1.71,0,0,1,1.11.44,1.76,1.76,0,0,1,.5,1.34,1.82,1.82,0,0,1-1.77,2,1.92,1.92,0,0,1-1-.25l.15-.55a1.82,1.82,0,0,0,.82.22c.59,0,1.11-.45,1.11-1.34A1.2,1.2,0,0,0,105.46,68a2.74,2.74,0,0,0-.47,0l.38-2.71h2.09Z" transform="translate(-50.74 -20.58)"/></svg>