<svg xmlns="http://www.w3.org/2000/svg" viewBox="0 0 104.02 55.38"><title>lynch-ficdos-laurel</title><path d="M137,22c-.67.35-1,1.07-1,2.24v1h-.51c-.57,0-.68.32-.16.45.25.07.28.15.16.38-.25.46-.2,1,.09,1.13a4.18,4.18,0,0,1,.6,1.47,10,10,0,0,0,.48,1.57c.11.19,0,.45-.33.86a3.07,3.07,0,0,1-1.76,1,3.26,3.26,0,0,0-1.57.82c-.15.23-1.37,1.54-2.73,2.93-2,2-2.48,2.64-2.56,3.13a10.19,10.19,0,0,0,.22,3.33c.1.32.3,1,.43,1.61a17.52,17.52,0,0,0,.54,1.74c.28.68.3.7.92.6a1.45,1.45,0,0,1,1.22.27l.57.38.08,3.94c.14,5.75.42,11.56.67,13.4a4.49,4.49,0,0,0,1.36,3.15c.52.48.55.78.12.94s-.42.33-.61,1.77c-.15,1.17-.28,1.24-3.46,1.74-.65.1-1,.54-.87,1a2.58,2.58,0,0,0,.95.64,5.15,5.15,0,0,0,3.77,0,8.23,8.23,0,0,1,2.17-.38c1.8,0,1.95-.1,2.06-1.07a11.78,11.78,0,0,1,.3-1.43,5,5,0,0,0,.19-1.25c0-.65,0-.65.27-.27s.25.45-.07,1.32c-.42,1.16-.34,2.3.17,2.56a5.73,5.73,0,0,0,1.6.27,5.57,5.57,0,0,1,2.23.59,3.82,3.82,0,0,0,2.09.47c1.21,0,2.24-.42,2.24-.89a1.14,1.14,0,0,0-.88-1,8,8,0,0,1-3.12-1.24,3.57,3.57,0,0,0-1.08-.61c-.49,0-.42-.31.31-1.52,1-1.69,1.23-2.37,1.33-5.17s-.15-12.2-.41-13.69c-.1-.59-.21-2.54-.26-4.35-.15-4.87-.15-5.24,0-6.06L143,39l.29,1.33c.17.74.55,2.16.87,3.18s.82,2.78,1.14,3.94c.55,2.07.57,2.09,1.09,2.14s.51.1.51.64a3.85,3.85,0,0,0,.42,1.39c.47.93.49,1.25.74,9.64.23,7.68.53,12.3.8,12.3s.29.27-.2-8.12c0-.84-.12-2.74-.17-4.27s-.11-4-.18-5.62c-.12-2.8-.1-2.88.23-3,.79-.25,1.09-2.83.42-3.75a30.79,30.79,0,0,1-1.39-3.8,20.36,20.36,0,0,1-1.18-4.94,15.08,15.08,0,0,0-1-4.25l-.9-2.66-1.41-.77A8.68,8.68,0,0,1,141.22,31c-.45-.57-.47-.67-.32-1.25a6.26,6.26,0,0,0,.19-1.43,1.64,1.64,0,0,1,.15-.88.91.91,0,0,0,.15-.59c0-.55.28-1,.65-1s.13-.42-.33-.47c-.26,0-.46-.15-.47-.25s0-.67-.05-1.24c0-1.16-.32-1.61-1.22-2A4.72,4.72,0,0,0,137,22Zm-3.23,15.7a13.76,13.76,0,0,1-.22,4,1.77,1.77,0,0,1-.44.65,1,1,0,0,0-.26.69,1.07,1.07,0,0,1-.46.84c-.52.41-.77.36-.92-.19-.06-.22-.23-.79-.38-1.24a6.82,6.82,0,0,1-.3-1.59c-.05-.68,0-.83.87-1.84,1-1.24,1.64-1.84,1.85-1.84S133.76,37.34,133.81,37.66Zm4.1,21.39a.81.81,0,0,0,.16.55c.1,0,.17.49.17,1a8.27,8.27,0,0,0,.27,1.84,2.65,2.65,0,0,1,0,1.92,13.37,13.37,0,0,0-.37,2.09L138,67.54l-.43-.52-.44-.51.2-2.79c.12-1.52.2-3.42.2-4.2,0-1,.05-1.34.17-1.17A1.63,1.63,0,0,1,137.91,59.05Z" transform="translate(-45.35 -21.71)"/><path d="M101.67,39.2A7.83,7.83,0,0,0,95.29,45a12.94,12.94,0,0,0,0,5.26,7.29,7.29,0,0,0,7.33,5.7,7.56,7.56,0,0,0,5.71-2.21c1.59-1.57,2.3-3.53,2.3-6.36,0-3.9-1.81-6.76-5-7.85A12.19,12.19,0,0,0,101.67,39.2Zm2.6,3.41c1.33.69,2.15,2.26,2.29,4.46.23,3.39-1.32,5.8-3.72,5.8a3.56,3.56,0,0,1-3.38-2.56,7.25,7.25,0,0,1-.3-2.76,5.49,5.49,0,0,1,.39-2.84,4.75,4.75,0,0,1,2-2.2A3.74,3.74,0,0,1,104.27,42.61Z" transform="translate(-45.35 -21.71)"/><path d="M70.22,39.52a8.19,8.19,0,0,0-5.87,5.86,12.37,12.37,0,0,0,0,4.85A7.2,7.2,0,0,0,70,55.69a8.5,8.5,0,0,0,3.25.26A15,15,0,0,0,76,55.59l.9-.27-.1-.62c-.42-2.36-.44-2.41-.9-2.31-.26.07-1,.18-1.61.28-3.65.56-6.13-1.52-6.13-5.14a5.14,5.14,0,0,1,2.58-4.61,7.72,7.72,0,0,1,4.54-.24,3.76,3.76,0,0,0,1,.24s.21-.69.43-1.46c.35-1.34.35-1.41.07-1.62C76,39.27,71.9,39.07,70.22,39.52Z" transform="translate(-45.35 -21.71)"/><path d="M82.17,39.37c-.13,0-.9.1-1.7.15L79,39.63v16l.74.1a32.39,32.39,0,0,0,7-.15c4.12-.86,6.31-3.3,6.7-7.45A7.9,7.9,0,0,0,91,41.24a8.15,8.15,0,0,0-4.35-1.74A19.74,19.74,0,0,0,82.17,39.37Zm4.77,3.5c1.69.82,2.43,2.19,2.43,4.51,0,2-.34,3-1.39,4a4.83,4.83,0,0,1-3.9,1.44H82.84V47.65c0-6-.2-5.39,1.89-5.29A4.78,4.78,0,0,1,86.94,42.87Z" transform="translate(-45.35 -21.71)"/><path d="M116.23,39.48c-2.29.77-3.55,2.16-3.71,4.17a3.92,3.92,0,0,0,1,3.23,8.16,8.16,0,0,0,3.57,2.18c2.11.82,2.76,1.54,2.41,2.59-.49,1.37-3,1.47-6.19.25-.22-.08-.34.15-.64,1.33-.18.78-.35,1.5-.35,1.6,0,.45,2.89,1.17,4.74,1.17a7.82,7.82,0,0,0,5-1.65,5,5,0,0,0,1.32-4.62C122.93,48,121.77,47,119,45.86c-1.59-.64-2.66-1.44-2.66-2,0-1.36,2.27-1.91,4.6-1.12A2.3,2.3,0,0,0,122,43a23.18,23.18,0,0,0,.82-2.91,2.35,2.35,0,0,0-.78-.39A16.66,16.66,0,0,0,116.23,39.48Z" transform="translate(-45.35 -21.71)"/><path d="M45.35,47.55v8.12H49.2V49.31h5.86V46.13H49.2V42.61h6.19V39.43h-10Z" transform="translate(-45.35 -21.71)"/><path d="M58.07,47.55v8.12h3.85V39.43H58.07Z" transform="translate(-45.35 -21.71)"/><path d="M45.35,57.76v.42H81.67v-.84H45.35Z" transform="translate(-45.35 -21.71)"/><path d="M86.64,57.46a.64.64,0,0,0-.12.42c0,.28.69.3,19,.3h19v-.84H105.64C95.24,57.34,86.69,57.39,86.64,57.46Z" transform="translate(-45.35 -21.71)"/><path d="M51,75.84v.42H135.9v-.84H51Z" transform="translate(-45.35 -21.71)"/><path d="M49.51,60.74a.07.07,0,0,1-.08.08c-.2,0-.54,0-1,0s-.77,0-1,0h-.58c-.05,0-.07.11-.07.25V62c0,.18,0,.27.11.27.25,0,.63,0,1.14,0l1.15,0s.08,0,.08.06,0,.11,0,.2a1.49,1.49,0,0,0,0,.19,2,2,0,0,0,0,.22V63s0,.05-.08.05l-.82,0H47q-.18,0-.18.15c0,.23,0,.58,0,1.05s0,.82,0,1.06c0,.08,0,.11-.09.11H46.5l-.24,0h-.41c-.06,0-.09,0-.09-.08,0-.29,0-.73,0-1.31s0-1,0-1.3,0-1.14-.08-2.62v0c0-.06,0-.09.1-.09h.49q.61,0,1.14,0c.47,0,1.07,0,1.8-.08.1,0,.16,0,.17.13s0,.18,0,.32A2.18,2.18,0,0,1,49.51,60.74Z" transform="translate(-45.35 -21.71)"/><path d="M53.32,63.33a.36.36,0,0,1-.25.38c-.11,0-.91.12-2.41.23a.89.89,0,0,0,.37.59,1.16,1.16,0,0,0,.68.23,1.78,1.78,0,0,0,1.13-.4l.12-.1h0l.14.27a3,3,0,0,1,.14.28s0,.05-.06.09a2,2,0,0,1-3.46-1.37,2.11,2.11,0,0,1,.51-1.41,1.74,1.74,0,0,1,1.34-.62,1.57,1.57,0,0,1,1.22.54A1.83,1.83,0,0,1,53.32,63.33Zm-.93-.24a.79.79,0,0,0-.25-.58.83.83,0,0,0-.58-.25.88.88,0,0,0-.64.29.94.94,0,0,0-.28.65s0,.08.14.08a11.12,11.12,0,0,0,1.39-.11C52.32,63.14,52.39,63.12,52.39,63.09Z" transform="translate(-45.35 -21.71)"/><path d="M55.7,64.22a1.1,1.1,0,0,1-.47.93,1.59,1.59,0,0,1-1,.32h-.27s-.07-.08-.07-.19a1.43,1.43,0,0,0,0-.26c0-.11,0-.2,0-.25s0-.06.07-.07h.26c.5,0,.74-.15.74-.45,0-.14-.11-.27-.32-.39S54,63.54,54,63.5a.93.93,0,0,1-.32-.73,1.05,1.05,0,0,1,.44-.91,1.68,1.68,0,0,1,1-.29.08.08,0,0,1,.08,0,3,3,0,0,1,.09.31,2.61,2.61,0,0,1,.08.32s0,0-.08.06l-.5.07c-.2,0-.3.16-.3.32s.1.24.31.36a3.35,3.35,0,0,1,.6.38A1,1,0,0,1,55.7,64.22Z" transform="translate(-45.35 -21.71)"/><path d="M58.44,64.7c0,.06,0,.14,0,.24s0,.2,0,.24a.54.54,0,0,1,0,.08.18.18,0,0,1-.08.06,2.51,2.51,0,0,1-1,.15c-.61,0-.91-.28-.91-.83,0-.22,0-.55,0-1s0-.77,0-1a.16.16,0,0,0-.16-.18H56c-.06,0-.09-.12-.09-.32a1.94,1.94,0,0,1,0-.24A.13.13,0,0,1,56,61.8h.2c.12,0,.18,0,.18-.16s0-.26,0-.47,0-.38,0-.48,0-.29.11-.29l.73.12q.09,0,.09.09t0,.51c0,.23,0,.41,0,.52s0,.11.1.11h.94s.07,0,.07,0,0,.08,0,.15,0,.12,0,.15v.18a1.53,1.53,0,0,1,0,.18s0,.08-.11.08l-.47,0a4.75,4.75,0,0,0-.48,0s0,.07,0,.22,0,.44,0,.78v.58a1.29,1.29,0,0,0,.06.47.39.39,0,0,0,.39.2,2.06,2.06,0,0,0,.35,0,1.57,1.57,0,0,1,.35-.06S58.44,64.66,58.44,64.7Z" transform="translate(-45.35 -21.71)"/><path d="M60,60.75c0,.32-.18.48-.53.48s-.55-.16-.55-.48a.44.44,0,0,1,.17-.35.57.57,0,0,1,.38-.14.55.55,0,0,1,.37.14A.43.43,0,0,1,60,60.75Zm0,1.06c0,.2,0,.5,0,.91s0,.71,0,.91,0,.47,0,.85,0,.67,0,.85,0,.09-.07.09H59.1c-.05,0-.08-.06-.08-.17s0-.45,0-.81,0-.63,0-.81,0-.51,0-.91,0-.72,0-.92c0,0,0-.06.08-.06h.22a1,1,0,0,0,.22,0,1,1,0,0,0,.22,0h.22S60,61.76,60,61.81Z" transform="translate(-45.35 -21.71)"/><path d="M64.13,62.84a2.49,2.49,0,0,1,0,.64,8,8,0,0,1-.63,1,4.39,4.39,0,0,1-.7.92,1,1,0,0,1-.33,0,1.15,1.15,0,0,1-.34,0,3.57,3.57,0,0,1-.72-.88,9,9,0,0,1-.66-1,2.44,2.44,0,0,1-.09-.77v-.48c0-.21,0-.37,0-.48s0-.08.09-.08h.77a.07.07,0,0,1,.07.08c0,.08,0,.21,0,.37s0,.28,0,.37a4.28,4.28,0,0,0,0,.65A2.72,2.72,0,0,0,62,64c.25.39.41.58.47.58s.2-.19.42-.57a2.58,2.58,0,0,0,.36-.7,3.49,3.49,0,0,0,0-.67,3.79,3.79,0,0,0,0-.39,3.65,3.65,0,0,1,0-.38.05.05,0,0,1,.06-.06h.38l.38,0Q64.13,61.73,64.13,62.84Z" transform="translate(-45.35 -21.71)"/><path d="M68.6,61.89a.26.26,0,0,1,0,.07,9.45,9.45,0,0,0-.15,1.54s0,.61.09,1.75v.06c0,.07,0,.11-.1.11l-.33,0-.32,0c-.05,0-.09-.09-.11-.27s-.06-.27-.08-.27l-.21.15a2.23,2.23,0,0,1-.43.28,1.3,1.3,0,0,1-.62.16,1.61,1.61,0,0,1-1.27-.6,2,2,0,0,1-.5-1.35,2.12,2.12,0,0,1,.5-1.44,1.75,1.75,0,0,1,1.37-.59,1.47,1.47,0,0,1,1,.42,1.9,1.9,0,0,0,.21.22l0,0s0-.09.07-.25.06-.25.11-.25a2.31,2.31,0,0,1,.39.06C68.49,61.81,68.6,61.85,68.6,61.89Zm-1,1.63a1.24,1.24,0,0,0-.28-.82.94.94,0,0,0-.77-.37,1,1,0,0,0-.78.36,1.25,1.25,0,0,0-.3.83,1.2,1.2,0,0,0,.3.82,1,1,0,0,0,.78.36,1,1,0,0,0,.77-.37A1.23,1.23,0,0,0,67.6,63.52Z" transform="translate(-45.35 -21.71)"/><path d="M70.23,60v.06c0,1-.08,1.8-.08,2.49,0,.31,0,.78,0,1.39s0,1.09,0,1.39c0,.06,0,.09-.07.09h-.74s-.07,0-.07-.09c0-.3,0-.77,0-1.39V62.55c0-.28,0-.7,0-1.27s0-1,0-1.26a.07.07,0,0,1,.08-.08h.22l.21,0,.21,0h.22S70.23,60,70.23,60Z" transform="translate(-45.35 -21.71)"/><path d="M74.08,65.34c0,.06,0,.08-.11.08H73.1a.08.08,0,0,1-.09-.09c0-.29,0-.74,0-1.34s0-1,0-1.34,0-.73,0-1.31,0-1,0-1.3c0-.07,0-.1.09-.1h.22l.23,0,.22,0H74c.06,0,.1,0,.1.08,0,.29,0,.73,0,1.31s0,1,0,1.32,0,.74,0,1.34S74.08,65,74.08,65.34Z" transform="translate(-45.35 -21.71)"/><path d="M78.34,65.34c0,.06,0,.09-.08.09h-.77s-.07,0-.07-.11,0-.32,0-.58,0-.46,0-.59v-.47c0-.2,0-.36,0-.46a1.1,1.1,0,0,0-.13-.63.64.64,0,0,0-.57-.22,1.13,1.13,0,0,0-.55.22c-.24.15-.36.29-.36.41v2.34c0,.07,0,.1-.08.1H75s-.08,0-.08-.09,0-.51,0-.92,0-.72,0-.93a6.2,6.2,0,0,0-.18-1.54.43.43,0,0,0,0,0s0,0,.05,0l.45-.08.44-.06s0,0,0,.06a2.21,2.21,0,0,0,.09.49c.14-.11.31-.24.54-.4a1.46,1.46,0,0,1,.79-.25,1.09,1.09,0,0,1,1,.42,1.91,1.91,0,0,1,.2,1v.37c0,.16,0,.29,0,.37s0,.44,0,.78S78.34,65.17,78.34,65.34Z" transform="translate(-45.35 -21.71)"/><path d="M81.25,64.7a2.27,2.27,0,0,1,0,.24,1.85,1.85,0,0,1,0,.24s0,.07,0,.08a.14.14,0,0,1-.07.06,2.55,2.55,0,0,1-1,.15c-.61,0-.91-.28-.91-.83,0-.22,0-.55,0-1s0-.77,0-1a.16.16,0,0,0-.16-.18h-.29c-.05,0-.08-.12-.08-.32a1.94,1.94,0,0,1,0-.24c0-.06,0-.1.12-.11H79c.12,0,.18,0,.18-.16s0-.26,0-.47,0-.38,0-.48,0-.29.11-.29l.74.12q.09,0,.09.09t0,.51c0,.23,0,.41,0,.52s0,.11.1.11h.94s.06,0,.06,0a1,1,0,0,1,0,.15,1,1,0,0,0,0,.15v.18c0,.09,0,.15,0,.18s0,.08-.11.08l-.48,0a4.57,4.57,0,0,0-.47,0s0,.07-.05.22,0,.44,0,.78v.58a1.07,1.07,0,0,0,.07.47.38.38,0,0,0,.38.2,2.29,2.29,0,0,0,.36,0,1.57,1.57,0,0,1,.35-.06S81.25,64.66,81.25,64.7Z" transform="translate(-45.35 -21.71)"/><path d="M85.12,63.33a.36.36,0,0,1-.25.38c-.11,0-.92.12-2.42.23a.9.9,0,0,0,.38.59,1.13,1.13,0,0,0,.67.23,1.82,1.82,0,0,0,1.14-.4l.12-.1h0a1.41,1.41,0,0,1,.15.27,3,3,0,0,1,.14.28s0,.05-.07.09a1.91,1.91,0,0,1-1.47.61,1.84,1.84,0,0,1-2-2,2.11,2.11,0,0,1,.51-1.41,1.72,1.72,0,0,1,1.33-.62,1.6,1.6,0,0,1,1.23.54A1.83,1.83,0,0,1,85.12,63.33Zm-.93-.24a.79.79,0,0,0-.25-.58.87.87,0,0,0-.58-.25.88.88,0,0,0-.64.29.9.9,0,0,0-.28.65s0,.08.14.08A10.84,10.84,0,0,0,84,63.17C84.12,63.14,84.19,63.12,84.19,63.09Z" transform="translate(-45.35 -21.71)"/><path d="M87.9,61.75a4.79,4.79,0,0,1-.06.79c0,.06,0,.09-.07.09l-.25,0-.25,0c-.33,0-.54.09-.63.28a1.72,1.72,0,0,0-.09.7V64c0,.14,0,.36,0,.66s0,.52,0,.67,0,.1-.09.1h-.73a.08.08,0,0,1-.09-.09c0-.22,0-.53,0-1v-1a5.52,5.52,0,0,0-.17-1.56.08.08,0,0,1,0,0,.06.06,0,0,1,0-.07l.4,0,.39-.07c.05,0,.07.07.09.23s0,.23.07.23h0l.32-.2a1.17,1.17,0,0,1,.36-.16,1.37,1.37,0,0,1,.39,0C87.8,61.67,87.9,61.7,87.9,61.75Z" transform="translate(-45.35 -21.71)"/><path d="M91.77,65.34c0,.06,0,.09-.08.09h-.76c-.05,0-.08,0-.08-.11s0-.32,0-.58,0-.46,0-.59,0-.26,0-.47v-.46a1.1,1.1,0,0,0-.13-.63.66.66,0,0,0-.58-.22,1.1,1.1,0,0,0-.54.22c-.24.15-.37.29-.37.41v2.34c0,.07,0,.1-.07.1h-.75c-.06,0-.08,0-.08-.09s0-.51,0-.92,0-.72,0-.93a6.2,6.2,0,0,0-.18-1.54.11.11,0,0,1,0,0s0,0,0,0l.45-.08.44-.06s0,0,0,.06a2.21,2.21,0,0,0,.09.49c.13-.11.31-.24.53-.4a1.52,1.52,0,0,1,.8-.25,1.09,1.09,0,0,1,1,.42,2,2,0,0,1,.2,1c0,.08,0,.2,0,.37v.37c0,.18,0,.44,0,.78Z" transform="translate(-45.35 -21.71)"/><path d="M96.31,61.89a.26.26,0,0,1,0,.07,9.45,9.45,0,0,0-.15,1.54s0,.61.1,1.75v.06c0,.07,0,.11-.1.11l-.33,0-.32,0s-.09-.09-.11-.27,0-.27-.08-.27l-.21.15a2.23,2.23,0,0,1-.43.28,1.27,1.27,0,0,1-.62.16,1.61,1.61,0,0,1-1.27-.6,2,2,0,0,1-.5-1.35,2.12,2.12,0,0,1,.5-1.44,1.75,1.75,0,0,1,1.37-.59,1.47,1.47,0,0,1,1,.42,1.9,1.9,0,0,0,.21.22s0,0,0,0,0-.09.07-.25.06-.25.11-.25a2.31,2.31,0,0,1,.39.06C96.21,61.81,96.31,61.85,96.31,61.89Zm-1,1.63A1.24,1.24,0,0,0,95,62.7a.94.94,0,0,0-.77-.37,1,1,0,0,0-.78.36,1.25,1.25,0,0,0-.3.83,1.2,1.2,0,0,0,.3.82,1,1,0,0,0,.78.36,1,1,0,0,0,.77-.37A1.24,1.24,0,0,0,95.32,63.52Z" transform="translate(-45.35 -21.71)"/><path d="M99.68,61.88a1.79,1.79,0,0,1-.09.38c-.06.2-.11.3-.13.3l-.35-.16a1,1,0,0,0-.39-.07,1,1,0,0,0-.8.35,1.19,1.19,0,0,0-.32.84,1.13,1.13,0,0,0,.32.82,1,1,0,0,0,.8.36,1.19,1.19,0,0,0,.51-.12c.17-.09.25-.13.23-.13s.07.11.11.32a2.6,2.6,0,0,1,.06.41c0,.09-.15.16-.46.24a2.26,2.26,0,0,1-.57.1,1.77,1.77,0,0,1-1.35-.6,2,2,0,0,1-.55-1.4,2,2,0,0,1,.53-1.41,1.81,1.81,0,0,1,1.37-.59,1.84,1.84,0,0,1,1,.28C99.65,61.83,99.68,61.86,99.68,61.88Z" transform="translate(-45.35 -21.71)"/><path d="M101.18,60.75q0,.48-.54.48t-.54-.48a.44.44,0,0,1,.17-.35.55.55,0,0,1,.37-.14.56.56,0,0,1,.38.14A.43.43,0,0,1,101.18,60.75Zm0,1.06c0,.2,0,.5,0,.91s0,.71,0,.91,0,.47,0,.85,0,.67,0,.85,0,.09-.07.09h-.76c-.06,0-.08-.06-.08-.17s0-.45,0-.81,0-.63,0-.81,0-.51,0-.91,0-.72,0-.92q0-.06.09-.06h.21a1,1,0,0,0,.22,0,1,1,0,0,0,.22,0h.22S101.15,61.76,101.15,61.81Z" transform="translate(-45.35 -21.71)"/><path d="M105.46,63.52a2,2,0,0,1-.53,1.4,1.86,1.86,0,0,1-2.72,0,2.09,2.09,0,0,1,0-2.78,1.8,1.8,0,0,1,1.36-.59,1.77,1.77,0,0,1,1.35.59A1.93,1.93,0,0,1,105.46,63.52Zm-.82,0a1.2,1.2,0,0,0-.29-.81,1,1,0,0,0-1.55,0,1.26,1.26,0,0,0,0,1.63,1,1,0,0,0,1.55,0A1.24,1.24,0,0,0,104.64,63.53Z" transform="translate(-45.35 -21.71)"/><path d="M109.46,65.34c0,.06,0,.09-.08.09h-.77s-.07,0-.07-.11,0-.32,0-.58,0-.46,0-.59v-.47c0-.2,0-.36,0-.46a1.1,1.1,0,0,0-.13-.63.64.64,0,0,0-.57-.22,1.16,1.16,0,0,0-.55.22c-.24.15-.36.29-.36.41v2.34c0,.07,0,.1-.08.1h-.75s-.08,0-.08-.09,0-.51,0-.92,0-.72,0-.93a6.2,6.2,0,0,0-.18-1.54.43.43,0,0,0,0,0s0,0,0,0l.45-.08.44-.06s0,0,0,.06a2.21,2.21,0,0,0,.09.49c.14-.11.31-.24.54-.4a1.46,1.46,0,0,1,.79-.25,1.09,1.09,0,0,1,1,.42,1.91,1.91,0,0,1,.2,1v.37c0,.16,0,.29,0,.37s0,.44,0,.78S109.46,65.17,109.46,65.34Z" transform="translate(-45.35 -21.71)"/><path d="M114,61.89l0,.07a9.45,9.45,0,0,0-.15,1.54s0,.61.1,1.75v.06a.09.09,0,0,1-.1.11l-.33,0-.32,0c-.05,0-.08-.09-.11-.27s0-.27-.07-.27a1,1,0,0,0-.22.15,2,2,0,0,1-.43.28,1.26,1.26,0,0,1-.61.16,1.63,1.63,0,0,1-1.28-.6,2,2,0,0,1-.49-1.35,2.11,2.11,0,0,1,.49-1.44,1.76,1.76,0,0,1,1.37-.59,1.45,1.45,0,0,1,1,.42l.21.22,0,0s0-.09.07-.25.07-.25.11-.25a2.31,2.31,0,0,1,.39.06C113.89,61.81,114,61.85,114,61.89Zm-1,1.63a1.24,1.24,0,0,0-.29-.82.93.93,0,0,0-.77-.37,1,1,0,0,0-.78.36,1.25,1.25,0,0,0-.3.83,1.2,1.2,0,0,0,.3.82,1,1,0,0,0,.78.36,1,1,0,0,0,.77-.37A1.24,1.24,0,0,0,113,63.52Z" transform="translate(-45.35 -21.71)"/><path d="M115.62,60v.06c-.06,1-.09,1.8-.09,2.49,0,.31,0,.78,0,1.39s0,1.09,0,1.39q0,.09-.06.09h-.75s-.07,0-.07-.09c0-.3,0-.77,0-1.39s0-1.08,0-1.39,0-.7,0-1.27,0-1,0-1.26c0-.05,0-.08.08-.08h.21l.21,0,.22,0h.21S115.62,60,115.62,60Z" transform="translate(-45.35 -21.71)"/><path d="M122.15,60c0,.34,0,.84-.05,1.51s0,1.18,0,1.51q0,1.54.06,2.34v0s0,0-.11.05h-.7s-.06-.09-.07-.27a1.07,1.07,0,0,0,0-.28l-.06,0a1.64,1.64,0,0,1-2.52,0,2,2,0,0,1-.48-1.37,2.11,2.11,0,0,1,.48-1.4,1.67,1.67,0,0,1,1.32-.59,1.35,1.35,0,0,1,.86.29l.34.29a0,0,0,0,0,0,0V60.82c0-.08,0-.21,0-.39s0-.3,0-.39,0-.1.07-.1l.43,0,.42,0S122.15,59.92,122.15,60Zm-1,3.56a1.31,1.31,0,0,0-.29-.83.94.94,0,0,0-.76-.37,1,1,0,0,0-.8.37,1.3,1.3,0,0,0-.29.84,1.2,1.2,0,0,0,.3.82,1,1,0,0,0,.79.37,1,1,0,0,0,.77-.37A1.26,1.26,0,0,0,121.17,63.53Z" transform="translate(-45.35 -21.71)"/><path d="M126.15,63.33a.36.36,0,0,1-.25.38c-.11,0-.92.12-2.42.23a.9.9,0,0,0,.38.59,1.13,1.13,0,0,0,.67.23,1.8,1.8,0,0,0,1.14-.4l.12-.1h0a1.41,1.41,0,0,1,.15.27l.14.28s0,.05-.07.09a1.91,1.91,0,0,1-1.47.61,1.86,1.86,0,0,1-2-2,2.11,2.11,0,0,1,.51-1.41,1.72,1.72,0,0,1,1.33-.62,1.6,1.6,0,0,1,1.23.54A1.83,1.83,0,0,1,126.15,63.33Zm-.93-.24a.79.79,0,0,0-.25-.58.87.87,0,0,0-.58-.25.88.88,0,0,0-.64.29.9.9,0,0,0-.28.65s0,.08.14.08a11.12,11.12,0,0,0,1.39-.11C125.15,63.14,125.22,63.12,125.22,63.09Z" transform="translate(-45.35 -21.71)"/><path d="M52.07,72.52a.24.24,0,0,1-.08.13,2.41,2.41,0,0,1-1.89.89,2.3,2.3,0,0,1-1.87-.86,3,3,0,0,1-.66-2,3,3,0,0,1,.67-2,2.31,2.31,0,0,1,1.88-.87,2.23,2.23,0,0,1,1.83.8.3.3,0,0,1,.07.14,1.48,1.48,0,0,1-.21.39c-.14.22-.22.33-.25.33s-.12-.07-.24-.19a2.15,2.15,0,0,0-.43-.36,1.58,1.58,0,0,0-.75-.19,1.42,1.42,0,0,0-1.2.59,2.25,2.25,0,0,0-.38,1.33A2.21,2.21,0,0,0,48.94,72a1.38,1.38,0,0,0,1.2.61,1.59,1.59,0,0,0,.73-.19,2.5,2.5,0,0,0,.48-.36l.22-.19a1.24,1.24,0,0,1,.26.31A2.19,2.19,0,0,1,52.07,72.52Z" transform="translate(-45.35 -21.71)"/><path d="M53.51,68.75q0,.48-.54.48t-.54-.48a.44.44,0,0,1,.17-.35.55.55,0,0,1,.37-.14.57.57,0,0,1,.38.14A.46.46,0,0,1,53.51,68.75Zm0,1.06c0,.2,0,.5,0,.91s0,.71,0,.91,0,.47,0,.85,0,.67,0,.85,0,.09-.07.09H52.6c-.06,0-.08-.06-.08-.17s0-.45,0-.81,0-.63,0-.81,0-.51,0-.91,0-.72,0-.92c0,0,0-.06.08-.06h.22a1,1,0,0,0,.22,0,1,1,0,0,0,.22,0h.22C53.46,69.74,53.48,69.76,53.48,69.81Z" transform="translate(-45.35 -21.71)"/><path d="M57.69,73.34c0,.06,0,.09-.07.09h-.77c-.05,0-.07,0-.07-.11s0-.32,0-.58,0-.46,0-.59v-.47c0-.2,0-.36,0-.46a1.1,1.1,0,0,0-.13-.63.64.64,0,0,0-.57-.22,1.13,1.13,0,0,0-.55.22c-.24.15-.36.29-.36.41v2.34c0,.07,0,.1-.08.1h-.75c-.05,0-.08,0-.08-.09s0-.51,0-.92,0-.72,0-.93a6.2,6.2,0,0,0-.18-1.54.11.11,0,0,1,0,0s0,0,0,0l.45-.08L55,69.7s0,0,0,.06a2.21,2.21,0,0,0,.09.49c.13-.11.31-.24.53-.4a1.52,1.52,0,0,1,.8-.25,1.09,1.09,0,0,1,1,.42,2,2,0,0,1,.2,1v.37c0,.16,0,.29,0,.37s0,.44,0,.78Z" transform="translate(-45.35 -21.71)"/><path d="M61.75,71.33a.37.37,0,0,1-.25.38c-.12,0-.92.12-2.42.23a.87.87,0,0,0,.38.59,1.13,1.13,0,0,0,.67.23,1.78,1.78,0,0,0,1.13-.4l.13-.1h0l.14.27a1.46,1.46,0,0,1,.14.28s0,.05-.06.09a1.92,1.92,0,0,1-1.47.61,1.86,1.86,0,0,1-2-2,2.07,2.07,0,0,1,.52-1.41A1.7,1.7,0,0,1,60,69.51a1.6,1.6,0,0,1,1.23.54A1.83,1.83,0,0,1,61.75,71.33Zm-.93-.24a.8.8,0,0,0-.26-.58.83.83,0,0,0-.58-.25.85.85,0,0,0-.63.29.9.9,0,0,0-.28.65s0,.08.14.08a11.12,11.12,0,0,0,1.38-.11C60.74,71.14,60.82,71.12,60.82,71.09Z" transform="translate(-45.35 -21.71)"/><path d="M68.05,68c0,.34,0,.84,0,1.51s0,1.18,0,1.51q0,1.55.06,2.34v0s0,0-.11.05h-.71s0-.09-.06-.27a1.07,1.07,0,0,0,0-.28l-.06,0a1.62,1.62,0,0,1-1.23.58,1.64,1.64,0,0,1-1.3-.6,2,2,0,0,1-.48-1.37,2.11,2.11,0,0,1,.49-1.4,1.67,1.67,0,0,1,1.32-.59,1.35,1.35,0,0,1,.86.29l.33.29s0,0,0,0V68.82c0-.08,0-.21,0-.39s0-.3,0-.39,0-.1.06-.1l.43,0,.43,0A.07.07,0,0,1,68.05,68Zm-1,3.56a1.31,1.31,0,0,0-.29-.83.94.94,0,0,0-.76-.37,1,1,0,0,0-.8.37,1.25,1.25,0,0,0-.29.84,1.2,1.2,0,0,0,.3.82,1,1,0,0,0,.79.37,1,1,0,0,0,.77-.37A1.26,1.26,0,0,0,67.07,71.53Z" transform="translate(-45.35 -21.71)"/><path d="M72.05,71.33a.36.36,0,0,1-.25.38c-.11,0-.92.12-2.42.23a.9.9,0,0,0,.38.59,1.13,1.13,0,0,0,.67.23,1.82,1.82,0,0,0,1.14-.4l.12-.1h0a1.41,1.41,0,0,1,.15.27,3,3,0,0,1,.14.28s0,.05-.07.09a1.91,1.91,0,0,1-1.47.61,1.84,1.84,0,0,1-2-2A2.11,2.11,0,0,1,69,70.13a1.72,1.72,0,0,1,1.33-.62,1.6,1.6,0,0,1,1.23.54A1.83,1.83,0,0,1,72.05,71.33Zm-.93-.24a.76.76,0,0,0-.26-.58.82.82,0,0,0-.57-.25.88.88,0,0,0-.64.29.9.9,0,0,0-.28.65s0,.08.14.08a10.84,10.84,0,0,0,1.38-.11C71,71.14,71.12,71.12,71.12,71.09Z" transform="translate(-45.35 -21.71)"/><path d="M79.41,70.65a3,3,0,0,1-.62,1.9,2.12,2.12,0,0,1-1.74.87h-.61l-.62,0-.55,0h-.55c-.07,0-.1,0-.1-.09q0-.43,0-1.29c0-.57,0-1,0-1.29s0-.76,0-1.36,0-1.06,0-1.37c0,0,0-.08.11-.08h1.68a3.3,3.3,0,0,1,2,.51,2.49,2.49,0,0,1,.74,1A3.15,3.15,0,0,1,79.41,70.65Zm-1,0A2,2,0,0,0,78,69.28a1.72,1.72,0,0,0-1.34-.55h-.56c-.3,0-.46.07-.46.17s0,.5,0,.9,0,.7,0,.9,0,.49,0,.89,0,.69,0,.89.16.16.47.17h.57a2,2,0,0,0,.72-.1,1.32,1.32,0,0,0,.59-.43A2.26,2.26,0,0,0,78.46,70.65Z" transform="translate(-45.35 -21.71)"/><path d="M83.58,71.52a2,2,0,0,1-.54,1.4,1.77,1.77,0,0,1-1.35.59,1.79,1.79,0,0,1-1.36-.59,2.06,2.06,0,0,1,0-2.78,1.85,1.85,0,0,1,2.71,0A1.93,1.93,0,0,1,83.58,71.52Zm-.83,0a1.15,1.15,0,0,0-.29-.81,1,1,0,0,0-.77-.36,1,1,0,0,0-.78.35,1.19,1.19,0,0,0-.29.82,1.24,1.24,0,0,0,.29.81,1,1,0,0,0,.78.36,1,1,0,0,0,.77-.36A1.19,1.19,0,0,0,82.75,71.53Z" transform="translate(-45.35 -21.71)"/><path d="M86,72.22a1.1,1.1,0,0,1-.47.93,1.6,1.6,0,0,1-1,.32H84.2s-.07-.08-.07-.19a1.43,1.43,0,0,0,0-.26c0-.11,0-.2,0-.25s0-.06.07-.07h.26c.49,0,.74-.15.74-.45,0-.14-.11-.27-.32-.39-.36-.2-.56-.32-.61-.36a.89.89,0,0,1-.32-.73,1.05,1.05,0,0,1,.44-.91,1.67,1.67,0,0,1,1-.29.09.09,0,0,1,.09.05l.09.31a1.86,1.86,0,0,1,.07.32s0,0-.07.06l-.5.07c-.2.05-.3.16-.3.32s.1.24.31.36a3.8,3.8,0,0,1,.6.38A1,1,0,0,1,86,72.22Z" transform="translate(-45.35 -21.71)"/><path d="M91.69,70.67a2.91,2.91,0,0,1-.62,1.83,2.46,2.46,0,0,1-1.66,1,2,2,0,0,0,.51.78.07.07,0,0,1,0,.06c0,.07-.08.11-.26.12h-.9c-.13,0-.2-.35-.22-1a2.56,2.56,0,0,1-1.6-1,2.87,2.87,0,0,1-.6-1.8,2.9,2.9,0,0,1,.75-2,2.54,2.54,0,0,1,3.83,0A2.9,2.9,0,0,1,91.69,70.67Zm-.94,0a2,2,0,0,0-.48-1.33A1.58,1.58,0,0,0,89,68.75a1.56,1.56,0,0,0-1.25.6,2.12,2.12,0,0,0,0,2.66,1.56,1.56,0,0,0,1.25.6,1.59,1.59,0,0,0,1.26-.6A2.07,2.07,0,0,0,90.75,70.67Z" transform="translate(-45.35 -21.71)"/><path d="M95.94,69.88c0,.19,0,.48,0,.86s0,.67,0,.87,0,.47,0,.85,0,.66,0,.85a.11.11,0,0,1-.08.11h-.79s0-.09-.06-.29,0-.29,0-.29a.09.09,0,0,0-.06,0,2,2,0,0,1-1.29.57,1.11,1.11,0,0,1-1.14-.63,3.7,3.7,0,0,1-.17-1.39,6.76,6.76,0,0,1,.14-1.53c0-.1.07-.15.13-.15h.68s.08,0,.08.09,0,.27,0,.51a4,4,0,0,0-.06.53c0,.16,0,.33,0,.52a3.09,3.09,0,0,0,.09.92.72.72,0,0,0,.75.42,1.06,1.06,0,0,0,.58-.24A.74.74,0,0,0,95,72c0-.2,0-.89,0-2.07,0-.12,0-.19.16-.19h.64C95.9,69.74,95.94,69.79,95.94,69.88Z" transform="translate(-45.35 -21.71)"/><path d="M100,71.33a.36.36,0,0,1-.25.38c-.11,0-.92.12-2.42.23a.9.9,0,0,0,.38.59,1.16,1.16,0,0,0,.68.23,1.8,1.8,0,0,0,1.13-.4l.12-.1h0a1.41,1.41,0,0,1,.15.27l.14.28s0,.05-.07.09a1.91,1.91,0,0,1-1.47.61,1.86,1.86,0,0,1-2-2A2.11,2.11,0,0,1,97,70.13a1.74,1.74,0,0,1,1.34-.62,1.59,1.59,0,0,1,1.22.54A1.83,1.83,0,0,1,100,71.33Zm-.93-.24a.79.79,0,0,0-.25-.58.85.85,0,0,0-.58-.25.88.88,0,0,0-.64.29.94.94,0,0,0-.28.65s0,.08.14.08a11.12,11.12,0,0,0,1.39-.11C99,71.14,99.11,71.12,99.11,71.09Z" transform="translate(-45.35 -21.71)"/><path d="M104.46,71.54a2,2,0,0,1-.48,1.34,1.58,1.58,0,0,1-1.27.61,1.55,1.55,0,0,1-.89-.25L101.5,73s0,.09,0,.24,0,.22-.07.22h-.82a0,0,0,0,1,0-.05.42.42,0,0,1,0-.07c0-.42.06-1.21.06-2.39,0-.48,0-1.19-.06-2.12,0-.6,0-.86,0-.78a.11.11,0,0,1,.1-.12H101l.22,0a1.06,1.06,0,0,1,.23,0s.06,0,.06.09,0,.22,0,.4,0,.32,0,.41,0,.34,0,.61,0,.48,0,.62,0,.14,0,.14a.07.07,0,0,0,.06,0,1.37,1.37,0,0,1,1.14-.53,1.63,1.63,0,0,1,1.31.6A2.15,2.15,0,0,1,104.46,71.54Zm-.88,0a1.28,1.28,0,0,0-.29-.82,1,1,0,0,0-.77-.38,1,1,0,0,0-.78.37,1.25,1.25,0,0,0-.3.83,1.27,1.27,0,0,0,.3.84,1,1,0,0,0,.79.36,1,1,0,0,0,.77-.37A1.28,1.28,0,0,0,103.58,71.5Z" transform="translate(-45.35 -21.71)"/><path d="M107.26,69.75a4.79,4.79,0,0,1-.06.79c0,.06,0,.09-.08.09l-.25,0-.25,0c-.33,0-.54.09-.63.28a2,2,0,0,0-.08.7V72c0,.14,0,.36,0,.66s0,.52,0,.67,0,.1-.09.1h-.73a.08.08,0,0,1-.09-.09c0-.22,0-.53,0-1s0-.74,0-1a5.47,5.47,0,0,0-.18-1.56s0,0,0,0a.08.08,0,0,1,0-.07l.41,0,.39-.07s.07.07.08.23,0,.23.07.23h0l.32-.2a1.42,1.42,0,0,1,.36-.16,1.37,1.37,0,0,1,.39,0C107.16,69.67,107.26,69.7,107.26,69.75Z" transform="translate(-45.35 -21.71)"/><path d="M111.48,69.89a.26.26,0,0,1,0,.07,9.45,9.45,0,0,0-.15,1.54s0,.61.1,1.75v.06c0,.07,0,.11-.1.11l-.33,0-.32,0s-.09-.09-.11-.27,0-.27-.08-.27l-.21.15a2,2,0,0,1-.43.28,1.26,1.26,0,0,1-.61.16,1.62,1.62,0,0,1-1.28-.6,2,2,0,0,1-.49-1.35,2.11,2.11,0,0,1,.49-1.44,1.75,1.75,0,0,1,1.37-.59,1.45,1.45,0,0,1,1,.42l.21.22s0,0,0,0,0-.09.07-.25.06-.25.11-.25a2.31,2.31,0,0,1,.39.06C111.38,69.81,111.48,69.85,111.48,69.89Zm-1,1.63a1.24,1.24,0,0,0-.29-.82.93.93,0,0,0-.77-.37,1,1,0,0,0-.78.36,1.25,1.25,0,0,0-.3.83,1.2,1.2,0,0,0,.3.82,1,1,0,0,0,.78.36,1,1,0,0,0,.77-.37A1.24,1.24,0,0,0,110.49,71.52Z" transform="translate(-45.35 -21.71)"/><path d="M115.87,68c0,.34,0,.84,0,1.51s0,1.18,0,1.51c0,1,0,1.81.07,2.34v0s0,0-.1.05H115s-.06-.09-.06-.27a1.07,1.07,0,0,0,0-.28l-.06,0a1.65,1.65,0,0,1-2.53,0,2.22,2.22,0,0,1,0-2.77,1.67,1.67,0,0,1,1.32-.59,1.37,1.37,0,0,1,.86.29l.33.29a0,0,0,0,0,0,0V68.82c0-.08,0-.21,0-.39s0-.3,0-.39,0-.1.06-.1l.43,0,.43,0S115.87,67.92,115.87,68Zm-1,3.56a1.31,1.31,0,0,0-.29-.83,1,1,0,0,0-.77-.37,1,1,0,0,0-.79.37,1.25,1.25,0,0,0-.3.84,1.21,1.21,0,0,0,.31.82,1,1,0,0,0,.78.37,1,1,0,0,0,.78-.37A1.32,1.32,0,0,0,114.9,71.53Z" transform="translate(-45.35 -21.71)"/><path d="M120.37,69.89s0,0,0,.07a9.45,9.45,0,0,0-.15,1.54s0,.61.1,1.75v.06a.09.09,0,0,1-.1.11l-.32,0-.33,0s-.08-.09-.11-.27,0-.27-.07-.27a.8.8,0,0,0-.21.15,2.58,2.58,0,0,1-.43.28,1.33,1.33,0,0,1-.62.16,1.63,1.63,0,0,1-1.28-.6,2,2,0,0,1-.49-1.35,2.11,2.11,0,0,1,.49-1.44,1.76,1.76,0,0,1,1.37-.59,1.49,1.49,0,0,1,1,.42l.2.22,0,0a1,1,0,0,0,.06-.25c0-.16.07-.25.11-.25a2.53,2.53,0,0,1,.4.06C120.26,69.81,120.37,69.85,120.37,69.89Zm-1,1.63a1.19,1.19,0,0,0-.29-.82.92.92,0,0,0-.76-.37,1,1,0,0,0-.79.36,1.25,1.25,0,0,0-.3.83,1.2,1.2,0,0,0,.3.82,1,1,0,0,0,.79.36.94.94,0,0,0,.76-.37A1.24,1.24,0,0,0,119.37,71.52Z" transform="translate(-45.35 -21.71)"/><path d="M122.83,72.22a1.09,1.09,0,0,1-.46.93,1.64,1.64,0,0,1-1,.32h-.27s-.06-.08-.06-.19,0-.14,0-.26a1.61,1.61,0,0,1,0-.25s0-.06.07-.07h.27c.49,0,.73-.15.73-.45,0-.14-.1-.27-.32-.39l-.61-.36a.93.93,0,0,1-.32-.73,1.08,1.08,0,0,1,.44-.91,1.7,1.7,0,0,1,1-.29.07.07,0,0,1,.08.05,2.19,2.19,0,0,1,.1.31,1.86,1.86,0,0,1,.07.32s0,0-.07.06l-.51.07c-.2.05-.3.16-.3.32s.11.24.32.36a3.14,3.14,0,0,1,.59.38A1,1,0,0,1,122.83,72.22Z" transform="translate(-45.35 -21.71)"/><polygon points="38.65 34.8 39.01 35.62 39.81 35.76 39.23 36.4 39.37 37.3 38.65 36.87 37.93 37.3 38.07 36.4 37.49 35.76 38.29 35.62 38.65 34.8"/><polygon points="93.35 52.88 93.71 53.7 94.51 53.83 93.93 54.47 94.07 55.38 93.35 54.95 92.63 55.38 92.77 54.47 92.19 53.83 92.99 53.7 93.35 52.88"/></svg>