<svg version="1" xmlns="http://www.w3.org/2000/svg" width="727" height="339"><path d="M121 3c-9 10-13 29-8 43l2 6-9 8c-6 6-8 8-7 5 2-4 4-17 3-24 0-7-3-16-4-16-2 0-8 6-10 10-5 11-5 26 0 38l2 5-7 10-7 9 1-5c1-6-1-18-4-25-2-6-9-13-11-13l-4 4c-8 12-5 32 7 44l5 5-5 11-6 11v-8c0-10-3-18-8-24-4-4-12-9-13-8-1 2-2 15-1 22 1 12 9 25 16 29 2 1 2 1-1 11-2 11-4 13-4 7 0-9-6-21-12-27-3-4-14-9-16-9l-1 5c0 19 9 36 24 44l5 2-1 13v13l-4-8c-7-18-17-27-32-29-7 0-7 0-4 9 6 18 15 27 32 32l9 3 2 8 2 9c-1 1-3-2-7-5-12-12-21-16-33-16-8 0-11 1-12 3l7 8c12 12 25 17 41 16h6l5 10 6 11-4-2c-9-8-25-14-35-14-6 0-14 3-17 5l-3 3 3 2c5 4 13 9 20 11 5 2 8 2 17 2s11 0 15-2l5-3 3 4 7 11c9 11 9 11 3 7a50 50 0 0 0-37-6c-4 1-9 5-9 6 0 2 9 7 15 11 12 6 24 6 33 2 10-4 10-4 13 0 6 6 13 12 27 22a265 265 0 0 1 11 10l-12-2c-10 0-20 1-26 5-3 2-8 8-7 9 1 3 10 4 22 4 14-1 21-3 27-10l4-4 5 3c10 5 36 15 40 15 1 0 4-5 3-6l-15-5-31-14 3-3c5-5 6-9 6-21 0-7 0-11-2-14-3-6-5-6-9-3-7 6-8 25-2 36 2 5 1 4-16-8l-5-5 2-2c6-2 10-12 10-23 0-6-2-18-4-19h-3c-4 1-9 7-10 12-2 7-2 18 0 24l2 6a220 220 0 0 1-37-40l5-3c10-3 15-10 21-25l4-10c0-1-10 1-13 3-8 4-12 11-16 26l-2 7-12-21c0-2 0-2 3-2 4 0 12-3 17-6 6-3 12-11 16-20 2-4 4-8 3-9s-13 2-17 4c-6 2-14 11-18 20l-5 9c-1 0-2-2-5-12l-2-9 8-1c10-2 16-6 23-13 5-5 13-17 13-20l-6-1c-10 1-16 4-22 9a76 76 0 0 0-16 22c-2 2-3-9-2-25l4-29 2-6h10c10 0 16-1 23-5 6-3 11-7 16-13 4-5 3-6-6-7-13-1-25 4-36 15l-5 4 7-17 2-4 9 1c11 0 17-1 27-6 5-2 9-5 13-9 7-7 7-8-3-9-12-2-27 3-37 11-5 5-6 5-4 2l5-8 6-10c3-3 4-4 6-4l8 2c12 2 25-1 36-9l4-3c0-2-10-4-17-4-10-1-22 4-28 9-4 3-2-1 5-9 9-12 9-12 14-10 7 3 21 2 31 0 6-2 17-7 18-10 2-2-6-4-16-5-9 0-11 0-19 2a62 62 0 0 0-12 5l3-4 3-4 1-5 4-9c2-10 0-29-3-29l-4 3zM599 7c-3 12 2 33 9 40 3 4 4 6 0 4-6-4-17-7-26-7-10 0-20 2-19 4 1 3 9 8 17 11a62 62 0 0 0 37-1c1 0 17 20 16 21l-2-2c-5-5-23-10-32-8-6 0-12 3-12 4 0 2 10 8 17 10 8 3 20 3 27 1l5-1 3 4c4 4 13 19 12 20l-3-2c-8-8-20-13-31-13-8 0-15 1-15 3s11 12 17 15c10 5 18 7 29 6l8-1 2 4 7 17-7-6c-9-9-18-13-29-13l-11 1c-3 1-3 1-2 3 2 4 12 14 17 16 9 5 18 6 27 6l7-1 3 10 3 20c1 11 0 30-2 30l-5-7c-5-9-13-17-19-20-5-2-19-5-20-4-1 2 7 16 13 21 7 7 12 10 23 13l7 2c1 1-2 11-4 17-1 4-3 5-3 3l-4-10c-7-14-16-21-30-22-7-1-7-1-1 10 7 13 17 21 30 24l5 2-10 19-2 2-2-7-4-12c-5-11-10-15-19-16l-5-1v3c1 5 6 17 10 21 4 6 8 10 15 12l5 2-3 4-22 26-26 20c-13 9-13 9-11 4 3-6 4-9 4-16 0-9-2-14-6-18-5-4-7-4-9 1-5 13-3 28 4 36l3 3c0 2-22 11-38 16l-7 3-1 3c1 3 1 3 5 3l31-12 12-6 5 5c5 6 12 8 23 9 12 0 25-1 25-4 0-6-8-11-19-13-5-1-21-1-27 1-2 0 1-2 5-5 11-7 23-17 31-24 6-6 7-7 9-5 5 4 21 6 33 2 7-2 18-8 21-11 2-2 2-2 0-3-12-10-27-9-44 2-7 4-10 4-6 1 5-4 22-29 27-41l3-6h10c16 0 25-4 37-16 6-5 8-8 6-10h-21c-7 2-16 8-22 14-9 8-8 8-6-1l2-10 6-2c6-1 14-5 19-9 6-4 14-18 18-31l1-2h-7c-15 2-25 10-33 30l-3 8v-11l-1-13c0-3 0-3 5-6 9-4 16-12 20-21l4-17v-10l-3 1c-8 2-16 8-21 17l-6 22-3-10c-3-10-3-12-2-12 7-4 14-14 16-24 3-10 2-27-2-27-2 0-10 6-13 10-4 6-5 12-6 21l-1 8-5-10c-5-11-5-11-4-13 8-5 12-12 15-23 2-9-1-21-6-26-2-3-3-3-7 1-7 7-11 20-10 33 0 7 0 7-1 5l-7-10c-5-7-6-8-4-10l3-7c3-10 2-23-1-31-3-5-8-12-10-12-3 0-5 8-5 18 0 9 0 13 2 18l1 6-8-8-7-8 1-5c5-15 2-32-7-42-6-6-7-5-8 3z"/><path d="M161 8c-7 3-13 7-20 15a718 718 0 0 1-16 19c5-6 7-6 17-7 14-1 22-5 33-14 5-5 10-13 9-14l-9-1c-7 0-10 0-14 2zM544 7l-2 1c0 2 10 13 16 17 8 7 15 9 27 10 7 0 10 1 11 2 5 4 5 3-1-4-17-21-25-26-40-27l-11 1zM226 67c-3 4-7 14-10 22-2 9-5 28-5 36 0 9-1 16-2 16s-4-7-6-15a142 142 0 0 1 3-54c-1-2-1-2-2 1-9 18-9 51 1 71 2 5 3 6 5 6l3-1v-12c-2-26 5-61 16-70 5-5 5-3 3 12-2 18-2 39 1 50 3 14 9 24 11 20l-3-10c-6-13-7-19-6-40V65c-2-3-6-2-9 1zM308 76a163 163 0 0 0-9 30l-2-1-3-2c-2 0-12 9-19 18l-5 4c-2 0-4-4-4-8s0-4 2-4c4 1 6 0 9-4 2-5 2-8 0-11-3-2-7-1-10 4l-5 8-7 11c-6 10-7 9-7-8 0-10-1-12-2-12-2 0-3 4-3 16 0 9 1 11 2 13 4 5 8 2 13-9 3-7 5-8 5-2s7 10 13 6l5-7 4-5 1 6c1 7 2 10 5 11s7-1 8-5a658 658 0 0 0 6-21l-1 18c1 11 1 12 5 12 2 0 3-2 6-8 6-11 6-12 7-7 2 11 12 11 19 0 2-4 6-9 8-9l1 7c1 9 3 14 7 14 2 0 2 0 1-2-1-4 0-8 2-15 3-8 6-14 8-14s2 1 1 3l-1 8c0 4 0 5 2 6 3 0 5-1 7-3 1-4 2-3 3 3 1 9 3 14 7 14 1 0 2 0 1-2-3-6 6-29 10-29 2 0 2 1 1 3v13c2 2 6 1 7-2 2-4 3-2 4 6 0 9 3 14 5 14 3-1 3-2 5-13 1-10 4-17 7-18v4c-1 7-1 24 1 27 1 3 1 3 3 3 3 0 3-1 6-9l6-14c2 8 2 9 4 11s7 2 10 0l7-8 6-7 1 8c0 11 3 15 8 13l7-10 6-10v3c-2 1-3 16-3 24 1 9 2 11 5 11 2 0 2-1 3-5 0-6 3-15 8-25 4-10 7-14 9-13 1 1 1 3-2 12l-5 24c0 3 4 5 6 3l6-10 12-16 8-8c0-3-17 12-23 22l-4 5 1-9 3-17c1-5 1-6-1-7s-3-1-5 2c-5 5-5 6-5 7l-2 4-4 10-4 9-1 2-1-2c-1-4 0-15 3-25l1-9c-1-1-9 9-14 17l-6 8-1-14c0-10-1-13-2-13-1-1-1 0-1 1l-5 6-10 11-7 6c-2 0-4-3-4-7s0-5 4-5 9-5 9-10c0-3-1-4-3-5-3-2-7 0-8 3l-4 5-11 20-3 6c-1 0-2-9-2-20 1-12 0-14-4-10-2 2-6 12-7 21l-2 6c-2 0-3-6-3-19 1-10 1-15 3-21 2-8 2-10-1-7-2 3-4 11-5 19 0 6-1 7-4 11l-5 3 1-7c1-6 1-6-1-8-5-3-9 2-13 15-3 11-5 10-5-5l-1-10-2 4c0 4-8 12-9 11l1-7c1-7 0-9-4-9-3 0-6 5-9 14l-4 9c-2 0-3-7-2-15v-7l-2 2-3 4-9 10-9 9c-3 0-5-3-5-7s1-5 2-4c8 1 15-11 9-16-2-2-6 0-11 6a82 82 0 0 0-7 11l-4 7c-2 4-4 6-5 6-2 0-2-17 1-31 3-16 3-21 1-22s-2-1-3 1zm-31 26c0 4-4 10-8 10-3 0-3-1-1-6 4-7 8-9 9-4zm59-1c2 4-3 11-7 11-2 0-2 0-2-3 2-7 8-13 9-8zm122 0c1 2-2 9-4 10l-4 1c-2 0-2 0-1-5l3-6c2-2 6-3 6 0zm-161 13c0 6-3 14-5 14-1 0-2-1-2-3-1-3 1-15 2-18l2-2 2 2c1 2 2 3 1 7zM630 143h-3l-3 2c0 2 13 18 17 21 8 6 12 7 22 8 11 0 11 0 4-10-9-13-20-20-31-21h-6zM84 144c-6 2-13 7-17 12-5 6-11 15-11 17l8 1c14-1 23-6 34-21l4-8c0-2-13-2-18-1zM247 89c-1 6-2 7 0 7l2-4 2-6v-2s-3 2-4 5z"/><path d="M476 87l-2 6c0 4 0 4 1 3l2-4 1-4c2-2 2-4 0-4l-2 3zM380 155c-6 2-9 6-9 12l2 6c1 2 8 5 14 5 4 1 5 2 5 3 2 5-5 6-13 3l-4-2-3 3-2 3 4 4c4 2 5 2 12 2 11 0 16-3 17-11 1-7-3-11-15-13l-6-3 1-3h10c3 1 3 1 5-1 4-4 3-5-1-7-5-2-12-2-17-1zM156 175v19h10v-6l1-7 9-1h8v-8h-18v-7l10-1h9v-9h-29v20zM192 175v19h10l1-20v-19h-11v20zM211 175v19h29v-9h-19v-3-27h-10v20zM246 174v19l6 1h5v-11c0-12 0-13 6-5l4 4 7-5 5-6v23h10v-38l-5-1c-6 0-5 0-14 10l-2 3-3-4-6-6c-1-3-2-3-7-3h-6v19zM298 165v29h10v-13l9-1h8l1-4v-5l-9 1h-9v-7l10-1h9v-9h-29v10zM334 175v19h30l1-5v-4h-10c-9 0-10 0-11-2-1-3 1-4 10-4h9v-9h-9c-9 0-11-1-10-4 1-2 2-2 10-2h10v-9h-30v19zM405 156v8h6l5 1 1 14v15h10v-29l6-1h5v-8l-16-1-17 1zM445 163v28c0 3 0 3 5 3h5v-39h-10v8zM461 156l7 17 7 19c1 2 2 2 6 2 5 0 6 0 7-4a219 219 0 0 1 10-23l4-11c1-1-1-1-5-1h-6l-2 7a723 723 0 0 0-7 17l-4-8c-6-17-5-16-12-16l-5 1zM513 159l-4 9-10 25 5 1c4 0 5 0 6-3l2-4h7c9 0 10 0 11 4 2 3 2 3 7 3h6l-2-5a196 196 0 0 0-11-24l-4-9-6-1h-5l-2 4zm10 14l2 5h-5l-4-1 4-9 3 5zM549 174v20h14c16 0 16 0 15-6v-3h-18v-15l-1-14-5-1h-5v19zM108 236c-5 3-12 10-14 16s-3 19-2 19c2 1 10-4 14-8 4-5 7-13 8-21 0-9 0-9-6-6zM613 238c0 6 2 16 5 21 4 6 12 12 16 12 1 0 1-10-1-16-2-8-6-14-12-18-7-4-8-4-8 1zM690 235c-8 2-18 8-23 13l-5 5c0 2 9 4 16 5 9 0 17-1 27-6 6-2 15-9 15-11 0-3-12-7-20-7l-10 1zM601 255c-6 13-3 33 5 38l4 2c3-1 6-10 6-17 1-12-2-20-8-24-4-3-6-2-7 1zM75 297c-8 1-13 4-16 8s-3 4 7 7c8 2 25 2 32 0 5-1 12-6 12-8s-11-6-21-7l-8-1-6 1zM636 297c-7 1-15 4-18 6-2 1-2 1 0 3 7 8 28 10 45 5l7-3-1-2c-4-7-19-11-33-9z"/><path stroke="#000" stroke-width=".30000000000000004" stroke-miterlimit="10" d="M154 216h424"/><path d="M191 258h-4l-4-14a52 52 0 0 1-1-5l-1 3v2l-4 14h-4l-3-12-3-11h4l3 13 1 6a39 39 0 0 1 1-6l4-13h4l3 13 2 6 1-6 3-13h4l-6 23zM207 258l-6-2c-2-2-2-4-2-7s0-5 2-6c1-2 3-3 6-3l5 2 2 6v2h-12l2 4 3 1a13 13 0 0 0 6-1v3l-3 1h-3zm0-15l-3 1-2 3h8l-1-3-2-1zM225 255h2v3h-3c-4 0-6-2-6-5v-10h-2v-1l3-2 1-3h2v4h5v2h-5v10l1 2h2zM237 255h3v3h-2-2c-3 0-5-2-5-5v-10h-2v-1l2-2 1-3h3v4h5v2h-5v12h2zM252 240c2 0 4 1 5 3l2 6-2 7c-1 2-3 2-5 2l-5-2-1 2h-3v-24h4v5a42 42 0 0 1 0 4c1-2 3-3 5-3zm-1 3l-3 2-1 4 1 5 3 1 3-1 1-5c0-4-1-6-4-6zM271 258l-7-2-2-7 2-6 6-3 5 2c2 2 2 4 2 6v2h-11l1 4 4 1a13 13 0 0 0 6-1v3l-3 1h-3zm-1-15l-3 1-1 3h8l-1-3-3-1zM296 258l-2-8-2-6-1 6-3 8h-4l-5-17h4l2 8 1 5a35 35 0 0 1 1-4l3-9h4l3 9a34 34 0 0 1 1 4l1-5 2-8h4l-5 17h-4zM315 258l-6-2c-2-2-2-4-2-7s0-5 2-6c1-2 3-3 6-3l5 2 2 6v2h-11l1 4 3 1a13 13 0 0 0 6-1v3l-3 1h-3zm0-15l-3 1-1 3h7l-1-3-2-1zM335 240h2l-1 4h-1l-4 1-1 4v9h-4v-17h3l1 3 2-3 3-1zM349 240c2 0 4 1 5 3l2 6-2 7c-1 2-3 2-5 2l-5-2h-1v2h-3v-24h4v5a42 42 0 0 1 0 4c1-2 3-3 5-3zm-1 3c-2 0-3 1-3 2l-1 4 1 5 3 1 3-1 1-5c0-4-1-6-4-6zM387 246c0 4-1 7-3 9s-5 3-9 3h-6v-23h7c3 0 6 1 8 3s3 5 3 8zm-4 0c0-5-2-8-7-8h-4v17h3c6 0 8-3 8-9zM399 258l-6-2c-2-2-2-4-2-7s0-5 2-6c1-2 3-3 6-3l5 2 2 6v2h-12l2 4 3 1a13 13 0 0 0 6-1v3l-3 1h-3zm0-15l-3 1-1 3h7l-1-3-2-1zM422 258v-2l-3 1-3 1-4-1-2-5v-11h4v10l1 3 2 1 3-1 2-5v-8h3v17h-3zM437 255h3v3h-4c-3 0-5-2-5-5v-10h-3v-1l3-2 1-3h3v4h4v2h-4v12h2zM455 253l-2 4-5 1-6-1v-3l6 1c2 0 3 0 3-2v-1l-2-1-2-1-4-2-1-3 2-4 5-1 5 1-1 3-5-1-2 2v1l4 2 3 1 1 2 1 2zM466 258l-6-2c-2-2-2-4-2-7s0-5 2-6l6-3 5 1-1 3-4-1c-3 0-5 2-5 6l1 5 4 1 4-1v3l-2 1h-2zM490 258h-4v-11l-1-3-2-1-4 2-1 4v9h-4v-24h4v9l2-2 3-1c5 0 7 2 7 7v11zM498 258h-3v-24h3v24zM515 258l-1-3-3 3h-3l-4-1-2-4 2-4 7-2h3v-1l-1-2-3-1h-2l-3 1-1-2 3-1 3-1c3 0 4 1 5 2 2 1 2 2 2 4v12h-2zm-6-3l3-1 1-3v-1h-2l-4 1-1 2 1 2h2zM537 258h-3v-11l-1-3-3-1-3 2-1 4v9h-4v-17h3l1 2 2-2 3-1c4 0 6 2 6 7v11zM548 258l-5-2-1-7 1-6c2-2 3-3 5-3 3 0 4 1 6 3v-9h3v24h-3v-2l-6 2zm1-3l4-1 1-4v-1l-1-4-4-2-3 2-1 4 1 5 3 1z"/></svg>