<svg xmlns="http://www.w3.org/2000/svg" width="490.8" height="353.2" baseProfile="tiny" version="1.2"><g fill="#040606" fill-rule="evenodd"><path d="M67.4 75.8c0-4 .5-2.9 2.8-5.9 7.3-9.3 9.7-16 11.4-27.7l.7-8.2-.2-4c0-4-1-6.4-1-8-1.2.3-4.5 3.8-5.3 4.8-2.5 3.4-3.4 3.9-6.1 8.5-5 8.4-7.6 15.9-7.6 25.8 0 3.1 1.2 7.4 2.9 9.7 1.7 2.3 1.8-.2.9 6-.3 2.1-.4 1.7-1.3 3-2.3 3.5-4.6 6.6-6.7 10.2L55 95l-3 5.5c-2 3.4-2.7 5.3-4.1 8.3l-.8 1.4-.4 1-.3.5c0-4 0-2.3 2.1-6.6a55.7 55.7 0 0 0 2.3-44.1L48 54.9c-2 1.3-5.1 9-6.1 11.9-3.6 10.8-7 27.6-1.5 38 1 1.7 2.6 4 4.2 4.8v3.1c0 1-.1.8-.2 1.5 0 1.1.2.6.2 1.4l-5.2 14.5-1.5 5a123 123 0 0 0-3.8 16c-.9-.6-1-2.8-.8-3.4l1-3.6c1.7-8.2 2.9-16.6 1.3-25-1.5-7.8-4.9-16-10-22l-1-1.2c-.7-1-.7-1-1.3-1.2-.3 1.2-.8 2-1.1 3.2l-1 3.4c-2.5 11.3-2.7 32.2 3.3 41.6 1.4 2.1 4.7 5.5 7.2 6l1 5.1c.4 1.4.6.6.3 2.5l-.5 2.6a286 286 0 0 0-2 19.4L30 187v6.3c-1.2-1.4-1-1.3-1-3.2.2-3.1 0-11.4-.4-14A51 51 0 0 0 6.5 141c0 1.4-.4 2.8-.5 4.1a69 69 0 0 0 .8 13c1.4 10 5.6 25.3 14 31.6 1.6 1.2 4 2.5 6.8 2.5.7 1.4 1.2 3 2 4.5 1 2 .1 3.1.4 6l.7 9 .2 3c.4 4 .9 7.8 1.5 11.5l2.2 10.8c-1.5-1-1.5-4.2-2.3-7a48 48 0 0 0-9.6-19.2c-1.5-1.9-3-3.3-4.5-5l-2.5-2.2c-3.2-2.8-11.7-8.2-15.7-8.3 0 6 1.3 10 3.5 15.2 1.9 4.6 3.9 8.6 6.4 12.6.6 1 1.2 1.7 1.9 2.6 4 5.8 9.4 10.8 16.7 12 1.9.2 2.5-.3 4.1-.4l1.7 2.4 1.2 1.7c.5.5.7 1.3 1 2.1 2.8 9.7 6.7 19 11 28.2l5.5 11c-1.3-1-1.5-.7-2.3-2.3a54.5 54.5 0 0 0-8-12.5l-1.1-1.2a35 35 0 0 0-7.5-6.4c-5-3.4-10.3-5.8-16.6-6.5-1.3-.1-2.8 0-4.3-.2-2-.3-2.3 0-4.3 0a44 44 0 0 0 11 19.4l3.7 3.6c6.4 6.4 18.6 12 26.8 6.5l4.5 2.7c.6.4 1.2 1.9 1.7 2.6 4 6 7 10 11.3 15.6l7.3 8c1 1.1 3 3 3.8 4-2.8 0-3-1.6-5-3.7a59.5 59.5 0 0 0-4.6-4 32.7 32.7 0 0 0-5.2-3.4 42 42 0 0 0-32.4-.7c-1 .4-2.3 1-3.2 1.2.7 3.1 6.2 7.5 8.7 9.2 8.9 5.9 23.5 12.8 34.5 7.4 1-.4 2-1.1 2.8-1.8 1.2-1 1.2-.8 2.2-2.3 1.2 0 2 .2 3.2.4 2.2.3 1.2-.3 2.6 1l8 6.4c4.4 3.2 8.5 5.7 13.1 8.5 1.5.8 8.7 4 9.6 4.8-3.9 0-.6.8-6.3-2a35.1 35.1 0 0 0-29-2.2c-2 .7-4.3 1.5-6.1 2.6-3.5 2.1-6.2 3.9-9.4 6.3-.5.5-.8.8-1.3 1 2.9 4.4 12.6 7.1 19.3 8.1l3.4.4h7.6c6.4-.6 12.2-2.6 16.2-6.6 3.6-3.5 3-5.1 4.7-5.5l2.9-.6c2-.4 3.2.5 5.1 1.2a96.8 96.8 0 0 0 22.4 5.2c-.2-2.6-.7-3.3-3.2-3.7a108.9 108.9 0 0 1-24.6-7.3c-1.1-.5-1.1-1-1.4-2.3l-.3-1.4a9.3 9.3 0 0 1 0-4.3c.2-2 .1-5-.2-7-.3-2.4-.4-4-1-6-2.5-8.9-6.8-15.8-13.7-21.8a33 33 0 0 0-8.6-5.4c0 1.8 1.8 12 2.2 14.3 1 8 3.3 18.2 9 24.1 2 2 6.9 6.6 10.6 5.7l.7 2.9c-1.6-.4-6.3-2.9-8-4l-12.5-7.9-11.1-9.3c-1.1-1-1.3-.7-1.3-2.8v-4c.2-2.2 6.4-13.3 1.4-31.2A49.3 49.3 0 0 0 76 264c-1.5-2.5-3-5.1-5-7.2-.7-.8-1.1-1.7-2.1-2 0 5.7-2.7 17.3-2.7 30.5 0 2 .5 5.4.9 7.3.5 2.2 1.4 4.2 2.3 6 1.5 3 5 7.7 8.4 8.5 0 1.6 0 2.4.2 3.6-2.6-1.7-4.8-5-7-7.3l-8-10.3-8-12.5c-.8-1.5-.8-1-.4-2.9l.6-3.5c.2-1.3.8-1.8 1.5-2.8a46.1 46.1 0 0 0 7.4-21.2 57 57 0 0 0-1.2-18.5c-.7-2.5-3.1-10.9-4.6-12l-1 3.3c-3 7.5-6.3 14.8-8.3 22.7-2 8-2.4 14.8.8 22.4.6 1.6 1.4 2.9 2.4 4 .6.8.6.7 1.3 1.2 0 1-.3 2.8-.5 3.6-.6-.7-1-1.8-1.4-2.7-6-12-10.3-23.6-13.7-36.7-.9-3.4.3-3 1.4-6.3.6-1.7.5-1.5 1.9-2.4a44.7 44.7 0 0 0 16.5-29.6c.8-5 1-10.7.2-16-.2-1.4-.5-2.6-.5-3.8a402 402 0 0 0-14 18.6c-5 7.5-8.3 15-7.6 24.4 0 1 .5 2.7.8 3.7.6 1.6 1 1.9 1.8 3-.3 1.4-1.1 2.4-1.4 3.8l-.1-.1-.1-.2c-1.5-4-3.8-22.6-4-27 0-4.9-1-10.3-.4-15.1.1-1.4 1.6-2.3 2.4-3.4.2-.5.4-1 .8-1.4.5-.5 1.8-.8 2.7-1 9-3.6 13.3-10.1 17.9-17.7 3.1-5.1 7-20.3 6-25-1.1.6-14.4 11.4-15.8 12.8a51.4 51.4 0 0 0-8.7 10.5 28.6 28.6 0 0 0-3.8 15.2c.1.8.7 3.9.6 4.2 0 .8-1.5 2.2-2.1 2.7a203.4 203.4 0 0 1 5-40.8c.9-4 .8-2.5 3.1-4.7.7-.7 1.1-1.3 2.4-1.4 6.2-.3 9.7-1 14.6-4.4l2.3-1.5 4.1-3.6c3.2-3.2 6-7.1 8-11.2a44 44 0 0 0 4.2-11.2l-11.8 4.6a69 69 0 0 0-11.2 5.4l-2.4 1.7-2.2 1.8c-5.2 4-7.2 10.5-7.2 17.7-1 .3-1.4 1-2.4 1.2a177 177 0 0 1 7.9-24.4l6-13.7c3 0 3.3-2 6-1.1 1.8.6 4 1 6.5 1 11.9 0 22.5-8.8 28.3-18.4l.7-1.2c.4-1-1-.6-4.1-.3-2.5.3-5.1 0-7.6.3-8.4 1-16.6 1.7-22.4 8.8-1.2 1.5-2 3.1-2.6 5-1.1 3.6.2 3.3-3.8 4.2l1.9-3.8 4.2-7.6 1.1-1.7c3-5 6-9.5 9.5-14 .4-.6 1-1.2 1.3-2 1.4 0 2.1.1 3.3-.2 1.6-.4 1.6 0 2.8.6 1.8 1 3.3 1.6 5.6 2.1 8.3 2 17-.8 23.6-5.8 1.6-1.2 6.8-5.8 7.4-8-2.2 0-4.2-.4-6.2-.7-10.4-1.7-19-3.5-28 3.6-2.6 2.2-4.1 6.4-4.1 6.4-.5.6-.3.3-1.2.5l-1.8.1c.6-1.1 1.8-2.5 2.7-3.5L85.1 57l3.3-3c.7-.8 4.3-4.1 5.3-4.3 2-.5 3.6 0 8.3-1.5a33.9 33.9 0 0 0 20-18.5c.8-1.8 3.3-7.1 3.3-9.6l-15.4 5.7a34.3 34.3 0 0 0-12.5 8.8c-2 2.3-4.2 6-4.7 9.5-.2 1.1 0 2.3 0 3.4 0 2-.8 1.3-3.6 4.1v.1L75.4 66l-8 9.9zM451.9 141c-1-.2-1.4-.9-2.4-1.2 0-6.2-.8-9.1-3.2-13-5.7-9.4-18.8-13-28.5-17-1-.3-2.3-1-3.1-1.2 0 4.4 5.5 14.2 8.5 18.2l3.5 4.1c.8.8 1.3 1 2 1.8a27.2 27.2 0 0 0 18.9 7.8c2 0 2.7 1.7 4.2 2.6 1.6 1 1 1.3 1.5 3.2a175 175 0 0 1 5 41c-4.5-3 .4-3.7-2.4-15a30.2 30.2 0 0 0-7.8-13.8 95.1 95.1 0 0 0-8.8-8l-5.4-4.2-2.6-2.2c-1-.8-1.6-1.5-2.7-2.1a53 53 0 0 0 4.6 22.2c1 1.8 1.6 3.6 2.7 5.3l1.6 2.3 1.6 2.2a30.7 30.7 0 0 0 13.2 10.5c1.8.8 2.6.6 3.5 2.3l1.7 2.2c.5.5.7.4.8 1.2.7 3.8-.3 11.2-.4 15.4 0 3-2.6 25-4 27.3-.4-1.4-1.2-2.4-1.5-3.8a13 13 0 0 0 2.6-6.5c.8-8-2-15.3-5.8-21.7-4-6.8-9-12.6-13.7-18.8-.6-.7-1.4-2.2-2-2.7-.2 3.8-2 7.6-.9 15.7.3 2.5.4 4.9 1 7.4.6 2.2 1.2 4.5 2 6.4l2.5 6a38 38 0 0 0 11.5 13.9c2.1 1.5 1.8 2.7 3 5.3 1.2 2 .3 3.3-.5 6.5a147.2 147.2 0 0 1-11.4 30.6c-.8 1.5-1.8 4.3-3 5.7-.2-.8-.5-2.7-.5-3.6 1.8-1.2 2.8-3 3.7-5 5.2-12 .8-24.2-3.5-35.7l-3.8-9.5c-.4-1-.9-2.1-1.2-3.4-2.3 1.8-5.3 14.8-5.7 18.8-1.1 10 .5 21.6 5.6 30.1 3.4 5.7 2.6 2 3.8 8.7.3 1.7.7 1.5-.2 3a174.7 174.7 0 0 1-17 24c-1.6 2-4.2 5.1-6.1 6.4l.2-3.6c3.4-.8 6.7-5.3 8.3-8.3 2-4 3.2-8.5 3.2-13.3.1-5.8-.2-10.8-.9-15.7-.5-3.8-1.7-11.4-1.7-15-.8.2-.6.2-1.1.8l-.9 1a50 50 0 0 0-9.9 18.7c-1.3 4.6-1.4 9.5-2 14.3-.2 1.4.2 2.3.2 3.8 0 1.4.3 2.7.4 3.7.4 2.2 1 4.6 1.7 6.5 1.3 3.8 1 2.7 1 6.9 0 2.5-.7 2.7-3.3 4.8l-9 7.4c-4.8 3.4-9.7 6.7-15 9.4-1.3.6-4.4 2.3-5.5 2.6l.7-2.9c3.7.9 8.5-3.5 10.5-5.6 8-8.1 8.7-23.8 10.7-34.8.3-1.2.6-2.5.6-3.7a40 40 0 0 0-20.5 22c-2.3 5.3-3.6 12-3 18 .4 3.3.3 2.8-.4 5.9-.6 2.8-1.3 2.3-3.7 3.3-7 2.8-14.4 5-22 6.3-2.6.4-3.2 1-3.4 3.7 3.7 0 8-1.1 11.6-2 4-1 7-2 10.5-3.1 1.6-.6 3.4-1.7 5-1.4l2.8.6c1.6.3 1.3.3 2 1.6 1.4 3 4.1 5.2 6.8 6.9a33.1 33.1 0 0 0 16.5 3.7h.3c11.1 0 22.8-3.5 26-8.4-2.5-1.8-4.8-4-7.5-5.6l-5.9-3a36.3 36.3 0 0 0-35.1 2.2c-2 1.3-1.3.6-3.5.6.6-.5 1.7-.8 2.4-1.2l2.4-1.2a131.1 131.1 0 0 0 25.8-17.3c1.3-1.3.5-.7 2.6-1 1.2-.2 2-.4 3.3-.4 2.6 3.9 7.3 5.6 12 6 9.5.7 20.2-4.5 27.3-9.2 1-.6 1.7-1.2 2.6-1.9 2-1.4 5.8-5.1 6.3-7.4-3.5-.8-5.8-3-13.5-3.8a37.4 37.4 0 0 0-31.8 10.6l-2 2.2c-1 1.3-1 1.6-3 1.6.6-1 2.6-2.9 3.7-4l14-16.7 4.5-7c2.1-3 1.1-2 3.9-3.8l2.4-1.4c6 4 15.6 1.7 21.5-2.2a33 33 0 0 0 5.3-4.3c1.6-1.7 3.1-3 4.6-4.8 5-6.3 8-9.4 10-18.2-1.8 0-2.2-.3-4 0-5.1.6-5-.4-11.8 1.9-3.2 1-6.4 2.6-9.1 4.5a51.7 51.7 0 0 0-16.8 20.2c-.9 1.9-.8 1.4-2.4 2.4.4-1.5 4.7-8.5 5.6-10.7 1.5-3.7 3.4-7.4 5-11.5 1.6-4 3-7.7 4.5-12 .6-2 1.1-4.2 1.9-6.2.4-1 0-.2.8-1.1l2.6-3.8c3.8.3 3.5 1 8-.5 3.2-1.1 6-3.2 8.3-5.6 7-7 12.6-18 15.3-27.4.9-3 1-4.7 1-8.5-1.6 0-5.5 1.8-6.8 2.4a49.8 49.8 0 0 0-26.3 35.9c-.3 1.3-.3 2.7-1.4 3.4l2.1-10.8c.5-3 2.3-16.8 2.2-20.4 0-2.3.3-3.1.3-6.2 0-2.4-.2-1.7.4-3 .8-1.4 1.3-3 2-4.4 9 0 14.8-12 17.2-19.3 3-9 4.7-17.8 4.4-27.5 0-1.5-.5-3-.5-4.4-1.3.3-4.3 3-5.5 4-3.5 2.9-7.3 8-9.7 11.8a55.3 55.3 0 0 0-7.4 33.2c.1 2.1.4 1.9-1 3.4v-6l-.2-3c0-3.6-.4-6-.5-8.6a186 186 0 0 0-2.2-19.1c0-.6-.2-.7-.1-1.3 0-.7 1.4-3.8 1.4-6.4 2-.5 3.8-2.3 5-3.6 3.2-3 4.8-7.4 5.7-11.7 2.2-11 1.8-24.9-1.2-35.6l-1.1-3.4c-1.6.4-6.7 9-7.7 10.6-1 1.7-2 4.5-2.7 6.4-.8 2.4-1.4 4.6-2 7.4a61 61 0 0 0 2.3 28.4c.2.9 0 3-.7 3.6a182.4 182.4 0 0 0-10.5-35.3c-.1-1.1.1-.2.1-1.4l-.2-1.4v-3.4c3.5-1.8 5.8-7.5 6.6-11.4 1.2-5.4.4-11.5-.3-16.7a90.6 90.6 0 0 0-3.5-14.5c-1-3-4.2-10.8-6.1-12.1l-2.7 6a57.4 57.4 0 0 0 3.7 47c.9 1.4.6 1.7.6 3.9l-8.3-16.4-3.2-5.3-7.4-11c-.7-1-.7-3.2-1.1-5.4-.3-2 .2-1.7 1.1-2.7.5-.5 1.4-2 1.6-2.7 4.3-11.4-.9-23.8-5.9-32.7A47 47 0 0 0 411 23c-.6-.6-.4-.7-1.2-.9 0 1.6-1 4.1-1 7.7 0 1.6-.3 2.3-.3 4 0 1.5.3 2.4.3 4.2 0 3.5 1.6 11.5 2.6 14.9a46 46 0 0 0 9.1 17c1.7 2 2.4 2 2.8 3.7l.1 2.3-13-15.3-1.6-1.8-9-8.8c-.8-.6-1.5-.8-1.6-2v-3.5c-.7-6.9-7.4-13.1-12.3-16a69 69 0 0 0-12.4-5.4l-8-3c0 2.5 2.4 7.7 3.4 9.5a36.2 36.2 0 0 0 20 18.7c3.5 1.2 4.6 1 7.9 1.4 2.4.3 9.6 8.3 12 10.6 2.4 2.5 5.3 5.9 7.5 8.6.5.6 1 1.2 1.4 2-.7 0-2.5-.2-3-.5l-1-2.5c-.6-1.1-2.2-3.2-3-4-8.7-7.1-17.6-5.5-28-3.7-2 .3-4 .8-6.3.8A30.6 30.6 0 0 0 407 74.7c5.4-1.2 6.2-3.4 8.3-2.8 1.5.3 2 .3 3.6.3a169.3 169.3 0 0 1 9.6 14l2.1 3.5c2.8 4.7 3.9 6.9 6.3 11.5-4-1-2.8-.8-3.7-4a18 18 0 0 0-11.8-11.4 39 39 0 0 0-9.4-2.2l-3.7-.3c-2.1-.3-7.3-.3-11-.6-1.8-.2-1.2.1-.3 1.6 3.8 6.1 9.2 12 15.8 15.3a24.6 24.6 0 0 0 19 2.2c2.9-1 3 1 6 1 .3 1.3 1.5 3.1 2 4.5 1.9 4.3 4.2 9 5.8 13.7l3.3 9.7c.6 1.6 1 3.1 1.5 5 .5 1.4 1.4 3.9 1.4 5.3"/></g><path d="M245.4 0l7.7 15.7 17.3 2.5L258 30.4l3 17.2-15.5-8.1-15.5 8.1 3-17.2-12.6-12.2 17.3-2.5zM289.5 16.8l4.7 9.5 10.5 1.6-7.6 7.4 1.8 10.5-9.4-5-9.4 5 1.8-10.5-7.6-7.4 10.5-1.6zM319.6 31.2l2.7 5.4 6 .9-4.3 4.2 1 6-5.4-2.8-5.3 2.8 1-6-4.4-4.2 6-.9zM201.3 16.8l4.7 9.5 10.5 1.6-7.6 7.4 1.8 10.5-9.4-5-9.4 5 1.7-10.5-7.6-7.4 10.6-1.6zM170.1 32.2l2.7 5.4 6 .9-4.3 4.2 1 6-5.4-2.8-5.3 2.8 1-6-4.4-4.2 6-.9zM177.9 69.2h17c4.3 0 7.5 1.1 9.8 3.3a8.5 8.5 0 0 1 2.5 6.3v.1a9.3 9.3 0 0 1-1.6 5.4c-.5.7-1 1.2-1.7 1.7l-2 1.3 3 1.4c.9.5 1.7 1.2 2.3 1.9.7.7 1.2 1.5 1.6 2.5s.5 2.1.5 3.4v.1a8.9 8.9 0 0 1-3.8 7.7c-1.2 1-2.7 1.6-4.4 2-1.8.5-3.7.7-5.8.7H178V69.2zm15.6 16c2.2 0 3.9-.5 5.2-1.3 1.3-.9 2-2.2 2-4 0-1.5-.7-2.7-1.8-3.6a8.1 8.1 0 0 0-5-1.2h-9.4v10h9zm2 16c2.2 0 4-.5 5.3-1.4 1.3-.9 2-2.1 2-3.9 0-1.7-.7-3-2-3.8-1.3-1-3.2-1.4-5.8-1.4h-10.5v10.4h11zM216.9 69.2h28v6h-21.4v9.7h19v6h-19V101H245v6H217V69.2zM266.3 107.5a23.7 23.7 0 0 1-15.8-6l4-4.8c1.9 1.6 3.8 2.8 5.6 3.7 1.9.8 4 1.2 6.4 1.2 2 0 3.7-.4 4.9-1.2a4 4 0 0 0 1.8-3.5v-.1a4 4 0 0 0-1.7-3.3c-.6-.5-1.5-.9-2.6-1.3a37 37 0 0 0-4.3-1.2c-2-.5-3.8-1-5.3-1.6-1.6-.6-3-1.3-4-2.1-1-.9-1.9-2-2.4-3.1-.6-1.3-.9-2.7-.9-4.5a10.2 10.2 0 0 1 3.6-8c1.2-1 2.5-1.7 4.1-2.2a21.7 21.7 0 0 1 18.9 4l-3.6 5a23.2 23.2 0 0 0-5.1-3c-1.7-.6-3.4-1-5.1-1a7 7 0 0 0-4.6 1.3 4 4 0 0 0-1.6 3.2v.1c0 .8.1 1.4.4 2 .2.5.7 1 1.4 1.5a52.8 52.8 0 0 0 7.2 2.5c2 .5 3.7 1 5.3 1.6 1.5.7 2.8 1.4 3.8 2.3a8.9 8.9 0 0 1 3 7.1v.1a11 11 0 0 1-1 4.8c-.6 1.4-1.5 2.6-2.7 3.6-1.1 1-2.6 1.7-4.2 2.2-1.7.5-3.5.7-5.5.7zM296.9 75.4h-12v-6.2h30.7v6.2h-12V107h-6.7V75.4zM103 126.2h14.2c3 0 5.6.5 8 1.4a17.7 17.7 0 0 1 12 17.4v.1a19 19 0 0 1-1.4 7.4c-1 2.4-2.4 4.4-4.1 6-1.8 1.7-4 3-6.4 4a22 22 0 0 1-8.1 1.5H103v-37.8zm14.1 31.8c2 0 3.8-.3 5.4-1a11.8 11.8 0 0 0 6.8-6.7c.6-1.5 1-3.3 1-5.1v-.1c0-1.8-.4-3.6-1-5.2a12 12 0 0 0-6.8-6.7c-1.6-.7-3.4-1-5.4-1h-7.4V158h7.4zM145.7 126.2h6.6V164h-6.6v-37.8zM162.4 126.2h16.9c2.3 0 4.4.3 6.3 1 1.8.7 3.3 1.6 4.6 2.8 1 1 1.7 2.2 2.3 3.6.5 1.4.8 2.9.8 4.5v.1c0 1.6-.2 3-.7 4.2a11 11 0 0 1-4.7 5.7 14 14 0 0 1-3.6 1.6l10.2 14.3h-7.8l-9.4-13.2H169V164h-6.6v-37.8zm16.3 18.7c2.4 0 4.3-.5 5.7-1.7a5.6 5.6 0 0 0 2.1-4.6v-.1c0-2-.6-3.6-2-4.7a9.2 9.2 0 0 0-5.8-1.6H169v12.7h9.7zM201.5 126.2h28v6H208v9.7h19v6h-19V158h21.7v6h-28.2v-37.8zM255.2 164.6a19.2 19.2 0 0 1-13.7-5.6 19 19 0 0 1-5.5-13.8v-.1a19.9 19.9 0 0 1 5.5-13.8 19.1 19.1 0 0 1 14-5.8 24 24 0 0 1 8.6 1.7 25.8 25.8 0 0 1 6.2 4.2l-4.3 5a21.3 21.3 0 0 0-4.8-3.5c-1.7-.8-3.6-1.3-5.7-1.3a11.8 11.8 0 0 0-9 4c-1.1 1.2-2 2.6-2.6 4.2-.6 1.6-1 3.4-1 5.2v.1c0 1.8.4 3.6 1 5.2s1.5 3 2.6 4.3a12.2 12.2 0 0 0 9 4c2.3 0 4.2-.5 5.9-1.4 1.6-.9 3.3-2 5-3.6l4.2 4.3a24.5 24.5 0 0 1-6.5 5 23.6 23.6 0 0 1-8.9 1.8zM286.8 132.4h-12v-6.2h30.7v6.2h-12V164h-6.7v-31.6zM330.5 164.6a20.2 20.2 0 0 1-14.2-5.7 19.2 19.2 0 0 1-5.5-13.7v-.1a19.6 19.6 0 0 1 5.6-13.7 19.8 19.8 0 0 1 14.2-5.9c3 0 5.6.6 8 1.6a19 19 0 0 1 11.7 17.9 19.6 19.6 0 0 1-5.5 13.8 19.8 19.8 0 0 1-14.3 5.8zm.1-6a12.4 12.4 0 0 0 11.8-8.2c.6-1.6 1-3.4 1-5.2v-.1c0-1.8-.4-3.6-1-5.2a13 13 0 0 0-6.7-7.2c-1.6-.7-3.3-1-5.2-1a12.4 12.4 0 0 0-11.7 8.1 14.5 14.5 0 0 0 0 10.5 13 13 0 0 0 6.7 7.2c1.5.7 3.3 1 5.1 1zM358.4 126.2h16.8c2.4 0 4.5.3 6.3 1 1.9.7 3.4 1.6 4.6 2.8 1 1 1.8 2.2 2.4 3.6.5 1.4.8 2.9.8 4.5v.1c0 1.6-.3 3-.7 4.2a11 11 0 0 1-4.7 5.7 14 14 0 0 1-3.7 1.6l10.3 14.3h-7.9l-9.3-13.2H365V164h-6.6v-37.8zm16.3 18.7c2.4 0 4.3-.5 5.7-1.7a5.6 5.6 0 0 0 2.1-4.6v-.1c0-2-.7-3.6-2-4.7a9.3 9.3 0 0 0-5.8-1.6H365v12.7h9.7z"/><g><path d="M108.8 194.3h4.4v21.2h13.3v4h-17.7v-25.2zM131.1 194.3h18.6v4h-14.2v6.5H148v4h-12.6v6.7h14.4v4h-18.8v-25.2zM167.2 220c-1.9 0-3.7-.4-5.3-1.1a12.7 12.7 0 0 1-7.8-12 13 13 0 0 1 3.7-9.2 13.2 13.2 0 0 1 9.5-3.8 12.7 12.7 0 0 1 13.1 13 13 13 0 0 1-3.7 9.2 13.2 13.2 0 0 1-9.5 3.8zm.1-4.1a8.2 8.2 0 0 0 7.8-5.5c.5-1 .7-2.2.7-3.4v-.1c0-1.2-.2-2.4-.7-3.5a8.6 8.6 0 0 0-4.4-4.7 8.2 8.2 0 0 0-11.3 4.7c-.4 1-.6 2.2-.6 3.4v.1c0 1.2.2 2.4.6 3.5a8.6 8.6 0 0 0 4.5 4.7c1 .5 2.2.8 3.4.8zM185.8 194.3h4.1l13.5 17.4v-17.4h4.4v25.2H204l-13.9-18v18h-4.4v-25.2zM223.2 194.1h4l11.2 25.4h-4.7l-2.6-6h-11.9l-2.6 6h-4.5l11-25.4zm6.3 15.4l-4.3-10-4.4 10h8.7zM242.7 194.3h11.2c1.6 0 3 .2 4.2.7 1.3.4 2.3 1 3.1 1.8.7.7 1.2 1.5 1.6 2.4.3 1 .5 2 .5 3v.1c0 1-.2 2-.5 2.8a7.3 7.3 0 0 1-3 3.8c-.8.5-1.6.8-2.5 1l6.8 9.6h-5.2l-6.2-8.8H247v8.8h-4.4v-25.2zm10.9 12.5c1.6 0 2.8-.4 3.8-1.2 1-.7 1.4-1.7 1.4-3v-.1c0-1.4-.5-2.4-1.4-3.1-.9-.8-2.2-1.1-3.8-1.1H247v8.5h6.5zM268.7 194.3h9.4c2 0 3.8.3 5.4 1a11.8 11.8 0 0 1 8 11.6c0 1.8-.3 3.4-1 5-.6 1.5-1.5 2.8-2.7 4a13 13 0 0 1-4.3 2.6c-1.6.7-3.4 1-5.4 1h-9.4v-25.2zm9.4 21.2c1.3 0 2.5-.2 3.6-.6s2-1 2.7-1.8c.8-.8 1.4-1.7 1.8-2.7s.6-2.2.6-3.4v-.1c0-1.2-.2-2.4-.6-3.4a8 8 0 0 0-4.5-4.6c-1-.4-2.3-.6-3.6-.6h-5v17.2h5zM308.9 220c-2 0-3.7-.4-5.3-1.1a12.7 12.7 0 0 1-7.8-12 13 13 0 0 1 7.8-12c1.7-.7 3.4-1 5.4-1a12.7 12.7 0 0 1 13.1 13 13 13 0 0 1-7.9 12c-1.6.7-3.4 1-5.3 1zm0-4.1a8.3 8.3 0 0 0 8-5.5c.3-1 .5-2.2.5-3.4v-.1c0-1.2-.2-2.4-.6-3.5a8.6 8.6 0 0 0-4.5-4.7 8.2 8.2 0 0 0-11.3 4.7c-.3 1-.6 2.2-.6 3.4v.1c0 1.2.3 2.4.7 3.5a8.6 8.6 0 0 0 4.4 4.7c1 .5 2.2.8 3.5.8zM338.3 194.3h11.2c1.6 0 3 .2 4.2.7 1.2.4 2.3 1 3 1.8.8.7 1.3 1.5 1.6 2.4.4 1 .6 2 .6 3v.1c0 1-.2 2-.5 2.8a7.3 7.3 0 0 1-3.1 3.8c-.7.5-1.6.8-2.4 1l6.8 9.6h-5.3l-6.2-8.8h-5.5v8.8h-4.4v-25.2zm10.9 12.5c1.6 0 2.8-.4 3.8-1.2.9-.7 1.4-1.7 1.4-3v-.1c0-1.4-.5-2.4-1.4-3.1-1-.8-2.2-1.1-3.9-1.1h-6.4v8.5h6.5zM364.3 194.3H383v4h-14.3v6.5h12.6v4h-12.6v6.7h14.4v4h-18.8v-25.2z"/></g><g><path d="M88 250h3.3v16h9.9v3H88v-19zM111.4 250h3l8.4 19h-3.5l-2-4.6h-8.9l-2 4.6h-3.3l8.3-19zm4.7 11.5l-3.2-7.6-3.3 7.6h6.5zM126 250h3l10.2 13.2V250h3.3V269h-2.8l-10.4-13.4V269H126v-19zM147.3 250h7c1.6 0 3 .3 4.1.8 1.3.5 2.3 1.1 3.2 2a8.8 8.8 0 0 1 2.8 6.7 8.8 8.8 0 0 1-2.8 6.7c-.9 1-2 1.6-3.2 2a11 11 0 0 1-4 .8h-7v-19zm7 16c1 0 2-.2 2.8-.5a5.8 5.8 0 0 0 3.3-3.3c.4-.8.5-1.7.5-2.6a7 7 0 0 0-.5-2.6 6 6 0 0 0-3.3-3.4c-.9-.3-1.8-.5-2.7-.5h-3.8V266h3.8zM168.4 250h14v3h-10.7v5h9.5v3h-9.5v5h10.9v3h-14.2v-19zM193.2 269.3a11.4 11.4 0 0 1-7.9-3l2-2.4c1 .8 1.8 1.4 2.8 1.8s2 .6 3.2.6c1 0 1.8-.2 2.4-.6.6-.5 1-1 1-1.8l-.3-1a2 2 0 0 0-.6-.7l-1.3-.6-2.2-.6-2.7-.8-2-1c-.5-.5-.9-1-1.2-1.6s-.4-1.4-.4-2.2a5.1 5.1 0 0 1 1.8-4c.6-.5 1.3-.9 2-1.2a10.9 10.9 0 0 1 9.4 2l-1.7 2.5c-.8-.6-1.7-1.1-2.5-1.4a7 7 0 0 0-2.6-.5c-1 0-1.7.2-2.3.6s-.8 1-.8 1.6c0 .4 0 .7.2 1 .1.3.4.6.7.8l1.4.6 2.2.6 2.6.9 2 1a4.4 4.4 0 0 1 1.5 3.7c0 .9-.2 1.7-.5 2.4s-.8 1.3-1.4 1.8a6 6 0 0 1-2.1 1c-.8.3-1.7.5-2.7.5zM203.8 250h14v3h-10.7v5.3h9.5v3h-9.5v7.7h-3.3v-19zM221.7 250h3.3v19h-3.3v-19zM230 250h3.4v16h10v3H230v-19zM246.8 250h3.5l5.8 9 5.7-8.9h3.6V269H262v-13.6l-6 9-6-8.9V269h-3.3v-19zM270.2 250h14v3h-10.7v5.3h9.6v3h-9.6v7.7h-3.3v-19zM288 250h14v3h-10.8v5h9.5v3h-9.5v5h10.9v3h-14.2v-19zM312.7 269.3a11.9 11.9 0 0 1-7.9-3l2-2.4c1 .8 1.8 1.4 2.8 1.8s2 .6 3.2.6c1 0 1.8-.2 2.4-.6.6-.5 1-1 1-1.8l-.3-1a2 2 0 0 0-.6-.7l-1.3-.6-2.2-.6-2.7-.8-2-1c-.5-.5-.9-1-1.2-1.6-.2-.6-.4-1.4-.4-2.2a5.1 5.1 0 0 1 1.8-4c.6-.5 1.3-.9 2-1.2a10.8 10.8 0 0 1 9.4 2l-1.7 2.5c-.8-.6-1.7-1.1-2.5-1.4a7 7 0 0 0-2.6-.5c-1 0-1.7.2-2.3.6a2 2 0 0 0-.8 1.6c0 .4 0 .7.2 1 .1.3.4.6.7.8l1.4.6 2.2.6 2.6.9 2 1a4.4 4.4 0 0 1 1.5 3.7c0 .9-.2 1.7-.5 2.4s-.8 1.3-1.4 1.8-1.3.8-2.1 1c-.8.3-1.7.5-2.7.5zM328 253.2h-6V250h15.3v3h-6V269H328v-15.8zM341 250h3.3v19H341v-19zM347.8 250h3.6l5.7 14.6 5.7-14.5h3.6l-7.9 19h-2.9l-7.8-19zM376.3 250h3l8.4 19h-3.5l-2-4.6h-8.9l-1.9 4.6H368l8.3-19zm4.8 11.5l-3.3-7.6-3.2 7.6h6.5zM391 250h3.2v16h10v3H391v-19z"/></g><g><path d="M163 283h14.1c3.6 0 6.4 1 8.2 2.8a7.1 7.1 0 0 1 2.1 5.2v.1a7.8 7.8 0 0 1-1.3 4.5 7 7 0 0 1-1.4 1.4l-1.7 1.1c1 .3 1.7.7 2.5 1.2.8.4 1.4 1 2 1.5.5.6 1 1.3 1.3 2.1.2.8.4 1.8.4 2.9a7.4 7.4 0 0 1-3.2 6.4c-1 .8-2.2 1.4-3.7 1.7-1.4.4-3 .6-4.7.6H163V283zm13 13.3c1.8 0 3.3-.4 4.3-1s1.7-1.9 1.7-3.3-.5-2.3-1.5-3c-.9-.7-2.3-1.1-4-1.1h-8v8.4h7.5zm1.7 13.3c1.8 0 3.3-.4 4.4-1 1-.8 1.6-1.9 1.6-3.3v-.1c0-1.4-.5-2.4-1.6-3.1s-2.7-1.2-4.9-1.2h-8.7v8.7h9.2zM195.5 283h23.3v5H201v8h15.8v5H201v8.5h18v5h-23.5V283zM225.6 283h14c2 0 3.8.3 5.4.8 1.5.6 2.8 1.4 3.8 2.3.8 1 1.5 2 2 3 .4 1.2.6 2.5.6 3.8v.1c0 1.3-.2 2.5-.6 3.5s-.9 2-1.5 2.8-1.5 1.4-2.4 2c-.9.5-2 1-3 1.3l8.5 11.9h-6.5l-7.8-11h-7v11h-5.5V283zm13.7 15.6c2 0 3.5-.5 4.7-1.4 1.2-1 1.8-2.3 1.8-3.9 0-1.8-.6-3-1.8-4a7.7 7.7 0 0 0-4.8-1.3h-8v10.6h8zM258.2 283h5.5v26.5h16.5v5h-22V283zM286.4 283h5.4v31.5h-5.4V283zM300.3 283h5.1l16.9 21.8V283h5.5v31.5H323l-17.3-22.4v22.4h-5.5V283z"/></g><g><path d="M219.3 345.8l5.6-4.7a23.5 23.5 0 0 0 2.3-2.4l.5-1 .2-1c0-.8-.3-1.4-.8-1.8-.5-.5-1-.7-1.8-.7s-1.4.2-2 .6a9 9 0 0 0-1.7 1.8l-2-1.5c.3-.6.7-1 1.1-1.5a6.3 6.3 0 0 1 2.9-1.7 7.3 7.3 0 0 1 4 .1 5 5 0 0 1 1.7 1c.5.4.9 1 1.1 1.5.3.6.4 1.3.4 2s0 1.2-.2 1.7c-.2.6-.5 1-.8 1.5l-1.3 1.5-1.9 1.6-3.3 2.7h7.7v2.5h-11.7v-2.2zM240.6 348.3a6.3 6.3 0 0 1-5-2.4c-.7-.8-1.2-1.7-1.5-2.7a10.2 10.2 0 0 1 0-6.5c.4-1 .8-1.9 1.4-2.6.7-.8 1.4-1.4 2.3-1.8.8-.5 1.8-.7 2.9-.7a6.2 6.2 0 0 1 5 2.4 10.1 10.1 0 0 1 2 5.9c0 1.2-.2 2.3-.6 3.3-.3 1-.8 1.9-1.4 2.6a6.3 6.3 0 0 1-5.1 2.4zm0-2.6c.7 0 1.2-.1 1.7-.4.5-.3 1-.7 1.3-1.2a6 6 0 0 0 .8-1.9 8.1 8.1 0 0 0 0-4.5c-.2-.7-.4-1.3-.8-1.8s-.8-1-1.3-1.3c-.5-.3-1-.4-1.7-.4-.6 0-1.2.1-1.7.4-.5.3-1 .7-1.3 1.2a6 6 0 0 0-.8 1.9 8.4 8.4 0 0 0 0 4.5c.2.7.5 1.3.9 1.8.3.5.7 1 1.3 1.3.5.3 1 .4 1.7.4zM253 334.7l-2.8.8-.6-2.3 4.3-1.4h2V348H253v-13.3zM265.3 348.2c-.9 0-1.7 0-2.4-.3-.8-.2-1.4-.5-2-1-.5-.3-1-.8-1.3-1.4s-.4-1.2-.4-1.9c0-1 .2-1.8.7-2.4.5-.7 1.2-1.2 2.2-1.5-.7-.4-1.3-.9-1.7-1.4s-.7-1.3-.7-2.2c0-.7.2-1.3.4-1.8.3-.5.7-1 1.2-1.4a7.2 7.2 0 0 1 4-1.3c.8 0 1.6.2 2.2.4.7.2 1.3.5 1.8 1 .5.3.9.8 1.2 1.3.3.5.4 1.1.4 1.7 0 1-.2 1.7-.7 2.3-.4.5-1 1-1.6 1.4a6 6 0 0 1 2 1.5c.6.6.9 1.4.9 2.3a4 4 0 0 1-1.8 3.5 6 6 0 0 1-2 .9 9 9 0 0 1-2.4.3zm0-2.3a4 4 0 0 0 2.5-.7c.6-.5.9-1 .9-1.8 0-.4-.1-.7-.3-1l-.7-.8-1-.5a5 5 0 0 0-3.8.5l-.7.8a2 2 0 0 0-.3 1c0 .7.3 1.3 1 1.7.5.5 1.4.8 2.4.8zm0-7.2c.8 0 1.5-.2 2-.6.6-.5.9-1 .9-1.8a2 2 0 0 0-.8-1.6c-.5-.4-1.2-.7-2-.7s-1.7.3-2.2.7a2.1 2.1 0 0 0 0 3.4c.6.4 1.3.6 2.1.6z"/></g></svg>