<svg baseProfile="tiny" version="1.2" viewBox="0 0 727 339" xmlns="http://www.w3.org/2000/svg"><path d="M121 3c-9 10-13 29-8 43l2 6-9 8c-6 6-8 8-7 5 2-4 4-17 3-24 0-7-3-16-4-16-2 0-8 6-10 10-5 11-5 26 0 38l2 5-7 10-7 9 1-5c1-6-1-18-4-25-2-6-9-13-11-13l-4 4c-8 12-5 32 7 44l5 5-5 11-6 11v-8c0-10-3-18-8-24-4-4-12-9-13-8-1 2-2 15-1 22 1 12 9 25 16 29 2 1 2 1-1 11-2 11-4 13-4 7 0-9-6-21-12-27-3-4-14-9-16-9l-1 5c0 19 9 36 24 44l5 2-1 13v13l-4-8c-7-18-17-27-32-29-7 0-7 0-4 9 6 18 15 27 32 32l9 3 2 8 2 9c-1 1-3-2-7-5-12-12-21-16-33-16-8 0-11 1-12 3l7 8c12 12 25 17 41 16h6l5 10 6 11-4-2c-9-8-25-14-35-14-6 0-14 3-17 5l-3 3 3 2c5 4 13 9 20 11 5 2 8 2 17 2s11 0 15-2l5-3 3 4 7 11c9 11 9 11 3 7a50 50 0 0 0-37-6c-4 1-9 5-9 6 0 2 9 7 15 11 12 6 24 6 33 2 10-4 10-4 13 0 6 6 13 12 27 22 3.8 3.2 7.4 6.6 11 10l-12-2c-10 0-20 1-26 5-3 2-8 8-7 9 1 3 10 4 22 4 14-1 21-3 27-10l4-4 5 3c10 5 36 15 40 15 1 0 4-5 3-6l-15-5-31-14 3-3c5-5 6-9 6-21 0-7 0-11-2-14-3-6-5-6-9-3-7 6-8 25-2 36 2 5 1 4-16-8l-5-5 2-2c6-2 10-12 10-23 0-6-2-18-4-19h-3c-4 1-9 7-10 12-2 7-2 18 0 24l2 6a220 220 0 0 1-37-40l5-3c10-3 15-10 21-25l4-10c0-1-10 1-13 3-8 4-12 11-16 26l-2 7-12-21c0-2 0-2 3-2 4 0 12-3 17-6 6-3 12-11 16-20 2-4 4-8 3-9s-13 2-17 4c-6 2-14 11-18 20l-5 9c-1 0-2-2-5-12l-2-9 8-1c10-2 16-6 23-13 5-5 13-17 13-20l-6-1c-10 1-16 4-22 9a76 76 0 0 0-16 22c-2 2-3-9-2-25l4-29 2-6h10a48.4 48.4 0 0 0 39-18c4-5 3-6-6-7-13-1-25 4-36 15l-5 4 7-17 2-4 9 1c11 0 17-1 27-6 5-2 9-5 13-9 7-7 7-8-3-9-12-2-27 3-37 11-5 5-6 5-4 2l5-8 6-10c3-3 4-4 6-4l8 2c12 2 25-1 36-9l4-3c0-2-10-4-17-4-10-1-22 4-28 9-4 3-2-1 5-9 9-12 9-12 14-10 7 3 21 2 31 0 6-2 17-7 18-10 2-2-6-4-16-5-9 0-11 0-19 2a62 62 0 0 0-12 5l3-4 3-4 1-5 4-9c2-10 0-29-3-29l-4 3zm478 4c-3 12 2 33 9 40 3 4 4 6 0 4-6-4-17-7-26-7-10 0-20 2-19 4 1 3 9 8 17 11a62 62 0 0 0 37-1c1 0 17 20 16 21l-2-2c-5-5-23-10-32-8-6 0-12 3-12 4 0 2 10 8 17 10 8 3 20 3 27 1l5-1 3 4c4 4 13 19 12 20l-3-2c-8-8-20-13-31-13-8 0-15 1-15 3s11 12 17 15c10 5 18 7 29 6l8-1 2 4 7 17-7-6c-9-9-18-13-29-13l-11 1c-3 1-3 1-2 3 2 4 12 14 17 16 9 5 18 6 27 6l7-1 3 10 3 20c1 11 0 30-2 30l-5-7c-5-9-13-17-19-20-5-2-19-5-20-4-1 2 7 16 13 21 7 7 12 10 23 13l7 2c1 1-2 11-4 17-1 4-3 5-3 3l-4-10c-7-14-16-21-30-22-7-1-7-1-1 10 7 13 17 21 30 24l5 2-10 19-2 2-2-7-4-12c-5-11-10-15-19-16l-5-1v3c1 5 6 17 10 21 4 6 8 10 15 12l5 2-3 4-22 26-26 20c-13 9-13 9-11 4 3-6 4-9 4-16 0-9-2-14-6-18-5-4-7-4-9 1-5 13-3 28 4 36l3 3c0 2-22 11-38 16l-7 3-1 3c1 3 1 3 5 3l31-12 12-6 5 5c5 6 12 8 23 9 12 0 25-1 25-4 0-6-8-11-19-13-5-1-21-1-27 1-2 0 1-2 5-5 11-7 23-17 31-24 6-6 7-7 9-5 5 4 21 6 33 2 7-2 18-8 21-11 2-2 2-2 0-3-12-10-27-9-44 2-7 4-10 4-6 1 5-4 22-29 27-41l3-6h10c16 0 25-4 37-16 6-5 8-8 6-10h-21c-7 2-16 8-22 14-9 8-8 8-6-1l2-10 6-2c6-1 14-5 19-9 6-4 14-18 18-31l1-2h-7c-15 2-25 10-33 30l-3 8v-11l-1-13c0-3 0-3 5-6 9-4 16-12 20-21l4-17v-10l-3 1c-8 2-16 8-21 17l-6 22-3-10c-3-10-3-12-2-12 7-4 14-14 16-24 3-10 2-27-2-27-2 0-10 6-13 10-4 6-5 12-6 21l-1 8-5-10c-5-11-5-11-4-13 8-5 12-12 15-23 2-9-1-21-6-26-2-3-3-3-7 1-7 7-11 20-10 33 0 7 0 7-1 5l-7-10c-5-7-6-8-4-10l3-7c3-10 2-23-1-31-3-5-8-12-10-12-3 0-5 8-5 18 0 9 0 13 2 18l1 6-8-8-7-8 1-5c5-15 2-32-7-42-6-6-7-5-8 3z"/><path d="M161 8c-7 3-13 7-20 15a721 721 0 0 1-16 19c5-6 7-6 17-7 14-1 22-5 33-14 5-5 10-13 9-14l-9-1c-7 0-10 0-14 2zm383-1l-2 1c0 2 10 13 16 17 8 7 15 9 27 10 7 0 10 1 11 2 5 4 5 3-1-4-17-21-25-26-40-27l-11 1zm86 136h-3l-3 2c0 2 13 18 17 21 8 6 12 7 22 8 11 0 11 0 4-10-9-13-20-20-31-21h-6zm-546 1c-6 2-13 7-17 12-5 6-11 15-11 17l8 1c14-1 23-6 34-21l4-8c0-2-13-2-18-1zM108 236c-5 3-12 10-14 16s-3 19-2 19c2 1 10-4 14-8 4-5 7-13 8-21 0-9 0-9-6-6zm505 2c0 6 2 16 5 21 4 6 12 12 16 12 1 0 1-10-1-16-2-8-6-14-12-18-7-4-8-4-8 1zm77-3c-8 2-18 8-23 13l-5 5c0 2 9 4 16 5 9 0 17-1 27-6 6-2 15-9 15-11 0-3-12-7-20-7l-10 1zm-89 20c-6 13-3 33 5 38l4 2c3-1 6-10 6-17 1-12-2-20-8-24-4-3-6-2-7 1zM75 297c-8 1-13 4-16 8s-3 4 7 7c8 2 25 2 32 0 5-1 12-6 12-8s-11-6-21-7l-8-1-6 1zm561 0c-7 1-15 4-18 6-2 1-2 1 0 3 7 8 28 10 45 5l7-3-1-2c-4-7-19-11-33-9zM529 185.6h-18.8v-3.9l6.7-6.8 4-4.2c.5-.8 1-1.5 1.2-2.2s.4-1.4.4-2.1c0-1-.3-1.9-.8-2.4-.6-.5-1.4-.8-2.4-.8s-2 .3-3 .7c-1 .5-2 1.2-3.1 2l-3-3.6c1.2-1.1 2.3-1.9 3.2-2.4s1.8-.8 2.8-1c1-.3 2.2-.4 3.5-.4 1.7 0 3.1.3 4.4 1s2.3 1.4 3 2.5c.7 1 1 2.3 1 3.7 0 1.3-.2 2.4-.6 3.5-.4 1-1.1 2.2-2 3.3s-2.5 2.8-4.8 4.9l-3.5 3.2v.3H529v4.7zM550.2 172.3c0 4.6-.8 8-2.3 10.3s-4 3.4-7.1 3.4c-3.1 0-5.4-1.2-7-3.5a18.4 18.4 0 0 1-2.3-10.2c0-4.8.7-8.2 2.2-10.5s4-3.3 7-3.3c3.2 0 5.5 1.1 7 3.5s2.5 5.7 2.5 10.3zm-13.1 0c0 3.2.3 5.6.8 7 .6 1.4 1.5 2.1 2.9 2.1 1.3 0 2.3-.7 2.8-2.1.6-1.4 1-3.8 1-7 0-3.3-.4-5.7-1-7.1-.6-1.4-1.5-2.2-2.8-2.2-1.3 0-2.3.8-2.9 2.2-.5 1.4-.8 3.8-.8 7zM567 185.6h-5.7v-18l.2-2.8-2 1.9-3 2.4-2.8-3.4 8.6-6.8h4.7v26.7zM593 170.3c0 5.3-1.1 9.2-3.3 11.8-2.3 2.6-5.6 4-10.1 4-1.6 0-2.8-.2-3.6-.4v-4.5c1 .3 2 .4 3.2.4 1.9 0 3.4-.3 4.7-.8a5.9 5.9 0 0 0 2.8-2.7c.6-1.1 1-2.8 1-4.9h-.1c-.8 1.2-1.6 2-2.5 2.4-1 .5-2 .7-3.5.7a7 7 0 0 1-5.5-2.2 9 9 0 0 1-2-6.2c0-2.9.8-5.2 2.4-6.8a8.9 8.9 0 0 1 6.7-2.5 9 9 0 0 1 8.6 5.4c.8 1.8 1.2 3.9 1.2 6.3zm-9.7-7.2c-1.2 0-2 .4-2.7 1.2-.7.8-1 2-1 3.5 0 1.3.3 2.3.9 3 .6.8 1.5 1.2 2.7 1.2 1.1 0 2.1-.4 3-1.1.8-.8 1.2-1.6 1.2-2.6 0-1.5-.4-2.7-1.2-3.7-.7-1-1.7-1.5-2.9-1.5zM184 290.3c-2.4 0-4.4-.3-6-.8l.2-7.1c2 .5 3.8.7 5.4.7 4.7 0 7.7-2.9 9-8.8l10.5-49.7h8.3l-10.7 50.8c-1 5.1-3 8.9-5.7 11.3s-6.3 3.6-11 3.6zM228.7 237.1l-4.6 21.5c-.7 3.3-1 5.5-1 6.7 0 3.2 1.4 4.7 4.4 4.7 1.7 0 3.4-.6 5-2s3.2-3.2 4.5-5.7 2.3-5.4 3-8.7l3.4-16.5h8.2l-8.2 38.9H237l.8-7.2h-.3c-2 2.7-4 4.7-6 6s-4.4 2-6.8 2c-3.1 0-5.5-1-7.2-2.8-1.8-1.7-2.6-4.3-2.6-7.6 0-1.5.1-3 .4-4.4l.9-4.3 4.3-20.6h8.3zM281.4 236.4c1.4 0 2.7.2 3.8.4l-1.8 7.7c-1.3-.3-2.5-.5-3.6-.5-3 0-5.6 1.4-8 4s-3.9 6.1-4.8 10.4l-3.7 17.6H255l8.3-38.9h6.5l-.8 7.2h.4c1.9-2.8 3.8-4.8 5.8-6 2-1.3 4-1.9 6.2-1.9zM286.3 237.1h8.1l2.2 18.7a80.5 80.5 0 0 1 .8 12.5h.3c2-5 3.6-8.7 4.7-11l10.3-20.2h9l-24.3 45c-2 3.9-4.4 6.7-6.8 8.5s-5.4 2.7-8.8 2.7c-1.8 0-3.5-.2-5-.7V286c1.7.4 3.2.6 4.4.6 1.7 0 3.3-.5 4.7-1.5s2.8-2.9 4.3-5.5l1.8-3.2-5.7-39.3zM365.8 261.7h-17l-7.4 14.3h-8.9l27.5-51.5h9.7l5.8 51.5h-8.2l-1.5-14.3zm-.5-7.3a835.2 835.2 0 0 1-1.8-22.6 119 119 0 0 1-5 10.8l-6 11.8h12.8zM409 276l-.7-22v-9.5l-1.7 4.4-12.2 27.1h-9.2l-1.7-38.9h7.8l.5 22.7-.4 8.6h.2a176 176 0 0 1 3.8-9.5l9.8-21.8h9l.6 21.3v10h.1a255.6 255.6 0 0 1 13.1-31.3h8.6L418.4 276H409zM447.5 276.7c-3.3 0-6-1.2-7.9-3.6s-2.9-5.7-2.9-10c0-4.7.9-9.2 2.5-13.3s3.9-7.4 6.7-9.8 6-3.6 9.4-3.6c2.3 0 4.3.5 6 1.6s2.8 2.6 3.7 4.7h.4l2.2-5.6h6.3l-8.3 38.9h-6.4l.7-6.2h-.2c-3.7 4.6-7.8 6.9-12.2 6.9zm3-6.7c2 0 3.8-.9 5.6-2.7s3.4-4.3 4.6-7.3 1.8-6.4 1.8-10c0-2-.5-3.7-1.6-5s-2.6-1.8-4.4-1.8c-2 0-3.8.9-5.6 2.7s-3.2 4.2-4.2 7.3-1.6 6.4-1.6 9.7c0 2.4.5 4.2 1.4 5.3s2.3 1.8 4 1.8zM503.1 236.4c1.5 0 2.8.2 3.8.4l-1.7 7.7c-1.3-.3-2.5-.5-3.6-.5-3 0-5.6 1.4-8 4s-3.9 6.1-4.8 10.4l-3.7 17.6h-8.3l8.3-38.9h6.4l-.7 7.2h.3c2-2.8 4-4.8 5.9-6s4-1.9 6.1-1.9zM526.4 236.4c4.2 0 7.4 2.1 9.4 6.3h.3c.3-3.5.8-6.4 1.3-8.8l2.7-12.6h8.2L536.7 276h-6.5l.7-6.2h-.3c-2 2.5-4 4.3-6 5.3s-3.9 1.6-6 1.6c-3.4 0-6-1.2-8-3.6s-2.8-5.7-2.8-10c0-4.9.9-9.4 2.5-13.5s4-7.4 6.8-9.7 5.9-3.5 9.3-3.5zm-4.7 33.6c2 0 3.8-1 5.7-2.9s3.4-4.4 4.6-7.5 1.7-6.2 1.7-9.4c0-2.1-.5-3.8-1.6-5.1s-2.5-2-4.6-2c-2 0-3.9 1-5.6 2.8s-3.1 4.2-4.2 7.4-1.5 6.3-1.5 9.6c0 4.7 1.8 7.1 5.5 7.1zM283 32.7c-6 2.2-14.6 9.8-17.4 15.8-2.9 5.8-3.3 11.7-1.1 15.6.6 1.1.6 1 1-.9.5-2.2 3-7.1 4.8-9.4l1-1.3v4.8c0 4-.2 5.1-1.3 7.4-1.9 3.7-1.7 4.7 1 7a49.7 49.7 0 0 0 14.5 8.7c.1-.2.2-7.3.1-15.8l-.2-15.5-3.5 2.6-3.7 2.6V50c0-4.4.1-4.6 1.7-6 1-.7 2.6-1.9 3.7-2.5l2.1-1.2v-4.1c0-2.3-.1-4.1-.4-4.1l-2.4.7z"/><path d="M262.8 72c0 6.1 0 6.6 1.3 8.3.8 1 3 3 5 4.5l3.8 2.8V97l-1.7-1.1c-1-.7-3.2-2.7-5-4.5l-3.4-3.1v13.5c0 12.4.1 13.4.8 11.4 1.8-5 5.5-4.5 15 2.4l4 3v3.5c0 2-.2 3.7-.3 3.7l-3-1.9c-3.3-2.2-4.6-2.3-5.3-.5-1 2.7-.7 3.3 3.4 6.2l4 2.8v3.3c0 3.4.4 4 1.7 2.5 2.6-3.1 10.2-4.2 17.6-2.4 12.8 3 18.6 8.8 19.5 19.4l.3 3.6-1.8-.3c-4-.6-26.9-3.3-27-3.1a8 8 0 0 0 .4 2.4c1.8 6.7 13.2 10.3 15 4.8.1-.5 3.3-.4 13 .3 12.5.8 12.8.9 13.9 2.2.9 1.1 1.5 1.3 3.8 1.3 4.7-.1 7.6-1.8 7.6-4.5 0-2-1-2.3-10-2.7-8.3-.4-10.5-1-12.3-3.4-1.1-1.3-1.2-2-1-5 .1-3 .4-4 1.7-5.6 3.2-4.2 9.4-6.8 18.7-7.8 8.9-1 13.8.8 15.2 5.4 1 3.3.7 3.5-5.4 4.2-3 .4-5.7.8-6.2 1-.4.2-.7-.1-.7-.7s-.5-1.5-1-2c-2.2-2-9.1 0-9.6 2.7-.3 2 1.2 2.5 10 2.8 9 .4 11 1 12.6 3.5 1.2 1.8 1.5 5 .8 7.6-1.3 5-7 9-16 10.8-12.3 2.5-19.6.5-21.4-6l-.6-2.3-1 2c-1.2 2.5-4.2 5-6.7 5.7-3.2.9-9.2.7-13.8-.5-8.8-2.2-14.9-6.5-17.9-12.6a16 16 0 0 1-2-8.4c0-4 0-5.4 1-7.6l1-2.8-3.4-2.4c-1.8-1.4-3.5-2.4-3.6-2.4s-.4 5.5-.5 12.2l-.1 12.3-5-3.5c-2.6-1.9-5-3.4-5-3.4-.2 0-.4 2.7-.4 6v6l3.3 3.2c1.9 1.8 4.2 3.8 5.1 4.4l1.7 1.2v9.6l-1.7-1.2c-1-.7-3.2-2.7-5-4.4l-3.4-3.2v3.5c0 3.3.2 3.7 2.3 6.6 9.4 12.8 27.4 20.2 53.1 21.8 2.8.2 8.4 0 12.5-.2 20.5-1.6 37.7-8 48.2-17.8l2.7-2.7v-4.7c0-4.3-.4-5.6-1.3-4.1-.5.8-6.7 5.3-7.2 5.3-.3 0-.5-2-.5-4.5v-4.3l4.5-3.4 4.5-3.5v-9.5l-1.7 1.1c-3.2 2.1-7.6 4.2-10.8 5.1-2.5.8-3.4.8-5.1.4-3.8-1.2-4-1.8-4.1-20l-.2-16 5.8-5 5.7-5 .2 5.4c.2 6.2-.3 6 6 2.9l4-1.8c.2 0 .2 1.6.2 3.6 0 3.2.2 3.8 1.5 5 2.4 2.3 5.8 3.5 14 5 4.1.7 8.3 1.6 9.3 2.1 3.1 1.5 3.5 4.6.8 6.9-2.3 1.9-5.4 2.5-10.6 2.3-5.7-.2-8.1-1.3-9.5-4.2-.9-2-1-2-3.2-2h-2.2l-.2-5.3-.1-5.3-5 2.3-4.9 2.3v6.3c.1 3.5.3 6.9.5 7.6.5 2 2.7 2 6.4 0l3.2-1.7 1.4 1c5.7 4.6 21.7 5 28.4.9 3.3-2 4.6-4.4 4.6-8.3 0-5.8-2.8-7.8-14.7-10-9.2-1.7-10.9-2.2-12.6-3.8-4.1-4 2.8-8.6 11.4-7.7 3.8.4 6.5 2 7.6 4.2.6 1.3 1 1.4 3.8 1.4 3.6 0 3.7-.1 2.2-3.5-2.2-4.6-8.3-7-17.7-6.5-6.5.3-10.3 1.7-12.8 4.5l-1.6 1.9V89l-4 2.7c-2.2 1.5-4.3 2.6-4.5 2.6s-.5-2-.5-4.4v-4.5l4.4-2.9 4.4-2.8.1-5.5v-5.5c-.2 0-2.6 1.5-5.5 3.3-13.5 8.5-29.3 14-45.7 16-7.5.8-23.6.3-30.3-1-16-3.3-28.9-10.5-36-20l-1.2-1.6v6.5zm99.7 23.9v4.7l-3.3 1.5c-3.5 1.5-10.9 4-12 4-.6 0-.7-1.3-.7-4.7v-4.8l5-1.4a80.7 80.7 0 0 0 10.6-4c.2 0 .4 2 .4 4.7zm-73.6-.5l6.8 2 2.3.3v10l-1.7-.3c-1-.2-4.4-1.3-7.7-2.4l-5.8-1.9-.2-5c-.1-4.6 0-5 .8-4.6l5.5 1.9zm44.2 8.7v5l-2 .4c-3.6.5-15.9 1-17.3.6-1.4-.3-1.4-.4-1.4-5.4v-5l8.4-.2c4.6 0 9.3-.2 10.4-.3h2v5zm29.4 79.7v4.7l-3 1.4c-3.1 1.3-11.5 4-12.6 4-.2 0-.4-2-.4-4.7v-4.6l5.3-1.7a88 88 0 0 0 10.3-3.8c.2 0 .4 2.1.4 4.7zm-68.5 0l3.7 1 .2 4.9c0 3 0 4.8-.5 4.8-1 0-10.9-3.3-12.9-4.3l-2-1v-9.5l3.9 1.6c2 .9 5.5 2 7.6 2.5zm39.1 7.7v5l-1.6.4c-1 .1-5.6.3-10.4.3h-8.7V187l9.2-.2c5 0 9.7-.2 10.4-.3 1 0 1.1 0 1.1 5zM145.5 103c-3.3 1-5.6 2.7-7 5.3-1.2 2.2-1.2 2.8-1.4 23.2l-.1 21h10.7v-28.3h10.6v-6.4h-10.6V116c0-1.2.5-2.4 1.3-3.4l1.2-1.5 10.7-.2 10.8-.1v-8.5h-11.9c-7.6 0-12.7.3-14.3.8zM176 127.4v25h10.6v-50h-10.7v25zM583.1 127.6v24.8h7V103h-7v24.7zM210.6 117.2c-2.4.7-4.8 2.2-7 4.1l-2.1 2v-5.5h-10.1v34.6h10.5l.2-10.3c.2-9.5.3-10.4 1.5-12.8.8-1.6 2-3 3.4-4 1.9-1.2 2.7-1.4 6-1.4 4.4 0 6.2 1 7.8 4 .8 1.6 1 3.5 1 13.2v11.3h10.6v-9.2c0-10.6.6-13.5 3.3-16.3 4.8-4.9 12.8-4.3 15.5 1 .8 1.6 1 3.5 1 13.2v11.3h10.6l-.1-13c-.2-14.6-.4-15.4-4.8-19.2-3.2-2.7-6.8-3.6-13-3.4-4 .2-5.2.4-7.6 1.8-1.5.8-3.6 2.4-4.5 3.4l-1.6 2-2.8-2.8c-3.4-3.4-6.4-4.5-12.2-4.4-2.4 0-4.9.2-5.6.4zM433 117.4c-3 1-6.2 2.8-7.3 4-1.5 1.7-2 1.4-2-1.2v-2.4h-6.3v48h6.4v-17.6l3 2.1c6 4.1 15.3 4.7 21.9 1.4 3.3-1.7 6.7-5.3 8.3-8.8l1.3-2.8.8 2.6c2.7 8 12.4 12.5 23 10.9 7-1 11-3.4 13.1-7.7 1.7-3.3 1.5-3.6-2.4-3.6-2.9 0-3.5.2-3.8 1-.4 1.7-4.2 4.7-6.5 5.3-5 1.5-10.6.4-13.7-2.5a17 17 0 0 1-4-8V137h32.7l-.4-4c-.7-9.9-6.5-15.5-16.6-16.2-10.8-.6-19.1 3.9-21.1 11.4-.4 1.3-.8 2.4-1 2.4s-.8-1.3-1.3-2.8a18.5 18.5 0 0 0-9.2-9.3 26.7 26.7 0 0 0-14.8-1.1zm11.2 5.1c5 2.1 7.5 7.1 7.2 13.8-.1 3.5-.5 4.6-1.8 6.8-2.4 4-5.8 5.8-11 6-8.9.4-14.4-4.7-14.5-13.5 0-2 .3-4.6.7-5.8a16 16 0 0 1 6-7c3.8-2 9.4-2 13.4-.3zm38.2-.7c3.6 1 6.6 4 7.4 7.1 1.1 4 1.6 3.8-12.3 3.7l-12.4-.2.1-1.3c.6-4.3 4-8.2 8.5-9.4 3.5-.9 5.3-.9 8.7.1zM554.4 117.6c-4.9 1.2-7.8 3.5-9 6.7-1 2.4-.9 2.5 2.7 2.5 3.1 0 3.4 0 4.4-1.7 1.8-2.8 4.1-3.9 9-3.8 3.4 0 4.8.3 6.2 1 2.5 1.5 4.2 4.2 4.2 6.7v2.1h-7c-15 0-21.4 2.8-22.6 9.6-1.5 8.7 8 14.9 19.8 12.8 4.3-.7 6-1.6 8.5-4l1.9-2v5h6.5l-.3-13.6c-.1-13-.2-13.4-1.4-15.6-1.6-3-4.3-4.7-8.3-5.8-3.9-1-10.8-1-14.6 0zM572 138c0 5.1-2.8 9-7.4 10.5-3 1-9.1.8-11.2-.4-2.7-1.4-4-3.4-4-6 .2-5 4-6.4 19.6-6.7l3-.1v2.7z"/><path d="M161 135.1v17.3h10.7v-34.6H161V135zM497.3 120.4v2.8l11.7-.2c6.5-.1 11.8 0 11.8.1 0 .2-5.6 5.5-12.3 12l-12.3 11.7v5.6h34.1v-4.8H505l12.4-12.1 12.4-12.1v-5.6h-32.5v2.6zM533 135.1v17.3h6.4v-34.6H533V135zM294.9 143.4c-1.5 1-3.6 4.1-3 4.7.2.2 12.6 1.6 14.2 1.7 2.4 0 0-4.8-3.3-6.4-2.7-1.4-5.7-1.4-8 0z"/></svg>