<svg xmlns="http://www.w3.org/2000/svg" viewBox="0 0 157.79 73.16"><title>wasser-yc-laurel</title><path d="M39.37,42V32h3.25a11.9,11.9,0,0,1,2.41.15,2.66,2.66,0,0,1,1.44,1,3.14,3.14,0,0,1,.58,2,3.17,3.17,0,0,1-.34,1.55,2.67,2.67,0,0,1-.85,1,2.91,2.91,0,0,1-1,.48,12.13,12.13,0,0,1-2.1.14H41.4V42Zm2-8.33v2.85h1.1a5,5,0,0,0,1.6-.16A1.31,1.31,0,0,0,45,35.09a1.24,1.24,0,0,0-.32-.9,1.37,1.37,0,0,0-.81-.45,10.54,10.54,0,0,0-1.46-.07Z" transform="translate(-21.61 -11.43)"/><path d="M48.7,32h2v5.43a11.43,11.43,0,0,0,.07,1.67,1.68,1.68,0,0,0,.62,1,2.17,2.17,0,0,0,1.34.37,2.08,2.08,0,0,0,1.3-.35,1.41,1.41,0,0,0,.53-.87,13,13,0,0,0,.08-1.7V32h2v5.26a13.24,13.24,0,0,1-.17,2.55,2.85,2.85,0,0,1-.6,1.26,3.23,3.23,0,0,1-1.18.82,5.21,5.21,0,0,1-1.93.3,5.6,5.6,0,0,1-2.18-.33A3.18,3.18,0,0,1,49.46,41a2.87,2.87,0,0,1-.57-1.11,12.5,12.5,0,0,1-.19-2.55Z" transform="translate(-21.61 -11.43)"/><path d="M58.83,32h4a11.09,11.09,0,0,1,1.78.1,2.45,2.45,0,0,1,1,.41,2.5,2.5,0,0,1,.77.84,2.23,2.23,0,0,1,.31,1.17,2.35,2.35,0,0,1-.38,1.29,2.26,2.26,0,0,1-1,.88,2.72,2.72,0,0,1,1.41.91,2.42,2.42,0,0,1,.49,1.51,2.86,2.86,0,0,1-.32,1.33,2.75,2.75,0,0,1-.86,1,3,3,0,0,1-1.36.47c-.34,0-1.15.06-2.44.07H58.83Zm2,1.67V36h1.33q1.18,0,1.47,0a1.3,1.3,0,0,0,.81-.36,1.06,1.06,0,0,0,.3-.78A1.08,1.08,0,0,0,64.5,34a1.16,1.16,0,0,0-.76-.35c-.2,0-.77,0-1.73,0Zm0,4v2.68h1.87a9.36,9.36,0,0,0,1.39-.06,1.26,1.26,0,0,0,.74-.4,1.23,1.23,0,0,0,.28-.85,1.29,1.29,0,0,0-.22-.77,1.18,1.18,0,0,0-.63-.45,6.66,6.66,0,0,0-1.8-.15Z" transform="translate(-21.61 -11.43)"/><path d="M69,42V32.06h2v8.25h5V42Z" transform="translate(-21.61 -11.43)"/><path d="M77.42,42V32h2V42Z" transform="translate(-21.61 -11.43)"/><path d="M81.4,42V32h2v4.45L87.51,32h2.72l-3.77,3.9,4,6.12H87.82l-2.76-4.7L83.42,39v3Z" transform="translate(-21.61 -11.43)"/><path d="M91.47,32h2v5.43a10.92,10.92,0,0,0,.08,1.67,1.59,1.59,0,0,0,.62,1,2.12,2.12,0,0,0,1.33.37,2.06,2.06,0,0,0,1.3-.35,1.41,1.41,0,0,0,.53-.87,11,11,0,0,0,.09-1.7V32h2v5.26a13.47,13.47,0,0,1-.16,2.55,2.86,2.86,0,0,1-.61,1.26,3.15,3.15,0,0,1-1.18.82,5.17,5.17,0,0,1-1.93.3,5.54,5.54,0,0,1-2.17-.33A3.14,3.14,0,0,1,92.23,41a2.84,2.84,0,0,1-.56-1.11,11.68,11.68,0,0,1-.2-2.55Z" transform="translate(-21.61 -11.43)"/><path d="M101.57,42V32h3l1.82,6.83,1.8-6.83h3V42h-1.88V34.11l-2,7.89h-1.95l-2-7.89V42Z" transform="translate(-21.61 -11.43)"/><path d="M112.74,38.74l2-.19a2.41,2.41,0,0,0,.72,1.45,2.18,2.18,0,0,0,1.47.47,2.28,2.28,0,0,0,1.47-.41,1.25,1.25,0,0,0,.5-1,.92.92,0,0,0-.21-.61,1.69,1.69,0,0,0-.73-.43c-.24-.08-.78-.23-1.62-.44a5.5,5.5,0,0,1-2.28-1,2.61,2.61,0,0,1-.49-3.45,2.74,2.74,0,0,1,1.25-1,4.85,4.85,0,0,1,2-.35,4.22,4.22,0,0,1,2.84.82,2.92,2.92,0,0,1,1,2.21l-2,.09a1.73,1.73,0,0,0-.56-1.11,2.06,2.06,0,0,0-1.28-.34,2.31,2.31,0,0,0-1.38.36.76.76,0,0,0-.32.63.79.79,0,0,0,.3.61,5.58,5.58,0,0,0,1.86.67,9.61,9.61,0,0,1,2.18.72,2.72,2.72,0,0,1,1.11,1,3,3,0,0,1,.4,1.6,2.92,2.92,0,0,1-.48,1.61,2.81,2.81,0,0,1-1.35,1.12,5.54,5.54,0,0,1-2.18.37A4.37,4.37,0,0,1,114,41.3,3.87,3.87,0,0,1,112.74,38.74Z" transform="translate(-21.61 -11.43)"/><path d="M122.59,42V32h3.25a11.9,11.9,0,0,1,2.41.15,2.66,2.66,0,0,1,1.44,1,3.08,3.08,0,0,1,.58,2,3.17,3.17,0,0,1-.34,1.55,2.67,2.67,0,0,1-.85,1,2.91,2.91,0,0,1-1.05.48,12.08,12.08,0,0,1-2.09.14h-1.32V42Zm2-8.33v2.85h1.1a5,5,0,0,0,1.6-.16,1.37,1.37,0,0,0,.64-.49,1.35,1.35,0,0,0,.22-.78,1.24,1.24,0,0,0-.32-.9,1.37,1.37,0,0,0-.81-.45,10.54,10.54,0,0,0-1.46-.07Z" transform="translate(-21.61 -11.43)"/><path d="M131.94,42V32h4.26a7.24,7.24,0,0,1,2.33.27,2.29,2.29,0,0,1,1.17,1,2.9,2.9,0,0,1,.43,1.58,2.68,2.68,0,0,1-.66,1.86,3.19,3.19,0,0,1-2,.93,4.3,4.3,0,0,1,1.08.84A10.87,10.87,0,0,1,139.72,40L141,42h-2.42l-1.47-2.18A14.16,14.16,0,0,0,136,38.35a1.46,1.46,0,0,0-.61-.42,3.18,3.18,0,0,0-1-.11H134V42Zm2-5.78h1.5a7.17,7.17,0,0,0,1.82-.13,1,1,0,0,0,.56-.42,1.28,1.28,0,0,0,.21-.75,1.13,1.13,0,0,0-1-1.21c-.17,0-.66,0-1.48,0H134Z" transform="translate(-21.61 -11.43)"/><path d="M142,42V32h7.43v1.69h-5.41V35.9h5v1.68h-5v2.73h5.6V42Z" transform="translate(-21.61 -11.43)"/><path d="M151.32,42V32h2V42Z" transform="translate(-21.61 -11.43)"/><path d="M154.76,38.74l2-.19a2.36,2.36,0,0,0,.73,1.45,2.17,2.17,0,0,0,1.46.47,2.28,2.28,0,0,0,1.47-.41,1.22,1.22,0,0,0,.5-1,.92.92,0,0,0-.21-.61,1.69,1.69,0,0,0-.73-.43c-.23-.08-.77-.23-1.62-.44a5.57,5.57,0,0,1-2.28-1,2.62,2.62,0,0,1-.92-2,2.57,2.57,0,0,1,.43-1.43,2.74,2.74,0,0,1,1.25-1,4.91,4.91,0,0,1,2-.35,4.26,4.26,0,0,1,2.84.82,3,3,0,0,1,1,2.21l-2,.09a1.73,1.73,0,0,0-.55-1.11,2.11,2.11,0,0,0-1.29-.34,2.35,2.35,0,0,0-1.38.36.76.76,0,0,0-.32.63.79.79,0,0,0,.3.61,5.67,5.67,0,0,0,1.86.67,9.56,9.56,0,0,1,2.19.72,2.69,2.69,0,0,1,1.1,1,3,3,0,0,1,.4,1.6,2.91,2.91,0,0,1-.47,1.61,2.79,2.79,0,0,1-1.36,1.12,5.54,5.54,0,0,1-2.18.37A4.39,4.39,0,0,1,156,41.3,3.81,3.81,0,0,1,154.76,38.74Z" transform="translate(-21.61 -11.43)"/><path d="M51.27,54.31l1-.09a1.84,1.84,0,0,0,.52,1.11,1.44,1.44,0,0,0,1,.38A1.57,1.57,0,0,0,55,55.18a2,2,0,0,0,.48-1.39A1.79,1.79,0,0,0,55,52.48,1.59,1.59,0,0,0,53.79,52a1.69,1.69,0,0,0-.84.21,1.78,1.78,0,0,0-.6.55l-.9-.11.76-4h3.92v.93H53l-.42,2.11a2.55,2.55,0,0,1,1.49-.49,2.4,2.4,0,0,1,1.74.71,2.52,2.52,0,0,1,.71,1.84,2.86,2.86,0,0,1-.63,1.85,2.5,2.5,0,0,1-2.07,1,2.55,2.55,0,0,1-1.75-.6A2.38,2.38,0,0,1,51.27,54.31Z" transform="translate(-21.61 -11.43)"/><path d="M57.39,52.49a7.19,7.19,0,0,1,.29-2.25,2.86,2.86,0,0,1,.85-1.32A2.25,2.25,0,0,1,60,48.46a2.33,2.33,0,0,1,1.11.26,2.12,2.12,0,0,1,.79.73,3.93,3.93,0,0,1,.49,1.17,7.69,7.69,0,0,1,.18,1.87,7.18,7.18,0,0,1-.29,2.23A2.78,2.78,0,0,1,61.39,56a2.41,2.41,0,0,1-3.22-.35A5.21,5.21,0,0,1,57.39,52.49Zm1,0a5,5,0,0,0,.45,2.58,1.29,1.29,0,0,0,2.24,0,5,5,0,0,0,.45-2.57,5,5,0,0,0-.45-2.59A1.36,1.36,0,0,0,60,49.26a1.23,1.23,0,0,0-1.06.57A4.91,4.91,0,0,0,58.39,52.49Z" transform="translate(-21.61 -11.43)"/><path d="M64.05,56.37v-1.1h1.1v1.1Z" transform="translate(-21.61 -11.43)"/><path d="M72,56.37V53l-3-4.54h1.27l1.55,2.38c.29.44.55.89.8,1.33.24-.41.52-.87.86-1.39L75,48.49h1.22L73.08,53v3.34Z" transform="translate(-21.61 -11.43)"/><path d="M75.66,53.52a2.93,2.93,0,0,1,.88-2.35,2.66,2.66,0,0,1,1.79-.63,2.55,2.55,0,0,1,1.93.77A3,3,0,0,1,81,53.44a3.78,3.78,0,0,1-.33,1.73,2.33,2.33,0,0,1-1,1,2.83,2.83,0,0,1-1.38.35,2.57,2.57,0,0,1-1.93-.77A3.07,3.07,0,0,1,75.66,53.52Zm1,0a2.43,2.43,0,0,0,.48,1.64,1.54,1.54,0,0,0,1.2.54,1.52,1.52,0,0,0,1.2-.55A2.47,2.47,0,0,0,80,53.48a2.35,2.35,0,0,0-.48-1.6,1.6,1.6,0,0,0-2.4,0A2.41,2.41,0,0,0,76.65,53.52Z" transform="translate(-21.61 -11.43)"/><path d="M85.88,56.37v-.84a2.11,2.11,0,0,1-1.81,1,2.31,2.31,0,0,1-.95-.2,1.6,1.6,0,0,1-.65-.48,2,2,0,0,1-.3-.72,6.22,6.22,0,0,1,0-.9V50.66h1v3.17a5.62,5.62,0,0,0,.06,1,1,1,0,0,0,.39.6,1.24,1.24,0,0,0,.73.22,1.61,1.61,0,0,0,.82-.23,1.28,1.28,0,0,0,.54-.61,3.14,3.14,0,0,0,.15-1.11V50.66h1v5.71Z" transform="translate(-21.61 -11.43)"/><path d="M88.25,56.37V50.66h.88v.82a2,2,0,0,1,1.81-.94,2.47,2.47,0,0,1,1,.18,1.51,1.51,0,0,1,.65.49,2,2,0,0,1,.3.71,6.37,6.37,0,0,1,0,.94v3.51h-1V52.9a2.54,2.54,0,0,0-.11-.89.89.89,0,0,0-.4-.46,1.24,1.24,0,0,0-.67-.18,1.53,1.53,0,0,0-1.07.4,1.91,1.91,0,0,0-.45,1.48v3.12Z" transform="translate(-21.61 -11.43)"/><path d="M94.2,56.84l.94.14a.84.84,0,0,0,.32.63,1.62,1.62,0,0,0,1,.27,1.71,1.71,0,0,0,1-.27,1.29,1.29,0,0,0,.5-.75,6.42,6.42,0,0,0,.07-1.24,2,2,0,0,1-1.58.75,2.13,2.13,0,0,1-1.82-.85,3.27,3.27,0,0,1-.65-2,3.72,3.72,0,0,1,.3-1.5,2.22,2.22,0,0,1,2.17-1.44,2.05,2.05,0,0,1,1.67.81v-.69H99v4.93a4.7,4.7,0,0,1-.27,1.89,2,2,0,0,1-.86.88,2.93,2.93,0,0,1-1.45.32,2.71,2.71,0,0,1-1.65-.46A1.52,1.52,0,0,1,94.2,56.84Zm.8-3.43a2.46,2.46,0,0,0,.44,1.64,1.47,1.47,0,0,0,2.24,0,2.37,2.37,0,0,0,.45-1.6,2.33,2.33,0,0,0-.47-1.58,1.41,1.41,0,0,0-1.12-.53,1.38,1.38,0,0,0-1.09.52A2.33,2.33,0,0,0,95,53.41Z" transform="translate(-21.61 -11.43)"/><path d="M109.29,53.61l1,.26a3.5,3.5,0,0,1-1.18,2,3.24,3.24,0,0,1-2.08.67A3.69,3.69,0,0,1,105,56a3.14,3.14,0,0,1-1.21-1.5,5.3,5.3,0,0,1-.42-2.11,4.66,4.66,0,0,1,.47-2.14,3.16,3.16,0,0,1,1.34-1.39,3.84,3.84,0,0,1,1.91-.48,3,3,0,0,1,3.11,2.29l-1,.25a2.49,2.49,0,0,0-.79-1.26,2.15,2.15,0,0,0-1.32-.39,2.52,2.52,0,0,0-1.51.44,2.27,2.27,0,0,0-.86,1.16,4.89,4.89,0,0,0-.25,1.52,4.68,4.68,0,0,0,.3,1.75,2.13,2.13,0,0,0,.91,1.12,2.5,2.5,0,0,0,1.33.37,2.29,2.29,0,0,0,1.49-.5A2.67,2.67,0,0,0,109.29,53.61Z" transform="translate(-21.61 -11.43)"/><path d="M111.13,53.52a2.93,2.93,0,0,1,.88-2.35,2.66,2.66,0,0,1,1.79-.63,2.55,2.55,0,0,1,1.93.77,2.91,2.91,0,0,1,.74,2.13,3.78,3.78,0,0,1-.33,1.73,2.33,2.33,0,0,1-1,1,2.83,2.83,0,0,1-1.38.35,2.57,2.57,0,0,1-1.93-.77A3.07,3.07,0,0,1,111.13,53.52Zm1,0a2.43,2.43,0,0,0,.48,1.64,1.54,1.54,0,0,0,1.2.54,1.5,1.5,0,0,0,1.2-.55,2.47,2.47,0,0,0,.48-1.67,2.35,2.35,0,0,0-.48-1.6,1.6,1.6,0,0,0-2.4,0A2.41,2.41,0,0,0,112.12,53.52Z" transform="translate(-21.61 -11.43)"/><path d="M117.59,56.37V48.49h1v7.88Z" transform="translate(-21.61 -11.43)"/><path d="M120,56.37V48.49h1v7.88Z" transform="translate(-21.61 -11.43)"/><path d="M126.4,54.53l1,.13a2.42,2.42,0,0,1-.88,1.35,2.57,2.57,0,0,1-1.63.49,2.62,2.62,0,0,1-2-.77,3,3,0,0,1-.74-2.17,3.18,3.18,0,0,1,.74-2.23,2.53,2.53,0,0,1,1.93-.79,2.44,2.44,0,0,1,1.87.77,3.12,3.12,0,0,1,.72,2.2v.25h-4.26a2.19,2.19,0,0,0,.53,1.44,1.57,1.57,0,0,0,1.2.5,1.44,1.44,0,0,0,.9-.28A1.84,1.84,0,0,0,126.4,54.53ZM123.23,53h3.18a1.92,1.92,0,0,0-.36-1.08,1.5,1.5,0,0,0-1.2-.56,1.52,1.52,0,0,0-1.12.45A1.74,1.74,0,0,0,123.23,53Z" transform="translate(-21.61 -11.43)"/><path d="M132.33,54.28l1,.12a2.48,2.48,0,0,1-.8,1.54,2.33,2.33,0,0,1-1.58.56,2.44,2.44,0,0,1-1.88-.77,3.07,3.07,0,0,1-.71-2.19,4,4,0,0,1,.3-1.62,2.17,2.17,0,0,1,.94-1,2.75,2.75,0,0,1,1.36-.34,2.39,2.39,0,0,1,1.52.46,2.18,2.18,0,0,1,.75,1.34l-.94.15a1.47,1.47,0,0,0-.47-.87,1.24,1.24,0,0,0-.82-.29,1.49,1.49,0,0,0-1.19.52,2.48,2.48,0,0,0-.46,1.66,2.59,2.59,0,0,0,.44,1.67,1.42,1.42,0,0,0,1.15.52,1.31,1.31,0,0,0,.95-.35A1.65,1.65,0,0,0,132.33,54.28Z" transform="translate(-21.61 -11.43)"/><path d="M136.22,55.5l.14.86a3.32,3.32,0,0,1-.73.08,1.64,1.64,0,0,1-.81-.16.91.91,0,0,1-.41-.44,3.4,3.4,0,0,1-.12-1.14V51.42h-.71v-.76h.71V49.25l1-.58v2h1v.76h-1v3.33a1.76,1.76,0,0,0,.05.53.44.44,0,0,0,.17.19.62.62,0,0,0,.33.07A2.43,2.43,0,0,0,136.22,55.5Z" transform="translate(-21.61 -11.43)"/><path d="M137.17,49.61V48.49h1v1.12Zm0,6.76V50.66h1v5.71Z" transform="translate(-21.61 -11.43)"/><path d="M139.25,53.52a3,3,0,0,1,.88-2.35,2.69,2.69,0,0,1,1.8-.63,2.54,2.54,0,0,1,1.92.77,2.91,2.91,0,0,1,.75,2.13,3.78,3.78,0,0,1-.33,1.73,2.33,2.33,0,0,1-1,1,2.86,2.86,0,0,1-1.38.35,2.58,2.58,0,0,1-1.94-.77A3.07,3.07,0,0,1,139.25,53.52Zm1,0a2.49,2.49,0,0,0,.47,1.64,1.54,1.54,0,0,0,1.21.54,1.52,1.52,0,0,0,1.2-.55,2.52,2.52,0,0,0,.47-1.67,2.35,2.35,0,0,0-.48-1.6,1.6,1.6,0,0,0-2.4,0A2.47,2.47,0,0,0,140.25,53.52Z" transform="translate(-21.61 -11.43)"/><path d="M145.73,56.37V50.66h.87v.82a2.05,2.05,0,0,1,1.82-.94,2.39,2.39,0,0,1,.94.18,1.46,1.46,0,0,1,.65.49,2,2,0,0,1,.3.71,5,5,0,0,1,.06.94v3.51h-1V52.9a2.8,2.8,0,0,0-.11-.89.94.94,0,0,0-.4-.46,1.28,1.28,0,0,0-.68-.18,1.52,1.52,0,0,0-1.06.4,1.91,1.91,0,0,0-.45,1.48v3.12Z" transform="translate(-21.61 -11.43)"/><path d="M95.49,70.14v.76H91.23a1.61,1.61,0,0,1,.09-.54,2.83,2.83,0,0,1,.53-.86,7.7,7.7,0,0,1,1-1,9,9,0,0,0,1.42-1.36,1.61,1.61,0,0,0,.37-1,1.05,1.05,0,0,0-.34-.8,1.21,1.21,0,0,0-.87-.32,1.29,1.29,0,0,0-.92.34,1.33,1.33,0,0,0-.35.95l-.81-.08A2,2,0,0,1,92,64.91a2.12,2.12,0,0,1,1.46-.47,2.05,2.05,0,0,1,1.47.51,1.69,1.69,0,0,1,.54,1.27,1.82,1.82,0,0,1-.16.76,2.82,2.82,0,0,1-.52.79,12.68,12.68,0,0,1-1.22,1.13,9.6,9.6,0,0,0-.91.82,2.51,2.51,0,0,0-.34.42Z" transform="translate(-21.61 -11.43)"/><path d="M96.34,67.73a6.12,6.12,0,0,1,.23-1.84,2.34,2.34,0,0,1,.7-1.08,1.8,1.8,0,0,1,1.17-.37,1.88,1.88,0,0,1,.91.2,1.72,1.72,0,0,1,.65.61,3.31,3.31,0,0,1,.4,1,6.86,6.86,0,0,1,.14,1.53,6.14,6.14,0,0,1-.23,1.83,2.3,2.3,0,0,1-.7,1.07A2,2,0,0,1,97,70.35,4.22,4.22,0,0,1,96.34,67.73Zm.81,0a4.11,4.11,0,0,0,.37,2.11,1.07,1.07,0,0,0,1.84,0,4.16,4.16,0,0,0,.37-2.11,4.15,4.15,0,0,0-.37-2.12,1.11,1.11,0,0,0-.93-.52,1,1,0,0,0-.87.46A4.12,4.12,0,0,0,97.15,67.73Z" transform="translate(-21.61 -11.43)"/><path d="M104.32,70.9h-.79v-5a3.64,3.64,0,0,1-.75.55,5.26,5.26,0,0,1-.83.41v-.77a5,5,0,0,0,1.16-.75,3,3,0,0,0,.7-.86h.51Z" transform="translate(-21.61 -11.43)"/><path d="M108.89,70.9V69.36h-2.8v-.72L109,64.46h.65v4.18h.87v.72h-.87V70.9Zm0-2.26V65.73l-2,2.91Z" transform="translate(-21.61 -11.43)"/><path d="M159.35,14.86c-.31-.07-2.2-.65-.69-3.43,0,0,2.47,1.63.87,3.3a19.19,19.19,0,0,1-.68-2.61,12.71,12.71,0,0,0,.5,2.74" transform="translate(-21.61 -11.43)"/><path d="M162.22,16.87c-.35-.08-2.48-.73-.78-3.87,0,0,2.79,1.84,1,3.73a24.79,24.79,0,0,1-.77-3,14.74,14.74,0,0,0,.57,3.09" transform="translate(-21.61 -11.43)"/><path d="M159.47,15.36c-.18-.31-1.44-2.18-4,.39,0,0,2.61,2.16,3.9-.15a24.4,24.4,0,0,0-3.08.12,14.7,14.7,0,0,1,3.16-.36" transform="translate(-21.61 -11.43)"/><path d="M162.8,17.73c-.2-.35-1.62-2.47-4.48.43,0,0,2.94,2.44,4.39-.16a25.4,25.4,0,0,0-3.47.13,16.32,16.32,0,0,1,3.56-.4" transform="translate(-21.61 -11.43)"/><path d="M164.91,19.06c-.35-.08-2.48-.73-.78-3.87,0,0,2.79,1.84,1,3.73a23.92,23.92,0,0,1-.77-3,14.74,14.74,0,0,0,.57,3.09" transform="translate(-21.61 -11.43)"/><path d="M165.49,19.92c-.2-.35-1.62-2.47-4.48.43,0,0,2.94,2.44,4.39-.16a25.4,25.4,0,0,0-3.47.13,16.32,16.32,0,0,1,3.56-.4" transform="translate(-21.61 -11.43)"/><path d="M167.22,21.33c-.34-.11-2.43-.87-.56-3.91,0,0,2.69,2,.77,3.77a23.7,23.7,0,0,1-.6-3,14.24,14.24,0,0,0,.39,3.11" transform="translate(-21.61 -11.43)"/><path d="M167.76,22.22c-.19-.36-1.48-2.56-4.5.18,0,0,2.79,2.6,4.39.08a26,26,0,0,0-3.47-.06,16.27,16.27,0,0,1,3.58-.2" transform="translate(-21.61 -11.43)"/><path d="M169.67,24.27c-.36-.16-2.55-1.24-.14-4.32,0,0,2.69,2.49.39,4.2a24.68,24.68,0,0,1-.3-3.32,15.87,15.87,0,0,0,0,3.44" transform="translate(-21.61 -11.43)"/><path d="M170.15,25.3c-.16-.42-1.31-3-4.93-.34,0,0,2.73,3.17,4.78.61a29.22,29.22,0,0,0-3.77-.48,18,18,0,0,1,3.92.21" transform="translate(-21.61 -11.43)"/><path d="M171.91,28c-.43-.18-3-1.48-.17-5.16,0,0,3.21,3,.46,5a32.63,32.63,0,0,1-.36-4,19.09,19.09,0,0,0,.07,4.11" transform="translate(-21.61 -11.43)"/><path d="M172.3,29.12c-.19-.5-1.56-3.54-5.88-.41,0,0,3.26,3.79,5.71.74a35.53,35.53,0,0,0-4.51-.58,21.34,21.34,0,0,1,4.68.25" transform="translate(-21.61 -11.43)"/><path d="M173.77,32.9c-.42-.27-2.94-2.16.83-5.51,0,0,2.83,3.78-.49,5.42a32.26,32.26,0,0,1,.39-4.28,20.7,20.7,0,0,0-.73,4.37" transform="translate(-21.61 -11.43)"/><path d="M174,34.22c-.11-.56-1-4.06-6.17-1.57,0,0,2.73,4.65,5.92,1.89A35.62,35.62,0,0,0,169,33.05,23.66,23.66,0,0,1,174,34.22" transform="translate(-21.61 -11.43)"/><path d="M175.32,38.37c-.4-.39-2.76-3,2.13-5.88,0,0,2.28,4.8-1.74,5.86a36.81,36.81,0,0,1,1.39-4.63,22.65,22.65,0,0,0-1.78,4.65" transform="translate(-21.61 -11.43)"/><path d="M175.24,39.87c0-.64-.17-4.69-6.44-3.11,0,0,2,5.74,6.1,3.4a42.7,42.7,0,0,0-4.83-2.68,26.14,26.14,0,0,1,5.17,2.39" transform="translate(-21.61 -11.43)"/><path d="M175.47,43.62c-.29-.49-1.89-3.64,3.57-5.15,0,0,1,5.22-3.18,5.22a36.61,36.61,0,0,1,2.52-4.12,23.34,23.34,0,0,0-2.91,4" transform="translate(-21.61 -11.43)"/><path d="M175.53,45.24c.07-.64.24-4.68-6.15-3.65,0,0,1.47,5.88,5.78,3.91a43.69,43.69,0,0,0-4.57-3.08,25.91,25.91,0,0,1,4.94,2.82" transform="translate(-21.61 -11.43)"/><path d="M175.13,49.91c-.22-.52-1.36-3.87,4.26-4.58,0,0,.21,5.3-3.89,4.71a38.1,38.1,0,0,1,3.08-3.72,23,23,0,0,0-3.45,3.59" transform="translate(-21.61 -11.43)"/><path d="M174.6,51.08c.16-.63.9-4.6-5.57-4.49,0,0,.62,6,5.17,4.69a40.6,40.6,0,0,0-4.09-3.7,25.87,25.87,0,0,1,4.49,3.5" transform="translate(-21.61 -11.43)"/><path d="M173.39,56c-.18-.62-1-4.57,5.44-4.64,0,0-.46,6-5,4.83a44.16,44.16,0,0,1,4-3.81A26,26,0,0,0,173.39,56" transform="translate(-21.61 -11.43)"/><path d="M172.64,57.23c.26-.69,1.62-5.1-5.73-5.82,0,0-.09,6.92,5.24,6A46.41,46.41,0,0,0,168,52.68a29.72,29.72,0,0,1,4.63,4.55" transform="translate(-21.61 -11.43)"/><path d="M170.29,62.1c0-.65.15-4.69,6.43-3.13,0,0-2,5.74-6.08,3.42a41.65,41.65,0,0,1,4.81-2.7,26.26,26.26,0,0,0-5.16,2.41" transform="translate(-21.61 -11.43)"/><path d="M169.38,63.06c.42-.61,2.86-4.53-4.08-7.08,0,0-1.82,6.68,3.57,7.13A48,48,0,0,0,166,57.48a30,30,0,0,1,3.34,5.58" transform="translate(-21.61 -11.43)"/><path d="M165.61,67.81c.11-.63,1.07-4.56,6.91-1.8,0,0-3,5.24-6.64,2.16a41.34,41.34,0,0,1,5.25-1.7,26.54,26.54,0,0,0-5.52,1.34" transform="translate(-21.61 -11.43)"/><path d="M164.63,68.76c.5-.54,3.45-4.09-3.07-7.56,0,0-2.72,6.36,2.56,7.54a48.48,48.48,0,0,0-2-6,30.34,30.34,0,0,1,2.54,6" transform="translate(-21.61 -11.43)"/><path d="M160.42,72c.25-.59,2.08-4.19,7.15-.17,0,0-4.17,4.41-7,.58a42.2,42.2,0,0,1,5.5-.45,26,26,0,0,0-5.69,0" transform="translate(-21.61 -11.43)"/><path d="M159.18,72.87c.58-.44,4.1-3.44-1.72-8,0,0-3.78,5.8,1.21,7.88a46.56,46.56,0,0,0-1-6.23,30,30,0,0,1,1.48,6.33" transform="translate(-21.61 -11.43)"/><path d="M153.57,75.58c.38-.62,3-4.42,8.07.86,0,0-5.33,4.35-7.91-.37a46.87,46.87,0,0,1,6.25.3,30,30,0,0,0-6.41-.79" transform="translate(-21.61 -11.43)"/><path d="M152.35,76c.73-.41,5.12-3.26-.76-9.23,0,0-5.11,6,.21,9a54.52,54.52,0,0,0-.18-7.14,34,34,0,0,1,.73,7.33" transform="translate(-21.61 -11.43)"/><path d="M146.87,77.35c.67-.36,5-2.3,6.67,5.13,0,0-7.07,1-6.79-4.62a50.77,50.77,0,0,1,5.36,3.65,30.88,30.88,0,0,0-5.24-4.16" transform="translate(-21.61 -11.43)"/><path d="M146.91,77.29c.6-.34,4.24-2.7-.63-7.64,0,0-4.22,4.94.17,7.48a45.06,45.06,0,0,0-.14-5.91,27.82,27.82,0,0,1,.6,6.07" transform="translate(-21.61 -11.43)"/><path d="M157.55,14.06c0-.29-.21-2.12-3-1.22,0,0,1.06,2.55,2.87,1.37a19.28,19.28,0,0,0-2.27-1.08,11.87,11.87,0,0,1,2.41.93" transform="translate(-21.61 -11.43)"/><path d="M175.66,43.76a34,34,0,0,1-34,34h0a34,34,0,0,0,15.39-63.91l.23-.23a34,34,0,0,1,18.35,30.18" transform="translate(-21.61 -11.43)"/><path d="M41.65,16.9c.31-.07,2.2-.64.69-3.43,0,0-2.48,1.64-.87,3.31a19.6,19.6,0,0,0,.68-2.61,12.57,12.57,0,0,1-.5,2.73" transform="translate(-21.61 -11.43)"/><path d="M38.78,18.92c.35-.09,2.48-.74.78-3.87,0,0-2.79,1.84-1,3.72a25.06,25.06,0,0,0,.77-2.94,14.85,14.85,0,0,1-.57,3.09" transform="translate(-21.61 -11.43)"/><path d="M41.53,17.41c.18-.31,1.44-2.19,4,.39,0,0-2.61,2.16-3.9-.15a22.62,22.62,0,0,1,3.08.12,14.7,14.7,0,0,0-3.16-.36" transform="translate(-21.61 -11.43)"/><path d="M38.2,19.77c.2-.35,1.62-2.46,4.48.44,0,0-2.94,2.44-4.39-.17a27.51,27.51,0,0,1,3.47.14,16.7,16.7,0,0,0-3.56-.41" transform="translate(-21.61 -11.43)"/><path d="M36.09,21.1c.35-.08,2.48-.73.78-3.86,0,0-2.79,1.84-1,3.72A23.21,23.21,0,0,0,36.66,18a14.7,14.7,0,0,1-.57,3.08" transform="translate(-21.61 -11.43)"/><path d="M35.51,22c.2-.35,1.62-2.46,4.48.44,0,0-2.94,2.44-4.39-.17a27.51,27.51,0,0,1,3.47.14A16.7,16.7,0,0,0,35.51,22" transform="translate(-21.61 -11.43)"/><path d="M33.78,23.37c.34-.1,2.43-.87.56-3.9,0,0-2.69,2-.77,3.77a23.93,23.93,0,0,0,.6-3,14.19,14.19,0,0,1-.39,3.11" transform="translate(-21.61 -11.43)"/><path d="M33.24,24.26c.19-.36,1.48-2.55,4.5.18,0,0-2.79,2.6-4.39.09a24.41,24.41,0,0,1,3.47-.06,16.64,16.64,0,0,0-3.58-.21" transform="translate(-21.61 -11.43)"/><path d="M31.33,26.31c.36-.15,2.54-1.24.14-4.32,0,0-2.69,2.5-.39,4.2a24.52,24.52,0,0,0,.3-3.32,15.87,15.87,0,0,1-.05,3.44" transform="translate(-21.61 -11.43)"/><path d="M30.85,27.34c.16-.41,1.31-2.95,4.93-.34,0,0-2.74,3.17-4.78.62a29,29,0,0,1,3.77-.48,18.4,18.4,0,0,0-3.92.2" transform="translate(-21.61 -11.43)"/><path d="M29.09,30c.43-.18,3.05-1.48.17-5.16,0,0-3.21,3-.46,5a32.43,32.43,0,0,0,.36-4,19,19,0,0,1-.07,4.1" transform="translate(-21.61 -11.43)"/><path d="M28.7,31.17c.18-.5,1.56-3.54,5.88-.41,0,0-3.27,3.78-5.71.74a33.78,33.78,0,0,1,4.51-.58,21.34,21.34,0,0,0-4.68.25" transform="translate(-21.61 -11.43)"/><path d="M27.23,35c.41-.28,2.94-2.17-.83-5.51,0,0-2.83,3.78.49,5.41a32.54,32.54,0,0,0-.39-4.28A20.87,20.87,0,0,1,27.23,35" transform="translate(-21.61 -11.43)"/><path d="M27,36.27c.11-.57,1-4.06,6.17-1.58,0,0-2.73,4.66-5.92,1.89A37.48,37.48,0,0,1,32,35.1,23,23,0,0,0,27,36.27" transform="translate(-21.61 -11.43)"/><path d="M25.68,40.42c.4-.4,2.76-3-2.13-5.89,0,0-2.28,4.8,1.73,5.86a35.3,35.3,0,0,0-1.38-4.63,22.87,22.87,0,0,1,1.78,4.66" transform="translate(-21.61 -11.43)"/><path d="M25.76,41.91c0-.64.17-4.68,6.44-3.1,0,0-2,5.73-6.1,3.4a40.26,40.26,0,0,1,4.82-2.68,26.51,26.51,0,0,0-5.16,2.38" transform="translate(-21.61 -11.43)"/><path d="M25.53,45.66c.28-.48,1.89-3.64-3.57-5.14,0,0-1,5.22,3.18,5.22a35.73,35.73,0,0,0-2.52-4.12,23,23,0,0,1,2.91,4" transform="translate(-21.61 -11.43)"/><path d="M25.47,47.29c-.07-.64-.24-4.68,6.15-3.65,0,0-1.47,5.88-5.78,3.91a42,42,0,0,1,4.57-3.09,26.27,26.27,0,0,0-4.94,2.83" transform="translate(-21.61 -11.43)"/><path d="M25.87,52c.22-.53,1.36-3.88-4.26-4.59,0,0-.22,5.31,3.89,4.72a35.85,35.85,0,0,0-3.08-3.72A22.45,22.45,0,0,1,25.87,52" transform="translate(-21.61 -11.43)"/><path d="M26.4,53.12c-.16-.62-.9-4.6,5.57-4.49,0,0-.62,6-5.17,4.7a41.71,41.71,0,0,1,4.09-3.71,26.46,26.46,0,0,0-4.49,3.5" transform="translate(-21.61 -11.43)"/><path d="M27.61,58c.18-.62,1-4.57-5.44-4.64,0,0,.46,6,5,4.84a42.66,42.66,0,0,0-4-3.82A26.61,26.61,0,0,1,27.61,58" transform="translate(-21.61 -11.43)"/><path d="M28.36,59.28c-.26-.69-1.62-5.1,5.73-5.83,0,0,.08,6.93-5.25,6A48,48,0,0,1,33,54.72a29.52,29.52,0,0,0-4.63,4.56" transform="translate(-21.61 -11.43)"/><path d="M30.71,64.14c0-.64-.15-4.68-6.43-3.12,0,0,1.95,5.73,6.08,3.41a41.86,41.86,0,0,0-4.81-2.69,26.57,26.57,0,0,1,5.16,2.4" transform="translate(-21.61 -11.43)"/><path d="M31.62,65.1c-.43-.6-2.86-4.53,4.08-7.07,0,0,1.82,6.68-3.57,7.13A47.26,47.26,0,0,1,35,59.53a29.68,29.68,0,0,0-3.34,5.57" transform="translate(-21.61 -11.43)"/><path d="M35.39,69.86c-.11-.63-1.07-4.56-6.91-1.8,0,0,3,5.24,6.63,2.15a42.48,42.48,0,0,0-5.24-1.69,25.82,25.82,0,0,1,5.52,1.34" transform="translate(-21.61 -11.43)"/><path d="M36.37,70.81c-.5-.54-3.45-4.1,3.07-7.57,0,0,2.72,6.36-2.56,7.55a47.92,47.92,0,0,1,2-6,30.34,30.34,0,0,0-2.54,6" transform="translate(-21.61 -11.43)"/><path d="M40.58,74.08c-.25-.59-2.08-4.2-7.15-.17,0,0,4.17,4.4,7,.58a40.5,40.5,0,0,0-5.5-.45,26,26,0,0,1,5.69,0" transform="translate(-21.61 -11.43)"/><path d="M41.82,74.92c-.58-.44-4.1-3.44,1.72-8,0,0,3.78,5.8-1.21,7.88a46.46,46.46,0,0,1,1-6.22,29.81,29.81,0,0,0-1.48,6.33" transform="translate(-21.61 -11.43)"/><path d="M47.43,77.63c-.38-.63-3-4.42-8.07.85,0,0,5.33,4.35,7.91-.36a48.29,48.29,0,0,0-6.25.29,29.65,29.65,0,0,1,6.41-.78" transform="translate(-21.61 -11.43)"/><path d="M48.65,78c-.73-.41-5.12-3.27.76-9.24,0,0,5.11,6-.21,9a54.67,54.67,0,0,1,.18-7.15A34.14,34.14,0,0,0,48.65,78" transform="translate(-21.61 -11.43)"/><path d="M54.12,79.39c-.67-.35-5-2.29-6.66,5.13,0,0,7.07,1,6.79-4.61a49.26,49.26,0,0,0-5.36,3.65,30.84,30.84,0,0,1,5.23-4.17" transform="translate(-21.61 -11.43)"/><path d="M54.09,79.33c-.6-.34-4.24-2.7.63-7.64,0,0,4.22,4.94-.18,7.48a47.3,47.3,0,0,1,.15-5.91,27.82,27.82,0,0,0-.6,6.07" transform="translate(-21.61 -11.43)"/><path d="M43.45,16.11c0-.3.21-2.13,3-1.22,0,0-1.06,2.54-2.87,1.36a21.09,21.09,0,0,1,2.27-1.08,12.25,12.25,0,0,0-2.41.94" transform="translate(-21.61 -11.43)"/><path d="M25.34,45.8a34,34,0,0,0,34,34h0A34,34,0,0,1,43.92,15.85l-.23-.22A34,34,0,0,0,25.34,45.8" transform="translate(-21.61 -11.43)"/></svg>