<svg xmlns="http://www.w3.org/2000/svg" viewBox="0 0 67.81 33.25"><title>wasser-vkratze-laurel</title><path d="M76,39.74a2,2,0,0,0-.89.57l-.19.2-.23-.22a1.81,1.81,0,0,0-2.59-.06,2.6,2.6,0,0,0-.54,1.12,1.85,1.85,0,0,0,1,1.92,1.93,1.93,0,0,0,.38.15s.06.13.06.6a4.09,4.09,0,0,0,0,.76.86.86,0,0,0,.81.62c.17,0,.17,0,.17.16a.36.36,0,0,0,.23.34,10.94,10.94,0,0,1-.67,1.81c-.4,1-.71,1.8-.7,1.81a1.55,1.55,0,0,0,.46,0l.44,0,.42-1,.43-1,0,.46c0,.25,0,.71,0,1v.57h.87V47.44L76,48.52a8.89,8.89,0,0,0,.59,1.1,4.57,4.57,0,0,0,.92,0s-.37-.84-.85-1.84l-.87-1.81.12-.08a.33.33,0,0,0,.16-.21c0-.15,0-.15.49-.2s.61-.39.61-.92a.7.7,0,0,1,0-.32,12.09,12.09,0,0,1,1.53.34l.74.21.35.31a1.85,1.85,0,0,0,.37.3s.05-3.45,0-3.45a3.44,3.44,0,0,0-.4.26,3.59,3.59,0,0,1-1.13.54l-.88.3-.2,0c-.06,0,0-.06.15-.23a1.72,1.72,0,0,0,.49-1.45,1.53,1.53,0,0,0-.52-1.11A1.79,1.79,0,0,0,76,39.74Zm1.08.43a1.88,1.88,0,0,1,.79.76,1.68,1.68,0,0,1,0,1.17A2.35,2.35,0,0,1,77,43l-.15,0v1.74l-.12.14-.12.14H75.15c-1.59,0-1.6,0-1.75-.28s-.09-.23-.09-.89v-.76l-.12,0A1.59,1.59,0,0,1,71.89,42a1.43,1.43,0,0,1,.14-1,1.48,1.48,0,0,1,.61-.7,1,1,0,0,1,.6-.13,1.21,1.21,0,0,1,.71.17,1.91,1.91,0,0,1,.66.52c.3.31.33.33.38.26a1.94,1.94,0,0,1,1-.93A1.31,1.31,0,0,1,77,40.17Zm2.88,3.42v1l-.1-.09a12.06,12.06,0,0,0-2.16-.62l-.44-.08v-.14c0-.14,0-.15.4-.24a18.7,18.7,0,0,0,2.16-.77l.13-.09S79.91,43,79.91,43.59ZM74.83,46s-.3.77-.66,1.65c-.56,1.34-.68,1.59-.76,1.61s-.06-.08.28-.93c1-2.38,1-2.39,1.06-2.39S74.83,45.92,74.83,46Zm.29.76a12.49,12.49,0,0,1,0,2.5S75,49,75,48.33a11.29,11.29,0,0,1,0-2.44S75.09,46.07,75.12,46.71Zm.87.37.8,1.67.24.51h-.12c-.12,0-.16-.09-.86-1.56L75.25,46c-.06-.12-.06-.12.06-.11S75.48,46,76,47.08Z" transform="translate(-65.34 -29.62)"/><path d="M73,40.3a1.31,1.31,0,0,0-.81.68,1,1,0,0,0-.12.6,1,1,0,0,0,.12.61,1.42,1.42,0,0,0,1.06.73l.28.07v.76c0,1.2,0,1.17,1.52,1.19a7.78,7.78,0,0,0,1.22,0c.25-.09.29-.22.31-1.1l0-.8.22-.06a1.06,1.06,0,0,0,.73-.61,1.33,1.33,0,0,0-.09-1.62,1.47,1.47,0,0,0-1-.47c-.56,0-.87.14-1.28.76l-.21.34L74.6,41A1.67,1.67,0,0,0,73,40.3Zm.87.3a3.31,3.31,0,0,1,1,1c.08.17.12.18.16,0a4,4,0,0,1,.55-.9,1.08,1.08,0,0,1,1.54,0,.85.85,0,0,1,.39.89c0,.66-.35,1.09-.84,1.18s-.32,0-.32.92c0,1.15.08,1.07-1.11,1.07s-1.39,0-1.5-.17-.08-.2-.08-1v-.83l-.3-.06c-.81-.15-1.16-.52-1.16-1.18a1,1,0,0,1,.53-1,1.2,1.2,0,0,1,.66-.16A3.07,3.07,0,0,1,73.83,40.6Z" transform="translate(-65.34 -29.62)"/><path d="M73.15,41.14a.43.43,0,0,0-.2.34c0,.1.25.33.36.33a.54.54,0,0,0,.36-.36.55.55,0,0,0-.35-.36A.64.64,0,0,0,73.15,41.14Z" transform="translate(-65.34 -29.62)"/><path d="M76.2,41.24a.34.34,0,0,0,.38.55.32.32,0,0,0,.07-.54A.29.29,0,0,0,76.2,41.24Z" transform="translate(-65.34 -29.62)"/><path d="M74.72,42.86a1.06,1.06,0,0,0-.6.86,1.09,1.09,0,0,0,.57.86,1,1,0,0,0,1-.18.89.89,0,0,0,.27-.73.83.83,0,0,0-.5-.77A.89.89,0,0,0,74.72,42.86Zm.73.49a.42.42,0,0,1,.15.34.54.54,0,0,1-.59.59.38.38,0,0,1-.33-.15.53.53,0,0,1-.13-.65A.54.54,0,0,1,75.45,43.35Z" transform="translate(-65.34 -29.62)"/><path d="M74.84,43.46a.33.33,0,0,0,.2.59.33.33,0,0,0,.22-.58A.31.31,0,0,0,74.84,43.46Z" transform="translate(-65.34 -29.62)"/><path d="M81.79,40l-.67.07-.25,0v4.18a33.78,33.78,0,0,0,0,4.2,13.26,13.26,0,0,0,2.34.11,7.3,7.3,0,0,0,2-.24A2.6,2.6,0,0,0,87,46.79l.09-.25v2h1.93V44.94l.4,0a1.38,1.38,0,0,1,1.07.45A4.16,4.16,0,0,1,91.26,47c.13.42.3.92.37,1.11l.13.34,2,0c1.08,0,2,0,2,0s0-.7,0-1.53v-1.5l.34,0a6.44,6.44,0,0,0,1.66-.16,3,3,0,0,0,1.67-1c.11-.15.19-.24.18-.19s-.32,1.05-.68,2.22-.65,2.14-.65,2.16a4.85,4.85,0,0,0,1,0h1l.23-.85c.13-.48.27-1,.3-1.1l.08-.23h2.41l.11.37c.07.21.21.7.33,1.09l.22.72H105c.83,0,1,0,1,0s-.6-2-1.32-4.27L103.45,40h-1.28l-1.28,0-.45,1.47L100,43l0-.49a2.18,2.18,0,0,0-.29-1.15A2.73,2.73,0,0,0,97.59,40a18.29,18.29,0,0,0-3.6.08l-.13,0v4.16l0,4.16L93.67,48c-.09-.22-.34-.9-.55-1.52s-.46-1.26-.55-1.44A2.56,2.56,0,0,0,91.46,44a2.51,2.51,0,0,0-.42-.18s-.05,0,0,0,.66-.86,1.45-1.86S93.9,40,93.9,40a7.55,7.55,0,0,0-1.15,0H91.59l-1.18,1.77a11,11,0,0,1-1.27,1.77c-.07,0-.08-.08-.08-1.77V40H87.19l0,.14c0,.07,0,1.31,0,2.75v2.61L87,45.21A2.06,2.06,0,0,0,85.75,44l-.24-.1.31-.16a1.84,1.84,0,0,0,.52-3A3.22,3.22,0,0,0,84.47,40,21.71,21.71,0,0,0,81.79,40Zm2.48,1.47a1,1,0,0,1,.6.49,1.18,1.18,0,0,1,0,.72,1,1,0,0,1-.19.27c-.29.31-.65.41-1.42.41h-.49v-2h.33A3.49,3.49,0,0,1,84.27,41.44Zm12.87,0a1.3,1.3,0,0,1,.74.51.88.88,0,0,1,.15.58,1.19,1.19,0,0,1-.4,1.07,1.57,1.57,0,0,1-1.25.36h-.56l0-1.27V41.45h.15A4.24,4.24,0,0,1,97.14,41.47Zm5.12.61c.07.31.28,1,.45,1.63s.31,1.08.31,1.11a4.74,4.74,0,0,1-.9,0,4.67,4.67,0,0,1-.89,0s.13-.51.28-1.07.33-1.22.39-1.47a3,3,0,0,1,.2-.78S102.18,41.77,102.26,42.08Zm-18,2.77a1.1,1.1,0,0,1,.87,1.33c-.14.67-.74,1-1.83,1H82.8V44.71l.59,0A3.78,3.78,0,0,1,84.24,44.85Z" transform="translate(-65.34 -29.62)"/><path d="M104,40.82v.81h2.29v6.91h1.91l0-2.19c0-1.2,0-2.76,0-3.46V41.63h2.25v6.91h6l0,.19c0,.11,0,.59.06,1.08l0,.89h1.52V50c0-.37,0-.85,0-1.08l0-.41h5.37V47h-3.5V45h3.14V43.38h-3.14V41.63h3.32V40h-5.25v7.06l-.24,0-.38,0h-.15V40l-1,0h-1v6.91h-3l0-3.45,0-3.46H104Z" transform="translate(-65.34 -29.62)"/><path d="M124.39,40.22c0,.27.21,4.66.25,5.17l0,.37h.72a6.94,6.94,0,0,0,.72,0s.29-5.67.27-5.7-.46,0-1,0h-1Z" transform="translate(-65.34 -29.62)"/><path d="M125,46.45a1.06,1.06,0,0,0-.6.54.94.94,0,0,0-.1.6.92.92,0,0,0,.15.57,1.14,1.14,0,0,0,2.09-.59,1.09,1.09,0,0,0-.6-1.07A1.32,1.32,0,0,0,125,46.45Z" transform="translate(-65.34 -29.62)"/><path d="M86.07,34.66a1.12,1.12,0,0,1,.19-.59,1.13,1.13,0,0,1,2,.61,1,1,0,0,1-.51.89.93.93,0,0,1,.57,1,1.23,1.23,0,0,1-2.34.52,1.1,1.1,0,0,1-.09-.42h.44a.92.92,0,0,0,.15.4.73.73,0,0,0,.61.3.8.8,0,0,0,.79-.81.71.71,0,0,0-.4-.67,1,1,0,0,0-.45-.08v-.4a1,1,0,0,0,.45-.08.65.65,0,0,0,.34-.6.63.63,0,0,0-.68-.68.61.61,0,0,0-.52.23.84.84,0,0,0-.16.42Z" transform="translate(-65.34 -29.62)"/><path d="M90.12,33.67a1.7,1.7,0,0,1,1,.22,1,1,0,0,1,.44.89,1,1,0,0,1-1,1.1l1.27,1.79h-.54L90,35.92h-.12v1.75h-.44v-4Zm-.2,1.85h.28c.56,0,.89-.26.89-.73a.63.63,0,0,0-.32-.59,1.18,1.18,0,0,0-.58-.11h-.27Z" transform="translate(-65.34 -29.62)"/><path d="M92.49,33.67h.82a2.18,2.18,0,0,1,1.47.46,2,2,0,0,1,.69,1.54,1.88,1.88,0,0,1-.71,1.53,2,2,0,0,1-1.46.47h-.81Zm.44,3.58h.39a1.74,1.74,0,0,0,1.15-.36,1.6,1.6,0,0,0-1.15-2.8h-.39Z" transform="translate(-65.34 -29.62)"/><path d="M98.41,33.67a1.4,1.4,0,0,1,1,.28,1.09,1.09,0,0,1,.37.86,1.11,1.11,0,0,1-1.27,1.12h-.39v1.74h-.44v-4Zm-.29,1.84h.37c.53,0,.85-.27.85-.73,0-.63-.6-.69-.89-.69h-.33Z" transform="translate(-65.34 -29.62)"/><path d="M100.86,33.67v3.58H102v.42h-1.54v-4Z" transform="translate(-65.34 -29.62)"/><path d="M104.77,36.54h-1.7l-.48,1.13h-.49l1.84-4.2,1.79,4.2h-.49Zm-.17-.42-.67-1.6-.69,1.6Z" transform="translate(-65.34 -29.62)"/><path d="M109.23,34.55a1.87,1.87,0,0,0-.52-.37A1.66,1.66,0,0,0,108,34a1.65,1.65,0,0,0,0,3.3,1.67,1.67,0,0,0,.75-.19,1.7,1.7,0,0,0,.46-.33v.55a2.07,2.07,0,0,1-1.21.39,2.07,2.07,0,1,1,0-4.14,1.87,1.87,0,0,1,1.18.4Z" transform="translate(-65.34 -29.62)"/><path d="M112.12,34.09h-1.63v1.18h1.58v.42h-1.58v1.56h1.63v.42h-2.07v-4h2.07Z" transform="translate(-65.34 -29.62)"/><path d="M77.75,55.22h-1.7l-.48,1.13h-.49l1.84-4.19,1.79,4.19h-.49Zm-.17-.42-.67-1.6-.69,1.6Z" transform="translate(-65.34 -29.62)"/><path d="M79.72,54.8a1.13,1.13,0,0,0,.32,1,1.1,1.1,0,0,0,.66.23,1.12,1.12,0,0,0,.66-.23,1.15,1.15,0,0,0,.31-1V52.35h.45v2.57a1.58,1.58,0,0,1-.25,1,1.54,1.54,0,0,1-2.34,0,1.51,1.51,0,0,1-.25-1V52.35h.44Z" transform="translate(-65.34 -29.62)"/><path d="M83.15,52.35H84a2.14,2.14,0,0,1,1.47.47,2,2,0,0,1,0,3.07,2,2,0,0,1-1.46.46h-.81Zm.45,3.58H84a1.73,1.73,0,0,0,1.14-.36A1.6,1.6,0,0,0,84,52.77H83.6Z" transform="translate(-65.34 -29.62)"/><path d="M87.39,52.35v4h-.45v-4Z" transform="translate(-65.34 -29.62)"/><path d="M90.49,52.77H88.86V54h1.59v.42H88.86v1.55h1.63v.42H88.42v-4h2.07Z" transform="translate(-65.34 -29.62)"/><path d="M91.31,56.35V52.18l3.12,3.27v-3.1h.44v4.18l-3.11-3.27v3.09Z" transform="translate(-65.34 -29.62)"/><path d="M99,53.23a1.78,1.78,0,0,0-.53-.37,1.6,1.6,0,0,0-2.29,1.51A1.6,1.6,0,0,0,97.76,56a1.62,1.62,0,0,0,.74-.19,2,2,0,0,0,.47-.33V56a2.09,2.09,0,0,1-1.21.39,2.07,2.07,0,1,1,0-4.14,1.89,1.89,0,0,1,1.19.4Z" transform="translate(-65.34 -29.62)"/><path d="M101.86,52.77h-1.63V54h1.58v.42h-1.58v1.55h1.63v.42H99.78v-4h2.08Z" transform="translate(-65.34 -29.62)"/><path d="M106.28,55.22h-1.7l-.48,1.13h-.49l1.84-4.19,1.79,4.19h-.49Zm-.17-.42-.67-1.6-.69,1.6Z" transform="translate(-65.34 -29.62)"/><path d="M107.52,52.35l1,3,1.26-3.21L111,55.35l1.17-3h.49L111,56.56l-1.18-3.2-1.26,3.2L107,52.35Z" transform="translate(-65.34 -29.62)"/><path d="M115.14,55.22h-1.71L113,56.35h-.49l1.84-4.19,1.8,4.19h-.5ZM115,54.8l-.67-1.6-.68,1.6Z" transform="translate(-65.34 -29.62)"/><path d="M117.3,52.35a1.81,1.81,0,0,1,1,.22,1.12,1.12,0,0,1-.57,2L119,56.35h-.54l-1.22-1.75h-.11v1.75h-.45v-4Zm-.19,1.85h.28c.55,0,.88-.26.88-.73a.64.64,0,0,0-.32-.59,1.14,1.14,0,0,0-.57-.11h-.27Z" transform="translate(-65.34 -29.62)"/><path d="M119.67,52.35h.82a2.14,2.14,0,0,1,1.47.47,1.92,1.92,0,0,1,.69,1.53,1.94,1.94,0,0,1-.7,1.54,2,2,0,0,1-1.47.46h-.81Zm.45,3.58h.39a1.71,1.71,0,0,0,1.14-.36,1.6,1.6,0,0,0-1.14-2.8h-.39Z" transform="translate(-65.34 -29.62)"/><path d="M83.7,62.12a1,1,0,0,0-1-.9c-1-.12-1.78-.17-2-.56,0,0,.23.79,1.58,1.15a5.4,5.4,0,0,0,1.4.31" transform="translate(-65.34 -29.62)"/><path d="M83.67,62.27a1.05,1.05,0,0,1-1.23.57c-1-.15-1.76-.35-2.12,0a2.27,2.27,0,0,1,1.92-.63,5.38,5.38,0,0,1,1.43.1" transform="translate(-65.34 -29.62)"/><path d="M81.06,61.86a.92.92,0,0,0-.79-1c-.93-.25-1.74-.4-1.91-.82,0,0,.1.81,1.38,1.34a5.9,5.9,0,0,0,1.32.5" transform="translate(-65.34 -29.62)"/><path d="M81,62a1.08,1.08,0,0,1-1.31.41c-.92-.28-1.68-.58-2.09-.33a2.35,2.35,0,0,1,2-.37A5.5,5.5,0,0,1,81,62" transform="translate(-65.34 -29.62)"/><path d="M78.51,61.25a.9.9,0,0,0-.62-1.11c-.88-.36-1.65-.63-1.75-1.06,0,0,0,.81,1.14,1.51a5.58,5.58,0,0,0,1.23.66" transform="translate(-65.34 -29.62)"/><path d="M78.43,61.39a1.11,1.11,0,0,1-1.36.22c-.86-.39-1.57-.78-2-.59a2.39,2.39,0,0,1,2-.11,5.39,5.39,0,0,1,1.33.48" transform="translate(-65.34 -29.62)"/><path d="M76.08,60.32a.88.88,0,0,0-.43-1.18c-.8-.48-1.53-.84-1.55-1.28,0,0-.17.8.87,1.64a5.76,5.76,0,0,0,1.11.82" transform="translate(-65.34 -29.62)"/><path d="M76,60.44a1.15,1.15,0,0,1-1.39.05c-.78-.51-1.41-1-1.89-.86a2.38,2.38,0,0,1,2,.17c1.25.58,1.24.64,1.24.64" transform="translate(-65.34 -29.62)"/><path d="M73.83,59.07a.86.86,0,0,0-.23-1.22c-.71-.58-1.37-1-1.32-1.47a1.76,1.76,0,0,0,.59,1.74c.9,1,1,1,1,1" transform="translate(-65.34 -29.62)"/><path d="M73.72,59.18A1.15,1.15,0,0,1,72.33,59c-.69-.6-1.23-1.15-1.72-1.09a2.35,2.35,0,0,1,2,.43c1.14.74,1.13.8,1.13.8" transform="translate(-65.34 -29.62)"/><path d="M71.82,57.55a.86.86,0,0,0,0-1.24c-.61-.67-1.18-1.2-1.06-1.63a1.75,1.75,0,0,0,.3,1.8c.72,1.07.79,1.07.79,1.07" transform="translate(-65.34 -29.62)"/><path d="M71.68,57.64a1.13,1.13,0,0,1-1.34-.32c-.58-.68-1-1.31-1.53-1.3a2.32,2.32,0,0,1,1.9.68c1,.88,1,.94,1,.94" transform="translate(-65.34 -29.62)"/><path d="M70.08,55.77a.86.86,0,0,0,.18-1.22c-.49-.74-1-1.34-.78-1.75a1.71,1.71,0,0,0,0,1.81c.53,1.16.6,1.16.6,1.16" transform="translate(-65.34 -29.62)"/><path d="M69.93,55.85a1.13,1.13,0,0,1-1.28-.49c-.46-.76-.79-1.43-1.29-1.49a2.23,2.23,0,0,1,1.76.92c.84,1,.81,1.06.81,1.06" transform="translate(-65.34 -29.62)"/><path d="M68.65,53.79A.9.9,0,0,0,69,52.6c-.37-.79-.74-1.45-.48-1.83a1.75,1.75,0,0,0-.31,1.8,4.74,4.74,0,0,0,.4,1.22" transform="translate(-65.34 -29.62)"/><path d="M68.5,53.84a1.09,1.09,0,0,1-1.19-.65c-.33-.8-.55-1.51-1-1.64a2.15,2.15,0,0,1,1.59,1.15c.67,1.1.63,1.14.63,1.14" transform="translate(-65.34 -29.62)"/><path d="M67.57,51.64a.91.91,0,0,0,.58-1.12c-.22-.84-.48-1.53-.16-1.88a1.81,1.81,0,0,0-.61,1.74c.13,1.25.19,1.26.19,1.26" transform="translate(-65.34 -29.62)"/><path d="M67.41,51.68a1,1,0,0,1-1.06-.8c-.19-.85-.29-1.58-.75-1.77A2.08,2.08,0,0,1,67,50.46c.48,1.18.43,1.22.43,1.22" transform="translate(-65.34 -29.62)"/><path d="M66.86,49.38a1,1,0,0,0,.76-1c-.08-.85-.22-1.58.15-1.87a1.87,1.87,0,0,0-.89,1.63,4.22,4.22,0,0,0,0,1.28" transform="translate(-65.34 -29.62)"/><path d="M66.7,49.39a1,1,0,0,1-.92-.93c0-.86,0-1.6-.44-1.84a2,2,0,0,1,1.13,1.51,4.6,4.6,0,0,1,.23,1.26" transform="translate(-65.34 -29.62)"/><path d="M66.54,47a1,1,0,0,0,.92-.92c.06-.86,0-1.59.46-1.84a2,2,0,0,0-1.15,1.5C66.48,47,66.54,47,66.54,47" transform="translate(-65.34 -29.62)"/><path d="M66.37,47a1,1,0,0,1-.75-1c.09-.85.24-1.58-.13-1.88a1.88,1.88,0,0,1,.87,1.65c.07,1.25,0,1.27,0,1.27" transform="translate(-65.34 -29.62)"/><path d="M66.61,44.69a1,1,0,0,0,1.06-.79c.2-.84.31-1.57.76-1.76A2.08,2.08,0,0,0,67,43.48c-.48,1.17-.43,1.21-.43,1.21" transform="translate(-65.34 -29.62)"/><path d="M66.44,44.66a.92.92,0,0,1-.57-1.13c.24-.83.5-1.53.18-1.87a1.8,1.8,0,0,1,.6,1.74,4.54,4.54,0,0,1-.21,1.26" transform="translate(-65.34 -29.62)"/><path d="M67.06,42.38a1.09,1.09,0,0,0,1.19-.65c.34-.8.56-1.51,1-1.63a2.14,2.14,0,0,0-1.59,1.13c-.68,1.1-.64,1.15-.64,1.15" transform="translate(-65.34 -29.62)"/><path d="M66.91,42.32a.89.89,0,0,1-.38-1.19c.37-.79.75-1.45.49-1.83a1.76,1.76,0,0,1,.3,1.8,4.79,4.79,0,0,1-.41,1.22" transform="translate(-65.34 -29.62)"/><path d="M67.9,40.15a1.12,1.12,0,0,0,1.28-.48c.47-.76.81-1.43,1.31-1.49a2.26,2.26,0,0,0-1.77.92c-.85,1-.82,1-.82,1" transform="translate(-65.34 -29.62)"/><path d="M67.75,40.07a.86.86,0,0,1-.17-1.22c.5-.74,1-1.34.79-1.75a1.73,1.73,0,0,1,0,1.82c-.55,1.15-.62,1.15-.62,1.15" transform="translate(-65.34 -29.62)"/><path d="M69.1,38.05a1.13,1.13,0,0,0,1.35-.31c.59-.68,1-1.3,1.53-1.29a2.31,2.31,0,0,0-1.89.67c-1,.88-1,.93-1,.93" transform="translate(-65.34 -29.62)"/><path d="M69,38a.86.86,0,0,1,0-1.24c.62-.66,1.19-1.19,1.07-1.62a1.7,1.7,0,0,1-.3,1.79C69,38,69,38,69,38" transform="translate(-65.34 -29.62)"/><path d="M70.64,36.13A1.13,1.13,0,0,0,72,36c.69-.6,1.24-1.15,1.73-1.08a2.36,2.36,0,0,0-2,.41c-1.14.74-1.12.79-1.12.79" transform="translate(-65.34 -29.62)"/><path d="M70.52,36a.86.86,0,0,1,.24-1.22c.72-.58,1.37-1,1.33-1.47a1.76,1.76,0,0,1-.6,1.74c-.91,1-1,1-1,1" transform="translate(-65.34 -29.62)"/><path d="M72.47,34.44a1.14,1.14,0,0,0,1.39.06c.79-.5,1.42-1,1.9-.84a2.37,2.37,0,0,0-2,.15,5.63,5.63,0,0,0-1.25.63" transform="translate(-65.34 -29.62)"/><path d="M72.38,34.32a.87.87,0,0,1,.43-1.17c.81-.48,1.54-.83,1.57-1.28,0,0,.16.8-.89,1.64a5.74,5.74,0,0,1-1.11.81" transform="translate(-65.34 -29.62)"/><path d="M74.57,33a1.13,1.13,0,0,0,1.37.24c.86-.39,1.56-.78,2-.59a2.36,2.36,0,0,0-2-.11,5.79,5.79,0,0,0-1.34.46" transform="translate(-65.34 -29.62)"/><path d="M74.5,32.87a.89.89,0,0,1,.62-1.1c.88-.36,1.66-.62,1.76-1.05,0,0,0,.81-1.15,1.5s-1.23.65-1.23.65" transform="translate(-65.34 -29.62)"/><path d="M76.89,31.87a1.08,1.08,0,0,0,1.31.41c.91-.27,1.67-.56,2.09-.31a2.31,2.31,0,0,0-2-.38,5.46,5.46,0,0,0-1.4.28" transform="translate(-65.34 -29.62)"/><path d="M76.84,31.72a.91.91,0,0,1,.8-1c.93-.25,1.74-.4,1.91-.82,0,0-.1.81-1.39,1.34a5.89,5.89,0,0,1-1.32.48" transform="translate(-65.34 -29.62)"/><path d="M80.55,31.19a3.73,3.73,0,0,0,1.15-.53,4.21,4.21,0,0,0-1.3-.06,4,4,0,0,0-1.15.53,4.18,4.18,0,0,0,1.3.06" transform="translate(-65.34 -29.62)"/><path d="M114.79,61.83a1,1,0,0,1,1-.89c1-.13,1.78-.18,2-.57,0,0-.23.79-1.59,1.15a5.44,5.44,0,0,1-1.39.31" transform="translate(-65.34 -29.62)"/><path d="M114.82,62a1.06,1.06,0,0,0,1.23.58c1-.16,1.75-.35,2.12-.05a2.27,2.27,0,0,0-1.92-.63,6.47,6.47,0,0,0-1.43.1" transform="translate(-65.34 -29.62)"/><path d="M117.42,61.57a.92.92,0,0,1,.8-1c.92-.25,1.73-.41,1.9-.83,0,0-.09.81-1.37,1.35a5.7,5.7,0,0,1-1.33.49" transform="translate(-65.34 -29.62)"/><path d="M117.48,61.71a1.08,1.08,0,0,0,1.31.41c.91-.28,1.67-.57,2.09-.33a2.37,2.37,0,0,0-2-.37,6.52,6.52,0,0,0-1.39.29" transform="translate(-65.34 -29.62)"/><path d="M120,61a.88.88,0,0,1,.62-1.1c.87-.37,1.65-.63,1.75-1.07,0,0,0,.82-1.14,1.51S120,61,120,61" transform="translate(-65.34 -29.62)"/><path d="M120.06,61.1a1.12,1.12,0,0,0,1.36.23c.86-.4,1.56-.79,2-.6a2.35,2.35,0,0,0-2-.1,5.35,5.35,0,0,0-1.33.47" transform="translate(-65.34 -29.62)"/><path d="M122.41,60a.87.87,0,0,1,.43-1.18c.8-.48,1.52-.84,1.55-1.28,0,0,.17.8-.88,1.64a5.68,5.68,0,0,1-1.1.82" transform="translate(-65.34 -29.62)"/><path d="M122.51,60.15a1.15,1.15,0,0,0,1.39.05c.78-.51,1.41-1,1.89-.85a2.39,2.39,0,0,0-2,.16c-1.25.58-1.24.64-1.24.64" transform="translate(-65.34 -29.62)"/><path d="M124.66,58.78a.85.85,0,0,1,.22-1.21c.72-.58,1.37-1,1.32-1.48a1.74,1.74,0,0,1-.59,1.74c-.89,1-1,1-1,1" transform="translate(-65.34 -29.62)"/><path d="M124.77,58.89a1.14,1.14,0,0,0,1.38-.13c.7-.6,1.24-1.16,1.73-1.09a2.37,2.37,0,0,0-2,.43,6.13,6.13,0,0,0-1.12.79" transform="translate(-65.34 -29.62)"/><path d="M126.67,57.26a.85.85,0,0,1,0-1.23c.61-.67,1.19-1.2,1.06-1.64a1.73,1.73,0,0,1-.29,1.8c-.72,1.08-.79,1.07-.79,1.07" transform="translate(-65.34 -29.62)"/><path d="M126.8,57.35a1.15,1.15,0,0,0,1.35-.31c.58-.69,1-1.31,1.52-1.31a2.29,2.29,0,0,0-1.89.69c-1,.88-1,.93-1,.93" transform="translate(-65.34 -29.62)"/><path d="M128.41,55.49a.87.87,0,0,1-.18-1.23c.49-.74,1-1.34.77-1.75a1.72,1.72,0,0,1,0,1.82c-.53,1.16-.6,1.16-.6,1.16" transform="translate(-65.34 -29.62)"/><path d="M128.56,55.56a1.1,1.1,0,0,0,1.27-.49c.47-.75.8-1.43,1.3-1.49a2.23,2.23,0,0,0-1.76.93c-.85,1-.81,1.05-.81,1.05" transform="translate(-65.34 -29.62)"/><path d="M129.83,53.5a.87.87,0,0,1-.38-1.18c.36-.8.73-1.46.48-1.84a1.78,1.78,0,0,1,.31,1.8c-.34,1.22-.41,1.22-.41,1.22" transform="translate(-65.34 -29.62)"/><path d="M130,53.56a1.08,1.08,0,0,0,1.18-.65c.33-.81.55-1.52,1-1.65a2.17,2.17,0,0,0-1.58,1.15c-.67,1.1-.63,1.15-.63,1.15" transform="translate(-65.34 -29.62)"/><path d="M130.91,51.36a.93.93,0,0,1-.58-1.13c.23-.83.49-1.53.17-1.87a1.79,1.79,0,0,1,.61,1.73c-.13,1.25-.2,1.27-.2,1.27" transform="translate(-65.34 -29.62)"/><path d="M131.08,51.39a1.05,1.05,0,0,0,1.06-.8c.19-.84.29-1.57.74-1.76a2,2,0,0,0-1.37,1.34c-.48,1.18-.43,1.22-.43,1.22" transform="translate(-65.34 -29.62)"/><path d="M131.62,49.09a1,1,0,0,1-.76-1c.09-.86.23-1.58-.14-1.88a1.85,1.85,0,0,1,.88,1.64c.08,1.25,0,1.27,0,1.27" transform="translate(-65.34 -29.62)"/><path d="M131.79,49.1a1,1,0,0,0,.92-.93c0-.86,0-1.59.44-1.84A2,2,0,0,0,132,47.84a4.6,4.6,0,0,0-.22,1.26" transform="translate(-65.34 -29.62)"/><path d="M132,46.76a1,1,0,0,1-.92-.92c-.06-.86-.05-1.6-.46-1.84a2,2,0,0,1,1.15,1.5,4.6,4.6,0,0,1,.23,1.26" transform="translate(-65.34 -29.62)"/><path d="M132.12,46.75a1,1,0,0,0,.75-1c-.09-.86-.24-1.58.13-1.88a1.85,1.85,0,0,0-.87,1.64,4.24,4.24,0,0,0,0,1.28" transform="translate(-65.34 -29.62)"/><path d="M131.88,44.41a1,1,0,0,1-1.06-.79c-.21-.85-.31-1.58-.76-1.76a2.05,2.05,0,0,1,1.38,1.33c.49,1.18.44,1.22.44,1.22" transform="translate(-65.34 -29.62)"/><path d="M132.05,44.37a.92.92,0,0,0,.57-1.12c-.24-.84-.5-1.53-.19-1.88a1.8,1.8,0,0,0-.59,1.74c.14,1.25.21,1.26.21,1.26" transform="translate(-65.34 -29.62)"/><path d="M131.42,42.09a1.08,1.08,0,0,1-1.18-.64c-.34-.81-.57-1.52-1.05-1.64a2.18,2.18,0,0,1,1.6,1.14c.68,1.1.63,1.14.63,1.14" transform="translate(-65.34 -29.62)"/><path d="M131.58,42a.89.89,0,0,0,.38-1.19c-.37-.8-.75-1.45-.5-1.83a1.74,1.74,0,0,0-.29,1.79,4.85,4.85,0,0,0,.41,1.23" transform="translate(-65.34 -29.62)"/><path d="M130.59,39.86a1.12,1.12,0,0,1-1.28-.48c-.47-.75-.81-1.42-1.31-1.48a2.24,2.24,0,0,1,1.77.91c.85,1,.82,1,.82,1" transform="translate(-65.34 -29.62)"/><path d="M130.73,39.79a.87.87,0,0,0,.18-1.23c-.5-.74-1-1.34-.79-1.75a1.73,1.73,0,0,0,0,1.82,5,5,0,0,0,.61,1.16" transform="translate(-65.34 -29.62)"/><path d="M129.39,37.76a1.14,1.14,0,0,1-1.35-.3c-.59-.69-1-1.3-1.54-1.3a2.33,2.33,0,0,1,1.9.67c1,.88,1,.93,1,.93" transform="translate(-65.34 -29.62)"/><path d="M129.52,37.67a.86.86,0,0,0,0-1.23c-.62-.67-1.19-1.2-1.08-1.63a1.74,1.74,0,0,0,.31,1.8c.73,1.07.8,1.06.8,1.06" transform="translate(-65.34 -29.62)"/><path d="M127.85,35.85a1.14,1.14,0,0,1-1.38-.13c-.7-.6-1.24-1.15-1.74-1.08a2.39,2.39,0,0,1,2,.42c1.15.73,1.13.79,1.13.79" transform="translate(-65.34 -29.62)"/><path d="M128,35.74a.86.86,0,0,0-.24-1.22c-.72-.57-1.38-1-1.33-1.46a1.74,1.74,0,0,0,.6,1.73c.9,1,1,1,1,1" transform="translate(-65.34 -29.62)"/><path d="M126,34.16a1.13,1.13,0,0,1-1.38.05c-.79-.5-1.42-1-1.9-.84a2.4,2.4,0,0,1,2,.15c1.25.58,1.24.64,1.24.64" transform="translate(-65.34 -29.62)"/><path d="M126.11,34a.87.87,0,0,0-.44-1.17c-.8-.48-1.53-.83-1.56-1.27,0,0-.16.8.89,1.63s1.11.81,1.11.81" transform="translate(-65.34 -29.62)"/><path d="M123.92,32.72a1.13,1.13,0,0,1-1.37.24c-.86-.39-1.57-.78-2-.58a2.38,2.38,0,0,1,2-.12,5.79,5.79,0,0,1,1.34.46" transform="translate(-65.34 -29.62)"/><path d="M124,32.59a.89.89,0,0,0-.63-1.1c-.88-.37-1.65-.62-1.75-1.06,0,0,0,.82,1.15,1.5a6,6,0,0,0,1.23.66" transform="translate(-65.34 -29.62)"/><path d="M121.6,31.58a1.1,1.1,0,0,1-1.31.42c-.92-.28-1.68-.57-2.09-.32a2.36,2.36,0,0,1,2-.38,5.46,5.46,0,0,1,1.4.28" transform="translate(-65.34 -29.62)"/><path d="M121.65,31.44a.92.92,0,0,0-.8-1c-.93-.24-1.74-.4-1.91-.81,0,0,.1.81,1.38,1.33a5.7,5.7,0,0,0,1.33.49" transform="translate(-65.34 -29.62)"/><path d="M117.94,30.91a3.91,3.91,0,0,1-1.15-.54,4.18,4.18,0,0,1,1.3-.06,3.91,3.91,0,0,1,1.15.54,4.18,4.18,0,0,1-1.3.06" transform="translate(-65.34 -29.62)"/><path d="M94.12,62.47l1.22-1.4c.08-.1.31-.37.39-.49a.83.83,0,0,0,.18-.51.63.63,0,0,0-.66-.65.67.67,0,0,0-.56.29.9.9,0,0,0-.11.4h-.37a1.1,1.1,0,0,1,.25-.69,1,1,0,0,1,.79-.34,1,1,0,0,1,1,1,1.15,1.15,0,0,1-.26.71,6.89,6.89,0,0,1-.46.56l-.69.78h1.41v.34Z" transform="translate(-65.34 -29.62)"/><path d="M97.15,62a2.44,2.44,0,0,1,0-2.45,1.06,1.06,0,0,1,.86-.5,1,1,0,0,1,.85.5,2.38,2.38,0,0,1,0,2.45,1,1,0,0,1-.85.5A1.06,1.06,0,0,1,97.15,62Zm.28-2.24a2,2,0,0,0-.24,1,1.91,1.91,0,0,0,.24,1,.71.71,0,0,0,.58.37.68.68,0,0,0,.57-.37,1.92,1.92,0,0,0,.25-1,2,2,0,0,0-.25-1,.68.68,0,0,0-.57-.37A.71.71,0,0,0,97.43,59.79Z" transform="translate(-65.34 -29.62)"/><path d="M100.26,59.49H99.7l.19-.36h.74v3.34h-.37Z" transform="translate(-65.34 -29.62)"/><path d="M103.23,59.26l-.77,1.07a1,1,0,0,1,.3,0,1.06,1.06,0,0,1,1.08,1.1,1.15,1.15,0,0,1-2.3,0,1.3,1.3,0,0,1,.27-.77L103,59.05Zm.24,2.14a.78.78,0,0,0-1.56,0,.78.78,0,1,0,1.56,0Z" transform="translate(-65.34 -29.62)"/></svg>