<svg xmlns="http://www.w3.org/2000/svg" viewBox="0 0 198.05 98.45"><title>wasser-anonimul-laurel</title><path d="M138.06,93.54c7.05-4.85,12.9-.59,18.26,4.23C149.4,99.65,142.07,100.5,138.06,93.54Z" transform="translate(-1.07 -0.78)"/><path d="M139.75,89.37c.31-8.56,7.23-10.71,14.29-12.13C151.42,83.91,147.73,90.3,139.75,89.37Z" transform="translate(-1.07 -0.78)"/><path d="M150.63,89.69c6.61-5.43,12.8-1.68,18.55,2.67C162.44,94.82,155.22,96.28,150.63,89.69Z" transform="translate(-1.07 -0.78)"/><path d="M156.76,85.63c-4.12-7.5.71-12.89,6-17.74C164,75,164.09,82.34,156.76,85.63Z" transform="translate(-1.07 -0.78)"/><path d="M162.11,85.47c4.87-7,11.85-5.14,18.57-2.53C174.88,87.15,168.34,90.55,162.11,85.47Z" transform="translate(-1.07 -0.78)"/><path d="M169,79.19c-6.29-5.8-3.43-12.45.08-18.74C172.42,66.77,174.88,73.73,169,79.19Z" transform="translate(-1.07 -0.78)"/><path d="M172.33,78.48c3.44-7.84,10.66-7.3,17.75-6C185.19,77.7,179.41,82.28,172.33,78.48Z" transform="translate(-1.07 -0.78)"/><path d="M178.06,70.9c-7.26-4.53-5.68-11.59-3.4-18.43C179.14,58.07,182.85,64.44,178.06,70.9Z" transform="translate(-1.07 -0.78)"/><path d="M180.6,69.84c1.89-8.34,9.08-9.18,16.29-9.26C193.08,66.65,188.27,72.24,180.6,69.84Z" transform="translate(-1.07 -0.78)"/><path d="M182.76,57.58c-7.74-3.67-7-10.87-5.5-17.92C182.36,44.7,186.77,50.61,182.76,57.58Z" transform="translate(-1.07 -0.78)"/><path d="M184,60c.89-8.51,7.94-10.19,15.08-11.13C196.06,55.31,191.94,61.43,184,60Z" transform="translate(-1.07 -0.78)"/><path d="M186,43.62c-8.36-1.84-9.23-9-9.36-16.24C182.74,31.16,188.36,35.94,186,43.62Z" transform="translate(-1.07 -0.78)"/><path d="M187.64,49.9c-2.42-8.21,3.46-12.44,9.7-16C197,41,195.51,48.25,187.64,49.9Z" transform="translate(-1.07 -0.78)"/><path d="M182.72,27.5c-8.55.43-11.29-6.27-13.32-13.19,6.88,2,13.56,5.16,13.32,13.19Z" transform="translate(-1.07 -0.78)"/><path d="M188.22,36.71c-5.13-6.84-1.11-12.87,3.48-18.42C193.86,25.13,195,32.41,188.22,36.71Z" transform="translate(-1.07 -0.78)"/><path d="M179,15.32c-8.54-.49-10.55-7.45-11.82-14.54C173.77,3.54,180.08,7.36,179,15.32Z" transform="translate(-1.07 -0.78)"/><path d="M184.43,22.71C178,17.05,180.73,10.33,184.1,4,187.61,10.22,190.21,17.12,184.43,22.71Z" transform="translate(-1.07 -0.78)"/><path d="M62.13,93.67c-7.05-4.86-12.9-.59-18.26,4.22C50.79,99.77,58.12,100.63,62.13,93.67Z" transform="translate(-1.07 -0.78)"/><path d="M60.44,89.49c-.31-8.55-7.23-10.7-14.29-12.13C48.77,84,52.46,90.42,60.44,89.49Z" transform="translate(-1.07 -0.78)"/><path d="M49.56,89.81C43,84.38,36.76,88.13,31,92.48,37.75,94.94,45,96.41,49.56,89.81Z" transform="translate(-1.07 -0.78)"/><path d="M43.43,85.76c4.12-7.5-.71-12.9-6-17.75C36.21,75.09,36.1,82.46,43.43,85.76Z" transform="translate(-1.07 -0.78)"/><path d="M38.08,85.59c-4.87-7-11.85-5.13-18.57-2.53C25.31,87.27,31.85,90.67,38.08,85.59Z" transform="translate(-1.07 -0.78)"/><path d="M31.21,79.31c6.29-5.8,3.43-12.45-.08-18.74C27.76,66.9,25.31,73.85,31.21,79.31Z" transform="translate(-1.07 -0.78)"/><path d="M27.86,78.6c-3.44-7.84-10.66-7.29-17.75-6C15,77.82,20.78,82.41,27.86,78.6Z" transform="translate(-1.07 -0.78)"/><path d="M22.12,71c7.27-4.53,5.69-11.6,3.41-18.44C21.05,58.19,17.34,64.57,22.12,71Z" transform="translate(-1.07 -0.78)"/><path d="M19.59,70C17.7,61.62,10.5,60.79,3.3,60.7,7.11,66.77,11.92,72.36,19.59,70Z" transform="translate(-1.07 -0.78)"/><path d="M17.43,57.7c7.74-3.67,7-10.87,5.49-17.92C17.83,44.82,13.42,50.74,17.43,57.7Z" transform="translate(-1.07 -0.78)"/><path d="M16.14,60.09C15.26,51.57,8.21,49.89,1.07,49,4.13,55.43,8.24,61.56,16.14,60.09Z" transform="translate(-1.07 -0.78)"/><path d="M14.18,43.75c8.36-1.85,9.23-9,9.36-16.24C17.45,31.29,11.83,36.06,14.18,43.75Z" transform="translate(-1.07 -0.78)"/><path d="M12.55,50C15,41.82,9.09,37.58,2.85,34,3.21,41.15,4.68,48.38,12.55,50Z" transform="translate(-1.07 -0.78)"/><path d="M17.47,27.62c8.55.43,11.29-6.27,13.32-13.19-6.88,2-13.56,5.16-13.32,13.19Z" transform="translate(-1.07 -0.78)"/><path d="M12,36.83C17.1,30,13.08,24,8.49,18.42,6.33,25.25,5.18,32.54,12,36.83Z" transform="translate(-1.07 -0.78)"/><path d="M21.21,15.44C29.75,15,31.76,8,33,.9,26.42,3.66,20.11,7.48,21.21,15.44Z" transform="translate(-1.07 -0.78)"/><path d="M15.76,22.83c6.42-5.66,3.7-12.37.33-18.74C12.58,10.34,10,17.24,15.76,22.83Z" transform="translate(-1.07 -0.78)"/><path d="M50.21,20.83a5.46,5.46,0,0,1,1.34-3.91A4.54,4.54,0,0,1,55,15.51a4.81,4.81,0,0,1,2.5.66A4.35,4.35,0,0,1,59.21,18a6,6,0,0,1,.58,2.69,5.93,5.93,0,0,1-.61,2.73,4.16,4.16,0,0,1-1.75,1.82,5,5,0,0,1-2.43.62,4.71,4.71,0,0,1-2.53-.69,4.41,4.41,0,0,1-1.69-1.86A5.72,5.72,0,0,1,50.21,20.83Zm1.37,0a4,4,0,0,0,1,2.85,3.41,3.41,0,0,0,4.91,0,4.28,4.28,0,0,0,1-3A5,5,0,0,0,58,18.57a3.18,3.18,0,0,0-1.21-1.42,3.33,3.33,0,0,0-1.79-.5,3.38,3.38,0,0,0-2.42,1A4.3,4.3,0,0,0,51.58,20.85Z" transform="translate(-1.07 -0.78)"/><path d="M61.64,25.71V19.4H60.55v-.95h1.09v-.78a3.24,3.24,0,0,1,.13-1.08,1.63,1.63,0,0,1,.62-.78,2.26,2.26,0,0,1,1.26-.3,5.55,5.55,0,0,1,1.15.13l-.19,1.07a3.65,3.65,0,0,0-.72-.07,1.09,1.09,0,0,0-.8.24,1.34,1.34,0,0,0-.23.9v.67h1.42v.95H62.86v6.31Z" transform="translate(-1.07 -0.78)"/><path d="M65.27,25.71V19.4H64.19v-.95h1.08v-.78a3.53,3.53,0,0,1,.13-1.08,1.6,1.6,0,0,1,.63-.78,2.24,2.24,0,0,1,1.25-.3,5.47,5.47,0,0,1,1.15.13l-.18,1.07a3.83,3.83,0,0,0-.73-.07,1.08,1.08,0,0,0-.79.24,1.34,1.34,0,0,0-.23.9v.67h1.41v.95H66.5v6.31Z" transform="translate(-1.07 -0.78)"/><path d="M68.88,17.1V15.68h1.23V17.1Zm0,8.61V18.45h1.23v7.26Z" transform="translate(-1.07 -0.78)"/><path d="M76.72,23.05l1.21.15a3.09,3.09,0,0,1-1,2,3,3,0,0,1-2,.71,3.11,3.11,0,0,1-2.4-1,4,4,0,0,1-.91-2.8A5,5,0,0,1,72,20.05a2.76,2.76,0,0,1,1.19-1.33,3.56,3.56,0,0,1,1.73-.44,3,3,0,0,1,1.94.6,2.76,2.76,0,0,1,1,1.7l-1.19.18a2.07,2.07,0,0,0-.61-1.1A1.6,1.6,0,0,0,75,19.29a1.93,1.93,0,0,0-1.51.67,3.15,3.15,0,0,0-.58,2.11,3.33,3.33,0,0,0,.56,2.13,1.82,1.82,0,0,0,1.46.66,1.69,1.69,0,0,0,1.21-.45A2.17,2.17,0,0,0,76.72,23.05Z" transform="translate(-1.07 -0.78)"/><path d="M79,17.1V15.68h1.23V17.1Zm0,8.61V18.45h1.23v7.26Z" transform="translate(-1.07 -0.78)"/><path d="M86.83,24.81a4.63,4.63,0,0,1-1.32.82,3.76,3.76,0,0,1-1.35.24,2.64,2.64,0,0,1-1.84-.58,1.94,1.94,0,0,1-.65-1.5,2,2,0,0,1,.25-1,2,2,0,0,1,.63-.71,2.88,2.88,0,0,1,.89-.4,7.53,7.53,0,0,1,1.09-.19,11.73,11.73,0,0,0,2.2-.42v-.32a1.33,1.33,0,0,0-.35-1.06A2,2,0,0,0,85,19.3a2.2,2.2,0,0,0-1.28.3,1.93,1.93,0,0,0-.61,1.08l-1.2-.16a3,3,0,0,1,.54-1.25,2.33,2.33,0,0,1,1.08-.73,4.93,4.93,0,0,1,1.65-.26,4.27,4.27,0,0,1,1.51.22,2.1,2.1,0,0,1,.86.55,1.92,1.92,0,0,1,.38.84A7.09,7.09,0,0,1,88,21v1.64a17.7,17.7,0,0,0,.08,2.17,2.8,2.8,0,0,0,.31.88H87.07A3,3,0,0,1,86.83,24.81Zm-.1-2.75a9.35,9.35,0,0,1-2,.47,4.66,4.66,0,0,0-1.08.24,1.06,1.06,0,0,0-.48.4,1,1,0,0,0-.17.59,1,1,0,0,0,.37.82,1.6,1.6,0,0,0,1.09.33,2.58,2.58,0,0,0,1.26-.31,2,2,0,0,0,.82-.86,3,3,0,0,0,.2-1.23Z" transform="translate(-1.07 -0.78)"/><path d="M89.85,25.71v-10h1.23v10Z" transform="translate(-1.07 -0.78)"/><path d="M96.58,22.49l1.25-.11a2.71,2.71,0,0,0,.42,1.23,2.23,2.23,0,0,0,1,.78,3.73,3.73,0,0,0,1.53.3,3.65,3.65,0,0,0,1.34-.23,1.81,1.81,0,0,0,.87-.62,1.4,1.4,0,0,0,.28-.85,1.33,1.33,0,0,0-.27-.83,2,2,0,0,0-.9-.59c-.27-.1-.87-.27-1.79-.49a9.46,9.46,0,0,1-1.93-.62,2.69,2.69,0,0,1-1.07-.94A2.21,2.21,0,0,1,97,18.28a2.52,2.52,0,0,1,.43-1.42,2.57,2.57,0,0,1,1.25-1,4.79,4.79,0,0,1,1.84-.35,5,5,0,0,1,2,.36,2.83,2.83,0,0,1,1.31,1.06,3,3,0,0,1,.49,1.58L103,18.6a2,2,0,0,0-.7-1.43,2.64,2.64,0,0,0-1.74-.49,2.86,2.86,0,0,0-1.76.44,1.36,1.36,0,0,0-.55,1.07,1.15,1.15,0,0,0,.39.89,5.38,5.38,0,0,0,2,.71,13,13,0,0,1,2.22.64,3,3,0,0,1,1.29,1,2.48,2.48,0,0,1,.42,1.43,2.67,2.67,0,0,1-.46,1.5,3,3,0,0,1-1.31,1.1,4.47,4.47,0,0,1-1.93.4,5.82,5.82,0,0,1-2.28-.4,3.16,3.16,0,0,1-1.45-1.19A3.47,3.47,0,0,1,96.58,22.49Z" transform="translate(-1.07 -0.78)"/><path d="M111.19,23.37l1.27.16a3.1,3.1,0,0,1-1.12,1.72,3.28,3.28,0,0,1-2.08.62,3.32,3.32,0,0,1-2.52-1,3.83,3.83,0,0,1-.93-2.75,4,4,0,0,1,.94-2.85,3.2,3.2,0,0,1,2.45-1,3.12,3.12,0,0,1,2.38,1,4,4,0,0,1,.92,2.79c0,.08,0,.18,0,.33h-5.41a2.77,2.77,0,0,0,.67,1.83,2,2,0,0,0,1.52.64,1.88,1.88,0,0,0,1.16-.36A2.32,2.32,0,0,0,111.19,23.37Zm-4-2h4a2.5,2.5,0,0,0-.47-1.38,1.89,1.89,0,0,0-1.52-.71,2,2,0,0,0-1.43.57A2.27,2.27,0,0,0,107.15,21.38Z" transform="translate(-1.07 -0.78)"/><path d="M114,25.71v-10h1.24v10Z" transform="translate(-1.07 -0.78)"/><path d="M122.08,23.37l1.27.16a3.09,3.09,0,0,1-1.11,1.72,3.3,3.3,0,0,1-2.08.62,3.36,3.36,0,0,1-2.53-1,3.83,3.83,0,0,1-.93-2.75,4,4,0,0,1,1-2.85,3.18,3.18,0,0,1,2.44-1,3.1,3.1,0,0,1,2.38,1,3.91,3.91,0,0,1,.92,2.79v.33H118a2.77,2.77,0,0,0,.68,1.83,2,2,0,0,0,1.52.64,1.86,1.86,0,0,0,1.15-.36A2.32,2.32,0,0,0,122.08,23.37Zm-4-2h4.06a2.5,2.5,0,0,0-.47-1.38,1.89,1.89,0,0,0-1.52-.71,2,2,0,0,0-1.43.57A2.28,2.28,0,0,0,118,21.38Z" transform="translate(-1.07 -0.78)"/><path d="M129.64,23.05l1.21.15a3.14,3.14,0,0,1-1,2,3,3,0,0,1-2,.71,3.1,3.1,0,0,1-2.39-1,3.93,3.93,0,0,1-.91-2.8,5,5,0,0,1,.39-2.05,2.76,2.76,0,0,1,1.19-1.33,3.56,3.56,0,0,1,1.73-.44,3,3,0,0,1,1.94.6,2.76,2.76,0,0,1,1,1.7l-1.2.18a2,2,0,0,0-.6-1.1,1.6,1.6,0,0,0-1.05-.37,1.91,1.91,0,0,0-1.51.67,3.15,3.15,0,0,0-.58,2.11,3.27,3.27,0,0,0,.56,2.13,1.82,1.82,0,0,0,1.46.66,1.71,1.71,0,0,0,1.21-.45A2.22,2.22,0,0,0,129.64,23.05Z" transform="translate(-1.07 -0.78)"/><path d="M134.58,24.61l.18,1.08a4,4,0,0,1-.93.11,2.15,2.15,0,0,1-1-.21,1.22,1.22,0,0,1-.52-.56,4.39,4.39,0,0,1-.15-1.45V19.4h-.9v-.95h.9v-1.8l1.23-.74v2.54h1.23v.95h-1.23v4.25a2.34,2.34,0,0,0,.06.68.52.52,0,0,0,.21.23.82.82,0,0,0,.42.09A4,4,0,0,0,134.58,24.61Z" transform="translate(-1.07 -0.78)"/><path d="M135.79,17.1V15.68H137V17.1Zm0,8.61V18.45H137v7.26Z" transform="translate(-1.07 -0.78)"/><path d="M138.44,22.08a3.74,3.74,0,0,1,1.12-3,3.39,3.39,0,0,1,2.28-.81,3.27,3.27,0,0,1,2.45,1,3.76,3.76,0,0,1,1,2.71,4.83,4.83,0,0,1-.42,2.21,3.06,3.06,0,0,1-1.22,1.25,3.65,3.65,0,0,1-1.76.44,3.28,3.28,0,0,1-2.46-1A3.88,3.88,0,0,1,138.44,22.08Zm1.27,0a3.09,3.09,0,0,0,.6,2.08,2,2,0,0,0,3.06,0A3.17,3.17,0,0,0,144,22a3.08,3.08,0,0,0-.61-2.05,2,2,0,0,0-3.06,0A3.12,3.12,0,0,0,139.71,22.08Z" transform="translate(-1.07 -0.78)"/><path d="M146.68,25.71V18.45h1.11v1a2.61,2.61,0,0,1,2.31-1.2,3,3,0,0,1,1.21.24,1.84,1.84,0,0,1,.82.62,2.44,2.44,0,0,1,.39.91,7.84,7.84,0,0,1,.06,1.19v4.47h-1.23V21.29a3.17,3.17,0,0,0-.14-1.12,1.24,1.24,0,0,0-.51-.6,1.6,1.6,0,0,0-.86-.22,2,2,0,0,0-1.35.5,2.45,2.45,0,0,0-.57,1.89v4Z" transform="translate(-1.07 -0.78)"/><path d="M34.09,52.93l7.15-18.61h2.65l7.62,18.61H48.7l-2.17-5.64H38.75l-2,5.64Zm5.37-7.65h6.31l-1.94-5.15c-.59-1.57-1-2.85-1.32-3.86a23.43,23.43,0,0,1-1,3.56Z" transform="translate(-1.07 -0.78)"/><path d="M53.45,52.93V34.32H56l9.77,14.61V34.32h2.36V52.93H65.59L55.81,38.3V52.93Z" transform="translate(-1.07 -0.78)"/><path d="M71.5,43.86A10.08,10.08,0,0,1,74,36.61,8.46,8.46,0,0,1,80.42,34a8.92,8.92,0,0,1,4.64,1.23,8.07,8.07,0,0,1,3.16,3.43,11.2,11.2,0,0,1,1.08,5,11,11,0,0,1-1.14,5.06,7.81,7.81,0,0,1-3.24,3.39,9.28,9.28,0,0,1-4.52,1.14A8.75,8.75,0,0,1,75.71,52a8.14,8.14,0,0,1-3.14-3.46A10.53,10.53,0,0,1,71.5,43.86Zm2.54,0a7.49,7.49,0,0,0,1.81,5.3,6.31,6.31,0,0,0,9.12,0,7.88,7.88,0,0,0,1.79-5.55,9.55,9.55,0,0,0-.76-4A6,6,0,0,0,83.75,37a6.11,6.11,0,0,0-3.32-.93,6.29,6.29,0,0,0-4.5,1.79Q74,39.7,74,43.9Z" transform="translate(-1.07 -0.78)"/><path d="M92.45,52.93V34.32H95l9.77,14.61V34.32h2.36V52.93h-2.52L94.81,38.3V52.93Z" transform="translate(-1.07 -0.78)"/><path d="M111.67,52.93V34.32h2.46V52.93Z" transform="translate(-1.07 -0.78)"/><path d="M118.4,52.93V34.32h3.71l4.4,13.17c.41,1.23.7,2.15.89,2.76.21-.68.54-1.67,1-3l4.46-12.94h3.31V52.93h-2.37V37.35l-5.41,15.58h-2.22l-5.39-15.85V52.93Z" transform="translate(-1.07 -0.78)"/><path d="M145.45,52.93l-7.21-18.61h2.67l4.84,13.52c.38,1.08.71,2.1,1,3,.29-1,.63-2,1-3l5-13.52h2.52L148,52.93Z" transform="translate(-1.07 -0.78)"/><path d="M157.38,52.93V34.32h2.46V50.73H169v2.2Z" transform="translate(-1.07 -0.78)"/><path d="M63.41,68.7v-10h6.76v1.18H64.73V63h4.71v1.19H64.73V68.7Z" transform="translate(-1.07 -0.78)"/><path d="M71.74,60.09V58.68H73v1.41Zm0,8.61V61.44H73V68.7Z" transform="translate(-1.07 -0.78)"/><path d="M74.82,68.7v-10h1.23v10Z" transform="translate(-1.07 -0.78)"/><path d="M78,68.7V61.44h1.1v1A2.51,2.51,0,0,1,80,61.6a2.47,2.47,0,0,1,1.29-.32,2.41,2.41,0,0,1,1.32.33,1.81,1.81,0,0,1,.73.94,2.59,2.59,0,0,1,2.24-1.27,2.2,2.2,0,0,1,1.66.59,2.57,2.57,0,0,1,.58,1.85v5H86.57V64.13a3.39,3.39,0,0,0-.12-1.07,1.08,1.08,0,0,0-.43-.52,1.39,1.39,0,0,0-.74-.2,1.7,1.7,0,0,0-1.27.51,2.23,2.23,0,0,0-.51,1.63V68.7H82.27V64a2.11,2.11,0,0,0-.3-1.23,1.15,1.15,0,0,0-1-.41,1.76,1.76,0,0,0-1,.28,1.57,1.57,0,0,0-.64.8,4.54,4.54,0,0,0-.19,1.51V68.7Z" transform="translate(-1.07 -0.78)"/><path d="M93.73,68.7v-10h6.76v1.18H95.06V63h4.7v1.19h-4.7V68.7Z" transform="translate(-1.07 -0.78)"/><path d="M107,66.36l1.27.16a3.12,3.12,0,0,1-1.11,1.73,3.38,3.38,0,0,1-2.08.61,3.31,3.31,0,0,1-2.53-1,3.83,3.83,0,0,1-.93-2.75,4,4,0,0,1,.94-2.84,3.18,3.18,0,0,1,2.45-1,3.12,3.12,0,0,1,2.38,1,4,4,0,0,1,.92,2.79c0,.07,0,.18,0,.32h-5.41a2.82,2.82,0,0,0,.68,1.84,2,2,0,0,0,1.52.63,1.91,1.91,0,0,0,1.15-.35A2.41,2.41,0,0,0,107,66.36Zm-4-2H107a2.44,2.44,0,0,0-.46-1.37,1.87,1.87,0,0,0-1.53-.71,2,2,0,0,0-1.42.56A2.24,2.24,0,0,0,103,64.37Z" transform="translate(-1.07 -0.78)"/><path d="M109.35,66.53l1.22-.19a1.71,1.71,0,0,0,.57,1.12,2,2,0,0,0,1.31.39,2,2,0,0,0,1.26-.34,1,1,0,0,0,.41-.81.75.75,0,0,0-.36-.66,5.38,5.38,0,0,0-1.26-.42,10.62,10.62,0,0,1-1.88-.59,1.79,1.79,0,0,1-.79-.69,1.91,1.91,0,0,1,0-1.87,1.93,1.93,0,0,1,.61-.69,2.58,2.58,0,0,1,.78-.36,3.62,3.62,0,0,1,1.06-.14,4.29,4.29,0,0,1,1.5.24,2.14,2.14,0,0,1,1,.67,2.68,2.68,0,0,1,.42,1.12l-1.2.17a1.35,1.35,0,0,0-.48-.88,1.73,1.73,0,0,0-1.11-.31,2,2,0,0,0-1.21.28.8.8,0,0,0-.36.65.66.66,0,0,0,.15.43,1,1,0,0,0,.47.33c.12.05.49.15,1.09.32a14.71,14.71,0,0,1,1.82.57,1.92,1.92,0,0,1,.81.64,1.89,1.89,0,0,1,.29,1.06,2,2,0,0,1-.36,1.15,2.29,2.29,0,0,1-1,.85,3.9,3.9,0,0,1-1.53.29,3.41,3.41,0,0,1-2.16-.58A2.81,2.81,0,0,1,109.35,66.53Z" transform="translate(-1.07 -0.78)"/><path d="M119.53,67.6l.18,1.09a4.77,4.77,0,0,1-.93.1,2.13,2.13,0,0,1-1-.21,1.2,1.2,0,0,1-.52-.55,4.46,4.46,0,0,1-.15-1.46V62.4h-.9v-1h.9v-1.8l1.22-.74v2.54h1.24v1h-1.24v4.24a2.22,2.22,0,0,0,.07.68.49.49,0,0,0,.21.24.82.82,0,0,0,.42.09A4.31,4.31,0,0,0,119.53,67.6Z" transform="translate(-1.07 -0.78)"/><path d="M120.74,60.09V58.68H122v1.41Zm0,8.61V61.44H122V68.7Z" transform="translate(-1.07 -0.78)"/><path d="M125.86,68.7l-2.76-7.26h1.3L126,65.79c.17.47.32.95.46,1.46.11-.38.26-.84.46-1.38l1.61-4.43h1.27L127,68.7Z" transform="translate(-1.07 -0.78)"/><path d="M135.58,67.8a4.46,4.46,0,0,1-1.31.82,3.81,3.81,0,0,1-1.36.24,2.64,2.64,0,0,1-1.84-.58,1.92,1.92,0,0,1-.64-1.49,2,2,0,0,1,.24-1,2,2,0,0,1,.64-.71,3.08,3.08,0,0,1,.88-.4,10,10,0,0,1,1.1-.18,10.84,10.84,0,0,0,2.19-.43c0-.17,0-.27,0-.32a1.38,1.38,0,0,0-.35-1.06,2.05,2.05,0,0,0-1.4-.42,2.17,2.17,0,0,0-1.28.31,1.87,1.87,0,0,0-.62,1.07l-1.2-.16a3.06,3.06,0,0,1,.54-1.25,2.38,2.38,0,0,1,1.09-.73,4.85,4.85,0,0,1,1.65-.25,4.57,4.57,0,0,1,1.51.21,2.05,2.05,0,0,1,.85.55,2,2,0,0,1,.38.84,7.16,7.16,0,0,1,.06,1.14v1.64a17.94,17.94,0,0,0,.08,2.17,3.12,3.12,0,0,0,.31.87h-1.28A2.64,2.64,0,0,1,135.58,67.8Zm-.1-2.74a9.45,9.45,0,0,1-2,.46,4.43,4.43,0,0,0-1.07.25,1.08,1.08,0,0,0-.49.4,1.09,1.09,0,0,0,.2,1.4,1.61,1.61,0,0,0,1.09.33,2.52,2.52,0,0,0,1.27-.31,1.9,1.9,0,0,0,.81-.85,3,3,0,0,0,.2-1.23Z" transform="translate(-1.07 -0.78)"/><path d="M138.6,68.7v-10h1.23v10Z" transform="translate(-1.07 -0.78)"/><path d="M93,83.93v1.19H86.39a2.25,2.25,0,0,1,.14-.86,4.62,4.62,0,0,1,.81-1.33A12.93,12.93,0,0,1,89,81.41a13.48,13.48,0,0,0,2.21-2.12,2.51,2.51,0,0,0,.58-1.48,1.66,1.66,0,0,0-.53-1.24,1.88,1.88,0,0,0-1.36-.5,1.93,1.93,0,0,0-1.42.53,2,2,0,0,0-.54,1.48L86.62,78a3.18,3.18,0,0,1,1-2.16,3.36,3.36,0,0,1,2.28-.74,3.18,3.18,0,0,1,2.28.8,2.65,2.65,0,0,1,.84,2A3.08,3.08,0,0,1,92.76,79a4.74,4.74,0,0,1-.82,1.22A18.25,18.25,0,0,1,90,82c-.74.63-1.21,1-1.42,1.27a4.28,4.28,0,0,0-.52.66Z" transform="translate(-1.07 -0.78)"/><path d="M94.33,80.17a9.28,9.28,0,0,1,.37-2.86,3.54,3.54,0,0,1,1.09-1.67,2.77,2.77,0,0,1,1.81-.59,3,3,0,0,1,1.42.33,2.69,2.69,0,0,1,1,.93,5,5,0,0,1,.62,1.49,10,10,0,0,1,.23,2.37,9.24,9.24,0,0,1-.36,2.85,3.62,3.62,0,0,1-1.09,1.68,2.78,2.78,0,0,1-1.82.59,2.75,2.75,0,0,1-2.27-1A6.64,6.64,0,0,1,94.33,80.17Zm1.27,0a6.25,6.25,0,0,0,.58,3.29,1.65,1.65,0,0,0,2.85,0,6.34,6.34,0,0,0,.57-3.28A6.38,6.38,0,0,0,99,76.88a1.73,1.73,0,0,0-1.44-.81,1.58,1.58,0,0,0-1.36.72A6.4,6.4,0,0,0,95.6,80.17Z" transform="translate(-1.07 -0.78)"/><path d="M106.76,85.12h-1.23V77.27a6.11,6.11,0,0,1-1.17.85,8.12,8.12,0,0,1-1.3.64V77.57a7.44,7.44,0,0,0,1.81-1.18A4.52,4.52,0,0,0,106,75.05h.8Z" transform="translate(-1.07 -0.78)"/><path d="M113.85,85.12v-2.4H109.5V81.59l4.58-6.5h1v6.5h1.35v1.13h-1.35v2.4Zm0-3.53V77.07l-3.14,4.52Z" transform="translate(-1.07 -0.78)"/></svg>